<svg width="540" height="488" viewBox="0 0 540 488" fill="none" xmlns="http://www.w3.org/2000/svg">
<g clip-path="url(#clip0_11_688)">
<rect width="540" height="488" fill="#CEE3FE"/>
<path d="M104 108.5C104 106.291 105.791 104.5 108 104.5H671.965V515.473H104V108.5Z" fill="white"/>
<path d="M139.909 174.695V157.71H143.073V172.197H151.827V174.695H139.909ZM165.771 168.653C165.771 172.578 163.226 174.98 159.657 174.98C156.089 174.98 153.544 172.578 153.544 168.653C153.544 164.751 156.089 162.325 159.657 162.325C163.226 162.325 165.771 164.751 165.771 168.653ZM156.589 168.653C156.589 171.198 157.683 172.72 159.657 172.72C161.608 172.72 162.726 171.198 162.726 168.653C162.726 166.131 161.608 164.585 159.657 164.585C157.683 164.585 156.589 166.131 156.589 168.653ZM175.871 174.695C175.752 174.029 175.705 173.386 175.705 172.792C175.134 174.171 173.611 174.956 171.685 174.956C169.33 174.956 167.617 173.648 167.617 171.46C167.617 169.033 169.52 168.034 171.97 167.749L175.586 167.344V166.773C175.586 165.299 174.682 164.585 173.302 164.585C171.97 164.585 171.161 165.322 171.066 166.44H168.14C168.402 163.848 170.424 162.325 173.397 162.325C176.68 162.325 178.559 163.871 178.559 167.011V171.674C178.559 172.792 178.607 173.719 178.797 174.695H175.871ZM172.517 172.839C174.087 172.839 175.586 171.912 175.586 170.009V169.271L172.898 169.58C171.613 169.747 170.638 170.032 170.638 171.293C170.638 172.245 171.304 172.839 172.517 172.839ZM185.011 162.611V164.656C185.582 163.277 186.985 162.325 188.817 162.325C191.576 162.325 193.241 164.038 193.241 166.94V174.695H190.197V167.654C190.197 165.727 189.364 164.728 187.77 164.728C186.248 164.728 185.058 165.703 185.058 168.129V174.695H182.014V162.611H185.011ZM195.693 171.031H198.595C198.738 172.292 199.999 172.863 201.307 172.863C202.592 172.863 203.591 172.34 203.591 171.364C203.591 170.603 203.067 170.246 201.735 170.009L199.594 169.628C197.596 169.271 196.121 168.343 196.121 166.179C196.121 163.895 198.215 162.325 201.022 162.325C204.162 162.325 205.946 163.705 206.207 166.036H203.424C203.305 165.085 202.378 164.466 201.045 164.466C199.761 164.466 198.928 165.037 198.928 165.869C198.928 166.702 199.547 167.011 200.784 167.225L203.139 167.63C205.256 167.987 206.445 169.152 206.445 171.15C206.445 173.458 204.233 174.98 201.355 174.98C198.215 174.98 195.955 173.672 195.693 171.031Z" fill="#181B25"/>
<path d="M162.902 253.915C162.902 258.795 158.702 262.075 152.982 262.435V266.435H150.062V262.395C144.302 261.875 139.982 258.915 139.542 253.475H144.422C144.702 256.595 147.142 258.115 150.062 258.515V249.675L147.982 249.315C143.822 248.555 140.422 246.595 140.422 241.595C140.422 236.795 144.422 233.435 150.062 233.115V229.315H152.982V233.155C158.542 233.715 161.862 236.595 162.382 241.315H157.582C157.302 238.955 155.662 237.595 152.982 237.155V245.675L155.542 246.155C160.142 247.035 162.902 249.355 162.902 253.915ZM149.702 245.035L150.062 245.115V237.075C146.982 237.355 145.222 238.995 145.222 241.275C145.222 243.635 146.582 244.435 149.702 245.035ZM153.462 250.315L152.982 250.235V258.595C156.182 258.275 158.102 256.755 158.102 254.275C158.102 252.195 156.982 250.955 153.462 250.315ZM165.339 241.235V237.715C170.219 237.715 172.139 236.395 172.819 233.435H176.459V262.075H171.179V241.235H165.339ZM192.39 246.835C189.87 246.835 188.19 248.075 187.31 249.475H182.55L184.19 233.515H201.31V237.715H187.99L187.23 245.155C188.31 243.955 190.55 242.835 193.23 242.835C199.15 242.835 202.95 247.075 202.95 252.675C202.95 258.195 198.99 262.555 192.39 262.555C185.95 262.555 181.83 258.915 181.39 253.395H186.67C186.91 256.395 189.03 258.555 192.39 258.555C196.07 258.555 197.87 255.835 197.87 252.715C197.87 249.555 196.11 246.835 192.39 246.835ZM206.578 261.915V256.115H212.538V262.475C212.538 266.475 209.938 268.755 205.698 268.755V265.995C207.858 265.995 209.298 265.235 209.298 262.475V261.915H206.578ZM215.586 247.795C215.586 239.235 220.306 233.035 227.746 233.035C235.186 233.035 239.866 239.235 239.866 247.795C239.866 256.355 235.186 262.555 227.746 262.555C220.306 262.555 215.586 256.355 215.586 247.795ZM220.946 247.795C220.946 254.275 223.186 258.395 227.746 258.395C232.266 258.395 234.506 254.275 234.506 247.795C234.506 241.315 232.266 237.195 227.746 237.195C223.186 237.195 220.946 241.315 220.946 247.795ZM242.955 247.795C242.955 239.235 247.675 233.035 255.115 233.035C262.555 233.035 267.235 239.235 267.235 247.795C267.235 256.355 262.555 262.555 255.115 262.555C247.675 262.555 242.955 256.355 242.955 247.795ZM248.315 247.795C248.315 254.275 250.555 258.395 255.115 258.395C259.635 258.395 261.875 254.275 261.875 247.795C261.875 241.315 259.635 237.195 255.115 237.195C250.555 237.195 248.315 241.315 248.315 247.795ZM270.324 247.795C270.324 239.235 275.044 233.035 282.484 233.035C289.924 233.035 294.604 239.235 294.604 247.795C294.604 256.355 289.924 262.555 282.484 262.555C275.044 262.555 270.324 256.355 270.324 247.795ZM275.684 247.795C275.684 254.275 277.924 258.395 282.484 258.395C287.004 258.395 289.244 254.275 289.244 247.795C289.244 241.315 287.004 237.195 282.484 237.195C277.924 237.195 275.684 241.315 275.684 247.795ZM297.655 262.075V256.115H303.615V262.075H297.655ZM306.663 247.795C306.663 239.235 311.383 233.035 318.823 233.035C326.263 233.035 330.943 239.235 330.943 247.795C330.943 256.355 326.263 262.555 318.823 262.555C311.383 262.555 306.663 256.355 306.663 247.795ZM312.023 247.795C312.023 254.275 314.263 258.395 318.823 258.395C323.343 258.395 325.583 254.275 325.583 247.795C325.583 241.315 323.343 237.195 318.823 237.195C314.263 237.195 312.023 241.315 312.023 247.795ZM334.032 247.795C334.032 239.235 338.752 233.035 346.192 233.035C353.632 233.035 358.312 239.235 358.312 247.795C358.312 256.355 353.632 262.555 346.192 262.555C338.752 262.555 334.032 256.355 334.032 247.795ZM339.392 247.795C339.392 254.275 341.632 258.395 346.192 258.395C350.712 258.395 352.952 254.275 352.952 247.795C352.952 241.315 350.712 237.195 346.192 237.195C341.632 237.195 339.392 241.315 339.392 247.795Z" fill="#181B25"/>
<path d="M151.982 323.075H139.982C138.877 323.075 137.982 323.97 137.982 325.075V337.075C137.982 338.18 138.877 339.075 139.982 339.075H151.982C153.087 339.075 153.982 338.18 153.982 337.075V325.075C153.982 323.97 153.087 323.075 151.982 323.075Z" fill="#021732"/>
<path d="M176.195 340.075V323.091H178.24V338.362H187.375V340.075H176.195ZM190.612 325.612V323.21H192.848V325.612H190.612ZM190.755 340.075V328.11H192.729V340.075H190.755ZM198.741 328.11V330.298C199.312 328.824 200.811 327.825 202.643 327.825C205.331 327.825 206.924 329.513 206.924 332.368V340.075H204.95V332.796C204.95 330.584 203.975 329.442 202.095 329.442C200.264 329.442 198.813 330.608 198.813 333.486V340.075H196.838V328.11H198.741ZM220.737 336.555C220.19 339.1 218.121 340.361 215.79 340.361C212.412 340.361 210.033 338.006 210.033 334.152C210.033 330.251 212.483 327.825 215.671 327.825C219.215 327.825 220.809 330.655 220.809 333.724V334.509H211.96C212.055 337.268 213.506 338.791 215.79 338.791C217.407 338.791 218.382 338.006 218.882 336.555H220.737ZM215.671 329.418C213.791 329.418 212.364 330.632 212.031 333.082H218.882C218.834 331.012 217.811 329.418 215.671 329.418ZM239.564 334.105C239.564 337.958 237.185 340.361 233.879 340.361C230.572 340.361 228.193 337.958 228.193 334.105C228.193 330.251 230.572 327.825 233.879 327.825C237.185 327.825 239.564 330.251 239.564 334.105ZM230.144 334.105C230.144 336.983 231.547 338.767 233.879 338.767C236.21 338.767 237.613 336.983 237.613 334.105C237.613 331.226 236.21 329.418 233.879 329.418C231.547 329.418 230.144 331.226 230.144 334.105ZM243.109 329.609H241.372V328.11H243.109V325.874C243.109 323.638 244.536 322.496 246.582 322.496C247.01 322.496 247.557 322.544 247.914 322.615V324.185C247.605 324.137 247.129 324.114 246.701 324.114C245.844 324.114 245.059 324.542 245.059 325.898V328.11H247.628V329.609H245.059V340.075H243.109V329.609ZM256.272 331.559C256.272 335.793 258.294 338.624 261.79 338.624C264.645 338.624 265.882 337.03 266.262 335.127H268.261C267.713 338.22 265.501 340.361 261.79 340.361C257.413 340.361 254.178 336.911 254.178 331.559C254.178 326.231 257.413 322.805 261.79 322.805C265.501 322.805 267.713 324.946 268.261 328.039H266.262C265.882 326.136 264.645 324.542 261.79 324.542C258.294 324.542 256.272 327.325 256.272 331.559ZM277.931 327.944V329.751C277.646 329.68 277.218 329.656 276.908 329.656C275.005 329.656 273.269 331.155 273.269 334.176V340.075H271.295V328.11H273.198V330.941C273.721 328.966 275.243 327.848 277.004 327.848C277.313 327.848 277.646 327.872 277.931 327.944ZM289.92 336.555C289.373 339.1 287.304 340.361 284.972 340.361C281.595 340.361 279.216 338.006 279.216 334.152C279.216 330.251 281.666 327.825 284.854 327.825C288.398 327.825 289.992 330.655 289.992 333.724V334.509H281.143C281.238 337.268 282.689 338.791 284.972 338.791C286.59 338.791 287.565 338.006 288.065 336.555H289.92ZM284.854 329.418C282.974 329.418 281.547 330.632 281.214 333.082H288.065C288.017 331.012 286.994 329.418 284.854 329.418ZM301.734 340.075V337.982C301.139 339.195 299.664 340.361 297.69 340.361C294.645 340.361 292.361 337.887 292.361 334.105C292.361 330.298 294.645 327.825 297.69 327.825C299.759 327.825 301.115 329.014 301.662 330.227V322.568H303.637V340.075H301.734ZM301.757 334.247V333.914C301.757 331.202 300.425 329.371 298.094 329.371C295.739 329.371 294.359 331.298 294.359 334.105C294.359 336.888 295.739 338.814 298.094 338.814C300.425 338.814 301.757 336.959 301.757 334.247ZM307.615 325.612V323.21H309.851V325.612H307.615ZM307.757 340.075V328.11H309.732V340.075H307.757ZM319.407 338.315V339.932C318.527 340.194 317.837 340.265 317.314 340.265C315.125 340.265 314.007 339.219 314.007 337.007V329.609H312.247V328.11H314.007V325.065H315.958V328.11H319.098V329.609H315.934V336.911C315.934 338.172 316.577 338.6 317.671 338.6C318.123 338.6 318.646 338.553 319.407 338.315Z" fill="#36373A"/>
<path d="M637.982 380.075H137.982V381.774H637.982V380.075Z" fill="#F6F6F6"/>
<path d="M151.982 422.774H139.982C138.877 422.774 137.982 423.669 137.982 424.774V436.774C137.982 437.878 138.877 438.774 139.982 438.774H151.982C153.087 438.774 153.982 437.878 153.982 436.774V424.774C153.982 423.669 153.087 422.774 151.982 422.774Z" fill="#3B82F6"/>
<path d="M181.261 439.774V424.503H174.934V422.79H189.658V424.503H183.307V439.774H181.261ZM200.184 436.254C199.637 438.799 197.568 440.06 195.236 440.06C191.859 440.06 189.48 437.705 189.48 433.851C189.48 429.95 191.93 427.524 195.118 427.524C198.662 427.524 200.256 430.354 200.256 433.423V434.208H191.407C191.502 436.967 192.953 438.49 195.236 438.49C196.854 438.49 197.829 437.705 198.329 436.254H200.184ZM195.118 429.117C193.238 429.117 191.811 430.331 191.478 432.781H198.329C198.281 430.711 197.258 429.117 195.118 429.117ZM210.119 427.643V429.45C209.834 429.379 209.405 429.355 209.096 429.355C207.193 429.355 205.457 430.854 205.457 433.875V439.774H203.482V427.809H205.385V430.64C205.909 428.665 207.431 427.547 209.191 427.547C209.5 427.547 209.834 427.571 210.119 427.643ZM221.841 430.093C222.578 428.475 224.101 427.524 225.861 427.524C228.62 427.524 229.976 429.26 229.976 432.067V439.774H227.978V432.495C227.978 430.259 227.169 429.141 225.385 429.141C223.601 429.141 222.245 430.426 222.245 433.185V439.774H220.247V432.495C220.247 430.259 219.462 429.141 217.654 429.141C215.846 429.141 214.49 430.426 214.49 433.185V439.774H212.516V427.809H214.419V429.998C214.99 428.475 216.465 427.524 218.201 427.524C220.223 427.524 221.317 428.499 221.841 430.093ZM239.088 439.774V422.79H241.134V438.062H250.268V439.774H239.088ZM263.767 433.804C263.767 437.657 261.388 440.06 258.081 440.06C254.775 440.06 252.396 437.657 252.396 433.804C252.396 429.95 254.775 427.524 258.081 427.524C261.388 427.524 263.767 429.95 263.767 433.804ZM254.347 433.804C254.347 436.682 255.75 438.466 258.081 438.466C260.413 438.466 261.816 436.682 261.816 433.804C261.816 430.925 260.413 429.117 258.081 429.117C255.75 429.117 254.347 430.925 254.347 433.804ZM274.329 439.774C274.186 439.108 274.115 438.323 274.115 437.752C273.592 439.156 271.95 440.036 269.952 440.036C267.859 440.036 266.075 438.823 266.075 436.611C266.075 434.303 267.788 433.304 270.214 433.019L274.067 432.519V431.829C274.067 429.926 272.902 429.117 271.261 429.117C269.667 429.117 268.668 429.95 268.525 431.33H266.622C266.86 428.903 268.763 427.524 271.308 427.524C274.21 427.524 276.018 428.903 276.018 431.782V437.277C276.018 438.157 276.066 438.989 276.304 439.774H274.329ZM270.357 438.537C272.212 438.537 274.067 437.372 274.067 435.064V433.994L270.809 434.351C269.31 434.565 268.073 434.945 268.073 436.563C268.073 437.681 268.858 438.537 270.357 438.537ZM281.912 427.809V429.998C282.483 428.523 283.981 427.524 285.813 427.524C288.501 427.524 290.095 429.213 290.095 432.067V439.774H288.12V432.495C288.12 430.283 287.145 429.141 285.266 429.141C283.434 429.141 281.983 430.307 281.983 433.185V439.774H280.009V427.809H281.912Z" fill="#36373A"/>
<path d="M637.982 479.774H137.982V481.473H637.982V479.774Z" fill="#F6F6F6"/>
</g>
<defs>
<clipPath id="clip0_11_688">
<rect width="540" height="488" fill="white"/>
</clipPath>
</defs>
</svg>
