<svg width="540" height="488" viewBox="0 0 540 488" fill="none" xmlns="http://www.w3.org/2000/svg">
<g clip-path="url(#clip0_13_727)">
<rect width="540" height="488" fill="#CEE3FE"/>
<path d="M532 0H8C3.58172 0 0 3.58172 0 8V480C0 484.418 3.58172 488 8 488H532C536.418 488 540 484.418 540 480V8C540 3.58172 536.418 0 532 0Z" fill="#D9D9D9"/>
<g clip-path="url(#clip1_13_727)">
<path d="M426 161H114C111.791 161 110 162.791 110 165V323C110 325.209 111.791 327 114 327H426C428.209 327 430 325.209 430 323V165C430 162.791 428.209 161 426 161Z" fill="white"/>
<path d="M213.591 275L212.72 272.725H208.534L207.65 275H205.96L209.691 265.718H211.628L215.359 275H213.591ZM210.627 267.382L209.067 271.386H212.2L210.666 267.382H210.627ZM218.116 273.947V277.314H216.452V268.396H218.09V269.488C218.402 268.825 219.182 268.24 220.209 268.24C221.938 268.24 223.121 269.657 223.121 271.698C223.121 273.752 221.938 275.156 220.209 275.156C219.208 275.156 218.454 274.61 218.116 273.947ZM218.077 271.581V271.815C218.077 273.102 218.688 273.934 219.741 273.934C220.82 273.934 221.444 273.063 221.444 271.698C221.444 270.346 220.82 269.462 219.741 269.462C218.688 269.462 218.077 270.294 218.077 271.581ZM226.278 273.947V277.314H224.614V268.396H226.252V269.488C226.564 268.825 227.344 268.24 228.371 268.24C230.1 268.24 231.283 269.657 231.283 271.698C231.283 273.752 230.1 275.156 228.371 275.156C227.37 275.156 226.616 274.61 226.278 273.947ZM226.239 271.581V271.815C226.239 273.102 226.85 273.934 227.903 273.934C228.982 273.934 229.606 273.063 229.606 271.698C229.606 270.346 228.982 269.462 227.903 269.462C226.85 269.462 226.239 270.294 226.239 271.581ZM234.439 275H232.775V265.432H234.439V275ZM236.339 267.278V265.653H238.107V267.278H236.339ZM236.391 275V268.396H238.055V275H236.391ZM239.553 271.698C239.553 269.566 240.931 268.24 242.868 268.24C244.506 268.24 245.559 269.189 245.741 270.658H244.168C244.038 269.943 243.609 269.488 242.855 269.488C241.802 269.488 241.217 270.359 241.217 271.698C241.217 273.05 241.802 273.908 242.855 273.908C243.609 273.908 244.038 273.44 244.168 272.738H245.741C245.559 274.22 244.506 275.156 242.868 275.156C240.931 275.156 239.553 273.843 239.553 271.698ZM251.196 275C251.131 274.636 251.105 274.285 251.105 273.96C250.793 274.714 249.961 275.143 248.908 275.143C247.621 275.143 246.685 274.428 246.685 273.232C246.685 271.906 247.725 271.36 249.064 271.204L251.04 270.983V270.671C251.04 269.865 250.546 269.475 249.792 269.475C249.064 269.475 248.622 269.878 248.57 270.489H246.971C247.114 269.072 248.219 268.24 249.844 268.24C251.638 268.24 252.665 269.085 252.665 270.801V273.349C252.665 273.96 252.691 274.467 252.795 275H251.196ZM249.363 273.986C250.221 273.986 251.04 273.479 251.04 272.439V272.036L249.571 272.205C248.869 272.296 248.336 272.452 248.336 273.141C248.336 273.661 248.7 273.986 249.363 273.986ZM258.05 273.635V274.909C257.53 275.065 257.14 275.104 256.737 275.104C255.359 275.104 254.683 274.519 254.683 273.193V269.592H253.773V268.396H254.683V266.745H256.334V268.396H257.907V269.592H256.321V272.933C256.321 273.557 256.62 273.765 257.179 273.765C257.426 273.765 257.686 273.739 258.05 273.635ZM259.475 267.278V265.653H261.243V267.278H259.475ZM259.527 275V268.396H261.191V275H259.527ZM269.371 271.698C269.371 273.843 267.98 275.156 266.03 275.156C264.08 275.156 262.689 273.843 262.689 271.698C262.689 269.566 264.08 268.24 266.03 268.24C267.98 268.24 269.371 269.566 269.371 271.698ZM264.353 271.698C264.353 273.089 264.951 273.921 266.03 273.921C267.096 273.921 267.707 273.089 267.707 271.698C267.707 270.32 267.096 269.475 266.03 269.475C264.951 269.475 264.353 270.32 264.353 271.698ZM272.499 268.396V269.514C272.811 268.76 273.578 268.24 274.579 268.24C276.087 268.24 276.997 269.176 276.997 270.762V275H275.333V271.152C275.333 270.099 274.878 269.553 274.007 269.553C273.175 269.553 272.525 270.086 272.525 271.412V275H270.861V268.396H272.499ZM285.681 268.331V269.865C285.486 269.826 285.252 269.813 285.044 269.813C284.03 269.813 283.185 270.515 283.185 271.945V275H281.521V268.396H283.159V269.878C283.471 268.851 284.238 268.279 285.187 268.279C285.356 268.279 285.538 268.292 285.681 268.331ZM292.625 272.946C292.339 274.363 291.156 275.156 289.648 275.156C287.724 275.156 286.307 273.869 286.307 271.711C286.307 269.553 287.75 268.24 289.609 268.24C291.676 268.24 292.664 269.813 292.664 271.568V272.101H287.919C288.023 273.271 288.621 273.934 289.648 273.934C290.402 273.934 290.87 273.583 291.091 272.946H292.625ZM289.609 269.475C288.738 269.475 288.153 270.008 287.971 271.022H291.078C291.078 270.203 290.61 269.475 289.609 269.475ZM293.732 271.698C293.732 269.566 295.11 268.24 297.047 268.24C298.685 268.24 299.738 269.189 299.92 270.658H298.347C298.217 269.943 297.788 269.488 297.034 269.488C295.981 269.488 295.396 270.359 295.396 271.698C295.396 273.05 295.981 273.908 297.034 273.908C297.788 273.908 298.217 273.44 298.347 272.738H299.92C299.738 274.22 298.685 275.156 297.047 275.156C295.11 275.156 293.732 273.843 293.732 271.698ZM307.209 272.946C306.923 274.363 305.74 275.156 304.232 275.156C302.308 275.156 300.891 273.869 300.891 271.711C300.891 269.553 302.334 268.24 304.193 268.24C306.26 268.24 307.248 269.813 307.248 271.568V272.101H302.503C302.607 273.271 303.205 273.934 304.232 273.934C304.986 273.934 305.454 273.583 305.675 272.946H307.209ZM304.193 269.475C303.322 269.475 302.737 270.008 302.555 271.022H305.662C305.662 270.203 305.194 269.475 304.193 269.475ZM308.693 267.278V265.653H310.461V267.278H308.693ZM308.745 275V268.396H310.409V275H308.745ZM314.208 275L311.608 268.396H313.285L315.118 273.375H315.144L316.938 268.396H318.563L316.028 275H314.208ZM325.396 272.946C325.11 274.363 323.927 275.156 322.419 275.156C320.495 275.156 319.078 273.869 319.078 271.711C319.078 269.553 320.521 268.24 322.38 268.24C324.447 268.24 325.435 269.813 325.435 271.568V272.101H320.69C320.794 273.271 321.392 273.934 322.419 273.934C323.173 273.934 323.641 273.583 323.862 272.946H325.396ZM322.38 269.475C321.509 269.475 320.924 270.008 320.742 271.022H323.849C323.849 270.203 323.381 269.475 322.38 269.475ZM331.534 275V273.947C331.209 274.61 330.416 275.156 329.415 275.156C327.686 275.156 326.503 273.752 326.503 271.698C326.503 269.657 327.686 268.24 329.415 268.24C330.442 268.24 331.196 268.812 331.508 269.475V265.432H333.172V275H331.534ZM331.547 271.815V271.581C331.547 270.294 330.936 269.462 329.883 269.462C328.804 269.462 328.18 270.346 328.18 271.698C328.18 273.063 328.804 273.934 329.883 273.934C330.936 273.934 331.547 273.102 331.547 271.815Z" fill="#181B25"/>
<path d="M200.13 299L198.359 292.4H198.337L196.555 299H195.488L193.277 291.146H194.278L196.082 297.823H196.104L197.875 291.146H198.876L200.658 297.823H200.68L202.473 291.146H203.419L201.208 299H200.13ZM208.738 297.372C208.485 298.549 207.528 299.132 206.45 299.132C204.888 299.132 203.788 298.043 203.788 296.261C203.788 294.457 204.921 293.335 206.395 293.335C208.034 293.335 208.771 294.644 208.771 296.063V296.426H204.679C204.723 297.702 205.394 298.406 206.45 298.406C207.198 298.406 207.649 298.043 207.88 297.372H208.738ZM206.395 294.072C205.526 294.072 204.866 294.633 204.712 295.766H207.88C207.858 294.809 207.385 294.072 206.395 294.072ZM210.255 291.982V290.904H211.454V292.125C211.454 293.038 210.904 293.665 209.914 293.665V293.115C210.475 293.115 210.816 292.851 210.816 292.136V291.982H210.255ZM214.365 299H213.452V290.904H214.365V299ZM217.167 299H216.254V290.904H217.167V299ZM224.444 293.39V294.226C224.312 294.193 224.114 294.182 223.971 294.182C223.091 294.182 222.288 294.875 222.288 296.272V299H221.375V293.467H222.255V294.776C222.497 293.863 223.201 293.346 224.015 293.346C224.158 293.346 224.312 293.357 224.444 293.39ZM229.977 297.372C229.724 298.549 228.767 299.132 227.689 299.132C226.127 299.132 225.027 298.043 225.027 296.261C225.027 294.457 226.16 293.335 227.634 293.335C229.273 293.335 230.01 294.644 230.01 296.063V296.426H225.918C225.962 297.702 226.633 298.406 227.689 298.406C228.437 298.406 228.888 298.043 229.119 297.372H229.977ZM227.634 294.072C226.765 294.072 226.105 294.633 225.951 295.766H229.119C229.097 294.809 228.624 294.072 227.634 294.072ZM234.997 299C234.931 298.692 234.898 298.329 234.898 298.065C234.656 298.714 233.897 299.121 232.973 299.121C232.005 299.121 231.18 298.56 231.18 297.537C231.18 296.47 231.972 296.008 233.094 295.876L234.876 295.645V295.326C234.876 294.446 234.337 294.072 233.578 294.072C232.841 294.072 232.379 294.457 232.313 295.095H231.433C231.543 293.973 232.423 293.335 233.6 293.335C234.942 293.335 235.778 293.973 235.778 295.304V297.845C235.778 298.252 235.8 298.637 235.91 299H234.997ZM233.16 298.428C234.018 298.428 234.876 297.889 234.876 296.822V296.327L233.369 296.492C232.676 296.591 232.104 296.767 232.104 297.515C232.104 298.032 232.467 298.428 233.16 298.428ZM237.205 296.239C237.205 294.468 238.272 293.335 239.812 293.335C241.044 293.335 241.858 294.039 242.034 295.216H241.165C241.011 294.479 240.56 294.072 239.812 294.072C238.723 294.072 238.107 294.941 238.107 296.239C238.107 297.537 238.723 298.395 239.812 298.395C240.56 298.395 241.011 297.988 241.165 297.251H242.034C241.858 298.439 241.044 299.132 239.812 299.132C238.272 299.132 237.205 298.01 237.205 296.239ZM244.389 294.479C244.653 293.775 245.313 293.335 246.16 293.335C247.403 293.335 248.14 294.116 248.14 295.436V299H247.227V295.634C247.227 294.611 246.776 294.083 245.907 294.083C245.06 294.083 244.389 294.622 244.389 295.953V299H243.476V290.904H244.389V294.479ZM257.143 296.239C257.143 298.021 256.043 299.132 254.514 299.132C252.985 299.132 251.885 298.021 251.885 296.239C251.885 294.457 252.985 293.335 254.514 293.335C256.043 293.335 257.143 294.457 257.143 296.239ZM252.787 296.239C252.787 297.57 253.436 298.395 254.514 298.395C255.592 298.395 256.241 297.57 256.241 296.239C256.241 294.908 255.592 294.072 254.514 294.072C253.436 294.072 252.787 294.908 252.787 296.239ZM263.183 299H262.292V297.999C262.028 298.692 261.368 299.132 260.532 299.132C259.278 299.132 258.574 298.373 258.574 297.031V293.467H259.498V296.855C259.498 297.878 259.927 298.417 260.796 298.417C261.632 298.417 262.259 297.845 262.259 296.514V293.467H263.183V299ZM267.646 298.186V298.934C267.239 299.055 266.92 299.088 266.678 299.088C265.666 299.088 265.149 298.604 265.149 297.581V294.16H264.335V293.467H265.149V292.059H266.051V293.467H267.503V294.16H266.04V297.537C266.04 298.12 266.337 298.318 266.843 298.318C267.052 298.318 267.294 298.296 267.646 298.186ZM275.093 293.467L276.347 298.01H276.369L277.645 293.467H278.525L276.853 299H275.907L274.631 294.523H274.598L273.344 299H272.387L270.715 293.467H271.617L272.904 298.01H272.937L274.169 293.467H275.093ZM279.665 292.312V291.201H280.699V292.312H279.665ZM279.731 299V293.467H280.644V299H279.731ZM285.107 298.186V298.934C284.7 299.055 284.381 299.088 284.139 299.088C283.127 299.088 282.61 298.604 282.61 297.581V294.16H281.796V293.467H282.61V292.059H283.512V293.467H284.964V294.16H283.501V297.537C283.501 298.12 283.798 298.318 284.304 298.318C284.513 298.318 284.755 298.296 285.107 298.186ZM287.44 294.479C287.704 293.775 288.364 293.335 289.211 293.335C290.454 293.335 291.191 294.116 291.191 295.436V299H290.278V295.634C290.278 294.611 289.827 294.083 288.958 294.083C288.111 294.083 287.44 294.622 287.44 295.953V299H286.527V290.904H287.44V294.479ZM296.224 293.467V294.479C296.488 293.797 297.181 293.335 298.028 293.335C299.271 293.335 300.008 294.116 300.008 295.436V299H299.095V295.634C299.095 294.611 298.644 294.083 297.775 294.083C296.928 294.083 296.257 294.622 296.257 295.953V299H295.344V293.467H296.224ZM306.384 297.372C306.131 298.549 305.174 299.132 304.096 299.132C302.534 299.132 301.434 298.043 301.434 296.261C301.434 294.457 302.567 293.335 304.041 293.335C305.68 293.335 306.417 294.644 306.417 296.063V296.426H302.325C302.369 297.702 303.04 298.406 304.096 298.406C304.844 298.406 305.295 298.043 305.526 297.372H306.384ZM304.041 294.072C303.172 294.072 302.512 294.633 302.358 295.766H305.526C305.504 294.809 305.031 294.072 304.041 294.072ZM308.069 299H307.09L309.191 296.151L307.2 293.467H308.278L309.752 295.502L311.215 293.467H312.205L310.247 296.107L312.381 299H311.314L309.675 296.778L308.069 299ZM316.272 298.186V298.934C315.865 299.055 315.546 299.088 315.304 299.088C314.292 299.088 313.775 298.604 313.775 297.581V294.16H312.961V293.467H313.775V292.059H314.677V293.467H316.129V294.16H314.666V297.537C314.666 298.12 314.963 298.318 315.469 298.318C315.678 298.318 315.92 298.296 316.272 298.186ZM319.538 297.361H320.418C320.484 298.12 321.188 298.439 321.936 298.439C322.695 298.439 323.245 298.087 323.245 297.493C323.245 297.086 322.981 296.822 322.277 296.69L321.298 296.492C320.407 296.327 319.758 295.964 319.758 294.996C319.758 294.061 320.594 293.335 321.815 293.335C323.091 293.335 323.872 293.885 323.982 294.93H323.135C323.069 294.369 322.574 294.039 321.815 294.039C321.078 294.039 320.605 294.402 320.605 294.941C320.605 295.414 320.935 295.612 321.573 295.733L322.673 295.942C323.575 296.118 324.103 296.558 324.103 297.449C324.103 298.417 323.19 299.132 321.947 299.132C320.627 299.132 319.637 298.549 319.538 297.361ZM328.191 298.186V298.934C327.784 299.055 327.465 299.088 327.223 299.088C326.211 299.088 325.694 298.604 325.694 297.581V294.16H324.88V293.467H325.694V292.059H326.596V293.467H328.048V294.16H326.585V297.537C326.585 298.12 326.882 298.318 327.388 298.318C327.597 298.318 327.839 298.296 328.191 298.186ZM334.09 297.372C333.837 298.549 332.88 299.132 331.802 299.132C330.24 299.132 329.14 298.043 329.14 296.261C329.14 294.457 330.273 293.335 331.747 293.335C333.386 293.335 334.123 294.644 334.123 296.063V296.426H330.031C330.075 297.702 330.746 298.406 331.802 298.406C332.55 298.406 333.001 298.043 333.232 297.372H334.09ZM331.747 294.072C330.878 294.072 330.218 294.633 330.064 295.766H333.232C333.21 294.809 332.737 294.072 331.747 294.072ZM336.517 298.032V300.958H335.604V293.467H336.484V294.479C336.737 293.918 337.397 293.335 338.354 293.335C339.762 293.335 340.818 294.479 340.818 296.239C340.818 297.988 339.762 299.132 338.354 299.132C337.441 299.132 336.792 298.593 336.517 298.032ZM336.473 296.151V296.305C336.473 297.559 337.089 298.417 338.167 298.417C339.256 298.417 339.894 297.526 339.894 296.239C339.894 294.941 339.256 294.05 338.167 294.05C337.089 294.05 336.473 294.897 336.473 296.151ZM341.832 297.361H342.712C342.778 298.12 343.482 298.439 344.23 298.439C344.989 298.439 345.539 298.087 345.539 297.493C345.539 297.086 345.275 296.822 344.571 296.69L343.592 296.492C342.701 296.327 342.052 295.964 342.052 294.996C342.052 294.061 342.888 293.335 344.109 293.335C345.385 293.335 346.166 293.885 346.276 294.93H345.429C345.363 294.369 344.868 294.039 344.109 294.039C343.372 294.039 342.899 294.402 342.899 294.941C342.899 295.414 343.229 295.612 343.867 295.733L344.967 295.942C345.869 296.118 346.397 296.558 346.397 297.449C346.397 298.417 345.484 299.132 344.241 299.132C342.921 299.132 341.931 298.549 341.832 297.361Z" fill="#181B25"/>
<path d="M270 241C285.464 241 298 228.464 298 213C298 197.536 285.464 185 270 185C254.536 185 242 197.536 242 213C242 228.464 254.536 241 270 241Z" fill="#3B82F6"/>
<path d="M258 213.883L265.344 221L282 205" stroke="white" stroke-width="3" stroke-linecap="round"/>
</g>
</g>
<defs>
<clipPath id="clip0_13_727">
<rect width="540" height="488" fill="white"/>
</clipPath>
<clipPath id="clip1_13_727">
<rect width="320" height="166" fill="white" transform="translate(110 161)"/>
</clipPath>
</defs>
</svg>
