<svg width="540" height="488" viewBox="0 0 540 488" fill="none" xmlns="http://www.w3.org/2000/svg">
<g clip-path="url(#clip0_13_750)">
<rect width="540" height="488" fill="#CEE3FE"/>
<path d="M532 0H8C3.58172 0 0 3.58172 0 8V480C0 484.418 3.58172 488 8 488H532C536.418 488 540 484.418 540 480V8C540 3.58172 536.418 0 532 0Z" fill="#D9D9D9"/>
<g clip-path="url(#clip1_13_750)">
<path d="M426 129H114C111.791 129 110 130.791 110 133V354.146C110 356.355 111.791 358.146 114 358.146H426C428.209 358.146 430 356.355 430 354.146V133C430 130.791 428.209 129 426 129Z" fill="white"/>
<path d="M128.19 161.067V151.166H130.034V159.611H135.137V161.067H128.19ZM142.878 158.876C142.572 160.387 141.311 161.233 139.702 161.233C137.65 161.233 136.138 159.861 136.138 157.559C136.138 155.257 137.678 153.856 139.66 153.856C141.865 153.856 142.919 155.534 142.919 157.406V157.975H137.858C137.969 159.223 138.607 159.93 139.702 159.93C140.506 159.93 141.006 159.555 141.241 158.876H142.878ZM139.66 155.174C138.731 155.174 138.107 155.742 137.913 156.824H141.227C141.227 155.95 140.728 155.174 139.66 155.174ZM146.264 154.023V155.215C146.597 154.411 147.415 153.856 148.482 153.856C150.091 153.856 151.062 154.855 151.062 156.546V161.067H149.287V156.962C149.287 155.839 148.801 155.257 147.872 155.257C146.985 155.257 146.291 155.825 146.291 157.24V161.067H144.517V154.023H146.264ZM157.94 161.067V159.944C157.594 160.651 156.748 161.233 155.68 161.233C153.836 161.233 152.574 159.736 152.574 157.545C152.574 155.368 153.836 153.856 155.68 153.856C156.776 153.856 157.58 154.466 157.913 155.174V150.861H159.688V161.067H157.94ZM157.954 157.67V157.42C157.954 156.047 157.303 155.16 156.179 155.16C155.028 155.16 154.363 156.103 154.363 157.545C154.363 159.001 155.028 159.93 156.179 159.93C157.303 159.93 157.954 159.042 157.954 157.67ZM168.019 158.876C167.714 160.387 166.452 161.233 164.843 161.233C162.791 161.233 161.279 159.861 161.279 157.559C161.279 155.257 162.819 153.856 164.802 153.856C167.006 153.856 168.06 155.534 168.06 157.406V157.975H162.999C163.11 159.223 163.748 159.93 164.843 159.93C165.647 159.93 166.147 159.555 166.382 158.876H168.019ZM164.802 155.174C163.872 155.174 163.248 155.742 163.054 156.824H166.368C166.368 155.95 165.869 155.174 164.802 155.174ZM174.095 153.953V155.59C173.887 155.548 173.637 155.534 173.415 155.534C172.334 155.534 171.432 156.283 171.432 157.808V161.067H169.658V154.023H171.405V155.603C171.738 154.508 172.556 153.898 173.568 153.898C173.748 153.898 173.942 153.912 174.095 153.953ZM180.389 151.166L185.049 158.183H185.076V151.166H186.824V161.067H185.118L180.029 153.399H180.001V161.067H178.24V151.166H180.389ZM195.202 158.876C194.897 160.387 193.636 161.233 192.027 161.233C189.975 161.233 188.463 159.861 188.463 157.559C188.463 155.257 190.002 153.856 191.985 153.856C194.19 153.856 195.244 155.534 195.244 157.406V157.975H190.183C190.294 159.223 190.932 159.93 192.027 159.93C192.831 159.93 193.33 159.555 193.566 158.876H195.202ZM191.985 155.174C191.056 155.174 190.432 155.742 190.238 156.824H193.552C193.552 155.95 193.053 155.174 191.985 155.174ZM200.572 159.611V160.97C200.017 161.136 199.601 161.178 199.171 161.178C197.701 161.178 196.98 160.554 196.98 159.139V155.298H196.009V154.023H196.98V152.262H198.741V154.023H200.419V155.298H198.727V158.862C198.727 159.528 199.046 159.75 199.642 159.75C199.906 159.75 200.183 159.722 200.572 159.611ZM207.556 154.023L208.901 159.25H208.929L210.357 154.023H212.062L209.913 161.067H208.11L206.724 155.978H206.682L205.309 161.067H203.493L201.344 154.023H203.105L204.533 159.25H204.561L205.906 154.023H207.556ZM219.838 157.545C219.838 159.833 218.354 161.233 216.274 161.233C214.194 161.233 212.71 159.833 212.71 157.545C212.71 155.271 214.194 153.856 216.274 153.856C218.354 153.856 219.838 155.271 219.838 157.545ZM214.485 157.545C214.485 159.029 215.123 159.916 216.274 159.916C217.411 159.916 218.063 159.029 218.063 157.545C218.063 156.075 217.411 155.174 216.274 155.174C215.123 155.174 214.485 156.075 214.485 157.545ZM225.865 153.953V155.59C225.657 155.548 225.407 155.534 225.185 155.534C224.103 155.534 223.202 156.283 223.202 157.808V161.067H221.427V154.023H223.174V155.603C223.507 154.508 224.325 153.898 225.338 153.898C225.518 153.898 225.712 153.912 225.865 153.953ZM232.049 161.067L229.733 158.086L228.915 158.876V161.067H227.14V150.861H228.915V157.046L231.91 154.023H233.948L230.967 156.962L234.087 161.067H232.049Z" fill="#181B25"/>
<path d="M412.934 182.706H127.067V183.702H412.934V182.706Z" fill="#F6F6F6"/>
<path d="M145.913 200.342H129.759C128.272 200.342 127.067 201.548 127.067 203.035V219.188C127.067 220.675 128.272 221.881 129.759 221.881H145.913C147.4 221.881 148.605 220.675 148.605 219.188V203.035C148.605 201.548 147.4 200.342 145.913 200.342Z" fill="#3B82F6"/>
<mask id="mask0_13_750" style="mask-type:luminance" maskUnits="userSpaceOnUse" x="130" y="203" width="16" height="15">
<path d="M145.692 203.038H130.923V217.807H145.692V203.038Z" fill="white"/>
</mask>
<g mask="url(#mask0_13_750)">
<path d="M145.046 211.717C144.998 211.753 144.943 211.78 144.884 211.795C144.825 211.81 144.764 211.813 144.704 211.804C144.644 211.796 144.587 211.776 144.534 211.745C144.482 211.714 144.437 211.673 144.4 211.624C144.122 211.25 143.76 210.947 143.343 210.739C142.926 210.53 142.466 210.423 142 210.425C141.91 210.424 141.821 210.398 141.745 210.348C141.67 210.297 141.61 210.226 141.575 210.142C141.551 210.086 141.539 210.025 141.539 209.963C141.539 209.901 141.551 209.84 141.575 209.784C141.61 209.7 141.67 209.629 141.745 209.578C141.821 209.528 141.91 209.501 142 209.501C142.259 209.501 142.513 209.429 142.733 209.292C142.953 209.155 143.129 208.959 143.243 208.726C143.357 208.494 143.404 208.234 143.378 207.976C143.351 207.719 143.253 207.474 143.095 207.269C142.936 207.064 142.723 206.908 142.48 206.818C142.238 206.728 141.974 206.708 141.721 206.761C141.467 206.813 141.233 206.935 141.046 207.114C140.858 207.292 140.724 207.52 140.66 207.771C140.644 207.829 140.618 207.885 140.581 207.933C140.545 207.981 140.499 208.022 140.447 208.053C140.395 208.084 140.337 208.104 140.277 208.113C140.217 208.121 140.156 208.118 140.097 208.102C140.038 208.087 139.983 208.061 139.935 208.024C139.886 207.988 139.845 207.942 139.815 207.89C139.784 207.838 139.764 207.78 139.755 207.72C139.747 207.66 139.75 207.599 139.765 207.54C139.855 207.192 140.025 206.87 140.261 206.6C140.497 206.329 140.793 206.117 141.126 205.981C141.458 205.845 141.818 205.789 142.176 205.816C142.534 205.844 142.881 205.954 143.188 206.139C143.496 206.324 143.757 206.579 143.949 206.882C144.141 207.185 144.26 207.529 144.296 207.887C144.332 208.244 144.284 208.605 144.156 208.94C144.027 209.276 143.823 209.577 143.558 209.819C144.186 210.091 144.731 210.522 145.14 211.07C145.177 211.119 145.203 211.174 145.218 211.233C145.233 211.292 145.236 211.353 145.228 211.413C145.219 211.473 145.198 211.531 145.167 211.583C145.136 211.635 145.095 211.68 145.046 211.717ZM141.938 215.271C141.971 215.323 141.994 215.382 142.004 215.443C142.014 215.505 142.012 215.568 141.997 215.628C141.982 215.688 141.955 215.745 141.918 215.795C141.88 215.845 141.833 215.887 141.779 215.918C141.726 215.949 141.666 215.969 141.604 215.976C141.542 215.984 141.48 215.979 141.42 215.962C141.36 215.944 141.304 215.915 141.256 215.876C141.208 215.836 141.168 215.787 141.14 215.732C140.849 215.24 140.435 214.832 139.938 214.548C139.442 214.265 138.88 214.116 138.308 214.116C137.736 214.116 137.174 214.265 136.678 214.548C136.181 214.832 135.767 215.24 135.476 215.732C135.448 215.787 135.408 215.836 135.36 215.876C135.312 215.915 135.256 215.944 135.196 215.962C135.136 215.979 135.074 215.984 135.012 215.976C134.95 215.969 134.89 215.949 134.836 215.918C134.783 215.887 134.736 215.845 134.698 215.795C134.661 215.745 134.634 215.688 134.619 215.628C134.604 215.568 134.602 215.505 134.612 215.443C134.622 215.382 134.645 215.323 134.678 215.271C135.125 214.502 135.808 213.897 136.625 213.545C136.165 213.193 135.827 212.706 135.659 212.152C135.49 211.598 135.499 211.005 135.685 210.457C135.871 209.909 136.224 209.433 136.694 209.095C137.165 208.758 137.729 208.577 138.308 208.577C138.887 208.577 139.451 208.758 139.922 209.095C140.392 209.433 140.745 209.909 140.931 210.457C141.116 211.005 141.126 211.598 140.957 212.152C140.789 212.706 140.451 213.193 139.991 213.545C140.808 213.897 141.491 214.502 141.938 215.271ZM138.308 213.194C138.673 213.194 139.03 213.085 139.334 212.883C139.637 212.68 139.874 212.391 140.014 212.054C140.153 211.717 140.19 211.345 140.119 210.987C140.047 210.629 139.872 210.3 139.613 210.042C139.355 209.784 139.026 209.608 138.668 209.537C138.31 209.466 137.939 209.502 137.601 209.642C137.264 209.782 136.976 210.018 136.773 210.322C136.57 210.626 136.462 210.982 136.462 211.348C136.462 211.837 136.656 212.307 137.003 212.653C137.349 212.999 137.818 213.194 138.308 213.194ZM135.077 209.963C135.077 209.84 135.029 209.723 134.942 209.637C134.855 209.55 134.738 209.501 134.616 209.501C134.357 209.501 134.103 209.429 133.883 209.292C133.663 209.155 133.487 208.959 133.373 208.726C133.259 208.494 133.212 208.234 133.238 207.976C133.265 207.719 133.363 207.474 133.521 207.269C133.68 207.064 133.893 206.908 134.135 206.818C134.378 206.728 134.642 206.708 134.895 206.761C135.149 206.813 135.383 206.935 135.57 207.114C135.758 207.292 135.892 207.52 135.956 207.771C135.987 207.889 136.063 207.991 136.169 208.053C136.274 208.115 136.4 208.133 136.519 208.102C136.638 208.072 136.739 207.995 136.801 207.89C136.864 207.784 136.881 207.658 136.851 207.54C136.761 207.192 136.591 206.87 136.355 206.6C136.119 206.329 135.823 206.117 135.49 205.981C135.158 205.845 134.798 205.789 134.44 205.816C134.082 205.844 133.735 205.954 133.428 206.139C133.12 206.324 132.859 206.579 132.667 206.882C132.475 207.185 132.356 207.529 132.32 207.887C132.284 208.244 132.332 208.605 132.46 208.94C132.588 209.276 132.793 209.577 133.058 209.819C132.431 210.091 131.886 210.522 131.477 211.07C131.404 211.168 131.372 211.291 131.389 211.412C131.407 211.534 131.471 211.643 131.569 211.717C131.667 211.79 131.79 211.822 131.911 211.804C132.033 211.787 132.142 211.722 132.216 211.624C132.494 211.25 132.856 210.947 133.273 210.739C133.69 210.53 134.15 210.423 134.616 210.425C134.738 210.425 134.855 210.376 134.942 210.289C135.029 210.203 135.077 210.085 135.077 209.963Z" fill="white"/>
</g>
<path d="M161.311 215.342V206.7H157.678V205.21H166.831V206.7H163.184V215.342H161.311ZM173.402 213.1C173.09 214.647 171.798 215.513 170.152 215.513C168.052 215.513 166.505 214.108 166.505 211.752C166.505 209.396 168.08 207.963 170.11 207.963C172.366 207.963 173.445 209.68 173.445 211.596V212.178H168.265C168.378 213.455 169.031 214.179 170.152 214.179C170.975 214.179 171.486 213.795 171.727 213.1H173.402ZM170.11 209.311C169.159 209.311 168.52 209.893 168.322 211H171.713C171.713 210.106 171.202 209.311 170.11 209.311ZM179.62 208.062V209.737C179.407 209.694 179.152 209.68 178.925 209.68C177.818 209.68 176.896 210.446 176.896 212.007V215.342H175.079V208.133H176.867V209.751C177.208 208.63 178.045 208.006 179.081 208.006C179.266 208.006 179.464 208.02 179.62 208.062ZM187.155 209.368C187.609 208.502 188.518 207.963 189.582 207.963C191.242 207.963 192.122 208.999 192.122 210.716V215.342H190.291V211.113C190.291 209.964 189.866 209.396 188.972 209.396C188.106 209.396 187.425 210.007 187.425 211.411V215.342H185.608V211.113C185.608 209.964 185.183 209.396 184.289 209.396C183.409 209.396 182.742 210.007 182.742 211.411V215.342H180.925V208.133H182.713V209.354C183.054 208.516 183.891 207.963 184.927 207.963C186.133 207.963 186.8 208.516 187.155 209.368ZM197.109 215.342V205.21H198.996V213.852H204.218V215.342H197.109ZM212.537 211.738C212.537 214.079 211.018 215.513 208.89 215.513C206.761 215.513 205.243 214.079 205.243 211.738C205.243 209.41 206.761 207.963 208.89 207.963C211.018 207.963 212.537 209.41 212.537 211.738ZM207.059 211.738C207.059 213.256 207.712 214.164 208.89 214.164C210.053 214.164 210.72 213.256 210.72 211.738C210.72 210.234 210.053 209.311 208.89 209.311C207.712 209.311 207.059 210.234 207.059 211.738ZM218.562 215.342C218.491 214.945 218.463 214.562 218.463 214.207C218.122 215.03 217.214 215.498 216.065 215.498C214.66 215.498 213.638 214.718 213.638 213.412C213.638 211.965 214.773 211.369 216.235 211.199L218.392 210.957V210.617C218.392 209.737 217.853 209.311 217.03 209.311C216.235 209.311 215.753 209.751 215.696 210.418H213.95C214.106 208.871 215.313 207.963 217.086 207.963C219.045 207.963 220.166 208.885 220.166 210.759V213.54C220.166 214.207 220.194 214.76 220.308 215.342H218.562ZM216.561 214.235C217.498 214.235 218.392 213.682 218.392 212.547V212.107L216.788 212.291C216.022 212.391 215.44 212.561 215.44 213.313C215.44 213.881 215.838 214.235 216.561 214.235ZM224.015 208.133V209.354C224.355 208.531 225.193 207.963 226.285 207.963C227.931 207.963 228.925 208.985 228.925 210.716V215.342H227.108V211.142C227.108 209.992 226.612 209.396 225.661 209.396C224.753 209.396 224.043 209.978 224.043 211.426V215.342H222.227V208.133H224.015Z" fill="#181B25"/>
<path d="M161.281 242.727V234.035H157.68V233.061H166.06V234.035H162.446V242.727H161.281ZM172.038 240.723C171.726 242.172 170.548 242.89 169.222 242.89C167.299 242.89 165.945 241.549 165.945 239.356C165.945 237.136 167.34 235.755 169.154 235.755C171.171 235.755 172.078 237.366 172.078 239.112V239.559H167.042C167.096 241.13 167.922 241.996 169.222 241.996C170.142 241.996 170.697 241.549 170.982 240.723H172.038ZM169.154 236.662C168.084 236.662 167.272 237.352 167.083 238.747H170.982C170.955 237.569 170.372 236.662 169.154 236.662ZM177.678 235.822V236.851C177.516 236.811 177.272 236.797 177.096 236.797C176.013 236.797 175.025 237.65 175.025 239.37V242.727H173.901V235.917H174.984V237.528C175.282 236.405 176.148 235.768 177.15 235.768C177.326 235.768 177.516 235.782 177.678 235.822ZM184.336 237.217C184.756 236.296 185.622 235.755 186.624 235.755C188.194 235.755 188.966 236.743 188.966 238.341V242.727H187.829V238.584C187.829 237.312 187.369 236.675 186.353 236.675C185.338 236.675 184.566 237.406 184.566 238.977V242.727H183.429V238.584C183.429 237.312 182.982 236.675 181.953 236.675C180.924 236.675 180.153 237.406 180.153 238.977V242.727H179.029V235.917H180.112V237.163C180.437 236.296 181.276 235.755 182.265 235.755C183.415 235.755 184.038 236.31 184.336 237.217ZM190.635 240.71H191.718C191.799 241.644 192.666 242.037 193.586 242.037C194.52 242.037 195.197 241.603 195.197 240.872C195.197 240.371 194.872 240.046 194.006 239.884L192.801 239.64C191.704 239.437 190.906 238.99 190.906 237.799C190.906 236.648 191.934 235.755 193.437 235.755C195.008 235.755 195.969 236.432 196.104 237.718H195.062C194.981 237.027 194.371 236.621 193.437 236.621C192.53 236.621 191.948 237.068 191.948 237.731C191.948 238.314 192.354 238.557 193.139 238.706L194.493 238.963C195.603 239.18 196.253 239.722 196.253 240.818C196.253 242.01 195.13 242.89 193.6 242.89C191.975 242.89 190.757 242.172 190.635 240.71Z" fill="#181B25"/>
<path d="M258.062 252.65H159.6C158.241 252.65 157.139 253.752 157.139 255.112V260.035C157.139 261.394 158.241 262.496 159.6 262.496H258.062C259.422 262.496 260.524 261.394 260.524 260.035V255.112C260.524 253.752 259.422 252.65 258.062 252.65Z" fill="#F6F6F6"/>
<path d="M311.959 242.727H310.808V233.061H314.531C316.697 233.061 317.929 234.076 317.929 235.931C317.929 237.501 316.833 238.381 315.695 238.638L318.349 242.727H317.036L314.531 238.814H311.959V242.727ZM311.959 237.84H314.463C315.925 237.84 316.751 237.19 316.751 235.931C316.751 234.712 315.925 234.035 314.463 234.035H311.959V237.84ZM324.322 242.727C324.241 242.348 324.2 241.901 324.2 241.576C323.902 242.375 322.968 242.876 321.831 242.876C320.639 242.876 319.624 242.186 319.624 240.926C319.624 239.613 320.599 239.045 321.98 238.882L324.173 238.598V238.205C324.173 237.122 323.51 236.662 322.575 236.662C321.668 236.662 321.1 237.136 321.019 237.921H319.935C320.071 236.54 321.154 235.755 322.603 235.755C324.254 235.755 325.283 236.54 325.283 238.178V241.306C325.283 241.806 325.31 242.28 325.446 242.727H324.322ZM322.061 242.023C323.117 242.023 324.173 241.36 324.173 240.046V239.437L322.318 239.64C321.465 239.762 320.761 239.979 320.761 240.899C320.761 241.536 321.208 242.023 322.061 242.023ZM330.709 241.725V242.646C330.208 242.795 329.815 242.835 329.517 242.835C328.272 242.835 327.636 242.24 327.636 240.981V236.77H326.634V235.917H327.636V234.184H328.746V235.917H330.533V236.77H328.732V240.926C328.732 241.644 329.098 241.888 329.721 241.888C329.978 241.888 330.276 241.861 330.709 241.725ZM337.969 240.723C337.658 242.172 336.48 242.89 335.153 242.89C333.231 242.89 331.877 241.549 331.877 239.356C331.877 237.136 333.271 235.755 335.086 235.755C337.103 235.755 338.01 237.366 338.01 239.112V239.559H332.974C333.028 241.13 333.854 241.996 335.153 241.996C336.074 241.996 336.629 241.549 336.913 240.723H337.969ZM335.086 236.662C334.016 236.662 333.204 237.352 333.014 238.747H336.913C336.886 237.569 336.304 236.662 335.086 236.662Z" fill="#181B25"/>
<path d="M410.473 252.65H312.011C310.651 252.65 309.549 253.752 309.549 255.112V260.035C309.549 261.394 310.651 262.496 312.011 262.496H410.473C411.832 262.496 412.934 261.394 412.934 260.035V255.112C412.934 253.752 411.832 252.65 410.473 252.65Z" fill="#F6F6F6"/>
<path d="M412.934 279.136H127.067V280.132H412.934V279.136Z" fill="#F6F6F6"/>
<path d="M408.011 296.771H131.99C129.271 296.771 127.067 298.975 127.067 301.694V336.156C127.067 338.875 129.271 341.079 131.99 341.079H408.011C410.73 341.079 412.934 338.875 412.934 336.156V301.694C412.934 298.975 410.73 296.771 408.011 296.771Z" fill="#3B82F6"/>
<path d="M216.616 324.425H214.696V313.88H219.216C221.682 313.88 223.13 315.032 223.13 317.188C223.13 318.828 222.081 319.803 220.885 320.187L223.528 324.425H221.387L218.979 320.482H216.616V324.425ZM216.616 318.946H218.994C220.456 318.946 221.195 318.34 221.195 317.188C221.195 316.036 220.456 315.431 218.994 315.431H216.616V318.946ZM231.695 322.092C231.371 323.702 230.027 324.603 228.313 324.603C226.127 324.603 224.518 323.14 224.518 320.689C224.518 318.237 226.157 316.745 228.269 316.745C230.617 316.745 231.74 318.532 231.74 320.526V321.132H226.349C226.467 322.461 227.147 323.214 228.313 323.214C229.17 323.214 229.702 322.815 229.953 322.092H231.695ZM228.269 318.148C227.279 318.148 226.615 318.754 226.408 319.906H229.938C229.938 318.975 229.406 318.148 228.269 318.148ZM238.639 327.054V323.229C238.255 323.982 237.399 324.603 236.261 324.603C234.297 324.603 232.953 323.007 232.953 320.674C232.953 318.355 234.297 316.745 236.261 316.745C237.428 316.745 238.314 317.41 238.669 318.163V316.923H240.53V327.054H238.639ZM238.684 320.807V320.541C238.684 319.079 237.989 318.134 236.793 318.134C235.567 318.134 234.858 319.138 234.858 320.674C234.858 322.225 235.567 323.214 236.793 323.214C237.989 323.214 238.684 322.269 238.684 320.807ZM249.536 324.425H247.675V323.17C247.32 324.027 246.464 324.603 245.341 324.603C243.658 324.603 242.668 323.569 242.668 321.752V316.923H244.573V321.339C244.573 322.535 245.046 323.14 246.021 323.14C246.936 323.14 247.631 322.505 247.631 320.999V316.923H249.536V324.425ZM258.415 322.092C258.09 323.702 256.746 324.603 255.033 324.603C252.847 324.603 251.237 323.14 251.237 320.689C251.237 318.237 252.877 316.745 254.989 316.745C257.337 316.745 258.46 318.532 258.46 320.526V321.132H253.069C253.187 322.461 253.866 323.214 255.033 323.214C255.89 323.214 256.421 322.815 256.672 322.092H258.415ZM254.989 318.148C253.999 318.148 253.335 318.754 253.128 319.906H256.658C256.658 318.975 256.126 318.148 254.989 318.148ZM259.627 322.151H261.429C261.518 322.934 262.301 323.288 263.113 323.288C263.911 323.288 264.531 322.963 264.531 322.358C264.531 321.885 264.206 321.663 263.379 321.516L262.05 321.279C260.809 321.058 259.893 320.482 259.893 319.138C259.893 317.72 261.193 316.745 262.936 316.745C264.885 316.745 265.993 317.602 266.155 319.049H264.427C264.354 318.459 263.778 318.075 262.951 318.075C262.153 318.075 261.636 318.429 261.636 318.946C261.636 319.463 262.02 319.655 262.788 319.788L264.25 320.039C265.565 320.26 266.303 320.984 266.303 322.225C266.303 323.657 264.93 324.603 263.143 324.603C261.193 324.603 259.79 323.79 259.627 322.151ZM272.021 322.875V324.322C271.43 324.499 270.987 324.543 270.529 324.543C268.964 324.543 268.196 323.879 268.196 322.372V318.281H267.162V316.923H268.196V315.047H270.072V316.923H271.859V318.281H270.057V322.077C270.057 322.786 270.397 323.022 271.032 323.022C271.312 323.022 271.608 322.993 272.021 322.875ZM278.174 319.138C278.174 321.545 279.238 323.052 281.143 323.052C282.65 323.052 283.344 322.195 283.55 321.117H285.456C285.086 323.17 283.669 324.603 281.143 324.603C278.189 324.603 276.181 322.417 276.181 319.138C276.181 315.889 278.189 313.703 281.143 313.703C283.669 313.703 285.086 315.121 285.456 317.188H283.55C283.344 316.11 282.65 315.254 281.143 315.254C279.238 315.254 278.174 316.745 278.174 319.138ZM291.63 324.425C291.556 324.012 291.527 323.613 291.527 323.244C291.172 324.1 290.227 324.588 289.031 324.588C287.569 324.588 286.505 323.775 286.505 322.417C286.505 320.91 287.687 320.29 289.208 320.113L291.453 319.862V319.507C291.453 318.591 290.892 318.148 290.035 318.148C289.208 318.148 288.706 318.606 288.647 319.3H286.83C286.993 317.691 288.248 316.745 290.094 316.745C292.132 316.745 293.299 317.705 293.299 319.655V322.55C293.299 323.244 293.329 323.82 293.447 324.425H291.63ZM289.548 323.273C290.522 323.273 291.453 322.697 291.453 321.516V321.058L289.784 321.25C288.986 321.353 288.381 321.531 288.381 322.313C288.381 322.904 288.794 323.273 289.548 323.273ZM297.334 323.229V327.054H295.444V316.923H297.305V318.163C297.659 317.41 298.545 316.745 299.712 316.745C301.676 316.745 303.02 318.355 303.02 320.674C303.02 323.007 301.676 324.603 299.712 324.603C298.575 324.603 297.718 323.982 297.334 323.229ZM297.29 320.541V320.807C297.29 322.269 297.984 323.214 299.18 323.214C300.406 323.214 301.115 322.225 301.115 320.674C301.115 319.138 300.406 318.134 299.18 318.134C297.984 318.134 297.29 319.079 297.29 320.541ZM304.657 315.652V313.806H306.665V315.652H304.657ZM304.716 324.425V316.923H306.606V324.425H304.716ZM312.797 322.875V324.322C312.206 324.499 311.763 324.543 311.305 324.543C309.74 324.543 308.972 323.879 308.972 322.372V318.281H307.938V316.923H308.972V315.047H310.848V316.923H312.635V318.281H310.833V322.077C310.833 322.786 311.173 323.022 311.808 323.022C312.088 323.022 312.384 322.993 312.797 322.875ZM319.054 324.425C318.981 324.012 318.951 323.613 318.951 323.244C318.597 324.1 317.651 324.588 316.455 324.588C314.993 324.588 313.93 323.775 313.93 322.417C313.93 320.91 315.111 320.29 316.632 320.113L318.877 319.862V319.507C318.877 318.591 318.316 318.148 317.459 318.148C316.632 318.148 316.13 318.606 316.071 319.3H314.254C314.417 317.691 315.672 316.745 317.518 316.745C319.557 316.745 320.723 317.705 320.723 319.655V322.55C320.723 323.244 320.753 323.82 320.871 324.425H319.054ZM316.972 323.273C317.947 323.273 318.877 322.697 318.877 321.516V321.058L317.208 321.25C316.411 321.353 315.805 321.531 315.805 322.313C315.805 322.904 316.219 323.273 316.972 323.273ZM324.759 324.425H322.868V313.555H324.759V324.425Z" fill="#F6F6F6"/>
</g>
</g>
<defs>
<clipPath id="clip0_13_750">
<rect width="540" height="488" fill="white"/>
</clipPath>
<clipPath id="clip1_13_750">
<rect width="320" height="230" fill="white" transform="translate(110 129)"/>
</clipPath>
</defs>
</svg>
