<svg width="540" height="488" viewBox="0 0 540 488" fill="none" xmlns="http://www.w3.org/2000/svg">
<g clip-path="url(#clip0_13_700)">
<rect width="540" height="488" fill="#CEE3FE"/>
<path d="M532 0H8C3.58172 0 0 3.58172 0 8V480C0 484.418 3.58172 488 8 488H532C536.418 488 540 484.418 540 480V8C540 3.58172 536.418 0 532 0Z" fill="#D9D9D9"/>
<g clip-path="url(#clip1_13_700)">
<path d="M406 150H134C131.791 150 130 151.791 130 154V334.733C130 336.942 131.791 338.733 134 338.733H406C408.209 338.733 410 336.942 410 334.733V154C410 151.791 408.209 150 406 150Z" fill="white"/>
<path d="M157.592 175.948H146.756V173.008H161.372V175.836C156.724 181.52 155.24 186.532 155.156 193H151.348C151.432 186.252 153.952 180.652 157.592 175.948ZM162.81 183.004C162.81 177.012 166.114 172.672 171.322 172.672C176.53 172.672 179.806 177.012 179.806 183.004C179.806 188.996 176.53 193.336 171.322 193.336C166.114 193.336 162.81 188.996 162.81 183.004ZM166.562 183.004C166.562 187.54 168.13 190.424 171.322 190.424C174.486 190.424 176.054 187.54 176.054 183.004C176.054 178.468 174.486 175.584 171.322 175.584C168.13 175.584 166.562 178.468 166.562 183.004ZM181.492 178.412V175.948C184.908 175.948 186.252 175.024 186.728 172.952H189.276V193H185.58V178.412H181.492Z" fill="#181B25"/>
<path d="M147.215 220V210.67H153.187V211.611H148.339V215.022H152.742V215.962H148.339V220H147.215ZM155.163 220V210.67H156.287V220H155.163ZM159.245 215.322C159.245 217.648 160.356 219.203 162.277 219.203C163.845 219.203 164.524 218.328 164.733 217.282H165.831C165.531 218.981 164.315 220.157 162.277 220.157C159.873 220.157 158.096 218.262 158.096 215.322C158.096 212.395 159.873 210.514 162.277 210.514C164.315 210.514 165.531 211.69 165.831 213.388H164.733C164.524 212.343 163.845 211.468 162.277 211.468C160.356 211.468 159.245 212.996 159.245 215.322ZM175.468 215.335C175.468 218.145 173.809 220.157 171.222 220.157C168.634 220.157 166.975 218.145 166.975 215.335C166.975 212.539 168.634 210.514 171.222 210.514C173.809 210.514 175.468 212.539 175.468 215.335ZM174.305 215.335C174.305 213.088 173.26 211.468 171.222 211.468C169.17 211.468 168.125 213.088 168.125 215.335C168.125 217.596 169.17 219.203 171.222 219.203C173.26 219.203 174.305 217.596 174.305 215.335ZM179.412 217.243H180.496C180.64 218.746 181.868 219.255 183.253 219.255C184.586 219.255 185.566 218.615 185.566 217.491C185.566 216.707 185.135 216.198 183.868 215.962L182.09 215.61C180.836 215.374 179.712 214.8 179.712 213.192C179.712 211.664 181.032 210.514 182.966 210.514C184.965 210.514 186.285 211.376 186.468 213.062H185.383C185.226 212.016 184.312 211.415 182.979 211.415C181.62 211.415 180.81 212.173 180.81 213.153C180.81 214.081 181.333 214.408 182.469 214.63L184.299 215.009C185.736 215.296 186.651 215.962 186.651 217.439C186.651 219.033 185.24 220.157 183.266 220.157C181.241 220.157 179.542 219.281 179.412 217.243ZM187.999 216.72C187.999 214.617 189.267 213.271 191.096 213.271C192.56 213.271 193.526 214.107 193.736 215.505H192.703C192.52 214.63 191.985 214.146 191.096 214.146C189.802 214.146 189.071 215.178 189.071 216.72C189.071 218.262 189.802 219.281 191.096 219.281C191.985 219.281 192.52 218.798 192.703 217.922H193.736C193.526 219.334 192.56 220.157 191.096 220.157C189.267 220.157 187.999 218.824 187.999 216.72ZM201.21 216.72C201.21 218.837 199.904 220.157 198.088 220.157C196.271 220.157 194.965 218.837 194.965 216.72C194.965 214.604 196.271 213.271 198.088 213.271C199.904 213.271 201.21 214.604 201.21 216.72ZM196.036 216.72C196.036 218.301 196.807 219.281 198.088 219.281C199.368 219.281 200.139 218.301 200.139 216.72C200.139 215.139 199.368 214.146 198.088 214.146C196.807 214.146 196.036 215.139 196.036 216.72ZM206.62 213.336V214.329C206.464 214.29 206.228 214.277 206.059 214.277C205.013 214.277 204.059 215.1 204.059 216.76V220H202.975V213.428H204.02V214.982C204.308 213.898 205.144 213.284 206.111 213.284C206.281 213.284 206.464 213.297 206.62 213.336ZM213.193 218.066C212.892 219.464 211.756 220.157 210.475 220.157C208.62 220.157 207.313 218.863 207.313 216.746C207.313 214.604 208.659 213.271 210.41 213.271C212.357 213.271 213.232 214.826 213.232 216.511V216.942H208.371C208.424 218.458 209.221 219.294 210.475 219.294C211.364 219.294 211.899 218.863 212.174 218.066H213.193ZM210.41 214.146C209.378 214.146 208.594 214.813 208.411 216.158H212.174C212.148 215.022 211.586 214.146 210.41 214.146Z" fill="#181B25"/>
<mask id="mask0_13_700" style="mask-type:luminance" maskUnits="userSpaceOnUse" x="146" y="240" width="248" height="9">
<path d="M392 240.6H148C146.895 240.6 146 241.496 146 242.6V246.6C146 247.705 146.895 248.6 148 248.6H392C393.105 248.6 394 247.705 394 246.6V242.6C394 241.496 393.105 240.6 392 240.6Z" fill="white"/>
</mask>
<g mask="url(#mask0_13_700)">
<path d="M392 240.6H148C146.895 240.6 146 241.496 146 242.6V246.6C146 247.705 146.895 248.6 148 248.6H392C393.105 248.6 394 247.705 394 246.6V242.6C394 241.496 393.105 240.6 392 240.6Z" fill="#F6F6F6"/>
<path d="M378 241H146V249H378V241Z" fill="#3B82F6"/>
</g>
<path d="M394 264.2H146V265.133H394V264.2Z" fill="#F6F6F6"/>
<path d="M150.9 294.733H149.776V290.866L146.222 285.404H147.464L150.377 289.86H150.404L153.226 285.404H154.467L150.9 290.866V294.733ZM160.58 291.454C160.58 293.57 159.273 294.89 157.457 294.89C155.641 294.89 154.334 293.57 154.334 291.454C154.334 289.337 155.641 288.004 157.457 288.004C159.273 288.004 160.58 289.337 160.58 291.454ZM155.405 291.454C155.405 293.035 156.176 294.015 157.457 294.015C158.737 294.015 159.508 293.035 159.508 291.454C159.508 289.873 158.737 288.88 157.457 288.88C156.176 288.88 155.405 289.873 155.405 291.454ZM167.754 294.733H166.695V293.544C166.382 294.368 165.598 294.89 164.605 294.89C163.115 294.89 162.279 293.989 162.279 292.394V288.161H163.376V292.185C163.376 293.401 163.886 294.041 164.918 294.041C165.911 294.041 166.656 293.361 166.656 291.78V288.161H167.754V294.733ZM177.379 297.059V293.584C177.052 294.25 176.281 294.89 175.196 294.89C173.524 294.89 172.27 293.531 172.27 291.454C172.27 289.363 173.524 288.004 175.196 288.004C176.333 288.004 177.117 288.697 177.418 289.363V288.161H178.463V297.059H177.379ZM177.431 291.532V291.349C177.431 289.86 176.699 288.853 175.419 288.853C174.125 288.853 173.367 289.912 173.367 291.454C173.367 292.982 174.125 294.041 175.419 294.041C176.699 294.041 177.431 293.022 177.431 291.532ZM186.123 294.733H185.065V293.544C184.751 294.368 183.967 294.89 182.974 294.89C181.485 294.89 180.648 293.989 180.648 292.394V288.161H181.746V292.185C181.746 293.401 182.256 294.041 183.288 294.041C184.281 294.041 185.026 293.361 185.026 291.78V288.161H186.123V294.733ZM192.393 294.733C192.314 294.368 192.275 293.936 192.275 293.623C191.988 294.394 191.086 294.877 189.988 294.877C188.838 294.877 187.858 294.211 187.858 292.996C187.858 291.728 188.799 291.179 190.132 291.022L192.249 290.748V290.369C192.249 289.324 191.609 288.88 190.707 288.88C189.832 288.88 189.283 289.337 189.204 290.095H188.159C188.29 288.762 189.335 288.004 190.733 288.004C192.327 288.004 193.32 288.762 193.32 290.343V293.361C193.32 293.845 193.346 294.302 193.477 294.733H192.393ZM190.21 294.054C191.23 294.054 192.249 293.414 192.249 292.146V291.558L190.459 291.754C189.636 291.872 188.956 292.081 188.956 292.969C188.956 293.584 189.387 294.054 190.21 294.054ZM196.584 294.733H195.499V285.116H196.584V294.733ZM198.75 286.789V285.469H199.978V286.789H198.75ZM198.828 294.733V288.161H199.912V294.733H198.828ZM202.326 288.984H201.373V288.161H202.326V286.933C202.326 285.704 203.11 285.077 204.234 285.077C204.469 285.077 204.77 285.103 204.966 285.142V286.005C204.796 285.979 204.535 285.966 204.3 285.966C203.829 285.966 203.398 286.201 203.398 286.946V288.161H204.809V288.984H203.398V294.733H202.326V288.984ZM208.119 294.786L205.479 288.161H206.616L208.707 293.531H208.733L210.706 288.161H211.83L209.177 294.929C208.576 296.497 208.053 297.151 206.851 297.164C206.668 297.164 206.42 297.138 206.211 297.098V296.21C206.42 296.262 206.564 296.262 206.734 296.262C207.387 296.262 207.688 295.896 208.119 294.786ZM216.204 288.984H215.25V288.161H216.204V286.933C216.204 285.704 216.988 285.077 218.112 285.077C218.347 285.077 218.648 285.103 218.844 285.142V286.005C218.674 285.979 218.413 285.966 218.177 285.966C217.707 285.966 217.276 286.201 217.276 286.946V288.161H218.687V288.984H217.276V294.733H216.204V288.984ZM225.776 291.454C225.776 293.57 224.47 294.89 222.653 294.89C220.837 294.89 219.53 293.57 219.53 291.454C219.53 289.337 220.837 288.004 222.653 288.004C224.47 288.004 225.776 289.337 225.776 291.454ZM220.602 291.454C220.602 293.035 221.373 294.015 222.653 294.015C223.934 294.015 224.705 293.035 224.705 291.454C224.705 289.873 223.934 288.88 222.653 288.88C221.373 288.88 220.602 289.873 220.602 291.454ZM231.186 288.069V289.062C231.029 289.023 230.794 289.01 230.624 289.01C229.579 289.01 228.625 289.833 228.625 291.493V294.733H227.541V288.161H228.586V289.716C228.873 288.631 229.71 288.017 230.677 288.017C230.846 288.017 231.029 288.03 231.186 288.069ZM238.994 294.733H235.296V285.404H238.576C240.654 285.404 241.856 286.266 241.856 287.9C241.856 288.762 241.203 289.65 240.406 289.886C241.555 290.173 242.274 291.022 242.274 292.12C242.274 293.832 241.059 294.733 238.994 294.733ZM236.407 289.52H238.642C240.027 289.52 240.719 288.932 240.719 287.913C240.719 286.88 240.04 286.318 238.655 286.318H236.407V289.52ZM236.407 290.395V293.819H238.942C240.366 293.819 241.15 293.192 241.15 292.12C241.15 291.049 240.34 290.395 238.916 290.395H236.407ZM249.38 294.733H248.322V293.544C248.008 294.368 247.224 294.89 246.231 294.89C244.741 294.89 243.905 293.989 243.905 292.394V288.161H245.003V292.185C245.003 293.401 245.512 294.041 246.545 294.041C247.538 294.041 248.282 293.361 248.282 291.78V288.161H249.38V294.733ZM251.063 292.786H252.108C252.187 293.688 253.023 294.067 253.912 294.067C254.813 294.067 255.466 293.649 255.466 292.943C255.466 292.46 255.153 292.146 254.317 291.989L253.154 291.754C252.095 291.558 251.324 291.127 251.324 289.977C251.324 288.866 252.317 288.004 253.768 288.004C255.284 288.004 256.211 288.657 256.342 289.899H255.336C255.257 289.232 254.669 288.84 253.768 288.84C252.892 288.84 252.33 289.272 252.33 289.912C252.33 290.474 252.722 290.709 253.48 290.853L254.787 291.101C255.858 291.31 256.486 291.833 256.486 292.891C256.486 294.041 255.401 294.89 253.925 294.89C252.357 294.89 251.181 294.198 251.063 292.786ZM258.206 286.789V285.469H259.434V286.789H258.206ZM258.284 294.733V288.161H259.369V294.733H258.284ZM262.658 288.161V289.363C262.972 288.553 263.795 288.004 264.801 288.004C266.277 288.004 267.153 288.932 267.153 290.5V294.733H266.068V290.735C266.068 289.52 265.533 288.893 264.5 288.893C263.494 288.893 262.697 289.533 262.697 291.114V294.733H261.613V288.161H262.658ZM274.727 292.8C274.427 294.198 273.29 294.89 272.01 294.89C270.154 294.89 268.847 293.597 268.847 291.48C268.847 289.337 270.193 288.004 271.944 288.004C273.891 288.004 274.767 289.559 274.767 291.245V291.676H269.906C269.958 293.192 270.755 294.028 272.01 294.028C272.898 294.028 273.434 293.597 273.708 292.8H274.727ZM271.944 288.88C270.912 288.88 270.128 289.546 269.945 290.892H273.708C273.682 289.755 273.12 288.88 271.944 288.88ZM276.028 292.786H277.073C277.152 293.688 277.988 294.067 278.876 294.067C279.778 294.067 280.431 293.649 280.431 292.943C280.431 292.46 280.118 292.146 279.281 291.989L278.118 291.754C277.06 291.558 276.289 291.127 276.289 289.977C276.289 288.866 277.282 288.004 278.733 288.004C280.248 288.004 281.176 288.657 281.307 289.899H280.301C280.222 289.232 279.634 288.84 278.733 288.84C277.857 288.84 277.295 289.272 277.295 289.912C277.295 290.474 277.687 290.709 278.445 290.853L279.752 291.101C280.823 291.31 281.45 291.833 281.45 292.891C281.45 294.041 280.366 294.89 278.889 294.89C277.321 294.89 276.145 294.198 276.028 292.786ZM282.687 292.786H283.732C283.811 293.688 284.647 294.067 285.535 294.067C286.437 294.067 287.09 293.649 287.09 292.943C287.09 292.46 286.777 292.146 285.941 291.989L284.778 291.754C283.719 291.558 282.948 291.127 282.948 289.977C282.948 288.866 283.941 288.004 285.392 288.004C286.907 288.004 287.835 288.657 287.966 289.899H286.96C286.881 289.232 286.293 288.84 285.392 288.84C284.516 288.84 283.954 289.272 283.954 289.912C283.954 290.474 284.346 290.709 285.104 290.853L286.411 291.101C287.482 291.31 288.11 291.833 288.11 292.891C288.11 294.041 287.025 294.89 285.549 294.89C283.981 294.89 282.805 294.198 282.687 292.786ZM292.715 294.733V285.404H293.838V293.793H298.856V294.733H292.715ZM306.258 291.454C306.258 293.57 304.951 294.89 303.135 294.89C301.319 294.89 300.012 293.57 300.012 291.454C300.012 289.337 301.319 288.004 303.135 288.004C304.951 288.004 306.258 289.337 306.258 291.454ZM301.083 291.454C301.083 293.035 301.854 294.015 303.135 294.015C304.415 294.015 305.186 293.035 305.186 291.454C305.186 289.873 304.415 288.88 303.135 288.88C301.854 288.88 301.083 289.873 301.083 291.454ZM312.047 294.733C311.968 294.368 311.929 293.936 311.929 293.623C311.642 294.394 310.74 294.877 309.642 294.877C308.493 294.877 307.513 294.211 307.513 292.996C307.513 291.728 308.453 291.179 309.786 291.022L311.903 290.748V290.369C311.903 289.324 311.263 288.88 310.361 288.88C309.486 288.88 308.937 289.337 308.858 290.095H307.813C307.944 288.762 308.989 288.004 310.387 288.004C311.981 288.004 312.974 288.762 312.974 290.343V293.361C312.974 293.845 313.001 294.302 313.131 294.733H312.047ZM309.865 294.054C310.884 294.054 311.903 293.414 311.903 292.146V291.558L310.113 291.754C309.29 291.872 308.61 292.081 308.61 292.969C308.61 293.584 309.041 294.054 309.865 294.054ZM316.199 288.161V289.363C316.512 288.553 317.336 288.004 318.342 288.004C319.818 288.004 320.694 288.932 320.694 290.5V294.733H319.609V290.735C319.609 289.52 319.073 288.893 318.041 288.893C317.035 288.893 316.238 289.533 316.238 291.114V294.733H315.153V288.161H316.199ZM322.31 292.786H323.355C323.433 293.688 324.27 294.067 325.158 294.067C326.06 294.067 326.713 293.649 326.713 292.943C326.713 292.46 326.4 292.146 325.563 291.989L324.4 291.754C323.342 291.558 322.571 291.127 322.571 289.977C322.571 288.866 323.564 288.004 325.015 288.004C326.53 288.004 327.458 288.657 327.589 289.899H326.583C326.504 289.232 325.916 288.84 325.015 288.84C324.139 288.84 323.577 289.272 323.577 289.912C323.577 290.474 323.969 290.709 324.727 290.853L326.034 291.101C327.105 291.31 327.732 291.833 327.732 292.891C327.732 294.041 326.648 294.89 325.171 294.89C323.603 294.89 322.427 294.198 322.31 292.786Z" fill="#181B25"/>
<path d="M149.829 317.733L146.144 308.404H147.986L150.822 315.878H150.848L153.696 308.404H155.46L151.762 317.733H149.829ZM156.51 309.972V308.338H158.287V309.972H156.51ZM156.562 317.733V311.096H158.235V317.733H156.562ZM166.09 315.669C165.803 317.093 164.614 317.89 163.098 317.89C161.164 317.89 159.74 316.597 159.74 314.428C159.74 312.258 161.19 310.939 163.059 310.939C165.136 310.939 166.129 312.52 166.129 314.284V314.82H161.36C161.465 315.996 162.066 316.662 163.098 316.662C163.856 316.662 164.326 316.309 164.548 315.669H166.09ZM163.059 312.18C162.183 312.18 161.595 312.716 161.412 313.735H164.535C164.535 312.912 164.065 312.18 163.059 312.18ZM172.641 311.096L173.909 316.022H173.935L175.281 311.096H176.888L174.863 317.733H173.164L171.857 312.938H171.818L170.524 317.733H168.813L166.787 311.096H168.447L169.793 316.022H169.819L171.086 311.096H172.641ZM185.361 317.733V316.675C185.034 317.341 184.237 317.89 183.231 317.89C181.493 317.89 180.304 316.479 180.304 314.414C180.304 312.363 181.493 310.939 183.231 310.939C184.263 310.939 185.021 311.514 185.335 312.18V308.116H187.007V317.733H185.361ZM185.374 314.532V314.297C185.374 313.003 184.76 312.167 183.701 312.167C182.617 312.167 181.99 313.056 181.99 314.414C181.99 315.786 182.617 316.662 183.701 316.662C184.76 316.662 185.374 315.826 185.374 314.532ZM194.858 315.669C194.57 317.093 193.381 317.89 191.865 317.89C189.931 317.89 188.507 316.597 188.507 314.428C188.507 312.258 189.958 310.939 191.826 310.939C193.904 310.939 194.897 312.52 194.897 314.284V314.82H190.127C190.232 315.996 190.833 316.662 191.865 316.662C192.623 316.662 193.094 316.309 193.316 315.669H194.858ZM191.826 312.18C190.951 312.18 190.363 312.716 190.18 313.735H193.303C193.303 312.912 192.832 312.18 191.826 312.18ZM199.917 316.361V317.642C199.394 317.799 199.002 317.838 198.597 317.838C197.212 317.838 196.533 317.25 196.533 315.917V312.298H195.618V311.096H196.533V309.436H198.192V311.096H199.773V312.298H198.179V315.656C198.179 316.283 198.48 316.492 199.041 316.492C199.29 316.492 199.551 316.466 199.917 316.361ZM205.453 317.733C205.388 317.368 205.361 317.015 205.361 316.688C205.048 317.446 204.212 317.877 203.153 317.877C201.86 317.877 200.919 317.158 200.919 315.956C200.919 314.624 201.964 314.075 203.31 313.918L205.296 313.696V313.382C205.296 312.572 204.8 312.18 204.042 312.18C203.31 312.18 202.866 312.585 202.813 313.199H201.206C201.35 311.775 202.461 310.939 204.094 310.939C205.897 310.939 206.929 311.788 206.929 313.513V316.074C206.929 316.688 206.956 317.198 207.06 317.733H205.453ZM203.61 316.714C204.473 316.714 205.296 316.205 205.296 315.159V314.754L203.82 314.924C203.114 315.016 202.578 315.172 202.578 315.865C202.578 316.388 202.944 316.714 203.61 316.714ZM208.775 309.972V308.338H210.552V309.972H208.775ZM208.827 317.733V311.096H210.499V317.733H208.827ZM214.134 317.733H212.462V308.116H214.134V317.733ZM215.561 315.721H217.155C217.233 316.414 217.926 316.727 218.645 316.727C219.35 316.727 219.899 316.44 219.899 315.904C219.899 315.486 219.612 315.29 218.88 315.159L217.704 314.95C216.606 314.754 215.796 314.245 215.796 313.056C215.796 311.801 216.946 310.939 218.488 310.939C220.213 310.939 221.193 311.697 221.337 312.977H219.808C219.742 312.454 219.233 312.115 218.501 312.115C217.795 312.115 217.338 312.428 217.338 312.886C217.338 313.343 217.678 313.513 218.357 313.63L219.651 313.853C220.814 314.049 221.467 314.689 221.467 315.786C221.467 317.054 220.252 317.89 218.671 317.89C216.946 317.89 215.705 317.172 215.561 315.721Z" fill="#3B82F6"/>
<path d="M236.848 307.741L242.601 313.233L236.848 318.726" stroke="#3B82F6" stroke-width="1.5" stroke-linecap="round" stroke-linejoin="round"/>
<path d="M242.6 313.233H231.4" stroke="#3B82F6" stroke-width="1.5" stroke-linecap="round" stroke-linejoin="round"/>
</g>
</g>
<defs>
<clipPath id="clip0_13_700">
<rect width="540" height="488" fill="white"/>
</clipPath>
<clipPath id="clip1_13_700">
<rect width="280" height="189" fill="white" transform="translate(130 150)"/>
</clipPath>
</defs>
</svg>
