<svg width="540" height="488" viewBox="0 0 540 488" fill="none" xmlns="http://www.w3.org/2000/svg">
<g clip-path="url(#clip0_14_907)">
<rect width="540" height="488" fill="#CEE3FE"/>
<path d="M532 0H8C3.58172 0 0 3.58172 0 8V480C0 484.418 3.58172 488 8 488H532C536.418 488 540 484.418 540 480V8C540 3.58172 536.418 0 532 0Z" fill="#D9D9D9"/>
<g clip-path="url(#clip1_14_907)">
<path d="M426 206.876H114C111.791 206.876 110 208.667 110 210.876V278.753C110 280.962 111.791 282.753 114 282.753H426C428.209 282.753 430 280.962 430 278.753V210.876C430 208.667 428.209 206.876 426 206.876Z" fill="white"/>
<path d="M124.877 230.674V222.637H121.499V221.252H130.01V222.637H126.619V230.674H124.877ZM134.533 223.904V225.461C134.335 225.422 134.098 225.408 133.887 225.408C132.857 225.408 132 226.121 132 227.573V230.674H130.311V223.97H131.973V225.474C132.29 224.432 133.069 223.851 134.032 223.851C134.203 223.851 134.388 223.865 134.533 223.904ZM139.838 230.674C139.772 230.304 139.745 229.948 139.745 229.618C139.429 230.383 138.584 230.819 137.515 230.819C136.209 230.819 135.259 230.093 135.259 228.879C135.259 227.533 136.314 226.979 137.674 226.82L139.679 226.596V226.279C139.679 225.461 139.178 225.065 138.412 225.065C137.674 225.065 137.225 225.474 137.172 226.095H135.549C135.694 224.656 136.816 223.812 138.465 223.812C140.286 223.812 141.329 224.669 141.329 226.411V228.998C141.329 229.618 141.355 230.133 141.461 230.674H139.838ZM137.977 229.644C138.848 229.644 139.679 229.13 139.679 228.074V227.665L138.188 227.836C137.476 227.929 136.935 228.087 136.935 228.787C136.935 229.314 137.304 229.644 137.977 229.644ZM144.908 223.97V225.105C145.224 224.34 146.003 223.812 147.019 223.812C148.55 223.812 149.474 224.762 149.474 226.372V230.674H147.784V226.768C147.784 225.699 147.323 225.145 146.438 225.145C145.594 225.145 144.934 225.686 144.934 227.032V230.674H143.245V223.97H144.908ZM150.834 228.641H152.444C152.523 229.341 153.222 229.658 153.948 229.658C154.66 229.658 155.215 229.367 155.215 228.826C155.215 228.404 154.924 228.206 154.185 228.074L152.998 227.863C151.889 227.665 151.071 227.15 151.071 225.949C151.071 224.683 152.232 223.812 153.789 223.812C155.531 223.812 156.521 224.577 156.666 225.87H155.122C155.056 225.342 154.542 224.999 153.803 224.999C153.09 224.999 152.628 225.316 152.628 225.778C152.628 226.24 152.971 226.411 153.658 226.53L154.964 226.754C156.138 226.952 156.798 227.599 156.798 228.707C156.798 229.987 155.571 230.832 153.974 230.832C152.232 230.832 150.979 230.106 150.834 228.641ZM158.542 225.184H157.618V223.97H158.542V223.02C158.542 221.634 159.373 220.922 160.733 220.922C161.089 220.922 161.432 220.935 161.709 220.988V222.268C161.511 222.241 161.3 222.228 161.062 222.228C160.574 222.228 160.231 222.453 160.231 223.099V223.97H161.59V225.184H160.231V230.674H158.542V225.184ZM168.701 228.589C168.411 230.027 167.21 230.832 165.679 230.832C163.726 230.832 162.288 229.526 162.288 227.335C162.288 225.145 163.753 223.812 165.64 223.812C167.738 223.812 168.741 225.408 168.741 227.19V227.731H163.924C164.03 228.919 164.637 229.592 165.679 229.592C166.445 229.592 166.92 229.235 167.144 228.589H168.701ZM165.64 225.065C164.756 225.065 164.162 225.606 163.977 226.636H167.131C167.131 225.804 166.656 225.065 165.64 225.065ZM174.484 223.904V225.461C174.286 225.422 174.048 225.408 173.837 225.408C172.808 225.408 171.95 226.121 171.95 227.573V230.674H170.261V223.97H171.924V225.474C172.24 224.432 173.019 223.851 173.982 223.851C174.154 223.851 174.338 223.865 174.484 223.904ZM182.334 227.203H180.144V230.674H178.428V221.252H182.321C184.551 221.252 185.844 222.268 185.844 224.234C185.844 226.2 184.551 227.203 182.334 227.203ZM180.144 225.831H182.176C183.469 225.831 184.116 225.303 184.116 224.234C184.116 223.152 183.469 222.637 182.176 222.637H180.144V225.831ZM193.316 227.322C193.316 229.499 191.904 230.832 189.924 230.832C187.945 230.832 186.533 229.499 186.533 227.322C186.533 225.158 187.945 223.812 189.924 223.812C191.904 223.812 193.316 225.158 193.316 227.322ZM188.222 227.322C188.222 228.734 188.829 229.578 189.924 229.578C191.007 229.578 191.627 228.734 191.627 227.322C191.627 225.923 191.007 225.065 189.924 225.065C188.829 225.065 188.222 225.923 188.222 227.322ZM196.517 230.674H194.828V220.961H196.517V230.674ZM198.446 222.835V221.186H200.241V222.835H198.446ZM198.499 230.674V223.97H200.188V230.674H198.499ZM201.708 227.322C201.708 225.158 203.107 223.812 205.073 223.812C206.736 223.812 207.804 224.775 207.989 226.266H206.392C206.261 225.54 205.825 225.079 205.06 225.079C203.991 225.079 203.397 225.963 203.397 227.322C203.397 228.694 203.991 229.565 205.06 229.565C205.825 229.565 206.261 229.09 206.392 228.378H207.989C207.804 229.882 206.736 230.832 205.073 230.832C203.107 230.832 201.708 229.499 201.708 227.322ZM211.142 230.66L208.529 223.97H210.244L212.105 229.024H212.131L213.9 223.97H215.575L212.963 230.792C212.329 232.468 211.551 233.115 210.139 233.128C209.914 233.128 209.598 233.102 209.36 233.062V231.782C209.558 231.822 209.664 231.822 209.809 231.822C210.495 231.822 210.785 231.584 211.142 230.66Z" fill="#8D929D"/>
<path d="M370.433 229.084C370.433 231.231 368.585 232.674 366.069 232.832V234.591H364.785V232.814C362.251 232.586 360.351 231.284 360.158 228.891H362.304C362.427 230.263 363.501 230.932 364.785 231.108V227.219L363.87 227.061C362.04 226.727 360.545 225.865 360.545 223.665C360.545 221.554 362.304 220.076 364.785 219.935V218.264H366.069V219.953C368.515 220.199 369.975 221.466 370.204 223.542H368.093C367.97 222.504 367.248 221.906 366.069 221.712V225.46L367.195 225.671C369.219 226.058 370.433 227.079 370.433 229.084ZM364.627 225.178L364.785 225.214V221.677C363.43 221.8 362.656 222.522 362.656 223.524C362.656 224.563 363.254 224.914 364.627 225.178ZM366.281 227.501L366.069 227.466V231.143C367.477 231.002 368.322 230.334 368.322 229.243C368.322 228.328 367.829 227.782 366.281 227.501ZM380.883 223.7C380.883 225.988 379.123 227.043 377.065 228.205C375.499 229.119 374.373 229.929 374.337 230.826H380.953V232.674H371.786V231.776C371.786 229.331 373.933 227.818 375.815 226.691C377.557 225.636 378.683 224.914 378.683 223.683C378.683 222.609 378.05 221.712 376.572 221.712C375.129 221.712 374.285 222.821 374.197 224.123H371.962C372.121 221.8 373.739 219.9 376.59 219.9C379.282 219.9 380.883 221.589 380.883 223.7ZM391.645 229.26C391.645 231.213 389.974 232.885 387 232.885C384.132 232.885 382.303 231.301 382.091 228.926H384.326C384.431 230.246 385.452 231.108 387 231.108C388.549 231.108 389.481 230.334 389.481 229.102C389.481 227.835 388.513 227.219 387.088 227.219H385.786V225.495H387.053C388.232 225.495 389.182 224.967 389.182 223.63C389.182 222.539 388.443 221.677 387.053 221.677C385.575 221.677 384.713 222.662 384.625 223.929H382.478C382.619 221.747 384.203 219.9 387.071 219.9C389.903 219.9 391.364 221.624 391.364 223.56C391.364 225.038 390.378 226.093 389.112 226.322C390.625 226.568 391.645 227.712 391.645 229.26ZM401.325 220.111V227.747H403.823V229.524H401.325V232.674H399.09V229.524H392.862V227.73L398.791 220.111H401.325ZM399.09 222.293L394.92 227.747H399.09V222.293ZM405.03 226.392C405.03 222.627 407.107 219.9 410.379 219.9C413.652 219.9 415.71 222.627 415.71 226.392C415.71 230.158 413.652 232.885 410.379 232.885C407.107 232.885 405.03 230.158 405.03 226.392ZM407.388 226.392C407.388 229.243 408.373 231.055 410.379 231.055C412.367 231.055 413.353 229.243 413.353 226.392C413.353 223.542 412.367 221.73 410.379 221.73C408.373 221.73 407.388 223.542 407.388 226.392Z" fill="#0E121B"/>
<mask id="mask0_14_907" style="mask-type:luminance" maskUnits="userSpaceOnUse" x="120" y="255" width="296" height="10">
<path d="M413.505 255.261H123.195C121.981 255.261 120.996 256.246 120.996 257.46V261.859C120.996 263.074 121.981 264.058 123.195 264.058H413.505C414.719 264.058 415.704 263.074 415.704 261.859V257.46C415.704 256.246 414.719 255.261 413.505 255.261Z" fill="white"/>
</mask>
<g mask="url(#mask0_14_907)">
<path d="M413.505 255.261H123.195C121.981 255.261 120.996 256.246 120.996 257.46V261.859C120.996 263.074 121.981 264.058 123.195 264.058H413.505C414.719 264.058 415.704 263.074 415.704 261.859V257.46C415.704 256.246 414.719 255.261 413.505 255.261Z" fill="#F6F6F6"/>
<path d="M214.467 255.261H120.996V284.952H214.467V255.261Z" fill="#EDEDED"/>
</g>
<path d="M215.567 248.664H211.168C209.953 248.664 208.969 249.649 208.969 250.863V267.358C208.969 268.573 209.953 269.557 211.168 269.557H215.567C216.781 269.557 217.766 268.573 217.766 267.358V250.863C217.766 249.649 216.781 248.664 215.567 248.664Z" fill="#0E121B"/>
<path d="M426 290.752H114C111.791 290.752 110 292.543 110 294.752V362.628C110 364.837 111.791 366.628 114 366.628H426C428.209 366.628 430 364.837 430 362.628V294.752C430 292.543 428.209 290.752 426 290.752Z" fill="white"/>
<path d="M124.877 314.55V306.513H121.499V305.128H130.01V306.513H126.619V314.55H124.877ZM136.12 312.465C135.83 313.903 134.629 314.708 133.098 314.708C131.145 314.708 129.707 313.402 129.707 311.211C129.707 309.02 131.172 307.688 133.059 307.688C135.157 307.688 136.16 309.284 136.16 311.066V311.607H131.343C131.449 312.795 132.056 313.467 133.098 313.467C133.864 313.467 134.339 313.111 134.563 312.465H136.12ZM133.059 308.941C132.175 308.941 131.581 309.482 131.396 310.512H134.55C134.55 309.68 134.075 308.941 133.059 308.941ZM141.912 314.55C141.846 314.18 141.82 313.824 141.82 313.494C141.503 314.259 140.659 314.695 139.59 314.695C138.284 314.695 137.333 313.969 137.333 312.755C137.333 311.409 138.389 310.855 139.748 310.696L141.754 310.472V310.155C141.754 309.337 141.253 308.941 140.487 308.941C139.748 308.941 139.3 309.35 139.247 309.971H137.624C137.769 308.532 138.891 307.688 140.54 307.688C142.361 307.688 143.404 308.545 143.404 310.287V312.874C143.404 313.494 143.43 314.009 143.535 314.55H141.912ZM140.052 313.52C140.923 313.52 141.754 313.006 141.754 311.95V311.541L140.263 311.712C139.55 311.805 139.009 311.963 139.009 312.663C139.009 313.19 139.379 313.52 140.052 313.52ZM151.113 308.994C151.535 308.189 152.38 307.688 153.369 307.688C154.913 307.688 155.731 308.651 155.731 310.248V314.55H154.029V310.617C154.029 309.548 153.633 309.02 152.802 309.02C151.997 309.02 151.364 309.588 151.364 310.894V314.55H149.674V310.617C149.674 309.548 149.279 309.02 148.447 309.02C147.629 309.02 147.009 309.588 147.009 310.894V314.55H145.32V307.846H146.982V308.981C147.299 308.202 148.078 307.688 149.041 307.688C150.163 307.688 150.783 308.202 151.113 308.994ZM160.369 314.55V305.128H162.124V313.164H166.98V314.55H160.369ZM168.548 306.711V305.062H170.342V306.711H168.548ZM168.6 314.55V307.846H170.289V314.55H168.6ZM178.064 308.994C178.486 308.189 179.331 307.688 180.321 307.688C181.865 307.688 182.683 308.651 182.683 310.248V314.55H180.98V310.617C180.98 309.548 180.585 309.02 179.753 309.02C178.948 309.02 178.315 309.588 178.315 310.894V314.55H176.626V310.617C176.626 309.548 176.23 309.02 175.399 309.02C174.58 309.02 173.96 309.588 173.96 310.894V314.55H172.271V307.846H173.934V308.981C174.251 308.202 175.029 307.688 175.992 307.688C177.114 307.688 177.734 308.202 178.064 308.994ZM184.536 306.711V305.062H186.331V306.711H184.536ZM184.589 314.55V307.846H186.278V314.55H184.589ZM191.809 313.164V314.457C191.282 314.616 190.886 314.655 190.477 314.655C189.078 314.655 188.392 314.061 188.392 312.715V309.06H187.468V307.846H188.392V306.17H190.068V307.846H191.664V309.06H190.054V312.451C190.054 313.085 190.358 313.296 190.925 313.296C191.176 313.296 191.44 313.27 191.809 313.164Z" fill="#8D929D"/>
<path d="M372.621 312.961C372.621 315.107 370.773 316.55 368.257 316.708V318.468H366.973V316.691C364.439 316.462 362.539 315.16 362.346 312.767H364.492C364.615 314.139 365.689 314.808 366.973 314.984V311.096L366.058 310.937C364.228 310.603 362.733 309.741 362.733 307.541C362.733 305.43 364.492 303.952 366.973 303.811V302.14H368.257V303.829C370.703 304.075 372.163 305.342 372.392 307.418H370.281C370.158 306.38 369.436 305.782 368.257 305.588V309.336L369.383 309.547C371.407 309.934 372.621 310.955 372.621 312.961ZM366.815 309.055L366.973 309.09V305.553C365.618 305.676 364.844 306.398 364.844 307.401C364.844 308.439 365.442 308.791 366.815 309.055ZM368.468 311.377L368.257 311.342V315.019C369.665 314.878 370.509 314.21 370.509 313.119C370.509 312.204 370.017 311.659 368.468 311.377ZM373.851 307.383V305.835C375.998 305.835 376.842 305.254 377.141 303.952H378.742V316.55H376.42V307.383H373.851ZM389.374 303.987V311.623H391.873V313.4H389.374V316.55H387.14V313.4H380.911V311.606L386.841 303.987H389.374ZM387.14 306.169L382.97 311.623H387.14V306.169ZM397.549 314.966C399.502 314.966 400.593 312.978 400.593 310.357C400.1 311.447 399.009 312.38 397.355 312.38C394.839 312.38 393.062 310.55 393.062 308.14C393.062 305.624 394.892 303.776 397.672 303.776C400.646 303.776 402.722 306.187 402.722 310.057C402.722 314.087 400.558 316.761 397.479 316.761C395.103 316.761 393.485 315.336 393.185 313.207H395.314C395.578 314.315 396.282 314.966 397.549 314.966ZM397.69 305.5C396.177 305.5 395.209 306.591 395.209 308.104C395.209 309.6 396.177 310.691 397.69 310.691C399.203 310.691 400.223 309.6 400.223 308.104C400.223 306.591 399.203 305.5 397.69 305.5ZM404.229 310.269C404.229 306.503 406.305 303.776 409.577 303.776C412.85 303.776 414.908 306.503 414.908 310.269C414.908 314.034 412.85 316.761 409.577 316.761C406.305 316.761 404.229 314.034 404.229 310.269ZM406.586 310.269C406.586 313.119 407.572 314.931 409.577 314.931C411.566 314.931 412.551 313.119 412.551 310.269C412.551 307.418 411.566 305.606 409.577 305.606C407.572 305.606 406.586 307.418 406.586 310.269Z" fill="#0E121B"/>
<mask id="mask1_14_907" style="mask-type:luminance" maskUnits="userSpaceOnUse" x="120" y="339" width="296" height="9">
<path d="M413.506 339.137H123.196C121.982 339.137 120.997 340.122 120.997 341.336V345.735C120.997 346.95 121.982 347.934 123.196 347.934H413.506C414.72 347.934 415.705 346.95 415.705 345.735V341.336C415.705 340.122 414.72 339.137 413.506 339.137Z" fill="white"/>
</mask>
<g mask="url(#mask1_14_907)">
<path d="M413.506 339.137H123.196C121.982 339.137 120.997 340.122 120.997 341.336V345.735C120.997 346.95 121.982 347.934 123.196 347.934H413.506C414.72 347.934 415.705 346.95 415.705 345.735V341.336C415.705 340.122 414.72 339.137 413.506 339.137Z" fill="#F6F6F6"/>
<path d="M306.839 339.138H120.997V368.829H306.839V339.138Z" fill="#EDEDED"/>
</g>
<path d="M310.137 332.54H305.738C304.524 332.54 303.539 333.525 303.539 334.739V351.234C303.539 352.449 304.524 353.433 305.738 353.433H310.137C311.352 353.433 312.336 352.449 312.336 351.234V334.739C312.336 333.525 311.352 332.54 310.137 332.54Z" fill="#0E121B"/>
<path d="M426 123H114C111.791 123 110 124.791 110 127V194.876C110 197.085 111.791 198.876 114 198.876H426C428.209 198.876 430 197.085 430 194.876V127C430 124.791 428.209 123 426 123Z" fill="white"/>
<path d="M128.888 146.797L128.004 144.488H123.755L122.858 146.797H121.142L124.929 137.375H126.895L130.683 146.797H128.888ZM125.879 139.064L124.296 143.129H127.476L125.919 139.064H125.879ZM136.347 146.797V145.728C136.017 146.401 135.212 146.956 134.196 146.956C132.441 146.956 131.24 145.53 131.24 143.445C131.24 141.374 132.441 139.935 134.196 139.935C135.239 139.935 136.004 140.516 136.321 141.189V137.085H138.01V146.797H136.347ZM136.36 143.564V143.327C136.36 142.02 135.74 141.176 134.671 141.176C133.576 141.176 132.943 142.073 132.943 143.445C132.943 144.831 133.576 145.715 134.671 145.715C135.74 145.715 136.36 144.871 136.36 143.564ZM141.86 146.797L139.221 140.094H140.923L142.784 145.148H142.81L144.631 140.094H146.281L143.708 146.797H141.86ZM153.217 144.712C152.927 146.151 151.726 146.956 150.195 146.956C148.242 146.956 146.804 145.649 146.804 143.459C146.804 141.268 148.268 139.935 150.155 139.935C152.254 139.935 153.256 141.532 153.256 143.313V143.854H148.44C148.545 145.042 149.152 145.715 150.195 145.715C150.96 145.715 151.435 145.359 151.66 144.712H153.217ZM150.155 141.189C149.271 141.189 148.677 141.73 148.493 142.759H151.647C151.647 141.928 151.171 141.189 150.155 141.189ZM158.999 140.028V141.585C158.801 141.545 158.564 141.532 158.353 141.532C157.323 141.532 156.466 142.245 156.466 143.696V146.797H154.777V140.094H156.439V141.598C156.756 140.556 157.534 139.975 158.498 139.975C158.669 139.975 158.854 139.988 158.999 140.028ZM164.059 145.412V146.705C163.531 146.863 163.135 146.903 162.726 146.903C161.327 146.903 160.641 146.309 160.641 144.963V141.308H159.717V140.094H160.641V138.418H162.317V140.094H163.914V141.308H162.304V144.699C162.304 145.332 162.607 145.544 163.175 145.544C163.425 145.544 163.689 145.517 164.059 145.412ZM165.506 138.959V137.309H167.301V138.959H165.506ZM165.559 146.797V140.094H167.248V146.797H165.559ZM168.689 144.765H170.299C170.378 145.464 171.077 145.781 171.803 145.781C172.515 145.781 173.07 145.491 173.07 144.95C173.07 144.527 172.779 144.33 172.04 144.198L170.853 143.986C169.744 143.789 168.926 143.274 168.926 142.073C168.926 140.806 170.087 139.935 171.645 139.935C173.386 139.935 174.376 140.701 174.521 141.994H172.977C172.911 141.466 172.397 141.123 171.658 141.123C170.945 141.123 170.483 141.44 170.483 141.901C170.483 142.363 170.826 142.535 171.513 142.654L172.819 142.878C173.993 143.076 174.653 143.723 174.653 144.831C174.653 146.111 173.426 146.956 171.829 146.956C170.087 146.956 168.834 146.23 168.689 144.765ZM176.16 138.959V137.309H177.954V138.959H176.16ZM176.212 146.797V140.094H177.901V146.797H176.212ZM181.546 140.094V141.229C181.863 140.463 182.641 139.935 183.657 139.935C185.188 139.935 186.112 140.885 186.112 142.495V146.797H184.423V142.891C184.423 141.822 183.961 141.268 183.077 141.268C182.232 141.268 181.572 141.809 181.572 143.155V146.797H179.883V140.094H181.546ZM192.631 146.349V145.398C192.315 146.045 191.576 146.626 190.507 146.626C188.739 146.626 187.551 145.28 187.551 143.274C187.551 141.308 188.739 139.935 190.507 139.935C191.576 139.935 192.341 140.542 192.658 141.189V140.094H194.32V146.137C194.32 148.328 192.908 149.304 190.916 149.304C189.108 149.304 187.947 148.552 187.696 147.219H189.372C189.557 147.879 190.137 148.117 190.916 148.117C191.985 148.117 192.631 147.563 192.631 146.349ZM192.697 143.406V143.129C192.697 141.941 191.985 141.163 190.955 141.163C189.873 141.163 189.24 141.994 189.24 143.274C189.24 144.541 189.873 145.385 190.955 145.385C191.985 145.385 192.697 144.607 192.697 143.406Z" fill="#8D929D"/>
<path d="M365.187 145.208C365.187 147.354 363.34 148.797 360.824 148.956V150.715H359.539V148.938C357.006 148.709 355.105 147.407 354.912 145.014H357.058C357.182 146.387 358.255 147.055 359.539 147.231V143.343L358.624 143.185C356.795 142.85 355.299 141.988 355.299 139.789C355.299 137.677 357.058 136.2 359.539 136.059V134.387H360.824V136.076C363.269 136.323 364.73 137.589 364.958 139.666H362.847C362.724 138.628 362.003 138.029 360.824 137.836V141.583L361.95 141.795C363.973 142.182 365.187 143.202 365.187 145.208ZM359.381 141.302L359.539 141.337V137.801C358.185 137.924 357.41 138.645 357.41 139.648C357.41 140.686 358.009 141.038 359.381 141.302ZM361.035 143.624L360.824 143.589V147.266C362.231 147.126 363.076 146.457 363.076 145.366C363.076 144.451 362.583 143.906 361.035 143.624ZM371.643 136.024C374.141 136.024 376.042 137.326 376.042 139.578C376.042 140.932 375.215 141.935 374.089 142.428C375.338 142.674 376.605 143.871 376.605 145.349C376.605 147.566 374.634 149.008 371.643 149.008C368.652 149.008 366.681 147.566 366.681 145.349C366.681 143.871 367.948 142.674 369.197 142.428C368.071 141.935 367.244 140.932 367.244 139.578C367.244 137.326 369.145 136.024 371.643 136.024ZM371.643 141.566C372.945 141.566 373.983 140.915 373.983 139.63C373.983 138.328 372.945 137.695 371.643 137.695C370.323 137.695 369.303 138.328 369.303 139.63C369.303 140.915 370.323 141.566 371.643 141.566ZM371.643 147.302C373.385 147.302 374.37 146.492 374.37 145.261C374.37 144.029 373.385 143.22 371.643 143.22C369.901 143.22 368.916 144.029 368.916 145.261C368.916 146.492 369.901 147.302 371.643 147.302ZM378.45 148.727V146.176H381.072V148.973C381.072 150.733 379.928 151.735 378.063 151.735V150.521C379.013 150.521 379.646 150.187 379.646 148.973V148.727H378.45ZM392.367 139.824C392.367 142.111 390.608 143.167 388.549 144.328C386.983 145.243 385.857 146.052 385.822 146.95H392.438V148.797H383.271V147.9C383.271 145.454 385.417 143.941 387.3 142.815C389.042 141.759 390.168 141.038 390.168 139.806C390.168 138.733 389.535 137.836 388.057 137.836C386.614 137.836 385.769 138.944 385.681 140.246H383.447C383.605 137.924 385.224 136.024 388.074 136.024C390.766 136.024 392.367 137.713 392.367 139.824ZM398.555 142.094C397.447 142.094 396.708 142.639 396.321 143.255H394.227L394.948 136.235H402.479V138.082H396.62L396.286 141.355C396.761 140.827 397.746 140.334 398.925 140.334C401.529 140.334 403.2 142.199 403.2 144.662C403.2 147.091 401.458 149.008 398.555 149.008C395.723 149.008 393.91 147.407 393.717 144.979H396.039C396.145 146.299 397.077 147.249 398.555 147.249C400.174 147.249 400.966 146.052 400.966 144.68C400.966 143.29 400.192 142.094 398.555 142.094ZM409.852 137.818C407.899 137.818 406.808 139.806 406.808 142.428C407.301 141.337 408.392 140.405 410.045 140.405C412.561 140.405 414.338 142.234 414.338 144.645C414.338 147.161 412.509 149.008 409.729 149.008C406.755 149.008 404.679 146.598 404.679 142.727C404.679 138.698 406.843 136.024 409.922 136.024C412.297 136.024 413.916 137.449 414.215 139.578H412.086C411.822 138.469 411.119 137.818 409.852 137.818ZM409.711 147.284C411.224 147.284 412.192 146.193 412.192 144.68C412.192 143.185 411.224 142.094 409.711 142.094C408.198 142.094 407.177 143.185 407.177 144.68C407.177 146.193 408.198 147.284 409.711 147.284Z" fill="#0E121B"/>
<mask id="mask2_14_907" style="mask-type:luminance" maskUnits="userSpaceOnUse" x="120" y="171" width="296" height="10">
<path d="M413.505 171.385H123.195C121.981 171.385 120.996 172.369 120.996 173.584V177.982C120.996 179.197 121.981 180.182 123.195 180.182H413.505C414.719 180.182 415.704 179.197 415.704 177.982V173.584C415.704 172.369 414.719 171.385 413.505 171.385Z" fill="white"/>
</mask>
<g mask="url(#mask2_14_907)">
<path d="M413.505 171.385H123.195C121.981 171.385 120.996 172.369 120.996 173.584V177.982C120.996 179.197 121.981 180.182 123.195 180.182H413.505C414.719 180.182 415.704 179.197 415.704 177.982V173.584C415.704 172.369 414.719 171.385 413.505 171.385Z" fill="#F6F6F6"/>
<path d="M306.838 171.385H120.996V201.075H306.838V171.385Z" fill="#EDEDED"/>
</g>
<path d="M310.136 164.786H305.737C304.523 164.786 303.538 165.771 303.538 166.986V183.481C303.538 184.695 304.523 185.68 305.737 185.68H310.136C311.351 185.68 312.335 184.695 312.335 183.481V166.986C312.335 165.771 311.351 164.786 310.136 164.786Z" fill="#0E121B"/>
</g>
</g>
<defs>
<clipPath id="clip0_14_907">
<rect width="540" height="488" fill="white"/>
</clipPath>
<clipPath id="clip1_14_907">
<rect width="320" height="244" fill="white" transform="translate(110 123)"/>
</clipPath>
</defs>
</svg>
