<?xml version="1.0" standalone="no"?>
<!DOCTYPE svg PUBLIC "-//W3C//DTD SVG 20010904//EN"
 "http://www.w3.org/TR/2001/REC-SVG-20010904/DTD/svg10.dtd">
<svg version="1.0" xmlns="http://www.w3.org/2000/svg"
 width="300.000000pt" height="300.000000pt" viewBox="0 0 300.000000 300.000000"
 preserveAspectRatio="xMidYMid meet">
<metadata>
Created by potrace 1.10, written by Peter Selinger 2001-2011
</metadata>
<g transform="translate(0.000000,300.000000) scale(0.050000,-0.050000)"
fill="#e5a50a" stroke="none">
<path d="M2864 5117 c-211 -146 -200 -157 168 -157 269 0 320 27 193 103 -30
18 -91 60 -136 93 l-81 62 -144 -101z"/>
<path d="M2575 4858 c-40 -23 -46 -79 -11 -114 34 -34 858 -34 892 0 33 33 30
67 -7 105 -38 37 -812 46 -874 9z"/>
<path d="M2327 4602 c-79 -49 -117 -100 -368 -502 -283 -454 -268 -440 -473
-440 -184 0 -246 -33 -246 -129 0 -94 83 -131 291 -131 230 0 224 -5 489 412
424 666 325 606 989 607 653 0 521 94 1076 -761 157 -242 181 -258 393 -258
215 1 270 25 278 124 9 106 -44 136 -241 136 -196 0 -179 -16 -474 450 -261
414 -285 446 -357 494 -85 56 -1264 54 -1357 -2z"/>
<path d="M1860 4590 c-20 -24 -18 -32 8 -42 44 -17 92 4 92 41 0 40 -68 40
-100 1z"/>
<path d="M1628 4371 c-18 -47 10 -71 84 -71 75 0 116 50 66 82 -44 28 -138 21
-150 -11z"/>
<path d="M4255 4378 c-64 -37 -42 -78 44 -78 91 0 124 34 70 73 -43 32 -67 33
-114 5z"/>
<path d="M2528 4162 c-35 -22 -108 -110 -166 -205 -418 -672 -397 -651 -668
-664 -219 -11 -274 -37 -274 -135 0 -97 58 -118 322 -118 288 0 285 -2 480
316 240 391 383 602 416 615 60 24 676 26 724 2 44 -23 201 -253 431 -633 184
-305 176 -300 475 -300 270 0 332 22 332 118 0 100 -60 128 -292 138 -121 4
-231 18 -246 31 -27 21 -275 395 -447 673 -122 196 -134 200 -615 200 -367 0
-416 -4 -472 -38z"/>
<path d="M4209 3983 c-4 -4 30 -61 76 -125 l83 -118 147 0 c168 0 169 9 33
160 -64 70 -295 127 -339 83z"/>
<path d="M1525 3967 c-39 -16 -166 -189 -153 -209 12 -20 208 -24 256 -6 28
11 172 193 172 218 0 13 -242 10 -275 -3z"/>
<path d="M2694 3888 c-23 -23 6 -48 57 -48 27 0 77 -26 113 -57 l64 -58 -55
-65 c-39 -46 -50 -77 -41 -107 7 -24 18 -56 23 -73 5 -16 -50 31 -122 105
-106 110 -142 135 -193 135 -63 0 84 -152 227 -235 37 -21 18 -25 -127 -26
-201 -2 -324 -21 -334 -52 -13 -38 98 -45 254 -15 338 64 352 32 39 -90 -259
-101 -312 -143 -300 -242 19 -155 202 -110 415 103 166 165 204 165 113 0
-160 -287 -120 -585 104 -781 l71 -63 59 42 c228 162 286 504 136 797 -90 175
-80 177 84 11 191 -195 324 -243 410 -148 85 94 -76 226 -403 329 -199 62 -68
95 162 40 127 -30 277 -20 264 18 -10 31 -198 56 -368 48 -106 -5 -135 -1
-108 14 65 36 270 229 257 242 -32 32 -117 -21 -213 -132 -118 -135 -157 -154
-109 -51 34 70 3 171 -53 171 -88 0 26 109 148 142 53 14 71 27 56 42 -31 31
-153 -16 -222 -86 -76 -75 -110 -73 -205 12 -42 39 -90 70 -105 70 -16 0 -41
5 -56 11 -16 5 -34 4 -42 -3z m280 -298 c-25 -54 -49 -83 -60 -72 -23 23 42
162 76 162 18 0 13 -26 -16 -90z m-265 -371 c-195 -199 -300 -244 -357 -154
-31 50 10 83 250 195 270 125 271 125 107 -41z m731 25 c184 -83 211 -101 216
-147 16 -138 -159 -85 -346 103 -163 165 -149 169 130 44z m-391 13 c34 -30
-59 -19 -100 13 -37 29 -36 30 21 18 33 -7 69 -21 79 -31z m57 -140 c45 -23
73 -55 74 -82 0 -8 -81 -15 -180 -15 -191 0 -211 12 -127 79 58 45 165 54 233
18z m79 -221 c61 -23 72 -65 23 -84 -88 -34 -428 -13 -428 27 0 90 232 123
405 57z m10 -234 c41 -22 -43 -98 -126 -113 -114 -22 -289 33 -289 91 0 51
331 69 415 22z"/>
<path d="M2648 2942 c-90 -55 -130 -168 -115 -330 11 -113 47 -172 47 -76 0
19 20 70 43 114 33 60 106 330 90 330 -2 0 -31 -17 -65 -38z"/>
<path d="M3317 2971 c-20 -21 35 -269 68 -306 17 -19 35 -61 38 -93 16 -139
57 -76 57 87 0 157 -109 365 -163 312z"/>
<path d="M1473 2899 c-155 -122 -44 -219 250 -219 l214 0 69 -85 c37 -47 102
-139 144 -205 334 -529 264 -490 865 -490 566 0 517 -24 782 393 267 420 225
387 495 387 247 0 328 40 297 148 -28 95 -77 112 -331 112 -297 0 -294 2 -566
-429 -267 -421 -213 -391 -690 -391 -490 1 -396 -66 -809 578 -147 230 -169
242 -449 242 -191 0 -225 -5 -271 -41z"/>
<path d="M1303 2534 c-96 -103 -44 -154 159 -154 200 0 192 8 486 -461 331
-528 224 -479 1052 -479 848 0 710 -75 1155 626 193 303 191 302 402 314 170
10 173 11 179 64 12 104 -50 136 -267 136 -240 0 -241 -1 -380 -225 -220 -353
-374 -585 -425 -640 l-51 -55 -598 0 c-388 0 -612 8 -638 21 -36 20 -365 506
-503 743 -82 142 -113 156 -335 156 -175 0 -196 -4 -236 -46z"/>
<path d="M1260 2244 c0 -101 49 -124 271 -124 234 0 229 -3 157 91 l-53 69
-187 0 c-167 0 -188 -4 -188 -36z"/>
<path d="M4332 2219 c-78 -93 -69 -99 147 -99 215 0 269 23 257 107 -11 81
-335 74 -404 -8z"/>
<path d="M1400 2018 c0 -13 35 -58 78 -100 l77 -78 185 0 185 0 -35 55 c-89
139 -101 145 -303 145 -125 0 -187 -7 -187 -22z"/>
<path d="M4217 2015 c-33 -27 -117 -144 -117 -163 0 -38 337 -10 392 33 66 51
126 118 127 140 2 26 -369 17 -402 -10z"/>
<path d="M1750 1619 c-23 -37 20 -62 92 -55 96 9 92 64 -5 72 -40 3 -80 -4
-87 -17z"/>
<path d="M4104 1605 c5 -26 26 -35 86 -35 60 0 81 9 86 35 6 29 -8 35 -86 35
-78 0 -92 -6 -86 -35z"/>
<path d="M2972 1345 c-430 -6 -472 -14 -472 -87 0 -107 47 -118 509 -118 457
0 491 8 491 114 0 30 -73 108 -95 101 -8 -2 -203 -7 -433 -10z"/>
<path d="M1894 1328 c-39 -39 -10 -68 67 -68 67 0 81 6 75 35 -7 36 -114 61
-142 33z"/>
<path d="M3994 1327 c-23 -22 28 -67 76 -67 48 0 99 45 76 67 -7 7 -41 13 -76
13 -35 0 -69 -6 -76 -13z"/>
<path d="M2740 1043 c-45 -15 -14 -62 78 -122 55 -35 110 -76 123 -92 37 -45
67 -36 208 62 145 102 162 120 129 140 -23 14 -500 25 -538 12z"/>
</g>
</svg>
