<svg width="564" height="380" viewBox="0 0 564 380" fill="none" xmlns="http://www.w3.org/2000/svg">
<g clip-path="url(#clip0_8_581)">
<mask id="mask0_8_581" style="mask-type:luminance" maskUnits="userSpaceOnUse" x="0" y="0" width="564" height="380">
<path d="M560 0H4C1.79086 0 0 1.79086 0 4V376C0 378.209 1.79086 380 4 380H560C562.209 380 564 378.209 564 376V4C564 1.79086 562.209 0 560 0Z" fill="white"/>
</mask>
<g mask="url(#mask0_8_581)">
<path d="M560 0H4C1.79086 0 0 1.79086 0 4V376C0 378.209 1.79086 380 4 380H560C562.209 380 564 378.209 564 376V4C564 1.79086 562.209 0 560 0Z" fill="#F6F6F6"/>
<path d="M595.511 44H75.4889C72.4575 44 70 46.4575 70 49.4889V466.511C70 469.543 72.4575 472 75.4889 472H595.511C598.543 472 601 469.543 601 466.511V49.4889C601 46.4575 598.543 44 595.511 44Z" fill="white"/>
<path d="M167.595 235.995H162.012V223.258H167.132C170.111 223.258 171.734 224.453 171.734 226.736C171.734 227.86 170.842 229.091 169.807 229.394C171.199 229.769 172.251 230.893 172.251 232.373C172.251 234.764 170.539 235.995 167.595 235.995ZM164.331 228.645H167.114C168.701 228.645 169.451 227.931 169.451 226.825C169.451 225.666 168.684 225.006 167.132 225.006H164.331V228.645ZM164.331 230.34V234.246H167.417C169.058 234.246 169.914 233.515 169.914 232.284C169.914 231.089 169.04 230.34 167.399 230.34H164.331ZM182.585 235.995H180.338V234.478C179.909 235.513 178.875 236.209 177.519 236.209C175.485 236.209 174.29 234.96 174.29 232.766V226.932H176.591V232.266C176.591 233.711 177.162 234.443 178.34 234.443C179.446 234.443 180.284 233.676 180.284 231.856V226.932H182.585V235.995ZM184.64 233.247H186.817C186.924 234.193 187.869 234.621 188.85 234.621C189.814 234.621 190.563 234.229 190.563 233.497C190.563 232.926 190.171 232.659 189.172 232.48L187.566 232.195C186.068 231.927 184.962 231.232 184.962 229.608C184.962 227.896 186.531 226.718 188.636 226.718C190.991 226.718 192.329 227.753 192.525 229.501H190.438C190.349 228.788 189.653 228.324 188.654 228.324C187.691 228.324 187.067 228.752 187.067 229.376C187.067 230.001 187.53 230.233 188.458 230.393L190.224 230.696C191.812 230.964 192.704 231.838 192.704 233.337C192.704 235.067 191.045 236.209 188.886 236.209C186.531 236.209 184.837 235.228 184.64 233.247ZM194.847 225.398V223.168H197.273V225.398H194.847ZM194.918 235.995V226.932H197.202V235.995H194.918ZM202.236 226.932V228.467C202.664 227.432 203.716 226.718 205.09 226.718C207.159 226.718 208.408 228.003 208.408 230.179V235.995H206.124V230.714C206.124 229.269 205.5 228.52 204.305 228.52C203.163 228.52 202.271 229.252 202.271 231.071V235.995H199.988V226.932H202.236ZM219.13 233.176C218.738 235.121 217.114 236.209 215.045 236.209C212.405 236.209 210.461 234.443 210.461 231.481C210.461 228.52 212.441 226.718 214.992 226.718C217.828 226.718 219.184 228.877 219.184 231.285V232.017H212.673C212.815 233.622 213.636 234.532 215.045 234.532C216.08 234.532 216.722 234.05 217.025 233.176H219.13ZM214.992 228.413C213.796 228.413 212.994 229.144 212.744 230.536H217.007C217.007 229.412 216.365 228.413 214.992 228.413ZM220.702 233.247H222.878C222.985 234.193 223.93 234.621 224.911 234.621C225.875 234.621 226.624 234.229 226.624 233.497C226.624 232.926 226.232 232.659 225.233 232.48L223.627 232.195C222.129 231.927 221.023 231.232 221.023 229.608C221.023 227.896 222.592 226.718 224.697 226.718C227.052 226.718 228.39 227.753 228.586 229.501H226.499C226.41 228.788 225.714 228.324 224.715 228.324C223.752 228.324 223.128 228.752 223.128 229.376C223.128 230.001 223.591 230.233 224.519 230.393L226.285 230.696C227.873 230.964 228.765 231.838 228.765 233.337C228.765 235.067 227.106 236.209 224.947 236.209C222.592 236.209 220.898 235.228 220.702 233.247ZM230.248 233.247H232.424C232.531 234.193 233.477 234.621 234.458 234.621C235.421 234.621 236.171 234.229 236.171 233.497C236.171 232.926 235.778 232.659 234.779 232.48L233.174 232.195C231.675 231.927 230.569 231.232 230.569 229.608C230.569 227.896 232.139 226.718 234.244 226.718C236.599 226.718 237.937 227.753 238.133 229.501H236.046C235.957 228.788 235.261 228.324 234.262 228.324C233.299 228.324 232.674 228.752 232.674 229.376C232.674 230.001 233.138 230.233 234.066 230.393L235.832 230.696C237.419 230.964 238.311 231.838 238.311 233.337C238.311 235.067 236.652 236.209 234.494 236.209C232.139 236.209 230.444 235.228 230.248 233.247ZM243.397 226.701V225.131C245.574 225.131 246.43 224.542 246.733 223.222H248.357V235.995H246.002V226.701H243.397Z" fill="#181B25"/>
<path d="M430.931 232.355C430.931 234.532 429.058 235.995 426.507 236.155V237.939H425.205V236.137C422.636 235.905 420.709 234.585 420.513 232.159H422.69C422.814 233.551 423.903 234.229 425.205 234.407V230.465L424.277 230.304C422.422 229.965 420.906 229.091 420.906 226.861C420.906 224.72 422.69 223.222 425.205 223.079V221.385H426.507V223.097C428.987 223.347 430.467 224.631 430.699 226.736H428.559C428.434 225.684 427.702 225.077 426.507 224.881V228.681L427.649 228.895C429.7 229.287 430.931 230.322 430.931 232.355ZM425.044 228.395L425.205 228.431V224.845C423.831 224.97 423.046 225.702 423.046 226.718C423.046 227.771 423.653 228.128 425.044 228.395ZM426.721 230.75L426.507 230.714V234.443C427.934 234.3 428.79 233.622 428.79 232.516C428.79 231.588 428.291 231.035 426.721 230.75ZM437.387 229.198C436.264 229.198 435.514 229.751 435.122 230.375H432.999L433.73 223.258H441.365V225.131H435.425L435.086 228.449C435.568 227.914 436.567 227.414 437.762 227.414C440.402 227.414 442.097 229.305 442.097 231.802C442.097 234.264 440.331 236.209 437.387 236.209C434.515 236.209 432.678 234.585 432.482 232.124H434.836C434.943 233.462 435.889 234.425 437.387 234.425C439.029 234.425 439.831 233.212 439.831 231.82C439.831 230.411 439.046 229.198 437.387 229.198ZM443.4 226.701V225.131C445.576 225.131 446.433 224.542 446.736 223.222H448.359V235.995H446.004V226.701H443.4ZM460.37 232.534C460.37 234.514 458.675 236.209 455.66 236.209C452.752 236.209 450.897 234.603 450.683 232.195H452.949C453.056 233.533 454.09 234.407 455.66 234.407C457.23 234.407 458.175 233.622 458.175 232.373C458.175 231.089 457.194 230.465 455.749 230.465H454.429V228.716H455.714C456.909 228.716 457.872 228.181 457.872 226.825C457.872 225.719 457.123 224.845 455.714 224.845C454.215 224.845 453.341 225.844 453.252 227.129H451.076C451.218 224.917 452.824 223.044 455.732 223.044C458.604 223.044 460.084 224.792 460.084 226.754C460.084 228.253 459.085 229.323 457.801 229.555C459.335 229.805 460.37 230.964 460.37 232.534ZM462.239 235.923V233.337H464.897V236.173C464.897 237.957 463.738 238.974 461.847 238.974V237.743C462.81 237.743 463.453 237.404 463.453 236.173V235.923H462.239ZM466.524 229.626C466.524 225.809 468.629 223.044 471.947 223.044C475.266 223.044 477.353 225.809 477.353 229.626C477.353 233.444 475.266 236.209 471.947 236.209C468.629 236.209 466.524 233.444 466.524 229.626ZM468.915 229.626C468.915 232.516 469.914 234.353 471.947 234.353C473.963 234.353 474.962 232.516 474.962 229.626C474.962 226.736 473.963 224.899 471.947 224.899C469.914 224.899 468.915 226.736 468.915 229.626ZM483.529 234.389C485.509 234.389 486.615 232.373 486.615 229.715C486.115 230.821 485.009 231.767 483.333 231.767C480.782 231.767 478.98 229.912 478.98 227.468C478.98 224.917 480.835 223.044 483.654 223.044C486.668 223.044 488.773 225.488 488.773 229.412C488.773 233.497 486.579 236.209 483.457 236.209C481.049 236.209 479.408 234.764 479.105 232.605H481.263C481.531 233.729 482.244 234.389 483.529 234.389ZM483.672 224.792C482.137 224.792 481.156 225.898 481.156 227.432C481.156 228.948 482.137 230.054 483.672 230.054C485.206 230.054 486.24 228.948 486.24 227.432C486.24 225.898 485.206 224.792 483.672 224.792ZM498.721 223.258V231H501.254V232.801H498.721V235.995H496.456V232.801H490.141V230.982L496.152 223.258H498.721ZM496.456 225.47L492.228 231H496.456V225.47ZM502.952 235.995V233.337H505.61V235.995H502.952ZM507.237 229.626C507.237 225.809 509.342 223.044 512.66 223.044C515.978 223.044 518.065 225.809 518.065 229.626C518.065 233.444 515.978 236.209 512.66 236.209C509.342 236.209 507.237 233.444 507.237 229.626ZM509.627 229.626C509.627 232.516 510.626 234.353 512.66 234.353C514.676 234.353 515.675 232.516 515.675 229.626C515.675 226.736 514.676 224.899 512.66 224.899C510.626 224.899 509.627 226.736 509.627 229.626ZM528.023 223.258V231H530.556V232.801H528.023V235.995H525.757V232.801H519.443V230.982L525.454 223.258H528.023ZM525.757 225.47L521.53 231H525.757V225.47Z" fill="#181B25"/>
<path d="M141.355 208.667H105.678C104.162 208.667 102.933 209.896 102.933 211.411V247.089C102.933 248.605 104.162 249.834 105.678 249.834H141.355C142.871 249.834 144.1 248.605 144.1 247.089V211.411C144.1 209.896 142.871 208.667 141.355 208.667Z" fill="#021732"/>
<path fill-rule="evenodd" clip-rule="evenodd" d="M123.022 219.774C123.007 219.773 122.993 219.773 122.978 219.774C122.98 219.774 122.975 219.774 122.95 219.779C122.922 219.785 122.884 219.793 122.816 219.808L115.416 221.453C115.181 221.505 115.045 221.536 114.945 221.566C114.884 221.584 114.859 221.596 114.852 221.599C114.817 221.625 114.789 221.661 114.771 221.701C114.769 221.708 114.763 221.735 114.758 221.799C114.75 221.903 114.75 222.043 114.75 222.283V223.399C114.75 223.691 114.751 223.866 114.761 223.995C114.768 224.074 114.776 224.107 114.779 224.116C114.802 224.16 114.839 224.197 114.883 224.22C114.892 224.223 114.925 224.231 115.004 224.238C115.133 224.248 115.308 224.249 115.6 224.249H130.4C130.692 224.249 130.867 224.248 130.996 224.238C131.075 224.231 131.108 224.223 131.117 224.22C131.161 224.197 131.198 224.16 131.221 224.116C131.224 224.107 131.232 224.074 131.239 223.995C131.249 223.866 131.25 223.691 131.25 223.399V222.283C131.25 222.043 131.25 221.903 131.242 221.799C131.237 221.735 131.231 221.708 131.229 221.701C131.211 221.661 131.183 221.625 131.148 221.599C131.141 221.596 131.116 221.584 131.055 221.566C130.955 221.536 130.819 221.505 130.584 221.453L123.184 219.808C123.116 219.793 123.078 219.785 123.05 219.779C123.025 219.774 123.02 219.774 123.022 219.774ZM131.149 221.6C131.149 221.6 131.148 221.6 131.148 221.599L131.149 221.6ZM131.228 221.699C131.228 221.699 131.229 221.7 131.229 221.701L131.228 221.699ZM131.119 224.219C131.119 224.219 131.118 224.22 131.117 224.22L131.119 224.219ZM130.75 225.748C130.883 225.746 131.007 225.742 131.118 225.733C131.331 225.716 131.564 225.676 131.794 225.558C132.124 225.391 132.391 225.123 132.559 224.794C132.677 224.563 132.716 224.33 132.734 224.117C132.75 223.919 132.75 223.683 132.75 223.425V222.26C132.75 222.05 132.75 221.855 132.738 221.689C132.725 221.507 132.694 221.311 132.608 221.111C132.483 220.819 132.28 220.567 132.023 220.381C131.846 220.254 131.661 220.181 131.487 220.129C131.327 220.081 131.136 220.039 130.932 219.993L123.51 218.344C123.501 218.342 123.493 218.34 123.485 218.338C123.381 218.315 123.269 218.29 123.153 218.28C123.051 218.271 122.949 218.271 122.847 218.28C122.731 218.29 122.619 218.315 122.515 218.338C122.507 218.34 122.499 218.342 122.49 218.344L115.09 219.988C115.083 219.99 115.076 219.992 115.068 219.993C114.864 220.039 114.673 220.081 114.513 220.129C114.339 220.181 114.154 220.254 113.977 220.381C113.72 220.567 113.517 220.819 113.392 221.111C113.306 221.311 113.275 221.507 113.262 221.689C113.25 221.855 113.25 222.05 113.25 222.26V223.425C113.25 223.683 113.25 223.919 113.266 224.117C113.284 224.33 113.323 224.563 113.441 224.794C113.609 225.123 113.876 225.391 114.206 225.558C114.436 225.676 114.669 225.716 114.882 225.733C114.994 225.742 115.117 225.746 115.25 225.748V232.25C115.117 232.252 114.994 232.256 114.882 232.265C114.669 232.283 114.436 232.322 114.206 232.44C113.876 232.608 113.609 232.875 113.441 233.205C113.323 233.435 113.284 233.668 113.266 233.881C113.25 234.079 113.25 234.315 113.25 234.573V235.425C113.25 235.683 113.25 235.919 113.266 236.117C113.284 236.33 113.323 236.563 113.441 236.794C113.609 237.123 113.876 237.391 114.206 237.558C114.436 237.676 114.669 237.716 114.882 237.733C115.08 237.749 115.316 237.749 115.574 237.749H130.426C130.684 237.749 130.92 237.749 131.118 237.733C131.331 237.716 131.564 237.676 131.794 237.558C132.124 237.391 132.391 237.123 132.559 236.794C132.677 236.563 132.716 236.33 132.734 236.117C132.75 235.919 132.75 235.683 132.75 235.425V234.573C132.75 234.315 132.75 234.079 132.734 233.881C132.716 233.668 132.677 233.435 132.559 233.205C132.391 232.875 132.124 232.608 131.794 232.44C131.564 232.322 131.331 232.283 131.118 232.265C131.007 232.256 130.883 232.252 130.75 232.25V225.748ZM129.25 225.749H126.25V232.249H129.25V225.749ZM115.6 233.749C115.308 233.749 115.133 233.75 115.004 233.76C114.925 233.767 114.892 233.775 114.883 233.778C114.839 233.801 114.802 233.838 114.779 233.883C114.776 233.891 114.768 233.925 114.761 234.003C114.751 234.132 114.75 234.307 114.75 234.599V235.399C114.75 235.691 114.751 235.866 114.761 235.995C114.768 236.074 114.776 236.107 114.779 236.116C114.802 236.16 114.839 236.197 114.883 236.22C114.892 236.223 114.925 236.231 115.004 236.238C115.133 236.248 115.308 236.249 115.6 236.249H130.4C130.692 236.249 130.867 236.248 130.996 236.238C131.075 236.231 131.108 236.223 131.117 236.22C131.161 236.197 131.198 236.16 131.221 236.116C131.224 236.107 131.232 236.074 131.239 235.995C131.249 235.866 131.25 235.691 131.25 235.399V234.599C131.25 234.307 131.249 234.132 131.239 234.003C131.232 233.925 131.224 233.891 131.221 233.883C131.198 233.838 131.161 233.801 131.117 233.778C131.108 233.775 131.075 233.767 130.996 233.76C130.867 233.75 130.692 233.749 130.4 233.749H115.6ZM131.22 233.88C131.22 233.88 131.22 233.88 131.221 233.881L131.22 233.88ZM131.22 236.118C131.22 236.118 131.22 236.118 131.221 236.117L131.22 236.118ZM114.881 236.219C114.881 236.219 114.882 236.219 114.883 236.22L114.881 236.219ZM114.779 236.117C114.78 236.118 114.78 236.118 114.78 236.118L114.779 236.117ZM114.779 233.881C114.78 233.88 114.78 233.88 114.78 233.88L114.779 233.881ZM114.883 233.778C114.882 233.779 114.881 233.779 114.881 233.779L114.883 233.778ZM116.75 232.249H119.75V225.749H116.75V232.249ZM121.25 225.749V232.249H124.75V225.749H121.25ZM114.883 224.22C114.882 224.22 114.881 224.219 114.881 224.219L114.883 224.22ZM114.78 224.118C114.78 224.118 114.78 224.118 114.779 224.117L114.78 224.118ZM114.772 221.699C114.772 221.699 114.771 221.7 114.771 221.701L114.772 221.699ZM114.851 221.6C114.851 221.6 114.851 221.6 114.852 221.599L114.851 221.6Z" fill="white"/>
<path d="M167.595 322.162H162.012V309.425H167.132C170.111 309.425 171.734 310.62 171.734 312.903C171.734 314.027 170.842 315.258 169.807 315.561C171.199 315.936 172.251 317.06 172.251 318.54C172.251 320.931 170.539 322.162 167.595 322.162ZM164.331 314.812H167.114C168.701 314.812 169.451 314.098 169.451 312.992C169.451 311.833 168.684 311.173 167.132 311.173H164.331V314.812ZM164.331 316.507V320.413H167.417C169.058 320.413 169.914 319.682 169.914 318.451C169.914 317.256 169.04 316.507 167.399 316.507H164.331ZM182.585 322.162H180.338V320.645C179.909 321.68 178.875 322.376 177.519 322.376C175.485 322.376 174.29 321.127 174.29 318.933V313.099H176.591V318.433C176.591 319.878 177.162 320.61 178.34 320.61C179.446 320.61 180.284 319.843 180.284 318.023V313.099H182.585V322.162ZM184.64 319.414H186.817C186.924 320.36 187.869 320.788 188.85 320.788C189.814 320.788 190.563 320.396 190.563 319.664C190.563 319.093 190.171 318.826 189.172 318.647L187.566 318.362C186.068 318.094 184.962 317.399 184.962 315.775C184.962 314.063 186.531 312.885 188.636 312.885C190.991 312.885 192.329 313.92 192.525 315.668H190.438C190.349 314.955 189.653 314.491 188.654 314.491C187.691 314.491 187.067 314.919 187.067 315.543C187.067 316.168 187.53 316.4 188.458 316.56L190.224 316.863C191.812 317.131 192.704 318.005 192.704 319.504C192.704 321.234 191.045 322.376 188.886 322.376C186.531 322.376 184.837 321.395 184.64 319.414ZM194.847 311.565V309.335H197.273V311.565H194.847ZM194.918 322.162V313.099H197.202V322.162H194.918ZM202.236 313.099V314.634C202.664 313.599 203.716 312.885 205.09 312.885C207.159 312.885 208.408 314.17 208.408 316.346V322.162H206.124V316.881C206.124 315.436 205.5 314.687 204.305 314.687C203.163 314.687 202.271 315.419 202.271 317.238V322.162H199.988V313.099H202.236ZM219.13 319.343C218.738 321.288 217.114 322.376 215.045 322.376C212.405 322.376 210.461 320.61 210.461 317.648C210.461 314.687 212.441 312.885 214.992 312.885C217.828 312.885 219.184 315.044 219.184 317.452V318.184H212.673C212.815 319.789 213.636 320.699 215.045 320.699C216.08 320.699 216.722 320.217 217.025 319.343H219.13ZM214.992 314.58C213.796 314.58 212.994 315.311 212.744 316.703H217.007C217.007 315.579 216.365 314.58 214.992 314.58ZM220.702 319.414H222.878C222.985 320.36 223.93 320.788 224.911 320.788C225.875 320.788 226.624 320.396 226.624 319.664C226.624 319.093 226.232 318.826 225.233 318.647L223.627 318.362C222.129 318.094 221.023 317.399 221.023 315.775C221.023 314.063 222.592 312.885 224.697 312.885C227.052 312.885 228.39 313.92 228.586 315.668H226.499C226.41 314.955 225.714 314.491 224.715 314.491C223.752 314.491 223.128 314.919 223.128 315.543C223.128 316.168 223.591 316.4 224.519 316.56L226.285 316.863C227.873 317.131 228.765 318.005 228.765 319.504C228.765 321.234 227.106 322.376 224.947 322.376C222.592 322.376 220.898 321.395 220.702 319.414ZM230.248 319.414H232.424C232.531 320.36 233.477 320.788 234.458 320.788C235.421 320.788 236.171 320.396 236.171 319.664C236.171 319.093 235.778 318.826 234.779 318.647L233.174 318.362C231.675 318.094 230.569 317.399 230.569 315.775C230.569 314.063 232.139 312.885 234.244 312.885C236.599 312.885 237.937 313.92 238.133 315.668H236.046C235.957 314.955 235.261 314.491 234.262 314.491C233.299 314.491 232.674 314.919 232.674 315.543C232.674 316.168 233.138 316.4 234.066 316.56L235.832 316.863C237.419 317.131 238.311 318.005 238.311 319.504C238.311 321.234 236.652 322.376 234.494 322.376C232.139 322.376 230.444 321.395 230.248 319.414ZM252.745 313.064C252.745 315.383 250.961 316.453 248.874 317.631C247.286 318.558 246.145 319.379 246.109 320.289H252.816V322.162H243.522V321.252C243.522 318.772 245.699 317.238 247.607 316.096C249.373 315.026 250.515 314.295 250.515 313.046C250.515 311.958 249.873 311.048 248.375 311.048C246.912 311.048 246.055 312.172 245.966 313.492H243.701C243.861 311.137 245.502 309.211 248.392 309.211C251.122 309.211 252.745 310.923 252.745 313.064Z" fill="#181B25"/>
<path d="M437.952 318.522C437.952 320.699 436.079 322.162 433.528 322.322V324.106H432.225V322.304C429.657 322.072 427.73 320.752 427.534 318.326H429.71C429.835 319.718 430.923 320.396 432.225 320.574V316.632L431.298 316.471C429.443 316.132 427.926 315.258 427.926 313.028C427.926 310.887 429.71 309.389 432.225 309.246V307.552H433.528V309.264C436.007 309.514 437.488 310.798 437.72 312.903H435.579C435.454 311.851 434.723 311.244 433.528 311.048V314.848L434.669 315.062C436.721 315.454 437.952 316.489 437.952 318.522ZM432.065 314.562L432.225 314.598V311.012C430.852 311.137 430.067 311.869 430.067 312.885C430.067 313.938 430.673 314.295 432.065 314.562ZM433.742 316.917L433.528 316.881V320.61C434.955 320.467 435.811 319.789 435.811 318.683C435.811 317.755 435.312 317.202 433.742 316.917ZM448.654 313.064C448.654 315.383 446.87 316.453 444.783 317.631C443.195 318.558 442.053 319.379 442.018 320.289H448.725V322.162H439.431V321.252C439.431 318.772 441.607 317.238 443.516 316.096C445.282 315.026 446.424 314.295 446.424 313.046C446.424 311.958 445.782 311.048 444.283 311.048C442.82 311.048 441.964 312.172 441.875 313.492H439.609C439.77 311.137 441.411 309.211 444.301 309.211C447.03 309.211 448.654 310.923 448.654 313.064ZM459.673 318.701C459.673 320.681 457.978 322.376 454.963 322.376C452.056 322.376 450.2 320.77 449.986 318.362H452.252C452.359 319.7 453.394 320.574 454.963 320.574C456.533 320.574 457.479 319.789 457.479 318.54C457.479 317.256 456.498 316.632 455.053 316.632H453.732V314.883H455.017C456.212 314.883 457.175 314.348 457.175 312.992C457.175 311.886 456.426 311.012 455.017 311.012C453.518 311.012 452.644 312.011 452.555 313.296H450.379C450.521 311.084 452.127 309.211 455.035 309.211C457.907 309.211 459.387 310.959 459.387 312.921C459.387 314.42 458.388 315.49 457.104 315.722C458.638 315.972 459.673 317.131 459.673 318.701ZM466.276 309.211C468.809 309.211 470.735 310.531 470.735 312.814C470.735 314.188 469.897 315.204 468.755 315.704C470.022 315.954 471.306 317.167 471.306 318.665C471.306 320.913 469.308 322.376 466.276 322.376C463.243 322.376 461.245 320.913 461.245 318.665C461.245 317.167 462.53 315.954 463.796 315.704C462.654 315.204 461.816 314.188 461.816 312.814C461.816 310.531 463.743 309.211 466.276 309.211ZM466.276 314.83C467.596 314.83 468.648 314.17 468.648 312.868C468.648 311.547 467.596 310.905 466.276 310.905C464.938 310.905 463.903 311.547 463.903 312.868C463.903 314.17 464.938 314.83 466.276 314.83ZM466.276 320.645C468.042 320.645 469.041 319.825 469.041 318.576C469.041 317.327 468.042 316.507 466.276 316.507C464.51 316.507 463.511 317.327 463.511 318.576C463.511 319.825 464.51 320.645 466.276 320.645ZM473.284 322.09V319.504H475.942V322.34C475.942 324.124 474.783 325.141 472.892 325.141V323.91C473.855 323.91 474.497 323.571 474.497 322.34V322.09H473.284ZM482.947 309.211C485.481 309.211 487.407 310.531 487.407 312.814C487.407 314.188 486.569 315.204 485.427 315.704C486.694 315.954 487.978 317.167 487.978 318.665C487.978 320.913 485.98 322.376 482.947 322.376C479.915 322.376 477.917 320.913 477.917 318.665C477.917 317.167 479.201 315.954 480.468 315.704C479.326 315.204 478.488 314.188 478.488 312.814C478.488 310.531 480.414 309.211 482.947 309.211ZM482.947 314.83C484.268 314.83 485.32 314.17 485.32 312.868C485.32 311.547 484.268 310.905 482.947 310.905C481.61 310.905 480.575 311.547 480.575 312.868C480.575 314.17 481.61 314.83 482.947 314.83ZM482.947 320.645C484.713 320.645 485.712 319.825 485.712 318.576C485.712 317.327 484.713 316.507 482.947 316.507C481.181 316.507 480.182 317.327 480.182 318.576C480.182 319.825 481.181 320.645 482.947 320.645ZM489.286 312.868V311.298C491.463 311.298 492.319 310.709 492.622 309.389H494.246V322.162H491.891V312.868H489.286ZM496.516 312.868V311.298C498.692 311.298 499.549 310.709 499.852 309.389H501.475V322.162H499.12V312.868H496.516ZM504.572 322.162V319.504H507.23V322.162H504.572ZM513.893 320.556C515.873 320.556 516.979 318.54 516.979 315.882C516.48 316.988 515.374 317.934 513.697 317.934C511.146 317.934 509.344 316.079 509.344 313.635C509.344 311.084 511.2 309.211 514.018 309.211C517.033 309.211 519.138 311.655 519.138 315.579C519.138 319.664 516.944 322.376 513.822 322.376C511.414 322.376 509.773 320.931 509.469 318.772H511.628C511.895 319.896 512.609 320.556 513.893 320.556ZM514.036 310.959C512.502 310.959 511.521 312.065 511.521 313.599C511.521 315.115 512.502 316.221 514.036 316.221C515.57 316.221 516.605 315.115 516.605 313.599C516.605 312.065 515.57 310.959 514.036 310.959ZM525.572 315.365C524.448 315.365 523.698 315.918 523.306 316.542H521.183L521.915 309.425H529.55V311.298H523.609L523.27 314.616C523.752 314.081 524.751 313.581 525.946 313.581C528.586 313.581 530.281 315.472 530.281 317.969C530.281 320.431 528.515 322.376 525.572 322.376C522.699 322.376 520.862 320.752 520.666 318.291H523.021C523.128 319.628 524.073 320.592 525.572 320.592C527.213 320.592 528.015 319.379 528.015 317.987C528.015 316.578 527.231 315.365 525.572 315.365Z" fill="#181B25"/>
<path d="M141.355 294.667H105.678C104.162 294.667 102.933 295.896 102.933 297.411V333.089C102.933 334.605 104.162 335.834 105.678 335.834H141.355C142.871 335.834 144.1 334.605 144.1 333.089V297.411C144.1 295.896 142.871 294.667 141.355 294.667Z" fill="#021732"/>
<path d="M141.355 294.667H105.678C104.162 294.667 102.933 295.896 102.933 297.411V333.089C102.933 334.605 104.162 335.834 105.678 335.834H141.355C142.871 335.834 144.1 334.605 144.1 333.089V297.411C144.1 295.896 142.871 294.667 141.355 294.667Z" fill="#021732"/>
<path fill-rule="evenodd" clip-rule="evenodd" d="M123.022 305.774C123.007 305.773 122.993 305.773 122.978 305.774C122.98 305.774 122.975 305.774 122.95 305.779C122.922 305.785 122.884 305.793 122.816 305.808L115.416 307.453C115.181 307.505 115.045 307.536 114.945 307.566C114.884 307.584 114.859 307.596 114.852 307.599C114.817 307.625 114.789 307.661 114.771 307.701C114.769 307.708 114.763 307.735 114.758 307.799C114.75 307.903 114.75 308.043 114.75 308.283V309.399C114.75 309.691 114.751 309.866 114.761 309.995C114.768 310.074 114.776 310.107 114.779 310.116C114.802 310.16 114.839 310.197 114.883 310.22C114.892 310.223 114.925 310.231 115.004 310.238C115.133 310.248 115.308 310.249 115.6 310.249H130.4C130.692 310.249 130.867 310.248 130.996 310.238C131.075 310.231 131.108 310.223 131.117 310.22C131.161 310.197 131.198 310.16 131.221 310.116C131.224 310.107 131.232 310.074 131.239 309.995C131.249 309.866 131.25 309.691 131.25 309.399V308.283C131.25 308.043 131.25 307.903 131.242 307.799C131.237 307.735 131.231 307.708 131.229 307.701C131.211 307.661 131.183 307.625 131.148 307.599C131.141 307.596 131.116 307.584 131.055 307.566C130.955 307.536 130.819 307.505 130.584 307.453L123.184 305.808C123.116 305.793 123.078 305.785 123.05 305.779C123.025 305.774 123.02 305.774 123.022 305.774ZM131.149 307.6C131.149 307.6 131.148 307.6 131.148 307.599L131.149 307.6ZM131.228 307.699C131.228 307.699 131.229 307.7 131.229 307.701L131.228 307.699ZM131.119 310.219C131.119 310.219 131.118 310.22 131.117 310.22L131.119 310.219ZM130.75 311.748C130.883 311.746 131.007 311.742 131.118 311.733C131.331 311.716 131.564 311.676 131.794 311.558C132.124 311.391 132.391 311.123 132.559 310.794C132.677 310.563 132.716 310.33 132.734 310.117C132.75 309.919 132.75 309.683 132.75 309.425V308.26C132.75 308.05 132.75 307.855 132.738 307.689C132.725 307.507 132.694 307.311 132.608 307.111C132.483 306.819 132.28 306.567 132.023 306.381C131.846 306.254 131.661 306.181 131.487 306.129C131.327 306.081 131.136 306.039 130.932 305.993L123.51 304.344C123.501 304.342 123.493 304.34 123.485 304.338C123.381 304.315 123.269 304.29 123.153 304.28C123.051 304.271 122.949 304.271 122.847 304.28C122.731 304.29 122.619 304.315 122.515 304.338C122.507 304.34 122.499 304.342 122.49 304.344L115.09 305.988C115.083 305.99 115.076 305.992 115.068 305.993C114.864 306.039 114.673 306.081 114.513 306.129C114.339 306.181 114.154 306.254 113.977 306.381C113.72 306.567 113.517 306.819 113.392 307.111C113.306 307.311 113.275 307.507 113.262 307.689C113.25 307.855 113.25 308.05 113.25 308.26V309.425C113.25 309.683 113.25 309.919 113.266 310.117C113.284 310.33 113.323 310.563 113.441 310.794C113.609 311.123 113.876 311.391 114.206 311.558C114.436 311.676 114.669 311.716 114.882 311.733C114.994 311.742 115.117 311.746 115.25 311.748V318.25C115.117 318.252 114.994 318.256 114.882 318.265C114.669 318.283 114.436 318.322 114.206 318.44C113.876 318.608 113.609 318.875 113.441 319.205C113.323 319.435 113.284 319.668 113.266 319.881C113.25 320.079 113.25 320.315 113.25 320.573V321.425C113.25 321.683 113.25 321.919 113.266 322.117C113.284 322.33 113.323 322.563 113.441 322.794C113.609 323.123 113.876 323.391 114.206 323.558C114.436 323.676 114.669 323.716 114.882 323.733C115.08 323.749 115.316 323.749 115.574 323.749H130.426C130.684 323.749 130.92 323.749 131.118 323.733C131.331 323.716 131.564 323.676 131.794 323.558C132.124 323.391 132.391 323.123 132.559 322.794C132.677 322.563 132.716 322.33 132.734 322.117C132.75 321.919 132.75 321.683 132.75 321.425V320.573C132.75 320.315 132.75 320.079 132.734 319.881C132.716 319.668 132.677 319.435 132.559 319.205C132.391 318.875 132.124 318.608 131.794 318.44C131.564 318.322 131.331 318.283 131.118 318.265C131.007 318.256 130.883 318.252 130.75 318.25V311.748ZM129.25 311.749H126.25V318.249H129.25V311.749ZM115.6 319.749C115.308 319.749 115.133 319.75 115.004 319.76C114.925 319.767 114.892 319.775 114.883 319.778C114.839 319.801 114.802 319.838 114.779 319.883C114.776 319.891 114.768 319.925 114.761 320.003C114.751 320.132 114.75 320.307 114.75 320.599V321.399C114.75 321.691 114.751 321.866 114.761 321.995C114.768 322.074 114.776 322.107 114.779 322.116C114.802 322.16 114.839 322.197 114.883 322.22C114.892 322.223 114.925 322.231 115.004 322.238C115.133 322.248 115.308 322.249 115.6 322.249H130.4C130.692 322.249 130.867 322.248 130.996 322.238C131.075 322.231 131.108 322.223 131.117 322.22C131.161 322.197 131.198 322.16 131.221 322.116C131.224 322.107 131.232 322.074 131.239 321.995C131.249 321.866 131.25 321.691 131.25 321.399V320.599C131.25 320.307 131.249 320.132 131.239 320.003C131.232 319.925 131.224 319.891 131.221 319.883C131.198 319.838 131.161 319.801 131.117 319.778C131.108 319.775 131.075 319.767 130.996 319.76C130.867 319.75 130.692 319.749 130.4 319.749H115.6ZM131.22 319.88C131.22 319.88 131.22 319.88 131.221 319.881L131.22 319.88ZM131.22 322.118C131.22 322.118 131.22 322.118 131.221 322.117L131.22 322.118ZM114.881 322.219C114.881 322.219 114.882 322.219 114.883 322.22L114.881 322.219ZM114.779 322.117C114.78 322.118 114.78 322.118 114.78 322.118L114.779 322.117ZM114.779 319.881C114.78 319.88 114.78 319.88 114.78 319.88L114.779 319.881ZM114.883 319.778C114.882 319.779 114.881 319.779 114.881 319.779L114.883 319.778ZM116.75 318.249H119.75V311.749H116.75V318.249ZM121.25 311.749V318.249H124.75V311.749H121.25ZM114.883 310.22C114.882 310.22 114.881 310.219 114.881 310.219L114.883 310.22ZM114.78 310.118C114.78 310.118 114.78 310.118 114.779 310.117L114.78 310.118ZM114.772 307.699C114.772 307.699 114.771 307.7 114.771 307.701L114.772 307.699ZM114.851 307.6C114.851 307.6 114.851 307.6 114.852 307.599L114.851 307.6Z" fill="white"/>
<path d="M114.661 89.9333L113.466 86.8115H107.721L106.508 89.9333H104.189L109.309 77.1964H111.967L117.087 89.9333H114.661ZM110.594 79.4798L108.453 84.9741H112.752L110.647 79.4798H110.594ZM117.948 85.4023C117.948 82.4767 119.839 80.6571 122.497 80.6571C124.744 80.6571 126.189 81.9594 126.439 83.9752H124.281C124.102 82.994 123.514 82.3697 122.479 82.3697C121.034 82.3697 120.231 83.5649 120.231 85.4023C120.231 87.2575 121.034 88.4349 122.479 88.4349C123.514 88.4349 124.102 87.7927 124.281 86.8294H126.439C126.189 88.863 124.744 90.1474 122.497 90.1474C119.839 90.1474 117.948 88.3457 117.948 85.4023ZM136.333 82.4232C136.904 81.335 138.046 80.6571 139.384 80.6571C141.471 80.6571 142.577 81.9594 142.577 84.1179V89.9333H140.276V84.6174C140.276 83.1724 139.74 82.4589 138.617 82.4589C137.528 82.4589 136.672 83.2259 136.672 84.992V89.9333H134.389V84.6174C134.389 83.1724 133.854 82.4589 132.73 82.4589C131.624 82.4589 130.785 83.2259 130.785 84.992V89.9333H128.502V80.8712H130.75V82.4053C131.178 81.3528 132.23 80.6571 133.533 80.6571C135.049 80.6571 135.887 81.3528 136.333 82.4232ZM153.306 87.1148C152.914 89.0592 151.29 90.1474 149.221 90.1474C146.581 90.1474 144.636 88.3814 144.636 85.4201C144.636 82.4589 146.617 80.6571 149.168 80.6571C152.004 80.6571 153.36 82.8156 153.36 85.2239V85.9553H146.848C146.991 87.5608 147.812 88.4706 149.221 88.4706C150.256 88.4706 150.898 87.9889 151.201 87.1148H153.306ZM149.168 82.3518C147.972 82.3518 147.17 83.0832 146.92 84.4746H151.183C151.183 83.3508 150.541 82.3518 149.168 82.3518ZM161.033 83.547C161.033 86.4548 162.318 88.2743 164.619 88.2743C166.438 88.2743 167.277 87.2397 167.527 85.9374H169.828C169.382 88.417 167.669 90.1474 164.619 90.1474C161.051 90.1474 158.625 87.5073 158.625 83.547C158.625 79.6225 161.051 76.9823 164.619 76.9823C167.669 76.9823 169.382 78.6948 169.828 81.1923H167.527C167.277 79.8901 166.438 78.8554 164.619 78.8554C162.318 78.8554 161.033 80.6571 161.033 83.547ZM180.407 85.4023C180.407 88.3457 178.498 90.1474 175.823 90.1474C173.147 90.1474 171.238 88.3457 171.238 85.4023C171.238 82.4767 173.147 80.6571 175.823 80.6571C178.498 80.6571 180.407 82.4767 180.407 85.4023ZM173.521 85.4023C173.521 87.311 174.342 88.4527 175.823 88.4527C177.285 88.4527 178.124 87.311 178.124 85.4023C178.124 83.5113 177.285 82.3518 175.823 82.3518C174.342 82.3518 173.521 83.5113 173.521 85.4023ZM188.267 80.782V82.887C188 82.8335 187.678 82.8156 187.393 82.8156C186.002 82.8156 184.842 83.7789 184.842 85.7412V89.9333H182.559V80.8712H184.806V82.9048C185.235 81.4956 186.287 80.7106 187.589 80.7106C187.821 80.7106 188.071 80.7285 188.267 80.782ZM192.298 88.4884V93.1087H190.015V80.8712H192.262V82.3697C192.691 81.4599 193.761 80.6571 195.17 80.6571C197.543 80.6571 199.166 82.6016 199.166 85.4023C199.166 88.2208 197.543 90.1474 195.17 90.1474C193.797 90.1474 192.762 89.3982 192.298 88.4884ZM192.245 85.2417V85.5628C192.245 87.3289 193.083 88.4706 194.528 88.4706C196.009 88.4706 196.865 87.2754 196.865 85.4023C196.865 83.547 196.009 82.334 194.528 82.334C193.083 82.334 192.245 83.4757 192.245 85.2417ZM201.116 89.9333V87.2754H203.774V89.9333H201.116Z" fill="#181B25"/>
<path d="M180.997 154.319H114.064C107.917 154.319 102.933 159.302 102.933 165.45C102.933 171.597 107.917 176.581 114.064 176.581H180.997C187.144 176.581 192.128 171.597 192.128 165.45C192.128 159.302 187.144 154.319 180.997 154.319Z" fill="#DBF4E7"/>
<path d="M115.818 165.358H118.549V166.332H115.818V169.159H114.83V166.332H112.099V165.358H114.83V162.517H115.818V165.358ZM122.834 170.888C121.864 170.815 121.114 170.526 120.583 170.023C120.062 169.52 119.769 168.839 119.705 167.979H121.091C121.146 168.491 121.315 168.898 121.599 169.2C121.882 169.502 122.294 169.685 122.834 169.749V166.428L122.642 166.401C121.763 166.245 121.095 165.957 120.638 165.536C120.181 165.115 119.952 164.475 119.952 163.615C119.952 162.883 120.208 162.279 120.72 161.804C121.242 161.319 121.946 161.035 122.834 160.953V159.786H123.712V160.953C124.535 161.017 125.189 161.259 125.674 161.68C126.168 162.092 126.484 162.705 126.621 163.519L125.276 163.725C125.148 163.212 124.961 162.828 124.714 162.572C124.476 162.316 124.142 162.16 123.712 162.105V165.262L124.055 165.316C124.897 165.463 125.546 165.756 126.003 166.195C126.47 166.625 126.703 167.265 126.703 168.116C126.703 168.967 126.429 169.625 125.88 170.092C125.331 170.558 124.608 170.824 123.712 170.888V172.219H122.834V170.888ZM125.276 168.143C125.276 167.924 125.235 167.709 125.153 167.498C125.07 167.288 124.924 167.105 124.714 166.949C124.503 166.785 124.201 166.67 123.808 166.606L123.712 166.593V169.749C124.215 169.703 124.599 169.548 124.865 169.282C125.139 169.008 125.276 168.628 125.276 168.143ZM122.834 162.105C122.376 162.151 122.006 162.288 121.722 162.517C121.448 162.746 121.31 163.084 121.31 163.533C121.31 163.944 121.416 164.278 121.626 164.534C121.836 164.79 122.239 164.978 122.834 165.097V162.105ZM132.052 162.119C130.529 162.119 129.678 163.67 129.678 165.714C130.062 164.864 130.913 164.136 132.203 164.136C134.165 164.136 135.551 165.563 135.551 167.443C135.551 169.406 134.124 170.847 131.956 170.847C129.637 170.847 128.018 168.967 128.018 165.948C128.018 162.805 129.706 160.72 132.107 160.72C133.96 160.72 135.222 161.831 135.455 163.491H133.795C133.589 162.627 133.04 162.119 132.052 162.119ZM131.942 169.502C133.122 169.502 133.877 168.651 133.877 167.471C133.877 166.304 133.122 165.454 131.942 165.454C130.762 165.454 129.966 166.304 129.966 167.471C129.966 168.651 130.762 169.502 131.942 169.502ZM136.997 170.627V168.637H139.041V170.819C139.041 172.191 138.149 172.973 136.695 172.973V172.027C137.436 172.027 137.93 171.766 137.93 170.819V170.627H136.997ZM144.967 162.325H139.657V160.884H146.82V162.27C144.542 165.056 143.815 167.512 143.774 170.682H141.907C141.948 167.375 143.183 164.63 144.967 162.325ZM151.636 165.454C150.771 165.454 150.195 165.879 149.893 166.359H148.26L148.823 160.884H154.696V162.325H150.126L149.866 164.877C150.236 164.466 151.005 164.081 151.924 164.081C153.955 164.081 155.258 165.536 155.258 167.457C155.258 169.351 153.9 170.847 151.636 170.847C149.427 170.847 148.013 169.598 147.862 167.704H149.674C149.756 168.733 150.483 169.474 151.636 169.474C152.898 169.474 153.516 168.541 153.516 167.471C153.516 166.387 152.912 165.454 151.636 165.454ZM162.889 160.884V166.84H164.837V168.226H162.889V170.682H161.146V168.226H156.288V166.826L160.913 160.884H162.889ZM161.146 162.586L157.894 166.84H161.146V162.586ZM166.143 170.682V168.637H168.188V170.682H166.143ZM168.79 163.533V162.325C170.465 162.325 171.123 161.872 171.356 160.857H172.605V170.682H170.794V163.533H168.79ZM178.619 162.119C177.096 162.119 176.245 163.67 176.245 165.714C176.63 164.864 177.48 164.136 178.77 164.136C180.732 164.136 182.118 165.563 182.118 167.443C182.118 169.406 180.691 170.847 178.523 170.847C176.204 170.847 174.585 168.967 174.585 165.948C174.585 162.805 176.273 160.72 178.674 160.72C180.527 160.72 181.789 161.831 182.022 163.491H180.362C180.156 162.627 179.607 162.119 178.619 162.119ZM178.509 169.502C179.69 169.502 180.444 168.651 180.444 167.471C180.444 166.304 179.69 165.454 178.509 165.454C177.329 165.454 176.533 166.304 176.533 167.471C176.533 168.651 177.329 169.502 178.509 169.502Z" fill="#1CBA6B"/>
<path d="M211.38 170.682L210.296 167.951H205.603L204.519 170.682H203.339L207.304 160.884H208.636L212.615 170.682H211.38ZM207.936 162.064L205.987 166.977H209.912L207.977 162.064H207.936ZM215.208 170.682H214.069V160.582H215.208V170.682ZM218.786 170.682H217.647V160.582H218.786V170.682ZM227.411 169.666V170.6C226.903 170.75 226.505 170.792 226.203 170.792C224.941 170.792 224.296 170.188 224.296 168.912V164.644H223.28V163.78H224.296V162.023H225.421V163.78H227.232V164.644H225.407V168.857C225.407 169.584 225.778 169.831 226.409 169.831C226.67 169.831 226.972 169.804 227.411 169.666ZM229.183 162.339V160.953H230.473V162.339H229.183ZM229.265 170.682V163.78H230.404V170.682H229.265ZM238.222 165.097C238.648 164.164 239.526 163.615 240.541 163.615C242.133 163.615 242.915 164.617 242.915 166.236V170.682H241.763V166.483C241.763 165.193 241.296 164.548 240.267 164.548C239.238 164.548 238.456 165.289 238.456 166.881V170.682H237.303V166.483C237.303 165.193 236.85 164.548 235.807 164.548C234.764 164.548 233.982 165.289 233.982 166.881V170.682H232.843V163.78H233.941V165.042C234.27 164.164 235.121 163.615 236.123 163.615C237.289 163.615 237.92 164.178 238.222 165.097ZM250.946 168.651C250.631 170.119 249.437 170.847 248.092 170.847C246.144 170.847 244.771 169.488 244.771 167.265C244.771 165.015 246.185 163.615 248.023 163.615C250.068 163.615 250.987 165.248 250.987 167.018V167.471H245.883C245.938 169.063 246.775 169.941 248.092 169.941C249.025 169.941 249.588 169.488 249.876 168.651H250.946ZM248.023 164.534C246.939 164.534 246.116 165.234 245.924 166.648H249.876C249.849 165.454 249.258 164.534 248.023 164.534ZM255.81 162.339V160.953H257.1V162.339H255.81ZM255.892 170.682V163.78H257.031V170.682H255.892ZM260.568 163.78V165.042C260.897 164.191 261.762 163.615 262.818 163.615C264.369 163.615 265.288 164.589 265.288 166.236V170.682H264.15V166.483C264.15 165.207 263.587 164.548 262.503 164.548C261.446 164.548 260.609 165.22 260.609 166.881V170.682H259.47V163.78H260.568ZM270.869 169.666V170.6C270.361 170.75 269.963 170.792 269.661 170.792C268.399 170.792 267.754 170.188 267.754 168.912V164.644H266.739V163.78H267.754V162.023H268.879V163.78H270.691V164.644H268.866V168.857C268.866 169.584 269.236 169.831 269.867 169.831C270.128 169.831 270.43 169.804 270.869 169.666ZM278.31 168.651C277.995 170.119 276.801 170.847 275.456 170.847C273.508 170.847 272.135 169.488 272.135 167.265C272.135 165.015 273.549 163.615 275.387 163.615C277.432 163.615 278.351 165.248 278.351 167.018V167.471H273.247C273.302 169.063 274.139 169.941 275.456 169.941C276.389 169.941 276.952 169.488 277.24 168.651H278.31ZM275.387 164.534C274.303 164.534 273.48 165.234 273.288 166.648H277.24C277.213 165.454 276.622 164.534 275.387 164.534ZM284.11 163.684V164.726C283.945 164.685 283.698 164.672 283.52 164.672C282.422 164.672 281.42 165.536 281.42 167.279V170.682H280.281V163.78H281.379V165.413C281.681 164.274 282.559 163.629 283.575 163.629C283.753 163.629 283.945 163.642 284.11 163.684ZM291.094 168.651C290.779 170.119 289.585 170.847 288.24 170.847C286.292 170.847 284.919 169.488 284.919 167.265C284.919 165.015 286.333 163.615 288.172 163.615C290.216 163.615 291.136 165.248 291.136 167.018V167.471H286.031C286.086 169.063 286.923 169.941 288.24 169.941C289.173 169.941 289.736 169.488 290.024 168.651H291.094ZM288.172 164.534C287.088 164.534 286.264 165.234 286.072 166.648H290.024C289.997 165.454 289.407 164.534 288.172 164.534ZM292.543 168.637H293.64C293.723 169.584 294.601 169.982 295.534 169.982C296.481 169.982 297.167 169.543 297.167 168.802C297.167 168.294 296.838 167.965 295.959 167.8L294.738 167.553C293.627 167.347 292.817 166.895 292.817 165.687C292.817 164.521 293.86 163.615 295.383 163.615C296.975 163.615 297.949 164.301 298.086 165.605H297.03C296.947 164.905 296.33 164.493 295.383 164.493C294.464 164.493 293.874 164.946 293.874 165.618C293.874 166.208 294.285 166.455 295.081 166.606L296.453 166.867C297.579 167.087 298.237 167.636 298.237 168.747C298.237 169.955 297.098 170.847 295.548 170.847C293.901 170.847 292.666 170.119 292.543 168.637ZM303.419 169.666V170.6C302.911 170.75 302.513 170.792 302.212 170.792C300.949 170.792 300.304 170.188 300.304 168.912V164.644H299.289V163.78H300.304V162.023H301.429V163.78H303.241V164.644H301.416V168.857C301.416 169.584 301.786 169.831 302.417 169.831C302.678 169.831 302.98 169.804 303.419 169.666Z" fill="#36373A"/>
<path d="M126.87 128.959C126.87 133.646 122.836 136.797 117.341 137.143V140.985H114.537V137.104C109.004 136.605 104.854 133.762 104.432 128.536H109.119C109.388 131.533 111.732 132.993 114.537 133.377V124.886L112.539 124.54C108.543 123.81 105.277 121.927 105.277 117.125C105.277 112.514 109.119 109.287 114.537 108.979V105.329H117.341V109.018C122.682 109.556 125.871 112.322 126.371 116.856H121.76C121.491 114.589 119.916 113.282 117.341 112.86V121.044L119.8 121.505C124.219 122.35 126.87 124.579 126.87 128.959ZM114.191 120.429L114.537 120.506V112.783C111.578 113.052 109.888 114.627 109.888 116.817C109.888 119.084 111.194 119.853 114.191 120.429ZM117.803 125.501L117.341 125.424V133.454C120.415 133.147 122.259 131.687 122.259 129.305C122.259 127.307 121.184 126.115 117.803 125.501ZM140.2 133.339C144.465 133.339 146.847 128.997 146.847 123.272C145.771 125.654 143.389 127.691 139.777 127.691C134.283 127.691 130.402 123.695 130.402 118.431C130.402 112.937 134.398 108.902 140.469 108.902C146.962 108.902 151.496 114.166 151.496 122.619C151.496 131.418 146.77 137.258 140.046 137.258C134.859 137.258 131.324 134.146 130.671 129.497H135.32C135.896 131.917 137.433 133.339 140.2 133.339ZM140.507 112.668C137.203 112.668 135.09 115.05 135.09 118.354C135.09 121.62 137.203 124.002 140.507 124.002C143.811 124.002 146.04 121.62 146.04 118.354C146.04 115.05 143.811 112.668 140.507 112.668ZM154.364 116.779V113.398C159.051 113.398 160.896 112.13 161.549 109.287H165.045V136.797H159.974V116.779H154.364ZM180.348 133.339C184.613 133.339 186.995 128.997 186.995 123.272C185.919 125.654 183.537 127.691 179.925 127.691C174.431 127.691 170.55 123.695 170.55 118.431C170.55 112.937 174.546 108.902 180.617 108.902C187.11 108.902 191.644 114.166 191.644 122.619C191.644 131.418 186.918 137.258 180.194 137.258C175.007 137.258 171.472 134.146 170.819 129.497H175.468C176.045 131.917 177.581 133.339 180.348 133.339ZM180.655 112.668C177.351 112.668 175.238 115.05 175.238 118.354C175.238 121.62 177.351 124.002 180.655 124.002C183.96 124.002 186.188 121.62 186.188 118.354C186.188 115.05 183.96 112.668 180.655 112.668ZM195.129 136.643V131.072H200.854V137.181C200.854 141.023 198.356 143.213 194.284 143.213V140.562C196.359 140.562 197.742 139.832 197.742 137.181V136.643H195.129ZM217.447 113.398H202.578V109.363H222.634V113.244C216.256 121.044 214.219 127.921 214.104 136.797H208.879C208.994 127.537 212.452 119.853 217.447 113.398ZM245.076 117.202C245.076 122.196 241.233 124.502 236.738 127.038C233.318 129.036 230.859 130.803 230.782 132.763H245.229V136.797H225.211V134.837C225.211 129.497 229.899 126.192 234.01 123.733C237.814 121.428 240.273 119.853 240.273 117.163C240.273 114.819 238.89 112.86 235.662 112.86C232.511 112.86 230.667 115.28 230.475 118.124H225.595C225.941 113.052 229.476 108.902 235.7 108.902C241.579 108.902 245.076 112.591 245.076 117.202ZM258.656 133.339C262.921 133.339 265.303 128.997 265.303 123.272C264.227 125.654 261.845 127.691 258.233 127.691C252.739 127.691 248.858 123.695 248.858 118.431C248.858 112.937 252.854 108.902 258.925 108.902C265.418 108.902 269.952 114.166 269.952 122.619C269.952 131.418 265.226 137.258 258.502 137.258C253.315 137.258 249.78 134.146 249.127 129.497H253.776C254.352 131.917 255.889 133.339 258.656 133.339ZM258.963 112.668C255.659 112.668 253.546 115.05 253.546 118.354C253.546 121.62 255.659 124.002 258.963 124.002C262.267 124.002 264.496 121.62 264.496 118.354C264.496 115.05 262.267 112.668 258.963 112.668ZM273.437 136.797V131.072H279.162V136.797H273.437ZM280.85 116.779V113.398C285.537 113.398 287.381 112.13 288.035 109.287H291.531V136.797H286.459V116.779H280.85ZM308.37 112.821C304.106 112.821 301.723 117.163 301.723 122.888C302.799 120.506 305.181 118.469 308.793 118.469C314.287 118.469 318.168 122.465 318.168 127.729C318.168 133.224 314.172 137.258 308.101 137.258C301.608 137.258 297.074 131.994 297.074 123.541C297.074 114.743 301.8 108.902 308.524 108.902C313.711 108.902 317.246 112.015 317.899 116.664H313.25C312.674 114.243 311.137 112.821 308.37 112.821ZM308.063 133.493C311.367 133.493 313.481 131.11 313.481 127.806C313.481 124.54 311.367 122.158 308.063 122.158C304.759 122.158 302.53 124.54 302.53 127.806C302.53 131.11 304.759 133.493 308.063 133.493Z" fill="#181B25"/>
</g>
</g>
<defs>
<clipPath id="clip0_8_581">
<rect width="564" height="380" fill="white"/>
</clipPath>
</defs>
</svg>
