<svg width="437" height="377" viewBox="0 0 437 377" fill="none" xmlns="http://www.w3.org/2000/svg">
<path d="M427.568 0H9.43165C4.22269 0 0 4.21972 0 9.425V367.575C0 372.78 4.22269 377 9.43165 377H427.568C432.777 377 437 372.78 437 367.575V9.425C437 4.21972 432.777 0 427.568 0Z" fill="#F6F6F6"/>
<g filter="url(#filter0_dddddi_8_639)">
<path d="M391 108H47C42.5817 108 39 111.582 39 116V260.486C39 264.904 42.5817 268.486 47 268.486H391C395.418 268.486 399 264.904 399 260.486V116C399 111.582 395.418 108 391 108Z" fill="white"/>
<path d="M68.0289 144.571L67.0813 142.097H62.5273L61.5656 144.571H59.7271L63.7861 134.473H65.8933L69.9523 144.571H68.0289ZM64.8043 136.284L63.1072 140.64H66.5156L64.8468 136.284H64.8043ZM72.8343 144.571L70.0057 137.387H71.8301L73.8243 142.804H73.8526L75.8043 137.387H77.5721L74.8143 144.571H72.8343ZM83.1656 144.571C83.0949 144.175 83.0666 143.794 83.0666 143.44C82.7272 144.26 81.8221 144.727 80.6765 144.727C79.2764 144.727 78.2581 143.949 78.2581 142.648C78.2581 141.206 79.3895 140.611 80.8462 140.442L82.9959 140.201V139.862C82.9959 138.985 82.4585 138.561 81.6382 138.561C80.8462 138.561 80.3654 138.999 80.3088 139.664H78.5692C78.7248 138.122 79.9269 137.217 81.6948 137.217C83.6465 137.217 84.7638 138.136 84.7638 140.003V142.775C84.7638 143.44 84.7921 143.992 84.9052 144.571H83.1656ZM81.1715 143.468C82.1049 143.468 82.9959 142.917 82.9959 141.785V141.347L81.3978 141.531C80.6341 141.63 80.0542 141.799 80.0542 142.549C80.0542 143.115 80.4502 143.468 81.1715 143.468ZM86.8459 136.171V134.403H88.7693V136.171H86.8459ZM86.9024 144.571V137.387H88.7127V144.571H86.9024ZM92.7318 144.571H90.9216V134.162H92.7318V144.571ZM99.325 144.571C99.2542 144.175 99.226 143.794 99.226 143.44C98.8865 144.26 97.9814 144.727 96.8358 144.727C95.4357 144.727 94.4174 143.949 94.4174 142.648C94.4174 141.206 95.5488 140.611 97.0055 140.442L99.1552 140.201V139.862C99.1552 138.985 98.6178 138.561 97.7975 138.561C97.0055 138.561 96.5247 138.999 96.4681 139.664H94.7285C94.8841 138.122 96.0861 137.217 97.854 137.217C99.8057 137.217 100.923 138.136 100.923 140.003V142.775C100.923 143.44 100.951 143.992 101.064 144.571H99.325ZM97.3307 143.468C98.2641 143.468 99.1552 142.917 99.1552 141.785V141.347L97.5571 141.531C96.7934 141.63 96.2135 141.799 96.2135 142.549C96.2135 143.115 96.6094 143.468 97.3307 143.468ZM104.844 143.426V144.571H103.062V134.162H104.872V138.561C105.211 137.84 106.032 137.217 107.149 137.217C109.03 137.217 110.317 138.759 110.317 140.979C110.317 143.214 109.03 144.741 107.149 144.741C106.06 144.741 105.197 144.147 104.844 143.426ZM104.83 140.852V141.106C104.83 142.507 105.494 143.412 106.64 143.412C107.814 143.412 108.493 142.464 108.493 140.979C108.493 139.508 107.814 138.547 106.64 138.547C105.494 138.547 104.83 139.452 104.83 140.852ZM113.836 144.571H112.025V134.162H113.836V144.571ZM122.423 142.337C122.112 143.879 120.825 144.741 119.184 144.741C117.091 144.741 115.549 143.341 115.549 140.993C115.549 138.646 117.119 137.217 119.142 137.217C121.39 137.217 122.465 138.928 122.465 140.838V141.418H117.303C117.416 142.691 118.067 143.412 119.184 143.412C120.004 143.412 120.514 143.03 120.754 142.337H122.423ZM119.142 138.561C118.194 138.561 117.558 139.141 117.36 140.244H120.74C120.74 139.353 120.231 138.561 119.142 138.561ZM131.618 144.571H127.191V134.473H131.25C133.612 134.473 134.899 135.421 134.899 137.231C134.899 138.122 134.192 139.098 133.371 139.339C134.475 139.636 135.309 140.527 135.309 141.701C135.309 143.596 133.951 144.571 131.618 144.571ZM129.03 138.745H131.236C132.495 138.745 133.089 138.179 133.089 137.302C133.089 136.383 132.48 135.86 131.25 135.86H129.03V138.745ZM129.03 140.088V143.186H131.476C132.777 143.186 133.456 142.606 133.456 141.63C133.456 140.682 132.763 140.088 131.462 140.088H129.03ZM141.532 144.571C141.462 144.175 141.433 143.794 141.433 143.44C141.094 144.26 140.189 144.727 139.043 144.727C137.643 144.727 136.625 143.949 136.625 142.648C136.625 141.206 137.756 140.611 139.213 140.442L141.363 140.201V139.862C141.363 138.985 140.825 138.561 140.005 138.561C139.213 138.561 138.732 138.999 138.675 139.664H136.936C137.091 138.122 138.294 137.217 140.061 137.217C142.013 137.217 143.13 138.136 143.13 140.003V142.775C143.13 143.44 143.159 143.992 143.272 144.571H141.532ZM139.538 143.468C140.472 143.468 141.363 142.917 141.363 141.785V141.347L139.764 141.531C139.001 141.63 138.421 141.799 138.421 142.549C138.421 143.115 138.817 143.468 139.538 143.468ZM147.079 144.571H145.269V134.162H147.079V144.571ZM153.673 144.571C153.602 144.175 153.574 143.794 153.574 143.44C153.234 144.26 152.329 144.727 151.183 144.727C149.783 144.727 148.765 143.949 148.765 142.648C148.765 141.206 149.896 140.611 151.353 140.442L153.503 140.201V139.862C153.503 138.985 152.965 138.561 152.145 138.561C151.353 138.561 150.872 138.999 150.816 139.664H149.076C149.232 138.122 150.434 137.217 152.202 137.217C154.153 137.217 155.271 138.136 155.271 140.003V142.775C155.271 143.44 155.299 143.992 155.412 144.571H153.673ZM151.678 143.468C152.612 143.468 153.503 142.917 153.503 141.785V141.347L151.905 141.531C151.141 141.63 150.561 141.799 150.561 142.549C150.561 143.115 150.957 143.468 151.678 143.468ZM159.191 137.387V138.603C159.531 137.783 160.365 137.217 161.454 137.217C163.095 137.217 164.085 138.235 164.085 139.961V144.571H162.275V140.385C162.275 139.24 161.78 138.646 160.832 138.646C159.927 138.646 159.22 139.225 159.22 140.668V144.571H157.409V137.387H159.191ZM165.712 140.979C165.712 138.66 167.211 137.217 169.319 137.217C171.101 137.217 172.246 138.25 172.444 139.848H170.733C170.592 139.07 170.125 138.575 169.305 138.575C168.159 138.575 167.523 139.522 167.523 140.979C167.523 142.45 168.159 143.383 169.305 143.383C170.125 143.383 170.592 142.874 170.733 142.111H172.444C172.246 143.723 171.101 144.741 169.319 144.741C167.211 144.741 165.712 143.313 165.712 140.979ZM180.458 142.337C180.147 143.879 178.86 144.741 177.219 144.741C175.126 144.741 173.585 143.341 173.585 140.993C173.585 138.646 175.155 137.217 177.177 137.217C179.426 137.217 180.501 138.928 180.501 140.838V141.418H175.338C175.452 142.691 176.102 143.412 177.219 143.412C178.04 143.412 178.549 143.03 178.789 142.337H180.458ZM177.177 138.561C176.229 138.561 175.593 139.141 175.395 140.244H178.775C178.775 139.353 178.266 138.561 177.177 138.561Z" fill="#181B25"/>
<path d="M81.9991 196.285C81.9991 200.677 78.2191 203.629 73.0711 203.953V207.553H70.4431V203.917C65.2591 203.449 61.3711 200.785 60.9751 195.889H65.3671C65.6191 198.697 67.8151 200.065 70.4431 200.425V192.469L68.5711 192.145C64.8271 191.461 61.7671 189.697 61.7671 185.197C61.7671 180.877 65.3671 177.853 70.4431 177.565V174.145H73.0711V177.601C78.0751 178.105 81.0631 180.697 81.5311 184.945H77.2111C76.9591 182.821 75.4831 181.597 73.0711 181.201V188.869L75.3751 189.301C79.5151 190.093 81.9991 192.181 81.9991 196.285ZM70.1191 188.293L70.4431 188.365V181.129C67.6711 181.381 66.0871 182.857 66.0871 184.909C66.0871 187.033 67.3111 187.753 70.1191 188.293ZM73.5031 193.045L73.0711 192.973V200.497C75.9511 200.209 77.6791 198.841 77.6791 196.609C77.6791 194.737 76.6711 193.621 73.5031 193.045ZM98.0523 181.705H84.1203V177.925H102.912V181.561C96.9363 188.869 95.0283 195.313 94.9203 203.629H90.0243C90.1323 194.953 93.3723 187.753 98.0523 181.705ZM123.98 196.645C123.98 200.641 120.56 204.061 114.476 204.061C108.608 204.061 104.864 200.821 104.432 195.961H109.004C109.22 198.661 111.308 200.425 114.476 200.425C117.644 200.425 119.552 198.841 119.552 196.321C119.552 193.729 117.572 192.469 114.656 192.469H111.992V188.941H114.584C116.996 188.941 118.94 187.861 118.94 185.125C118.94 182.893 117.428 181.129 114.584 181.129C111.56 181.129 109.796 183.145 109.616 185.737H105.224C105.512 181.273 108.752 177.493 114.62 177.493C120.416 177.493 123.404 181.021 123.404 184.981C123.404 188.005 121.388 190.165 118.796 190.633C121.892 191.137 123.98 193.477 123.98 196.645ZM136.765 177.493C141.877 177.493 145.765 180.157 145.765 184.765C145.765 187.537 144.073 189.589 141.769 190.597C144.325 191.101 146.917 193.549 146.917 196.573C146.917 201.109 142.885 204.061 136.765 204.061C130.645 204.061 126.613 201.109 126.613 196.573C126.613 193.549 129.205 191.101 131.761 190.597C129.457 189.589 127.765 187.537 127.765 184.765C127.765 180.157 131.653 177.493 136.765 177.493ZM136.765 188.833C139.429 188.833 141.553 187.501 141.553 184.873C141.553 182.209 139.429 180.913 136.765 180.913C134.065 180.913 131.977 182.209 131.977 184.873C131.977 187.501 134.065 188.833 136.765 188.833ZM136.765 200.569C140.329 200.569 142.345 198.913 142.345 196.393C142.345 193.873 140.329 192.217 136.765 192.217C133.201 192.217 131.185 193.873 131.185 196.393C131.185 198.913 133.201 200.569 136.765 200.569ZM150.369 203.485V198.265H155.733V203.989C155.733 207.589 153.393 209.641 149.577 209.641V207.157C151.521 207.157 152.817 206.473 152.817 203.989V203.485H150.369ZM169.33 177.493C174.442 177.493 178.33 180.157 178.33 184.765C178.33 187.537 176.638 189.589 174.334 190.597C176.89 191.101 179.482 193.549 179.482 196.573C179.482 201.109 175.45 204.061 169.33 204.061C163.21 204.061 159.178 201.109 159.178 196.573C159.178 193.549 161.77 191.101 164.326 190.597C162.022 189.589 160.33 187.537 160.33 184.765C160.33 180.157 164.218 177.493 169.33 177.493ZM169.33 188.833C171.994 188.833 174.118 187.501 174.118 184.873C174.118 182.209 171.994 180.913 169.33 180.913C166.63 180.913 164.542 182.209 164.542 184.873C164.542 187.501 166.63 188.833 169.33 188.833ZM169.33 200.569C172.894 200.569 174.91 198.913 174.91 196.393C174.91 193.873 172.894 192.217 169.33 192.217C165.766 192.217 163.75 193.873 163.75 196.393C163.75 198.913 165.766 200.569 169.33 200.569ZM181.582 184.873V181.705C185.974 181.705 187.702 180.517 188.314 177.853H191.59V203.629H186.838V184.873H181.582ZM195.632 184.873V181.705C200.024 181.705 201.752 180.517 202.364 177.853H205.64V203.629H200.888V184.873H195.632ZM211.35 203.629V198.265H216.714V203.629H211.35ZM229.971 181.165C225.975 181.165 223.743 185.233 223.743 190.597C224.751 188.365 226.983 186.457 230.367 186.457C235.515 186.457 239.151 190.201 239.151 195.133C239.151 200.281 235.407 204.061 229.719 204.061C223.635 204.061 219.387 199.129 219.387 191.209C219.387 182.965 223.815 177.493 230.115 177.493C234.975 177.493 238.287 180.409 238.899 184.765H234.543C234.003 182.497 232.563 181.165 229.971 181.165ZM229.683 200.533C232.779 200.533 234.759 198.301 234.759 195.205C234.759 192.145 232.779 189.913 229.683 189.913C226.587 189.913 224.499 192.145 224.499 195.205C224.499 198.301 226.587 200.533 229.683 200.533ZM260.302 185.269C260.302 189.949 256.702 192.109 252.49 194.485C249.286 196.357 246.982 198.013 246.91 199.849H260.446V203.629H241.69V201.793C241.69 196.789 246.082 193.693 249.934 191.389C253.498 189.229 255.802 187.753 255.802 185.233C255.802 183.037 254.506 181.201 251.482 181.201C248.53 181.201 246.802 183.469 246.622 186.133H242.05C242.374 181.381 245.686 177.493 251.518 177.493C257.026 177.493 260.302 180.949 260.302 185.269Z" fill="#181B25"/>
<path d="M74.2274 236.725C74.2274 240.916 71.8206 243.172 67.673 243.172C63.547 243.172 61.1187 240.916 61.1187 236.682V227.571H63.9768V236.704C63.9768 239.39 65.2017 240.894 67.673 240.894C70.1444 240.894 71.3908 239.39 71.3908 236.704V227.571H74.2274V236.725ZM80.0706 241.174V246.739H77.3199V231.997H80.0277V233.803C80.5434 232.707 81.8328 231.74 83.5305 231.74C86.3886 231.74 88.3442 234.082 88.3442 237.456C88.3442 240.851 86.3886 243.172 83.5305 243.172C81.8758 243.172 80.6294 242.27 80.0706 241.174ZM80.0062 237.262V237.649C80.0062 239.777 81.0162 241.152 82.7569 241.152C84.5405 241.152 85.572 239.712 85.572 237.456C85.572 235.221 84.5405 233.76 82.7569 233.76C81.0162 233.76 80.0062 235.135 80.0062 237.262ZM100.975 240.658V242.764C100.115 243.022 99.4705 243.086 98.8044 243.086C96.5264 243.086 95.409 242.119 95.409 239.927V233.975H93.9047V231.997H95.409V229.268H98.1382V231.997H100.738V233.975H98.1167V239.497C98.1167 240.529 98.611 240.873 99.535 240.873C99.9433 240.873 100.373 240.83 100.975 240.658ZM113.564 237.456C113.564 241.002 111.265 243.172 108.041 243.172C104.818 243.172 102.519 241.002 102.519 237.456C102.519 233.932 104.818 231.74 108.041 231.74C111.265 231.74 113.564 233.932 113.564 237.456ZM105.269 237.456C105.269 239.755 106.258 241.131 108.041 241.131C109.804 241.131 110.814 239.755 110.814 237.456C110.814 235.178 109.804 233.781 108.041 233.781C106.258 233.781 105.269 235.178 105.269 237.456ZM125.503 234.727C124.15 234.727 123.247 235.393 122.774 236.145H120.217L121.098 227.571H130.296V229.827H123.139L122.731 233.824C123.311 233.179 124.515 232.578 125.955 232.578C129.135 232.578 131.177 234.856 131.177 237.864C131.177 240.83 129.049 243.172 125.503 243.172C122.044 243.172 119.83 241.217 119.594 238.251H122.43C122.559 239.863 123.698 241.023 125.503 241.023C127.48 241.023 128.447 239.562 128.447 237.886C128.447 236.188 127.502 234.727 125.503 234.727ZM133.319 242.914V239.712H136.521V242.914H133.319ZM138.352 235.242C138.352 230.644 140.888 227.313 144.885 227.313C148.882 227.313 151.397 230.644 151.397 235.242C151.397 239.841 148.882 243.172 144.885 243.172C140.888 243.172 138.352 239.841 138.352 235.242ZM141.232 235.242C141.232 238.724 142.435 240.937 144.885 240.937C147.313 240.937 148.517 238.724 148.517 235.242C148.517 231.761 147.313 229.548 144.885 229.548C142.435 229.548 141.232 231.761 141.232 235.242ZM164.145 231.955C164.145 234.748 161.996 236.038 159.481 237.456C157.569 238.573 156.193 239.562 156.15 240.658H164.231V242.914H153.034V241.818C153.034 238.831 155.656 236.983 157.956 235.608C160.083 234.318 161.458 233.437 161.458 231.933C161.458 230.622 160.685 229.526 158.88 229.526C157.117 229.526 156.086 230.88 155.979 232.47H153.249C153.443 229.634 155.42 227.313 158.901 227.313C162.189 227.313 164.145 229.376 164.145 231.955ZM166.223 230.88C166.223 228.903 167.835 227.313 169.79 227.313C171.746 227.313 173.336 228.903 173.336 230.88C173.336 232.836 171.746 234.426 169.79 234.426C167.835 234.426 166.223 232.836 166.223 230.88ZM178.214 227.571H180.127L169.962 242.893H168.049L178.214 227.571ZM167.899 230.88C167.899 231.976 168.759 232.814 169.79 232.814C170.822 232.814 171.681 231.976 171.681 230.88C171.681 229.784 170.822 228.924 169.79 228.924C168.759 228.924 167.899 229.784 167.899 230.88ZM174.819 239.626C174.819 237.671 176.409 236.059 178.365 236.059C180.32 236.059 181.91 237.671 181.91 239.626C181.91 241.603 180.32 243.194 178.365 243.194C176.409 243.194 174.819 241.603 174.819 239.626ZM176.473 239.626C176.473 240.722 177.333 241.582 178.365 241.582C179.418 241.582 180.256 240.722 180.256 239.626C180.256 238.53 179.418 237.671 178.365 237.671C177.333 237.671 176.473 238.53 176.473 239.626ZM200.296 242.914L198.857 239.154H191.937L190.476 242.914H187.682L193.849 227.571H197.051L203.219 242.914H200.296ZM195.397 230.321L192.818 236.94H197.997L195.461 230.321H195.397ZM211.452 237.262H207.884V242.914H205.091V227.571H211.43C215.062 227.571 217.168 229.225 217.168 232.427C217.168 235.629 215.062 237.262 211.452 237.262ZM207.884 235.028H211.194C213.3 235.028 214.353 234.168 214.353 232.427C214.353 230.665 213.3 229.827 211.194 229.827H207.884V235.028ZM226.475 242.914H223.617V236.618L217.685 227.571H220.866L225.121 234.125H225.164L229.311 227.571H232.427L226.475 236.618V242.914Z" fill="#16AF63"/>
</g>
<defs>
<filter id="filter0_dddddi_8_639" x="15" y="108" width="408" height="208.486" filterUnits="userSpaceOnUse" color-interpolation-filters="sRGB">
<feFlood flood-opacity="0" result="BackgroundImageFix"/>
<feColorMatrix in="SourceAlpha" type="matrix" values="0 0 0 0 0 0 0 0 0 0 0 0 0 0 0 0 0 0 127 0" result="hardAlpha"/>
<feOffset dy="1"/>
<feGaussianBlur stdDeviation="0.5"/>
<feComposite in2="hardAlpha" operator="out"/>
<feColorMatrix type="matrix" values="0 0 0 0 0.164706 0 0 0 0 0.2 0 0 0 0 0.270588 0 0 0 0.0392 0"/>
<feBlend mode="normal" in2="BackgroundImageFix" result="effect1_dropShadow_8_639"/>
<feColorMatrix in="SourceAlpha" type="matrix" values="0 0 0 0 0 0 0 0 0 0 0 0 0 0 0 0 0 0 127 0" result="hardAlpha"/>
<feOffset dy="3"/>
<feGaussianBlur stdDeviation="1.5"/>
<feComposite in2="hardAlpha" operator="out"/>
<feColorMatrix type="matrix" values="0 0 0 0 0.164706 0 0 0 0 0.2 0 0 0 0 0.27451 0 0 0 0.0392 0"/>
<feBlend mode="normal" in2="effect1_dropShadow_8_639" result="effect2_dropShadow_8_639"/>
<feColorMatrix in="SourceAlpha" type="matrix" values="0 0 0 0 0 0 0 0 0 0 0 0 0 0 0 0 0 0 127 0" result="hardAlpha"/>
<feOffset dy="6"/>
<feGaussianBlur stdDeviation="3"/>
<feComposite in2="hardAlpha" operator="out"/>
<feColorMatrix type="matrix" values="0 0 0 0 0.164706 0 0 0 0 0.2 0 0 0 0 0.27451 0 0 0 0.0392 0"/>
<feBlend mode="normal" in2="effect2_dropShadow_8_639" result="effect3_dropShadow_8_639"/>
<feColorMatrix in="SourceAlpha" type="matrix" values="0 0 0 0 0 0 0 0 0 0 0 0 0 0 0 0 0 0 127 0" result="hardAlpha"/>
<feOffset dy="12"/>
<feGaussianBlur stdDeviation="6"/>
<feComposite in2="hardAlpha" operator="out"/>
<feColorMatrix type="matrix" values="0 0 0 0 0.164706 0 0 0 0 0.2 0 0 0 0 0.27451 0 0 0 0.0392 0"/>
<feBlend mode="normal" in2="effect3_dropShadow_8_639" result="effect4_dropShadow_8_639"/>
<feColorMatrix in="SourceAlpha" type="matrix" values="0 0 0 0 0 0 0 0 0 0 0 0 0 0 0 0 0 0 127 0" result="hardAlpha"/>
<feOffset dy="24"/>
<feGaussianBlur stdDeviation="12"/>
<feComposite in2="hardAlpha" operator="out"/>
<feColorMatrix type="matrix" values="0 0 0 0 0.164706 0 0 0 0 0.2 0 0 0 0 0.27451 0 0 0 0.0392 0"/>
<feBlend mode="normal" in2="effect4_dropShadow_8_639" result="effect5_dropShadow_8_639"/>
<feBlend mode="normal" in="SourceGraphic" in2="effect5_dropShadow_8_639" result="shape"/>
<feColorMatrix in="SourceAlpha" type="matrix" values="0 0 0 0 0 0 0 0 0 0 0 0 0 0 0 0 0 0 127 0" result="hardAlpha"/>
<feOffset/>
<feGaussianBlur stdDeviation="2"/>
<feComposite in2="hardAlpha" operator="arithmetic" k2="-1" k3="1"/>
<feColorMatrix type="matrix" values="0 0 0 0 0.054902 0 0 0 0 0.247059 0 0 0 0 0.494118 0 0 0 0.0392 0"/>
<feBlend mode="normal" in2="shape" result="effect6_innerShadow_8_639"/>
</filter>
</defs>
</svg>
