<svg width="523" height="451" viewBox="0 0 523 451" fill="none" xmlns="http://www.w3.org/2000/svg">
<path d="M511.712 0H11.2878C5.0537 0 0 5.04799 0 11.275V439.725C0 445.952 5.0537 451 11.2878 451H511.712C517.946 451 523 445.952 523 439.725V11.275C523 5.04799 517.946 0 511.712 0Z" fill="#F6F6F6"/>
<path d="M428 79H76C73.7909 79 72 80.7909 72 83V387C72 389.209 73.7909 391 76 391H428C430.209 391 432 389.209 432 387V83C432 80.7909 430.209 79 428 79Z" fill="white"/>
<path d="M104.547 112L103.676 109.725H99.4895L98.6055 112H96.9155L100.647 102.718H102.584L106.315 112H104.547ZM101.583 104.382L100.023 108.386H103.156L101.622 104.382H101.583ZM106.942 108.698C106.942 106.566 108.32 105.24 110.257 105.24C111.895 105.24 112.948 106.189 113.13 107.658H111.557C111.427 106.943 110.998 106.488 110.244 106.488C109.191 106.488 108.606 107.359 108.606 108.698C108.606 110.05 109.191 110.908 110.244 110.908C110.998 110.908 111.427 110.44 111.557 109.738H113.13C112.948 111.22 111.895 112.156 110.257 112.156C108.32 112.156 106.942 110.843 106.942 108.698ZM120.34 106.527C120.756 105.734 121.588 105.24 122.563 105.24C124.084 105.24 124.89 106.189 124.89 107.762V112H123.213V108.126C123.213 107.073 122.823 106.553 122.004 106.553C121.211 106.553 120.587 107.112 120.587 108.399V112H118.923V108.126C118.923 107.073 118.533 106.553 117.714 106.553C116.908 106.553 116.297 107.112 116.297 108.399V112H114.633V105.396H116.271V106.514C116.583 105.747 117.35 105.24 118.299 105.24C119.404 105.24 120.015 105.747 120.34 106.527ZM132.709 109.946C132.423 111.363 131.24 112.156 129.732 112.156C127.808 112.156 126.391 110.869 126.391 108.711C126.391 106.553 127.834 105.24 129.693 105.24C131.76 105.24 132.748 106.813 132.748 108.568V109.101H128.003C128.107 110.271 128.705 110.934 129.732 110.934C130.486 110.934 130.954 110.583 131.175 109.946H132.709ZM129.693 106.475C128.822 106.475 128.237 107.008 128.055 108.022H131.162C131.162 107.203 130.694 106.475 129.693 106.475ZM138.34 107.346C138.34 109.465 139.276 110.791 140.953 110.791C142.279 110.791 142.89 110.037 143.072 109.088H144.749C144.424 110.895 143.176 112.156 140.953 112.156C138.353 112.156 136.585 110.232 136.585 107.346C136.585 104.486 138.353 102.562 140.953 102.562C143.176 102.562 144.424 103.81 144.749 105.63H143.072C142.89 104.681 142.279 103.927 140.953 103.927C139.276 103.927 138.34 105.24 138.34 107.346ZM152.459 108.698C152.459 110.843 151.068 112.156 149.118 112.156C147.168 112.156 145.777 110.843 145.777 108.698C145.777 106.566 147.168 105.24 149.118 105.24C151.068 105.24 152.459 106.566 152.459 108.698ZM147.441 108.698C147.441 110.089 148.039 110.921 149.118 110.921C150.184 110.921 150.795 110.089 150.795 108.698C150.795 107.32 150.184 106.475 149.118 106.475C148.039 106.475 147.441 107.32 147.441 108.698ZM158.187 105.331V106.865C157.992 106.826 157.758 106.813 157.55 106.813C156.536 106.813 155.691 107.515 155.691 108.945V112H154.027V105.396H155.665V106.878C155.977 105.851 156.744 105.279 157.693 105.279C157.862 105.279 158.044 105.292 158.187 105.331ZM161.124 110.947V114.314H159.46V105.396H161.098V106.488C161.41 105.825 162.19 105.24 163.217 105.24C164.946 105.24 166.129 106.657 166.129 108.698C166.129 110.752 164.946 112.156 163.217 112.156C162.216 112.156 161.462 111.61 161.124 110.947ZM161.085 108.581V108.815C161.085 110.102 161.696 110.934 162.749 110.934C163.828 110.934 164.452 110.063 164.452 108.698C164.452 107.346 163.828 106.462 162.749 106.462C161.696 106.462 161.085 107.294 161.085 108.581ZM167.551 112V110.063H169.488V112H167.551Z" fill="#181B25"/>
<path d="M152.888 159.395H104.112C99.6317 159.395 96 163.027 96 167.507V167.507C96 171.987 99.6317 175.618 104.112 175.618H152.888C157.368 175.618 161 171.987 161 167.507C161 163.027 157.368 159.395 152.888 159.395Z" fill="#DBF4E7"/>
<path d="M105.39 167.151H107.38V167.861H105.39V169.921H104.67V167.861H102.68V167.151H104.67V165.081H105.39V167.151ZM110.502 171.181C109.796 171.128 109.249 170.918 108.862 170.551C108.482 170.185 108.269 169.688 108.222 169.061H109.232C109.272 169.435 109.396 169.731 109.602 169.951C109.809 170.171 110.109 170.305 110.502 170.351V167.931L110.362 167.911C109.722 167.798 109.236 167.588 108.902 167.281C108.569 166.975 108.402 166.508 108.402 165.881C108.402 165.348 108.589 164.908 108.962 164.561C109.342 164.208 109.856 164.001 110.502 163.941V163.091H111.142V163.941C111.742 163.988 112.219 164.165 112.572 164.471C112.932 164.771 113.162 165.218 113.262 165.811L112.282 165.961C112.189 165.588 112.052 165.308 111.872 165.121C111.699 164.935 111.456 164.821 111.142 164.781V167.081L111.392 167.121C112.006 167.228 112.479 167.441 112.812 167.761C113.152 168.075 113.322 168.541 113.322 169.161C113.322 169.781 113.122 170.261 112.722 170.601C112.322 170.941 111.796 171.135 111.142 171.181V172.151H110.502V171.181ZM112.282 169.181C112.282 169.021 112.252 168.865 112.192 168.711C112.132 168.558 112.026 168.425 111.872 168.311C111.719 168.191 111.499 168.108 111.212 168.061L111.142 168.051V170.351C111.509 170.318 111.789 170.205 111.982 170.011C112.182 169.811 112.282 169.535 112.282 169.181ZM110.502 164.781C110.169 164.815 109.899 164.915 109.692 165.081C109.492 165.248 109.392 165.495 109.392 165.821C109.392 166.121 109.469 166.365 109.622 166.551C109.776 166.738 110.069 166.875 110.502 166.961V164.781ZM117.22 164.791C116.11 164.791 115.49 165.921 115.49 167.411C115.77 166.791 116.39 166.261 117.33 166.261C118.76 166.261 119.77 167.301 119.77 168.671C119.77 170.101 118.73 171.151 117.15 171.151C115.46 171.151 114.28 169.781 114.28 167.581C114.28 165.291 115.51 163.771 117.26 163.771C118.61 163.771 119.53 164.581 119.7 165.791H118.49C118.34 165.161 117.94 164.791 117.22 164.791ZM117.14 170.171C118 170.171 118.55 169.551 118.55 168.691C118.55 167.841 118 167.221 117.14 167.221C116.28 167.221 115.7 167.841 115.7 168.691C115.7 169.551 116.28 170.171 117.14 170.171ZM120.824 170.991V169.541H122.314V171.131C122.314 172.131 121.664 172.701 120.604 172.701V172.011C121.144 172.011 121.504 171.821 121.504 171.131V170.991H120.824ZM126.632 164.941H122.762V163.891H127.982V164.901C126.322 166.931 125.792 168.721 125.762 171.031H124.402C124.432 168.621 125.332 166.621 126.632 164.941ZM131.492 167.221C130.862 167.221 130.442 167.531 130.222 167.881H129.032L129.442 163.891H133.722V164.941H130.392L130.202 166.801C130.472 166.501 131.032 166.221 131.702 166.221C133.182 166.221 134.132 167.281 134.132 168.681C134.132 170.061 133.142 171.151 131.492 171.151C129.882 171.151 128.852 170.241 128.742 168.861H130.062C130.122 169.611 130.652 170.151 131.492 170.151C132.412 170.151 132.862 169.471 132.862 168.691C132.862 167.901 132.422 167.221 131.492 167.221ZM139.692 163.891V168.231H141.112V169.241H139.692V171.031H138.422V169.241H134.882V168.221L138.252 163.891H139.692ZM138.422 165.131L136.052 168.231H138.422V165.131ZM142.064 171.031V169.541H143.554V171.031H142.064ZM143.993 165.821V164.941C145.213 164.941 145.693 164.611 145.863 163.871H146.773V171.031H145.453V165.821H143.993ZM151.156 164.791C150.046 164.791 149.426 165.921 149.426 167.411C149.706 166.791 150.326 166.261 151.266 166.261C152.696 166.261 153.706 167.301 153.706 168.671C153.706 170.101 152.666 171.151 151.086 171.151C149.396 171.151 148.216 169.781 148.216 167.581C148.216 165.291 149.446 163.771 151.196 163.771C152.546 163.771 153.466 164.581 153.636 165.791H152.426C152.276 165.161 151.876 164.791 151.156 164.791ZM151.076 170.171C151.936 170.171 152.486 169.551 152.486 168.691C152.486 167.841 151.936 167.221 151.076 167.221C150.216 167.221 149.636 167.841 149.636 168.691C149.636 169.551 150.216 170.171 151.076 170.171Z" fill="#1CBA6B"/>
<path d="M175.03 171.031L174.24 169.041H170.82L170.03 171.031H169.17L172.06 163.891H173.03L175.93 171.031H175.03ZM172.52 164.751L171.1 168.331H173.96L172.55 164.751H172.52ZM177.82 171.031H176.99V163.671H177.82V171.031ZM180.427 171.031H179.597V163.671H180.427V171.031ZM186.712 170.291V170.971C186.342 171.081 186.052 171.111 185.832 171.111C184.912 171.111 184.442 170.671 184.442 169.741V166.631H183.702V166.001H184.442V164.721H185.262V166.001H186.582V166.631H185.252V169.701C185.252 170.231 185.522 170.411 185.982 170.411C186.172 170.411 186.392 170.391 186.712 170.291ZM188.004 164.951V163.941H188.944V164.951H188.004ZM188.064 171.031V166.001H188.894V171.031H188.064ZM194.591 166.961C194.901 166.281 195.541 165.881 196.281 165.881C197.441 165.881 198.011 166.611 198.011 167.791V171.031H197.171V167.971C197.171 167.031 196.831 166.561 196.081 166.561C195.331 166.561 194.761 167.101 194.761 168.261V171.031H193.921V167.971C193.921 167.031 193.591 166.561 192.831 166.561C192.071 166.561 191.501 167.101 191.501 168.261V171.031H190.671V166.001H191.471V166.921C191.711 166.281 192.331 165.881 193.061 165.881C193.911 165.881 194.371 166.291 194.591 166.961ZM203.864 169.551C203.634 170.621 202.764 171.151 201.784 171.151C200.364 171.151 199.364 170.161 199.364 168.541C199.364 166.901 200.394 165.881 201.734 165.881C203.224 165.881 203.894 167.071 203.894 168.361V168.691H200.174C200.214 169.851 200.824 170.491 201.784 170.491C202.464 170.491 202.874 170.161 203.084 169.551H203.864ZM201.734 166.551C200.944 166.551 200.344 167.061 200.204 168.091H203.084C203.064 167.221 202.634 166.551 201.734 166.551ZM207.408 164.951V163.941H208.348V164.951H207.408ZM207.468 171.031V166.001H208.298V171.031H207.468ZM210.876 166.001V166.921C211.116 166.301 211.746 165.881 212.516 165.881C213.646 165.881 214.316 166.591 214.316 167.791V171.031H213.486V167.971C213.486 167.041 213.076 166.561 212.286 166.561C211.516 166.561 210.906 167.051 210.906 168.261V171.031H210.076V166.001H210.876ZM218.382 170.291V170.971C218.012 171.081 217.722 171.111 217.502 171.111C216.582 171.111 216.112 170.671 216.112 169.741V166.631H215.372V166.001H216.112V164.721H216.932V166.001H218.252V166.631H216.922V169.701C216.922 170.231 217.192 170.411 217.652 170.411C217.842 170.411 218.062 170.391 218.382 170.291ZM223.805 169.551C223.575 170.621 222.705 171.151 221.725 171.151C220.305 171.151 219.305 170.161 219.305 168.541C219.305 166.901 220.335 165.881 221.675 165.881C223.165 165.881 223.835 167.071 223.835 168.361V168.691H220.115C220.155 169.851 220.765 170.491 221.725 170.491C222.405 170.491 222.815 170.161 223.025 169.551H223.805ZM221.675 166.551C220.885 166.551 220.285 167.061 220.145 168.091H223.025C223.005 167.221 222.575 166.551 221.675 166.551ZM228.032 165.931V166.691C227.912 166.661 227.732 166.651 227.602 166.651C226.802 166.651 226.072 167.281 226.072 168.551V171.031H225.242V166.001H226.042V167.191C226.262 166.361 226.902 165.891 227.642 165.891C227.772 165.891 227.912 165.901 228.032 165.931ZM233.122 169.551C232.892 170.621 232.022 171.151 231.042 171.151C229.622 171.151 228.622 170.161 228.622 168.541C228.622 166.901 229.652 165.881 230.992 165.881C232.482 165.881 233.152 167.071 233.152 168.361V168.691H229.432C229.472 169.851 230.082 170.491 231.042 170.491C231.722 170.491 232.132 170.161 232.342 169.551H233.122ZM230.992 166.551C230.202 166.551 229.602 167.061 229.462 168.091H232.342C232.322 167.221 231.892 166.551 230.992 166.551ZM234.177 169.541H234.977C235.037 170.231 235.677 170.521 236.357 170.521C237.047 170.521 237.547 170.201 237.547 169.661C237.547 169.291 237.307 169.051 236.667 168.931L235.777 168.751C234.967 168.601 234.377 168.271 234.377 167.391C234.377 166.541 235.137 165.881 236.247 165.881C237.407 165.881 238.117 166.381 238.217 167.331H237.447C237.387 166.821 236.937 166.521 236.247 166.521C235.577 166.521 235.147 166.851 235.147 167.341C235.147 167.771 235.447 167.951 236.027 168.061L237.027 168.251C237.847 168.411 238.327 168.811 238.327 169.621C238.327 170.501 237.497 171.151 236.367 171.151C235.167 171.151 234.267 170.621 234.177 169.541ZM242.103 170.291V170.971C241.733 171.081 241.443 171.111 241.223 171.111C240.303 171.111 239.833 170.671 239.833 169.741V166.631H239.093V166.001H239.833V164.721H240.653V166.001H241.973V166.631H240.643V169.701C240.643 170.231 240.913 170.411 241.373 170.411C241.563 170.411 241.783 170.391 242.103 170.291Z" fill="#36373A"/>
<path d="M113.444 141.237C113.444 144.653 110.504 146.949 106.5 147.201V150.001H104.456V147.173C100.424 146.809 97.3998 144.737 97.0918 140.929H100.508C100.704 143.113 102.412 144.177 104.456 144.457V138.269L103 138.017C100.088 137.485 97.7078 136.113 97.7078 132.613C97.7078 129.253 100.508 126.901 104.456 126.677V124.017H106.5V126.705C110.392 127.097 112.716 129.113 113.08 132.417H109.72C109.524 130.765 108.376 129.813 106.5 129.505V135.469L108.292 135.805C111.512 136.421 113.444 138.045 113.444 141.237ZM104.204 135.021L104.456 135.077V129.449C102.3 129.645 101.068 130.793 101.068 132.389C101.068 134.041 102.02 134.601 104.204 135.021ZM106.836 138.717L106.5 138.661V144.513C108.74 144.289 110.084 143.225 110.084 141.489C110.084 140.033 109.3 139.165 106.836 138.717ZM123.158 144.429C126.266 144.429 128.002 141.265 128.002 137.093C127.218 138.829 125.482 140.313 122.85 140.313C118.846 140.313 116.018 137.401 116.018 133.565C116.018 129.561 118.93 126.621 123.354 126.621C128.086 126.621 131.39 130.457 131.39 136.617C131.39 143.029 127.946 147.285 123.046 147.285C119.266 147.285 116.69 145.017 116.214 141.629H119.602C120.022 143.393 121.142 144.429 123.158 144.429ZM123.382 129.365C120.974 129.365 119.434 131.101 119.434 133.509C119.434 135.889 120.974 137.625 123.382 137.625C125.79 137.625 127.414 135.889 127.414 133.509C127.414 131.101 125.79 129.365 123.382 129.365ZM133.48 132.361V129.897C136.896 129.897 138.24 128.973 138.716 126.901H141.264V146.949H137.568V132.361H133.48ZM152.415 144.429C155.523 144.429 157.259 141.265 157.259 137.093C156.475 138.829 154.739 140.313 152.107 140.313C148.103 140.313 145.275 137.401 145.275 133.565C145.275 129.561 148.187 126.621 152.611 126.621C157.343 126.621 160.647 130.457 160.647 136.617C160.647 143.029 157.203 147.285 152.303 147.285C148.523 147.285 145.947 145.017 145.471 141.629H148.859C149.279 143.393 150.399 144.429 152.415 144.429ZM152.639 129.365C150.231 129.365 148.691 131.101 148.691 133.509C148.691 135.889 150.231 137.625 152.639 137.625C155.047 137.625 156.671 135.889 156.671 133.509C156.671 131.101 155.047 129.365 152.639 129.365ZM163.187 146.837V142.777H167.359V147.229C167.359 150.029 165.539 151.625 162.571 151.625V149.693C164.083 149.693 165.091 149.161 165.091 147.229V146.837H163.187ZM179.451 129.897H168.615V126.957H183.231V129.785C178.583 135.469 177.099 140.481 177.015 146.949H173.207C173.291 140.201 175.811 134.601 179.451 129.897ZM199.586 132.669C199.586 136.309 196.786 137.989 193.51 139.837C191.018 141.293 189.226 142.581 189.17 144.009H199.698V146.949H185.11V145.521C185.11 141.629 188.526 139.221 191.522 137.429C194.294 135.749 196.086 134.601 196.086 132.641C196.086 130.933 195.078 129.505 192.726 129.505C190.43 129.505 189.086 131.269 188.946 133.341H185.39C185.642 129.645 188.218 126.621 192.754 126.621C197.038 126.621 199.586 129.309 199.586 132.669ZM209.482 144.429C212.59 144.429 214.326 141.265 214.326 137.093C213.542 138.829 211.806 140.313 209.174 140.313C205.17 140.313 202.342 137.401 202.342 133.565C202.342 129.561 205.254 126.621 209.678 126.621C214.41 126.621 217.714 130.457 217.714 136.617C217.714 143.029 214.27 147.285 209.37 147.285C205.59 147.285 203.014 145.017 202.538 141.629H205.926C206.346 143.393 207.466 144.429 209.482 144.429ZM209.706 129.365C207.298 129.365 205.758 131.101 205.758 133.509C205.758 135.889 207.298 137.625 209.706 137.625C212.114 137.625 213.738 135.889 213.738 133.509C213.738 131.101 212.114 129.365 209.706 129.365ZM220.254 146.949V142.777H224.426V146.949H220.254ZM225.656 132.361V129.897C229.072 129.897 230.416 128.973 230.892 126.901H233.44V146.949H229.744V132.361H225.656ZM245.711 129.477C242.603 129.477 240.867 132.641 240.867 136.813C241.651 135.077 243.387 133.593 246.019 133.593C250.023 133.593 252.851 136.505 252.851 140.341C252.851 144.345 249.939 147.285 245.515 147.285C240.783 147.285 237.479 143.449 237.479 137.289C237.479 130.877 240.923 126.621 245.823 126.621C249.603 126.621 252.179 128.889 252.655 132.277H249.267C248.847 130.513 247.727 129.477 245.711 129.477ZM245.487 144.541C247.895 144.541 249.435 142.805 249.435 140.397C249.435 138.017 247.895 136.281 245.487 136.281C243.079 136.281 241.455 138.017 241.455 140.397C241.455 142.805 243.079 144.541 245.487 144.541Z" fill="#181B25"/>
<path d="M254 199H98C96.8954 199 96 199.895 96 201V217C96 218.105 96.8954 219 98 219H254C255.105 219 256 218.105 256 217V201C256 199.895 255.105 199 254 199Z" fill="#021732"/>
<path d="M358 199H262C260.895 199 260 199.895 260 201V217C260 218.105 260.895 219 262 219H358C359.105 219 360 218.105 360 217V201C360 199.895 359.105 199 358 199Z" fill="#174784"/>
<path d="M448 59.5H274C272.067 59.5 270.5 61.067 270.5 63V107C270.5 108.933 272.067 110.5 274 110.5H448C449.933 110.5 451.5 108.933 451.5 107V63C451.5 61.067 449.933 59.5 448 59.5Z" fill="white"/>
<path d="M448 59.5H274C272.067 59.5 270.5 61.067 270.5 63V107C270.5 108.933 272.067 110.5 274 110.5H448C449.933 110.5 451.5 108.933 451.5 107V63C451.5 61.067 449.933 59.5 448 59.5Z" stroke="#EBEBEB"/>
<path d="M311 68H281C279.895 68 279 68.8954 279 70V100C279 101.105 279.895 102 281 102H311C312.105 102 313 101.105 313 100V70C313 68.8954 312.105 68 311 68Z" fill="#021732"/>
<path d="M297.099 93H295.279V91.1802C293.514 90.8559 292.342 89.7207 292 88.1171L294 87.5405C294.288 88.8198 295.063 89.4504 296.288 89.4504C297.604 89.4504 298.432 88.8559 298.432 87.7568C298.432 86.7658 297.766 86.3153 296.324 85.973L295.207 85.7027C293.279 85.2342 292.108 84.0991 292.108 82.2793C292.108 80.4054 293.423 79.0901 295.279 78.7838V77H297.099V78.8378C298.685 79.1622 299.856 80.2613 300.252 81.7207L298.234 82.3514C297.946 81.3063 297.351 80.5495 296.09 80.5495C294.865 80.5495 294.144 81.2523 294.144 82.2072C294.144 83.2523 294.937 83.6847 296.18 84.009L297.279 84.2793C299.477 84.8198 300.468 85.9009 300.468 87.6847C300.468 89.6847 299.135 90.964 297.099 91.2162V93Z" fill="white"/>
<path d="M394 199H366C364.895 199 364 199.895 364 201V217C364 218.105 364.895 219 366 219H394C395.105 219 396 218.105 396 217V201C396 199.895 395.105 199 394 199Z" fill="#CEE3FE"/>
<path d="M406 199H402C400.895 199 400 199.895 400 201V217C400 218.105 400.895 219 402 219H406C407.105 219 408 218.105 408 217V201C408 199.895 407.105 199 406 199Z" fill="#EBEBEB"/>
<path d="M104 243H98C96.8954 243 96 243.895 96 245V251C96 252.105 96.8954 253 98 253H104C105.105 253 106 252.105 106 251V245C106 243.895 105.105 243 104 243Z" fill="#021732"/>
<path d="M127.412 247.859C127.412 250.654 125.709 252.656 122.979 252.656C120.249 252.656 118.546 250.654 118.546 247.859C118.546 245.077 120.249 243.062 122.979 243.062C125.709 243.062 127.412 245.077 127.412 247.859ZM125.657 247.859C125.657 245.805 124.747 244.427 122.979 244.427C121.198 244.427 120.301 245.805 120.301 247.859C120.301 249.926 121.198 251.291 122.979 251.291C124.747 251.291 125.657 249.926 125.657 247.859ZM130.618 251.447V254.814H128.954V245.896H130.592V246.988C130.904 246.325 131.684 245.74 132.711 245.74C134.44 245.74 135.623 247.157 135.623 249.198C135.623 251.252 134.44 252.656 132.711 252.656C131.71 252.656 130.956 252.11 130.618 251.447ZM130.579 249.081V249.315C130.579 250.602 131.19 251.434 132.243 251.434C133.322 251.434 133.946 250.563 133.946 249.198C133.946 247.846 133.322 246.962 132.243 246.962C131.19 246.962 130.579 247.794 130.579 249.081ZM143.082 250.446C142.796 251.863 141.613 252.656 140.105 252.656C138.181 252.656 136.764 251.369 136.764 249.211C136.764 247.053 138.207 245.74 140.066 245.74C142.133 245.74 143.121 247.313 143.121 249.068V249.601H138.376C138.48 250.771 139.078 251.434 140.105 251.434C140.859 251.434 141.327 251.083 141.548 250.446H143.082ZM140.066 246.975C139.195 246.975 138.61 247.508 138.428 248.522H141.535C141.535 247.703 141.067 246.975 140.066 246.975ZM148.856 245.831V247.365C148.661 247.326 148.427 247.313 148.219 247.313C147.205 247.313 146.361 248.015 146.361 249.445V252.5H144.696V245.896H146.334V247.378C146.646 246.351 147.413 245.779 148.362 245.779C148.531 245.779 148.713 245.792 148.856 245.831ZM154.16 252.5C154.095 252.136 154.069 251.785 154.069 251.46C153.757 252.214 152.925 252.643 151.872 252.643C150.585 252.643 149.649 251.928 149.649 250.732C149.649 249.406 150.689 248.86 152.028 248.704L154.004 248.483V248.171C154.004 247.365 153.51 246.975 152.756 246.975C152.028 246.975 151.586 247.378 151.534 247.989H149.935C150.078 246.572 151.183 245.74 152.808 245.74C154.602 245.74 155.629 246.585 155.629 248.301V250.849C155.629 251.46 155.655 251.967 155.759 252.5H154.16ZM152.327 251.486C153.185 251.486 154.004 250.979 154.004 249.939V249.536L152.535 249.705C151.833 249.796 151.3 249.952 151.3 250.641C151.3 251.161 151.664 251.486 152.327 251.486ZM161.092 251.135V252.409C160.572 252.565 160.182 252.604 159.779 252.604C158.401 252.604 157.725 252.019 157.725 250.693V247.092H156.815V245.896H157.725V244.245H159.376V245.896H160.949V247.092H159.363V250.433C159.363 251.057 159.662 251.265 160.221 251.265C160.468 251.265 160.728 251.239 161.092 251.135ZM162.596 244.778V243.153H164.364V244.778H162.596ZM162.648 252.5V245.896H164.312V252.5H162.648ZM167.98 245.896V247.014C168.292 246.26 169.059 245.74 170.06 245.74C171.568 245.74 172.478 246.676 172.478 248.262V252.5H170.814V248.652C170.814 247.599 170.359 247.053 169.488 247.053C168.656 247.053 168.006 247.586 168.006 248.912V252.5H166.342V245.896H167.98ZM178.979 252.058V251.122C178.667 251.759 177.939 252.331 176.886 252.331C175.144 252.331 173.974 251.005 173.974 249.029C173.974 247.092 175.144 245.74 176.886 245.74C177.939 245.74 178.693 246.338 179.005 246.975V245.896H180.643V251.85C180.643 254.008 179.252 254.97 177.289 254.97C175.508 254.97 174.364 254.229 174.117 252.916H175.768C175.95 253.566 176.522 253.8 177.289 253.8C178.342 253.8 178.979 253.254 178.979 252.058ZM179.044 249.159V248.886C179.044 247.716 178.342 246.949 177.328 246.949C176.262 246.949 175.638 247.768 175.638 249.029C175.638 250.277 176.262 251.109 177.328 251.109C178.342 251.109 179.044 250.342 179.044 249.159ZM186.151 248.886C185.553 248.886 185.059 248.392 185.059 247.794C185.059 247.196 185.553 246.702 186.151 246.702C186.749 246.702 187.243 247.196 187.243 247.794C187.243 248.392 186.749 248.886 186.151 248.886ZM189.655 248.886C189.057 248.886 188.563 248.392 188.563 247.794C188.563 247.196 189.057 246.702 189.655 246.702C190.253 246.702 190.747 247.196 190.747 247.794C190.747 248.392 190.253 248.886 189.655 248.886ZM193.159 248.886C192.561 248.886 192.067 248.392 192.067 247.794C192.067 247.196 192.561 246.702 193.159 246.702C193.757 246.702 194.251 247.196 194.251 247.794C194.251 248.392 193.757 248.886 193.159 248.886ZM196.663 248.886C196.065 248.886 195.571 248.392 195.571 247.794C195.571 247.196 196.065 246.702 196.663 246.702C197.261 246.702 197.755 247.196 197.755 247.794C197.755 248.392 197.261 248.886 196.663 248.886ZM205.601 245.87C205.601 247.56 204.301 248.34 202.78 249.198C201.623 249.874 200.791 250.472 200.765 251.135H205.653V252.5H198.88V251.837C198.88 250.03 200.466 248.912 201.857 248.08C203.144 247.3 203.976 246.767 203.976 245.857C203.976 245.064 203.508 244.401 202.416 244.401C201.35 244.401 200.726 245.22 200.661 246.182H199.01C199.127 244.466 200.323 243.062 202.429 243.062C204.418 243.062 205.601 244.31 205.601 245.87ZM206.673 245.727V244.583C208.259 244.583 208.883 244.154 209.104 243.192H210.287V252.5H208.571V245.727H206.673ZM218.753 245.87C218.753 247.56 217.453 248.34 215.932 249.198C214.775 249.874 213.943 250.472 213.917 251.135H218.805V252.5H212.032V251.837C212.032 250.03 213.618 248.912 215.009 248.08C216.296 247.3 217.128 246.767 217.128 245.857C217.128 245.064 216.66 244.401 215.568 244.401C214.502 244.401 213.878 245.22 213.813 246.182H212.162C212.279 244.466 213.475 243.062 215.581 243.062C217.57 243.062 218.753 244.31 218.753 245.87ZM223.404 247.547C222.585 247.547 222.039 247.95 221.753 248.405H220.206L220.739 243.218H226.303V244.583H221.974L221.727 247.001C222.078 246.611 222.806 246.247 223.677 246.247C225.601 246.247 226.836 247.625 226.836 249.445C226.836 251.239 225.549 252.656 223.404 252.656C221.311 252.656 219.972 251.473 219.829 249.679H221.545C221.623 250.654 222.312 251.356 223.404 251.356C224.6 251.356 225.185 250.472 225.185 249.458C225.185 248.431 224.613 247.547 223.404 247.547Z" fill="#181B25"/>
<path d="M335.027 249.848C335.027 251.434 333.662 252.5 331.803 252.617V253.917H330.854V252.604C328.982 252.435 327.578 251.473 327.435 249.705H329.021C329.112 250.719 329.905 251.213 330.854 251.343V248.47L330.178 248.353C328.826 248.106 327.721 247.469 327.721 245.844C327.721 244.284 329.021 243.192 330.854 243.088V241.853H331.803V243.101C333.61 243.283 334.689 244.219 334.858 245.753H333.298C333.207 244.986 332.674 244.544 331.803 244.401V247.17L332.635 247.326C334.13 247.612 335.027 248.366 335.027 249.848ZM330.737 246.962L330.854 246.988V244.375C329.853 244.466 329.281 244.999 329.281 245.74C329.281 246.507 329.723 246.767 330.737 246.962ZM331.959 248.678L331.803 248.652V251.369C332.843 251.265 333.467 250.771 333.467 249.965C333.467 249.289 333.103 248.886 331.959 248.678ZM339.732 247.547C338.913 247.547 338.367 247.95 338.081 248.405H336.534L337.067 243.218H342.631V244.583H338.302L338.055 247.001C338.406 246.611 339.134 246.247 340.005 246.247C341.929 246.247 343.164 247.625 343.164 249.445C343.164 251.239 341.877 252.656 339.732 252.656C337.639 252.656 336.3 251.473 336.157 249.679H337.873C337.951 250.654 338.64 251.356 339.732 251.356C340.928 251.356 341.513 250.472 341.513 249.458C341.513 248.431 340.941 247.547 339.732 247.547ZM344.113 245.727V244.583C345.699 244.583 346.323 244.154 346.544 243.192H347.727V252.5H346.011V245.727H344.113ZM356.48 249.978C356.48 251.421 355.245 252.656 353.048 252.656C350.929 252.656 349.577 251.486 349.421 249.731H351.072C351.15 250.706 351.904 251.343 353.048 251.343C354.192 251.343 354.881 250.771 354.881 249.861C354.881 248.925 354.166 248.47 353.113 248.47H352.151V247.196H353.087C353.958 247.196 354.66 246.806 354.66 245.818C354.66 245.012 354.114 244.375 353.087 244.375C351.995 244.375 351.358 245.103 351.293 246.039H349.707C349.811 244.427 350.981 243.062 353.1 243.062C355.193 243.062 356.272 244.336 356.272 245.766C356.272 246.858 355.544 247.638 354.608 247.807C355.726 247.989 356.48 248.834 356.48 249.978ZM357.843 252.448V250.563H359.78V252.63C359.78 253.93 358.935 254.671 357.557 254.671V253.774C358.259 253.774 358.727 253.527 358.727 252.63V252.448H357.843ZM360.965 247.859C360.965 245.077 362.499 243.062 364.917 243.062C367.335 243.062 368.856 245.077 368.856 247.859C368.856 250.641 367.335 252.656 364.917 252.656C362.499 252.656 360.965 250.641 360.965 247.859ZM362.707 247.859C362.707 249.965 363.435 251.304 364.917 251.304C366.386 251.304 367.114 249.965 367.114 247.859C367.114 245.753 366.386 244.414 364.917 244.414C363.435 244.414 362.707 245.753 362.707 247.859ZM373.357 251.33C374.8 251.33 375.606 249.861 375.606 247.924C375.242 248.73 374.436 249.419 373.214 249.419C371.355 249.419 370.042 248.067 370.042 246.286C370.042 244.427 371.394 243.062 373.448 243.062C375.645 243.062 377.179 244.843 377.179 247.703C377.179 250.68 375.58 252.656 373.305 252.656C371.55 252.656 370.354 251.603 370.133 250.03H371.706C371.901 250.849 372.421 251.33 373.357 251.33ZM373.461 244.336C372.343 244.336 371.628 245.142 371.628 246.26C371.628 247.365 372.343 248.171 373.461 248.171C374.579 248.171 375.333 247.365 375.333 246.26C375.333 245.142 374.579 244.336 373.461 244.336ZM384.428 243.218V248.86H386.274V250.173H384.428V252.5H382.777V250.173H378.175V248.847L382.556 243.218H384.428ZM382.777 244.83L379.696 248.86H382.777V244.83ZM387.511 252.5V250.563H389.448V252.5H387.511ZM390.634 247.859C390.634 245.077 392.168 243.062 394.586 243.062C397.004 243.062 398.525 245.077 398.525 247.859C398.525 250.641 397.004 252.656 394.586 252.656C392.168 252.656 390.634 250.641 390.634 247.859ZM392.376 247.859C392.376 249.965 393.104 251.304 394.586 251.304C396.055 251.304 396.783 249.965 396.783 247.859C396.783 245.753 396.055 244.414 394.586 244.414C393.104 244.414 392.376 245.753 392.376 247.859ZM405.782 243.218V248.86H407.628V250.173H405.782V252.5H404.131V250.173H399.529V248.847L403.91 243.218H405.782ZM404.131 244.83L401.05 248.86H404.131V244.83Z" fill="#181B25"/>
<path d="M104 277H98C96.8954 277 96 277.895 96 279V285C96 286.105 96.8954 287 98 287H104C105.105 287 106 286.105 106 285V279C106 277.895 105.105 277 104 277Z" fill="#174784"/>
<path d="M122.901 283.081H120.743V286.5H119.053V277.218H122.888C125.085 277.218 126.359 278.219 126.359 280.156C126.359 282.093 125.085 283.081 122.901 283.081ZM120.743 281.729H122.745C124.019 281.729 124.656 281.209 124.656 280.156C124.656 279.09 124.019 278.583 122.745 278.583H120.743V281.729ZM131.702 286.5C131.637 286.136 131.611 285.785 131.611 285.46C131.299 286.214 130.467 286.643 129.414 286.643C128.127 286.643 127.191 285.928 127.191 284.732C127.191 283.406 128.231 282.86 129.57 282.704L131.546 282.483V282.171C131.546 281.365 131.052 280.975 130.298 280.975C129.57 280.975 129.128 281.378 129.076 281.989H127.477C127.62 280.572 128.725 279.74 130.35 279.74C132.144 279.74 133.171 280.585 133.171 282.301V284.849C133.171 285.46 133.197 285.967 133.301 286.5H131.702ZM129.869 285.486C130.727 285.486 131.546 284.979 131.546 283.939V283.536L130.077 283.705C129.375 283.796 128.842 283.952 128.842 284.641C128.842 285.161 129.206 285.486 129.869 285.486ZM136.868 286.487L134.294 279.896H135.984L137.817 284.875H137.843L139.585 279.896H141.236L138.662 286.617C138.038 288.268 137.271 288.905 135.88 288.918C135.659 288.918 135.347 288.892 135.113 288.853V287.592C135.308 287.631 135.412 287.631 135.555 287.631C136.231 287.631 136.517 287.397 136.868 286.487ZM146.673 279.831V281.365C146.478 281.326 146.244 281.313 146.036 281.313C145.022 281.313 144.177 282.015 144.177 283.445V286.5H142.513V279.896H144.151V281.378C144.463 280.351 145.23 279.779 146.179 279.779C146.348 279.779 146.53 279.792 146.673 279.831ZM154.06 283.198C154.06 285.343 152.669 286.656 150.719 286.656C148.769 286.656 147.378 285.343 147.378 283.198C147.378 281.066 148.769 279.74 150.719 279.74C152.669 279.74 154.06 281.066 154.06 283.198ZM149.042 283.198C149.042 284.589 149.64 285.421 150.719 285.421C151.785 285.421 152.396 284.589 152.396 283.198C152.396 281.82 151.785 280.975 150.719 280.975C149.64 280.975 149.042 281.82 149.042 283.198ZM157.292 286.5H155.628V276.932H157.292V286.5ZM160.986 286.5H159.322V276.932H160.986V286.5ZM166.487 282.886C165.889 282.886 165.395 282.392 165.395 281.794C165.395 281.196 165.889 280.702 166.487 280.702C167.085 280.702 167.579 281.196 167.579 281.794C167.579 282.392 167.085 282.886 166.487 282.886ZM169.991 282.886C169.393 282.886 168.899 282.392 168.899 281.794C168.899 281.196 169.393 280.702 169.991 280.702C170.589 280.702 171.083 281.196 171.083 281.794C171.083 282.392 170.589 282.886 169.991 282.886ZM173.494 282.886C172.896 282.886 172.402 282.392 172.402 281.794C172.402 281.196 172.896 280.702 173.494 280.702C174.092 280.702 174.586 281.196 174.586 281.794C174.586 282.392 174.092 282.886 173.494 282.886ZM176.998 282.886C176.4 282.886 175.906 282.392 175.906 281.794C175.906 281.196 176.4 280.702 176.998 280.702C177.596 280.702 178.09 281.196 178.09 281.794C178.09 282.392 177.596 282.886 176.998 282.886ZM179.124 279.727V278.583C180.71 278.583 181.334 278.154 181.555 277.192H182.738V286.5H181.022V279.727H179.124ZM184.614 281.859C184.614 279.077 186.148 277.062 188.566 277.062C190.984 277.062 192.505 279.077 192.505 281.859C192.505 284.641 190.984 286.656 188.566 286.656C186.148 286.656 184.614 284.641 184.614 281.859ZM186.356 281.859C186.356 283.965 187.084 285.304 188.566 285.304C190.035 285.304 190.763 283.965 190.763 281.859C190.763 279.753 190.035 278.414 188.566 278.414C187.084 278.414 186.356 279.753 186.356 281.859ZM200.294 279.87C200.294 281.56 198.994 282.34 197.473 283.198C196.316 283.874 195.484 284.472 195.458 285.135H200.346V286.5H193.573V285.837C193.573 284.03 195.159 282.912 196.55 282.08C197.837 281.3 198.669 280.767 198.669 279.857C198.669 279.064 198.201 278.401 197.109 278.401C196.043 278.401 195.419 279.22 195.354 280.182H193.703C193.82 278.466 195.016 277.062 197.122 277.062C199.111 277.062 200.294 278.31 200.294 279.87ZM208.325 283.978C208.325 285.421 207.09 286.656 204.893 286.656C202.774 286.656 201.422 285.486 201.266 283.731H202.917C202.995 284.706 203.749 285.343 204.893 285.343C206.037 285.343 206.726 284.771 206.726 283.861C206.726 282.925 206.011 282.47 204.958 282.47H203.996V281.196H204.932C205.803 281.196 206.505 280.806 206.505 279.818C206.505 279.012 205.959 278.375 204.932 278.375C203.84 278.375 203.203 279.103 203.138 280.039H201.552C201.656 278.427 202.826 277.062 204.945 277.062C207.038 277.062 208.117 278.336 208.117 279.766C208.117 280.858 207.389 281.638 206.453 281.807C207.571 281.989 208.325 282.834 208.325 283.978Z" fill="#181B25"/>
<path d="M340.181 283.848C340.181 285.434 338.816 286.5 336.957 286.617V287.917H336.008V286.604C334.136 286.435 332.732 285.473 332.589 283.705H334.175C334.266 284.719 335.059 285.213 336.008 285.343V282.47L335.332 282.353C333.98 282.106 332.875 281.469 332.875 279.844C332.875 278.284 334.175 277.192 336.008 277.088V275.853H336.957V277.101C338.764 277.283 339.843 278.219 340.012 279.753H338.452C338.361 278.986 337.828 278.544 336.957 278.401V281.17L337.789 281.326C339.284 281.612 340.181 282.366 340.181 283.848ZM335.891 280.962L336.008 280.988V278.375C335.007 278.466 334.435 278.999 334.435 279.74C334.435 280.507 334.877 280.767 335.891 280.962ZM337.113 282.678L336.957 282.652V285.369C337.997 285.265 338.621 284.771 338.621 283.965C338.621 283.289 338.257 282.886 337.113 282.678ZM347.98 279.87C347.98 281.56 346.68 282.34 345.159 283.198C344.002 283.874 343.17 284.472 343.144 285.135H348.032V286.5H341.259V285.837C341.259 284.03 342.845 282.912 344.236 282.08C345.523 281.3 346.355 280.767 346.355 279.857C346.355 279.064 345.887 278.401 344.795 278.401C343.729 278.401 343.105 279.22 343.04 280.182H341.389C341.506 278.466 342.702 277.062 344.808 277.062C346.797 277.062 347.98 278.31 347.98 279.87ZM352.63 281.547C351.811 281.547 351.265 281.95 350.979 282.405H349.432L349.965 277.218H355.529V278.583H351.2L350.953 281.001C351.304 280.611 352.032 280.247 352.903 280.247C354.827 280.247 356.062 281.625 356.062 283.445C356.062 285.239 354.775 286.656 352.63 286.656C350.537 286.656 349.198 285.473 349.055 283.679H350.771C350.849 284.654 351.538 285.356 352.63 285.356C353.826 285.356 354.411 284.472 354.411 283.458C354.411 282.431 353.839 281.547 352.63 281.547ZM360.535 285.33C361.978 285.33 362.784 283.861 362.784 281.924C362.42 282.73 361.614 283.419 360.392 283.419C358.533 283.419 357.22 282.067 357.22 280.286C357.22 278.427 358.572 277.062 360.626 277.062C362.823 277.062 364.357 278.843 364.357 281.703C364.357 284.68 362.758 286.656 360.483 286.656C358.728 286.656 357.532 285.603 357.311 284.03H358.884C359.079 284.849 359.599 285.33 360.535 285.33ZM360.639 278.336C359.521 278.336 358.806 279.142 358.806 280.26C358.806 281.365 359.521 282.171 360.639 282.171C361.757 282.171 362.511 281.365 362.511 280.26C362.511 279.142 361.757 278.336 360.639 278.336ZM365.536 286.448V284.563H367.473V286.63C367.473 287.93 366.628 288.671 365.25 288.671V287.774C365.952 287.774 366.42 287.527 366.42 286.63V286.448H365.536ZM373.087 278.583H368.056V277.218H374.842V278.531C372.684 281.17 371.995 283.497 371.956 286.5H370.188C370.227 283.367 371.397 280.767 373.087 278.583ZM380.984 278.583H375.953V277.218H382.739V278.531C380.581 281.17 379.892 283.497 379.853 286.5H378.085C378.124 283.367 379.294 280.767 380.984 278.583ZM390.332 279.87C390.332 281.56 389.032 282.34 387.511 283.198C386.354 283.874 385.522 284.472 385.496 285.135H390.384V286.5H383.611V285.837C383.611 284.03 385.197 282.912 386.588 282.08C387.875 281.3 388.707 280.767 388.707 279.857C388.707 279.064 388.239 278.401 387.147 278.401C386.081 278.401 385.457 279.22 385.392 280.182H383.741C383.858 278.466 385.054 277.062 387.16 277.062C389.149 277.062 390.332 278.31 390.332 279.87ZM392.12 286.5V284.563H394.057V286.5H392.12ZM394.628 279.727V278.583C396.214 278.583 396.838 278.154 397.059 277.192H398.242V286.5H396.526V279.727H394.628ZM403.758 277.062C405.604 277.062 407.008 278.024 407.008 279.688C407.008 280.689 406.397 281.43 405.565 281.794C406.488 281.976 407.424 282.86 407.424 283.952C407.424 285.59 405.968 286.656 403.758 286.656C401.548 286.656 400.092 285.59 400.092 283.952C400.092 282.86 401.028 281.976 401.951 281.794C401.119 281.43 400.508 280.689 400.508 279.688C400.508 278.024 401.912 277.062 403.758 277.062ZM403.758 281.157C404.72 281.157 405.487 280.676 405.487 279.727C405.487 278.765 404.72 278.297 403.758 278.297C402.783 278.297 402.029 278.765 402.029 279.727C402.029 280.676 402.783 281.157 403.758 281.157ZM403.758 285.395C405.045 285.395 405.773 284.797 405.773 283.887C405.773 282.977 405.045 282.379 403.758 282.379C402.471 282.379 401.743 282.977 401.743 283.887C401.743 284.797 402.471 285.395 403.758 285.395Z" fill="#181B25"/>
<path d="M104 311H98C96.8954 311 96 311.895 96 313V319C96 320.105 96.8954 321 98 321H104C105.105 321 106 320.105 106 319V313C106 311.895 105.105 311 104 311Z" fill="#CEE3FE"/>
<path d="M123.447 320.5H121.718V316.691L118.13 311.218H120.054L122.628 315.183H122.654L125.163 311.218H127.048L123.447 316.691V320.5ZM128.141 312.778V311.153H129.909V312.778H128.141ZM128.193 320.5V313.896H129.857V320.5H128.193ZM137.75 318.446C137.464 319.863 136.281 320.656 134.773 320.656C132.849 320.656 131.432 319.369 131.432 317.211C131.432 315.053 132.875 313.74 134.734 313.74C136.801 313.74 137.789 315.313 137.789 317.068V317.601H133.044C133.148 318.771 133.746 319.434 134.773 319.434C135.527 319.434 135.995 319.083 136.216 318.446H137.75ZM134.734 314.975C133.863 314.975 133.278 315.508 133.096 316.522H136.203C136.203 315.703 135.735 314.975 134.734 314.975ZM141.028 320.5H139.364V310.932H141.028V320.5ZM147.635 320.5V319.447C147.31 320.11 146.517 320.656 145.516 320.656C143.787 320.656 142.604 319.252 142.604 317.198C142.604 315.157 143.787 313.74 145.516 313.74C146.543 313.74 147.297 314.312 147.609 314.975V310.932H149.273V320.5H147.635ZM147.648 317.315V317.081C147.648 315.794 147.037 314.962 145.984 314.962C144.905 314.962 144.281 315.846 144.281 317.198C144.281 318.563 144.905 319.434 145.984 319.434C147.037 319.434 147.648 318.602 147.648 317.315ZM154.769 316.886C154.171 316.886 153.677 316.392 153.677 315.794C153.677 315.196 154.171 314.702 154.769 314.702C155.367 314.702 155.861 315.196 155.861 315.794C155.861 316.392 155.367 316.886 154.769 316.886ZM158.272 316.886C157.674 316.886 157.18 316.392 157.18 315.794C157.18 315.196 157.674 314.702 158.272 314.702C158.87 314.702 159.364 315.196 159.364 315.794C159.364 316.392 158.87 316.886 158.272 316.886ZM161.776 316.886C161.178 316.886 160.684 316.392 160.684 315.794C160.684 315.196 161.178 314.702 161.776 314.702C162.374 314.702 162.868 315.196 162.868 315.794C162.868 316.392 162.374 316.886 161.776 316.886ZM165.28 316.886C164.682 316.886 164.188 316.392 164.188 315.794C164.188 315.196 164.682 314.702 165.28 314.702C165.878 314.702 166.372 315.196 166.372 315.794C166.372 316.392 165.878 316.886 165.28 316.886ZM170.929 319.33C172.372 319.33 173.178 317.861 173.178 315.924C172.814 316.73 172.008 317.419 170.786 317.419C168.927 317.419 167.614 316.067 167.614 314.286C167.614 312.427 168.966 311.062 171.02 311.062C173.217 311.062 174.751 312.843 174.751 315.703C174.751 318.68 173.152 320.656 170.877 320.656C169.122 320.656 167.926 319.603 167.705 318.03H169.278C169.473 318.849 169.993 319.33 170.929 319.33ZM171.033 312.336C169.915 312.336 169.2 313.142 169.2 314.26C169.2 315.365 169.915 316.171 171.033 316.171C172.151 316.171 172.905 315.365 172.905 314.26C172.905 313.142 172.151 312.336 171.033 312.336ZM182.001 311.218V316.86H183.847V318.173H182.001V320.5H180.35V318.173H175.748V316.847L180.129 311.218H182.001ZM180.35 312.83L177.269 316.86H180.35V312.83ZM189.169 312.583H184.138V311.218H190.924V312.531C188.766 315.17 188.077 317.497 188.038 320.5H186.27C186.309 317.367 187.479 314.767 189.169 312.583ZM195.487 315.547C194.668 315.547 194.122 315.95 193.836 316.405H192.289L192.822 311.218H198.386V312.583H194.057L193.81 315.001C194.161 314.611 194.889 314.247 195.76 314.247C197.684 314.247 198.919 315.625 198.919 317.445C198.919 319.239 197.632 320.656 195.487 320.656C193.394 320.656 192.055 319.473 191.912 317.679H193.628C193.706 318.654 194.395 319.356 195.487 319.356C196.683 319.356 197.268 318.472 197.268 317.458C197.268 316.431 196.696 315.547 195.487 315.547Z" fill="#181B25"/>
<path d="M345.83 317.848C345.83 319.434 344.465 320.5 342.606 320.617V321.917H341.657V320.604C339.785 320.435 338.381 319.473 338.238 317.705H339.824C339.915 318.719 340.708 319.213 341.657 319.343V316.47L340.981 316.353C339.629 316.106 338.524 315.469 338.524 313.844C338.524 312.284 339.824 311.192 341.657 311.088V309.853H342.606V311.101C344.413 311.283 345.492 312.219 345.661 313.753H344.101C344.01 312.986 343.477 312.544 342.606 312.401V315.17L343.438 315.326C344.933 315.612 345.83 316.366 345.83 317.848ZM341.54 314.962L341.657 314.988V312.375C340.656 312.466 340.084 312.999 340.084 313.74C340.084 314.507 340.526 314.767 341.54 314.962ZM342.762 316.678L342.606 316.652V319.369C343.646 319.265 344.27 318.771 344.27 317.965C344.27 317.289 343.906 316.886 342.762 316.678ZM353.629 313.87C353.629 315.56 352.329 316.34 350.808 317.198C349.651 317.874 348.819 318.472 348.793 319.135H353.681V320.5H346.908V319.837C346.908 318.03 348.494 316.912 349.885 316.08C351.172 315.3 352.004 314.767 352.004 313.857C352.004 313.064 351.536 312.401 350.444 312.401C349.378 312.401 348.754 313.22 348.689 314.182H347.038C347.155 312.466 348.351 311.062 350.457 311.062C352.446 311.062 353.629 312.31 353.629 313.87ZM358.224 319.33C359.667 319.33 360.473 317.861 360.473 315.924C360.109 316.73 359.303 317.419 358.081 317.419C356.222 317.419 354.909 316.067 354.909 314.286C354.909 312.427 356.261 311.062 358.315 311.062C360.512 311.062 362.046 312.843 362.046 315.703C362.046 318.68 360.447 320.656 358.172 320.656C356.417 320.656 355.221 319.603 355 318.03H356.573C356.768 318.849 357.288 319.33 358.224 319.33ZM358.328 312.336C357.21 312.336 356.495 313.142 356.495 314.26C356.495 315.365 357.21 316.171 358.328 316.171C359.446 316.171 360.2 315.365 360.2 314.26C360.2 313.142 359.446 312.336 358.328 312.336ZM363.225 320.448V318.563H365.162V320.63C365.162 321.93 364.317 322.671 362.939 322.671V321.774C363.641 321.774 364.109 321.527 364.109 320.63V320.448H363.225ZM373.586 313.87C373.586 315.56 372.286 316.34 370.765 317.198C369.608 317.874 368.776 318.472 368.75 319.135H373.638V320.5H366.865V319.837C366.865 318.03 368.451 316.912 369.842 316.08C371.129 315.3 371.961 314.767 371.961 313.857C371.961 313.064 371.493 312.401 370.401 312.401C369.335 312.401 368.711 313.22 368.646 314.182H366.995C367.112 312.466 368.308 311.062 370.414 311.062C372.403 311.062 373.586 312.31 373.586 313.87ZM381.623 313.87C381.623 315.56 380.323 316.34 378.802 317.198C377.645 317.874 376.813 318.472 376.787 319.135H381.675V320.5H374.902V319.837C374.902 318.03 376.488 316.912 377.879 316.08C379.166 315.3 379.998 314.767 379.998 313.857C379.998 313.064 379.53 312.401 378.438 312.401C377.372 312.401 376.748 313.22 376.683 314.182H375.032C375.149 312.466 376.345 311.062 378.451 311.062C380.44 311.062 381.623 312.31 381.623 313.87ZM386.416 311.062C388.262 311.062 389.666 312.024 389.666 313.688C389.666 314.689 389.055 315.43 388.223 315.794C389.146 315.976 390.082 316.86 390.082 317.952C390.082 319.59 388.626 320.656 386.416 320.656C384.206 320.656 382.75 319.59 382.75 317.952C382.75 316.86 383.686 315.976 384.609 315.794C383.777 315.43 383.166 314.689 383.166 313.688C383.166 312.024 384.57 311.062 386.416 311.062ZM386.416 315.157C387.378 315.157 388.145 314.676 388.145 313.727C388.145 312.765 387.378 312.297 386.416 312.297C385.441 312.297 384.687 312.765 384.687 313.727C384.687 314.676 385.441 315.157 386.416 315.157ZM386.416 319.395C387.703 319.395 388.431 318.797 388.431 317.887C388.431 316.977 387.703 316.379 386.416 316.379C385.129 316.379 384.401 316.977 384.401 317.887C384.401 318.797 385.129 319.395 386.416 319.395ZM391.523 320.5V318.563H393.46V320.5H391.523ZM398.316 319.33C399.759 319.33 400.565 317.861 400.565 315.924C400.201 316.73 399.395 317.419 398.173 317.419C396.314 317.419 395.001 316.067 395.001 314.286C395.001 312.427 396.353 311.062 398.407 311.062C400.604 311.062 402.138 312.843 402.138 315.703C402.138 318.68 400.539 320.656 398.264 320.656C396.509 320.656 395.313 319.603 395.092 318.03H396.665C396.86 318.849 397.38 319.33 398.316 319.33ZM398.42 312.336C397.302 312.336 396.587 313.142 396.587 314.26C396.587 315.365 397.302 316.171 398.42 316.171C399.538 316.171 400.292 315.365 400.292 314.26C400.292 313.142 399.538 312.336 398.42 312.336ZM403.108 313.727V312.583C404.694 312.583 405.318 312.154 405.539 311.192H406.722V320.5H405.006V313.727H403.108Z" fill="#181B25"/>
<path d="M104 345H98C96.8954 345 96 345.895 96 347V353C96 354.105 96.8954 355 98 355H104C105.105 355 106 354.105 106 353V347C106 345.895 105.105 345 104 345Z" fill="#EBEBEB"/>
<path d="M121.822 354.5V346.583H118.494V345.218H126.879V346.583H123.538V354.5H121.822ZM131.144 354.5C131.079 354.136 131.053 353.785 131.053 353.46C130.741 354.214 129.909 354.643 128.856 354.643C127.569 354.643 126.633 353.928 126.633 352.732C126.633 351.406 127.673 350.86 129.012 350.704L130.988 350.483V350.171C130.988 349.365 130.494 348.975 129.74 348.975C129.012 348.975 128.57 349.378 128.518 349.989H126.919C127.062 348.572 128.167 347.74 129.792 347.74C131.586 347.74 132.613 348.585 132.613 350.301V352.849C132.613 353.46 132.639 353.967 132.743 354.5H131.144ZM129.311 353.486C130.169 353.486 130.988 352.979 130.988 351.939V351.536L129.519 351.705C128.817 351.796 128.284 351.952 128.284 352.641C128.284 353.161 128.648 353.486 129.311 353.486ZM135.658 354.5H133.877L136.412 351.12L134.033 347.896H135.944L137.4 349.937L138.869 347.896H140.65L138.297 351.042L140.858 354.5H138.947L137.309 352.238L135.658 354.5ZM147.729 352.446C147.443 353.863 146.26 354.656 144.752 354.656C142.828 354.656 141.411 353.369 141.411 351.211C141.411 349.053 142.854 347.74 144.713 347.74C146.78 347.74 147.768 349.313 147.768 351.068V351.601H143.023C143.127 352.771 143.725 353.434 144.752 353.434C145.506 353.434 145.974 353.083 146.195 352.446H147.729ZM144.713 348.975C143.842 348.975 143.257 349.508 143.075 350.522H146.182C146.182 349.703 145.714 348.975 144.713 348.975ZM148.874 352.498H150.46C150.538 353.187 151.227 353.499 151.942 353.499C152.644 353.499 153.19 353.213 153.19 352.68C153.19 352.264 152.904 352.069 152.176 351.939L151.006 351.731C149.914 351.536 149.108 351.029 149.108 349.846C149.108 348.598 150.252 347.74 151.786 347.74C153.502 347.74 154.477 348.494 154.62 349.768H153.099C153.034 349.248 152.527 348.91 151.799 348.91C151.097 348.91 150.642 349.222 150.642 349.677C150.642 350.132 150.98 350.301 151.656 350.418L152.943 350.639C154.1 350.834 154.75 351.471 154.75 352.563C154.75 353.824 153.541 354.656 151.968 354.656C150.252 354.656 149.017 353.941 148.874 352.498ZM159.834 350.886C159.236 350.886 158.742 350.392 158.742 349.794C158.742 349.196 159.236 348.702 159.834 348.702C160.432 348.702 160.926 349.196 160.926 349.794C160.926 350.392 160.432 350.886 159.834 350.886ZM163.338 350.886C162.74 350.886 162.246 350.392 162.246 349.794C162.246 349.196 162.74 348.702 163.338 348.702C163.936 348.702 164.43 349.196 164.43 349.794C164.43 350.392 163.936 350.886 163.338 350.886ZM166.842 350.886C166.244 350.886 165.75 350.392 165.75 349.794C165.75 349.196 166.244 348.702 166.842 348.702C167.44 348.702 167.934 349.196 167.934 349.794C167.934 350.392 167.44 350.886 166.842 350.886ZM170.346 350.886C169.748 350.886 169.254 350.392 169.254 349.794C169.254 349.196 169.748 348.702 170.346 348.702C170.944 348.702 171.438 349.196 171.438 349.794C171.438 350.392 170.944 350.886 170.346 350.886ZM179.57 351.978C179.57 353.421 178.335 354.656 176.138 354.656C174.019 354.656 172.667 353.486 172.511 351.731H174.162C174.24 352.706 174.994 353.343 176.138 353.343C177.282 353.343 177.971 352.771 177.971 351.861C177.971 350.925 177.256 350.47 176.203 350.47H175.241V349.196H176.177C177.048 349.196 177.75 348.806 177.75 347.818C177.75 347.012 177.204 346.375 176.177 346.375C175.085 346.375 174.448 347.103 174.383 348.039H172.797C172.901 346.427 174.071 345.062 176.19 345.062C178.283 345.062 179.362 346.336 179.362 347.766C179.362 348.858 178.634 349.638 177.698 349.807C178.816 349.989 179.57 350.834 179.57 351.978ZM186.8 345.218V350.86H188.646V352.173H186.8V354.5H185.149V352.173H180.547V350.847L184.928 345.218H186.8ZM185.149 346.83L182.068 350.86H185.149V346.83ZM192.918 353.33C194.361 353.33 195.167 351.861 195.167 349.924C194.803 350.73 193.997 351.419 192.775 351.419C190.916 351.419 189.603 350.067 189.603 348.286C189.603 346.427 190.955 345.062 193.009 345.062C195.206 345.062 196.74 346.843 196.74 349.703C196.74 352.68 195.141 354.656 192.866 354.656C191.111 354.656 189.915 353.603 189.694 352.03H191.267C191.462 352.849 191.982 353.33 192.918 353.33ZM193.022 346.336C191.904 346.336 191.189 347.142 191.189 348.26C191.189 349.365 191.904 350.171 193.022 350.171C194.14 350.171 194.894 349.365 194.894 348.26C194.894 347.142 194.14 346.336 193.022 346.336ZM201.571 345.062C203.417 345.062 204.821 346.024 204.821 347.688C204.821 348.689 204.21 349.43 203.378 349.794C204.301 349.976 205.237 350.86 205.237 351.952C205.237 353.59 203.781 354.656 201.571 354.656C199.361 354.656 197.905 353.59 197.905 351.952C197.905 350.86 198.841 349.976 199.764 349.794C198.932 349.43 198.321 348.689 198.321 347.688C198.321 346.024 199.725 345.062 201.571 345.062ZM201.571 349.157C202.533 349.157 203.3 348.676 203.3 347.727C203.3 346.765 202.533 346.297 201.571 346.297C200.596 346.297 199.842 346.765 199.842 347.727C199.842 348.676 200.596 349.157 201.571 349.157ZM201.571 353.395C202.858 353.395 203.586 352.797 203.586 351.887C203.586 350.977 202.858 350.379 201.571 350.379C200.284 350.379 199.556 350.977 199.556 351.887C199.556 352.797 200.284 353.395 201.571 353.395Z" fill="#181B25"/>
<path d="M350.121 351.848C350.121 353.434 348.756 354.5 346.897 354.617V355.917H345.948V354.604C344.076 354.435 342.672 353.473 342.529 351.705H344.115C344.206 352.719 344.999 353.213 345.948 353.343V350.47L345.272 350.353C343.92 350.106 342.815 349.469 342.815 347.844C342.815 346.284 344.115 345.192 345.948 345.088V343.853H346.897V345.101C348.704 345.283 349.783 346.219 349.952 347.753H348.392C348.301 346.986 347.768 346.544 346.897 346.401V349.17L347.729 349.326C349.224 349.612 350.121 350.366 350.121 351.848ZM345.831 348.962L345.948 348.988V346.375C344.947 346.466 344.375 346.999 344.375 347.74C344.375 348.507 344.817 348.767 345.831 348.962ZM347.053 350.678L346.897 350.652V353.369C347.937 353.265 348.561 352.771 348.561 351.965C348.561 351.289 348.197 350.886 347.053 350.678ZM354.969 345.062C356.815 345.062 358.219 346.024 358.219 347.688C358.219 348.689 357.608 349.43 356.776 349.794C357.699 349.976 358.635 350.86 358.635 351.952C358.635 353.59 357.179 354.656 354.969 354.656C352.759 354.656 351.303 353.59 351.303 351.952C351.303 350.86 352.239 349.976 353.162 349.794C352.33 349.43 351.719 348.689 351.719 347.688C351.719 346.024 353.123 345.062 354.969 345.062ZM354.969 349.157C355.931 349.157 356.698 348.676 356.698 347.727C356.698 346.765 355.931 346.297 354.969 346.297C353.994 346.297 353.24 346.765 353.24 347.727C353.24 348.676 353.994 349.157 354.969 349.157ZM354.969 353.395C356.256 353.395 356.984 352.797 356.984 351.887C356.984 350.977 356.256 350.379 354.969 350.379C353.682 350.379 352.954 350.977 352.954 351.887C352.954 352.797 353.682 353.395 354.969 353.395ZM360.077 354.448V352.563H362.014V354.63C362.014 355.93 361.169 356.671 359.791 356.671V355.774C360.493 355.774 360.961 355.527 360.961 354.63V354.448H360.077ZM369.296 345.218V350.86H371.142V352.173H369.296V354.5H367.645V352.173H363.043V350.847L367.424 345.218H369.296ZM367.645 346.83L364.564 350.86H367.645V346.83ZM378.989 351.978C378.989 353.421 377.754 354.656 375.557 354.656C373.438 354.656 372.086 353.486 371.93 351.731H373.581C373.659 352.706 374.413 353.343 375.557 353.343C376.701 353.343 377.39 352.771 377.39 351.861C377.39 350.925 376.675 350.47 375.622 350.47H374.66V349.196H375.596C376.467 349.196 377.169 348.806 377.169 347.818C377.169 347.012 376.623 346.375 375.596 346.375C374.504 346.375 373.867 347.103 373.802 348.039H372.216C372.32 346.427 373.49 345.062 375.609 345.062C377.702 345.062 378.781 346.336 378.781 347.766C378.781 348.858 378.053 349.638 377.117 349.807C378.235 349.989 378.989 350.834 378.989 351.978ZM383.463 353.33C384.906 353.33 385.712 351.861 385.712 349.924C385.348 350.73 384.542 351.419 383.32 351.419C381.461 351.419 380.148 350.067 380.148 348.286C380.148 346.427 381.5 345.062 383.554 345.062C385.751 345.062 387.285 346.843 387.285 349.703C387.285 352.68 385.686 354.656 383.411 354.656C381.656 354.656 380.46 353.603 380.239 352.03H381.812C382.007 352.849 382.527 353.33 383.463 353.33ZM383.567 346.336C382.449 346.336 381.734 347.142 381.734 348.26C381.734 349.365 382.449 350.171 383.567 350.171C384.685 350.171 385.439 349.365 385.439 348.26C385.439 347.142 384.685 346.336 383.567 346.336ZM388.464 354.5V352.563H390.401V354.5H388.464ZM397.682 345.218V350.86H399.528V352.173H397.682V354.5H396.031V352.173H391.429V350.847L395.81 345.218H397.682ZM396.031 346.83L392.95 350.86H396.031V346.83ZM403.995 349.547C403.176 349.547 402.63 349.95 402.344 350.405H400.797L401.33 345.218H406.894V346.583H402.565L402.318 349.001C402.669 348.611 403.397 348.247 404.268 348.247C406.192 348.247 407.427 349.625 407.427 351.445C407.427 353.239 406.14 354.656 403.995 354.656C401.902 354.656 400.563 353.473 400.42 351.679H402.136C402.214 352.654 402.903 353.356 403.995 353.356C405.191 353.356 405.776 352.472 405.776 351.458C405.776 350.431 405.204 349.547 403.995 349.547Z" fill="#181B25"/>
<path d="M331.099 93.348C331.099 94.934 329.734 96 327.875 96.117V97.417H326.926V96.104C325.054 95.935 323.65 94.973 323.507 93.205H325.093C325.184 94.219 325.977 94.713 326.926 94.843V91.97L326.25 91.853C324.898 91.606 323.793 90.969 323.793 89.344C323.793 87.784 325.093 86.692 326.926 86.588V85.353H327.875V86.601C329.682 86.783 330.761 87.719 330.93 89.253H329.37C329.279 88.486 328.746 88.044 327.875 87.901V90.67L328.707 90.826C330.202 91.112 331.099 91.866 331.099 93.348ZM326.809 90.462L326.926 90.488V87.875C325.925 87.966 325.353 88.499 325.353 89.24C325.353 90.007 325.795 90.267 326.809 90.462ZM328.031 92.178L327.875 92.152V94.869C328.915 94.765 329.539 94.271 329.539 93.465C329.539 92.789 329.175 92.386 328.031 92.178ZM338.898 89.37C338.898 91.06 337.598 91.84 336.077 92.698C334.92 93.374 334.088 93.972 334.062 94.635H338.95V96H332.177V95.337C332.177 93.53 333.763 92.412 335.154 91.58C336.441 90.8 337.273 90.267 337.273 89.357C337.273 88.564 336.805 87.901 335.713 87.901C334.647 87.901 334.023 88.72 333.958 89.682H332.307C332.424 87.966 333.62 86.562 335.726 86.562C337.715 86.562 338.898 87.81 338.898 89.37ZM340.686 95.948V94.063H342.623V96.13C342.623 97.43 341.778 98.171 340.4 98.171V97.274C341.102 97.274 341.57 97.027 341.57 96.13V95.948H340.686ZM347.738 91.047C346.919 91.047 346.373 91.45 346.087 91.905H344.54L345.073 86.718H350.637V88.083H346.308L346.061 90.501C346.412 90.111 347.14 89.747 348.011 89.747C349.935 89.747 351.17 91.125 351.17 92.945C351.17 94.739 349.883 96.156 347.738 96.156C345.645 96.156 344.306 94.973 344.163 93.179H345.879C345.957 94.154 346.646 94.856 347.738 94.856C348.934 94.856 349.519 93.972 349.519 92.958C349.519 91.931 348.947 91.047 347.738 91.047ZM355.642 94.83C357.085 94.83 357.891 93.361 357.891 91.424C357.527 92.23 356.721 92.919 355.499 92.919C353.64 92.919 352.327 91.567 352.327 89.786C352.327 87.927 353.679 86.562 355.733 86.562C357.93 86.562 359.464 88.343 359.464 91.203C359.464 94.18 357.865 96.156 355.59 96.156C353.835 96.156 352.639 95.103 352.418 93.53H353.991C354.186 94.349 354.706 94.83 355.642 94.83ZM355.746 87.836C354.628 87.836 353.913 88.642 353.913 89.76C353.913 90.865 354.628 91.671 355.746 91.671C356.864 91.671 357.618 90.865 357.618 89.76C357.618 88.642 356.864 87.836 355.746 87.836ZM367.533 93.478C367.533 94.921 366.298 96.156 364.101 96.156C361.982 96.156 360.63 94.986 360.474 93.231H362.125C362.203 94.206 362.957 94.843 364.101 94.843C365.245 94.843 365.934 94.271 365.934 93.361C365.934 92.425 365.219 91.97 364.166 91.97H363.204V90.696H364.14C365.011 90.696 365.713 90.306 365.713 89.318C365.713 88.512 365.167 87.875 364.14 87.875C363.048 87.875 362.411 88.603 362.346 89.539H360.76C360.864 87.927 362.034 86.562 364.153 86.562C366.246 86.562 367.325 87.836 367.325 89.266C367.325 90.358 366.597 91.138 365.661 91.307C366.779 91.489 367.533 92.334 367.533 93.478ZM368.895 96V94.063H370.832V96H368.895ZM375.937 86.562C377.783 86.562 379.187 87.524 379.187 89.188C379.187 90.189 378.576 90.93 377.744 91.294C378.667 91.476 379.603 92.36 379.603 93.452C379.603 95.09 378.147 96.156 375.937 96.156C373.727 96.156 372.271 95.09 372.271 93.452C372.271 92.36 373.207 91.476 374.13 91.294C373.298 90.93 372.687 90.189 372.687 89.188C372.687 87.524 374.091 86.562 375.937 86.562ZM375.937 90.657C376.899 90.657 377.666 90.176 377.666 89.227C377.666 88.265 376.899 87.797 375.937 87.797C374.962 87.797 374.208 88.265 374.208 89.227C374.208 90.176 374.962 90.657 375.937 90.657ZM375.937 94.895C377.224 94.895 377.952 94.297 377.952 93.387C377.952 92.477 377.224 91.879 375.937 91.879C374.65 91.879 373.922 92.477 373.922 93.387C373.922 94.297 374.65 94.895 375.937 94.895ZM384.418 86.562C386.264 86.562 387.668 87.524 387.668 89.188C387.668 90.189 387.057 90.93 386.225 91.294C387.148 91.476 388.084 92.36 388.084 93.452C388.084 95.09 386.628 96.156 384.418 96.156C382.208 96.156 380.752 95.09 380.752 93.452C380.752 92.36 381.688 91.476 382.611 91.294C381.779 90.93 381.168 90.189 381.168 89.188C381.168 87.524 382.572 86.562 384.418 86.562ZM384.418 90.657C385.38 90.657 386.147 90.176 386.147 89.227C386.147 88.265 385.38 87.797 384.418 87.797C383.443 87.797 382.689 88.265 382.689 89.227C382.689 90.176 383.443 90.657 384.418 90.657ZM384.418 94.895C385.705 94.895 386.433 94.297 386.433 93.387C386.433 92.477 385.705 91.879 384.418 91.879C383.131 91.879 382.403 92.477 382.403 93.387C382.403 94.297 383.131 94.895 384.418 94.895Z" fill="#181B25"/>
<path d="M324.99 71.86L328.8 77.56H328.82V71.86H329.65V79H328.85L324.79 72.91H324.77V79H323.93V71.86H324.99ZM335.608 77.52C335.378 78.59 334.508 79.12 333.528 79.12C332.108 79.12 331.108 78.13 331.108 76.51C331.108 74.87 332.138 73.85 333.478 73.85C334.968 73.85 335.638 75.04 335.638 76.33V76.66H331.918C331.958 77.82 332.568 78.46 333.528 78.46C334.208 78.46 334.618 78.13 334.828 77.52H335.608ZM333.478 74.52C332.688 74.52 332.088 75.03 331.948 76.06H334.828C334.808 75.19 334.378 74.52 333.478 74.52ZM340.356 73.97L341.496 78.1H341.516L342.676 73.97H343.476L341.956 79H341.096L339.936 74.93H339.906L338.766 79H337.896L336.376 73.97H337.196L338.366 78.1H338.396L339.516 73.97H340.356ZM346.74 72.92V71.91H347.68V72.92H346.74ZM346.8 79V73.97H347.63V79H346.8ZM350.208 73.97V74.89C350.448 74.27 351.078 73.85 351.848 73.85C352.978 73.85 353.648 74.56 353.648 75.76V79H352.818V75.94C352.818 75.01 352.408 74.53 351.618 74.53C350.848 74.53 350.238 75.02 350.238 76.23V79H349.408V73.97H350.208ZM357.714 78.26V78.94C357.344 79.05 357.054 79.08 356.834 79.08C355.914 79.08 355.444 78.64 355.444 77.71V74.6H354.704V73.97H355.444V72.69H356.264V73.97H357.584V74.6H356.254V77.67C356.254 78.2 356.524 78.38 356.984 78.38C357.174 78.38 357.394 78.36 357.714 78.26ZM363.137 77.52C362.907 78.59 362.037 79.12 361.057 79.12C359.637 79.12 358.637 78.13 358.637 76.51C358.637 74.87 359.667 73.85 361.007 73.85C362.497 73.85 363.167 75.04 363.167 76.33V76.66H359.447C359.487 77.82 360.097 78.46 361.057 78.46C361.737 78.46 362.147 78.13 362.357 77.52H363.137ZM361.007 74.52C360.217 74.52 359.617 75.03 359.477 76.06H362.357C362.337 75.19 361.907 74.52 361.007 74.52ZM367.364 73.9V74.66C367.244 74.63 367.064 74.62 366.934 74.62C366.134 74.62 365.404 75.25 365.404 76.52V79H364.574V73.97H365.374V75.16C365.594 74.33 366.234 73.86 366.974 73.86C367.104 73.86 367.244 73.87 367.364 73.9ZM372.454 77.52C372.224 78.59 371.354 79.12 370.374 79.12C368.954 79.12 367.954 78.13 367.954 76.51C367.954 74.87 368.984 73.85 370.324 73.85C371.814 73.85 372.484 75.04 372.484 76.33V76.66H368.764C368.804 77.82 369.414 78.46 370.374 78.46C371.054 78.46 371.464 78.13 371.674 77.52H372.454ZM370.324 74.52C369.534 74.52 368.934 75.03 368.794 76.06H371.674C371.654 75.19 371.224 74.52 370.324 74.52ZM373.509 77.51H374.309C374.369 78.2 375.009 78.49 375.689 78.49C376.379 78.49 376.879 78.17 376.879 77.63C376.879 77.26 376.639 77.02 375.999 76.9L375.109 76.72C374.299 76.57 373.709 76.24 373.709 75.36C373.709 74.51 374.469 73.85 375.579 73.85C376.739 73.85 377.449 74.35 377.549 75.3H376.779C376.719 74.79 376.269 74.49 375.579 74.49C374.909 74.49 374.479 74.82 374.479 75.31C374.479 75.74 374.779 75.92 375.359 76.03L376.359 76.22C377.179 76.38 377.659 76.78 377.659 77.59C377.659 78.47 376.829 79.12 375.699 79.12C374.499 79.12 373.599 78.59 373.509 77.51ZM381.435 78.26V78.94C381.065 79.05 380.775 79.08 380.555 79.08C379.635 79.08 379.165 78.64 379.165 77.71V74.6H378.425V73.97H379.165V72.69H379.985V73.97H381.305V74.6H379.975V77.67C379.975 78.2 380.245 78.38 380.705 78.38C380.895 78.38 381.115 78.36 381.435 78.26ZM385.784 78.12V80.78H384.954V73.97H385.754V74.89C385.984 74.38 386.584 73.85 387.454 73.85C388.734 73.85 389.694 74.89 389.694 76.49C389.694 78.08 388.734 79.12 387.454 79.12C386.624 79.12 386.034 78.63 385.784 78.12ZM385.744 76.41V76.55C385.744 77.69 386.304 78.47 387.284 78.47C388.274 78.47 388.854 77.66 388.854 76.49C388.854 75.31 388.274 74.5 387.284 74.5C386.304 74.5 385.744 75.27 385.744 76.41ZM394.187 79C394.127 78.72 394.097 78.39 394.097 78.15C393.877 78.74 393.187 79.11 392.347 79.11C391.467 79.11 390.717 78.6 390.717 77.67C390.717 76.7 391.437 76.28 392.457 76.16L394.077 75.95V75.66C394.077 74.86 393.587 74.52 392.897 74.52C392.227 74.52 391.807 74.87 391.747 75.45H390.947C391.047 74.43 391.847 73.85 392.917 73.85C394.137 73.85 394.897 74.43 394.897 75.64V77.95C394.897 78.32 394.917 78.67 395.017 79H394.187ZM392.517 78.48C393.297 78.48 394.077 77.99 394.077 77.02V76.57L392.707 76.72C392.077 76.81 391.557 76.97 391.557 77.65C391.557 78.12 391.887 78.48 392.517 78.48ZM397.976 79.04L395.956 73.97H396.826L398.426 78.08H398.446L399.956 73.97H400.816L398.786 79.15C398.326 80.35 397.926 80.85 397.006 80.86C396.866 80.86 396.676 80.84 396.516 80.81V80.13C396.676 80.17 396.786 80.17 396.916 80.17C397.416 80.17 397.646 79.89 397.976 79.04ZM405.906 74.93C406.216 74.25 406.856 73.85 407.596 73.85C408.756 73.85 409.326 74.58 409.326 75.76V79H408.486V75.94C408.486 75 408.146 74.53 407.396 74.53C406.646 74.53 406.076 75.07 406.076 76.23V79H405.236V75.94C405.236 75 404.906 74.53 404.146 74.53C403.386 74.53 402.816 75.07 402.816 76.23V79H401.986V73.97H402.786V74.89C403.026 74.25 403.646 73.85 404.376 73.85C405.226 73.85 405.686 74.26 405.906 74.93ZM415.178 77.52C414.948 78.59 414.078 79.12 413.098 79.12C411.678 79.12 410.678 78.13 410.678 76.51C410.678 74.87 411.708 73.85 413.048 73.85C414.538 73.85 415.208 75.04 415.208 76.33V76.66H411.488C411.528 77.82 412.138 78.46 413.098 78.46C413.778 78.46 414.188 78.13 414.398 77.52H415.178ZM413.048 74.52C412.258 74.52 411.658 75.03 411.518 76.06H414.398C414.378 75.19 413.948 74.52 413.048 74.52ZM417.415 73.97V74.89C417.655 74.27 418.285 73.85 419.055 73.85C420.185 73.85 420.855 74.56 420.855 75.76V79H420.025V75.94C420.025 75.01 419.615 74.53 418.825 74.53C418.055 74.53 417.445 75.02 417.445 76.23V79H416.615V73.97H417.415ZM424.921 78.26V78.94C424.551 79.05 424.261 79.08 424.041 79.08C423.121 79.08 422.651 78.64 422.651 77.71V74.6H421.911V73.97H422.651V72.69H423.471V73.97H424.791V74.6H423.461V77.67C423.461 78.2 423.731 78.38 424.191 78.38C424.381 78.38 424.601 78.36 424.921 78.26Z" fill="#36373A"/>
</svg>
