<svg width="264" height="76" viewBox="0 0 264 76" fill="none" xmlns="http://www.w3.org/2000/svg">
<g clip-path="url(#clip0_10_674)">
<path d="M36.487 75.2C47.787 75.2 55.287 71.6 61.887 65.8C62.987 64.8 63.887 63.3 63.887 61.4C63.887 58.3 61.187 55.7 58.087 55.7C56.587 55.7 55.287 56.3 54.387 57.1C49.287 61.4 44.287 63.8 36.887 63.8C23.487 63.8 13.787 52.7 13.787 39V38.8C13.787 25.1 23.587 14.1 36.887 14.1C43.587 14.1 48.787 16.5 53.587 20.4C54.387 21 55.587 21.6 57.287 21.6C60.687 21.6 63.387 19 63.387 15.6C63.387 13.4 62.287 11.7 60.987 10.7C54.887 6 47.787 2.8 36.987 2.8C15.787 2.8 0.886963 19.1 0.886963 39V39.2C0.886963 59.3 16.087 75.2 36.487 75.2ZM80.091 13.6C83.991 13.6 86.991 11.2 86.991 7.6V7C86.991 3.4 83.991 1.1 80.091 1.1C76.191 1.1 73.191 3.4 73.191 7V7.6C73.191 11.2 76.191 13.6 80.091 13.6ZM80.091 74.5C83.491 74.5 86.191 71.9 86.191 68.5V26.7C86.191 23.3 83.491 20.6 80.091 20.6C76.691 20.6 74.091 23.3 74.091 26.7V68.5C74.091 71.9 76.791 74.5 80.091 74.5ZM104.996 74.5C108.396 74.5 111.096 71.8 111.096 68.5V52.9C111.096 40.4 116.996 33.8 125.596 32.3C128.296 31.8 130.396 29.7 130.396 26.5C130.396 23 128.196 20.5 124.396 20.5C119.096 20.5 113.896 25.5 111.096 32.1V26.7C111.096 23.3 108.396 20.6 104.996 20.6C101.596 20.6 98.996 23.3 98.996 26.7V68.5C98.996 71.9 101.696 74.5 104.996 74.5ZM159.9 75.2C168.7 75.2 174.4 72.2 179.1 67.7C180.2 66.8 180.8 65.5 180.8 63.9C180.8 61 178.5 58.6 175.6 58.6C174.2 58.6 173 59.3 172.3 59.9C169 62.7 165.3 64.6 160.5 64.6C151.2 64.6 144.7 57.1 144.7 47.7V47.5C144.7 38.3 151.2 30.7 160 30.7C164.8 30.7 168.2 32.6 171.3 35.2C172.1 35.8 173.4 36.4 174.9 36.4C178 36.4 180.5 34 180.5 30.9C180.5 28.9 179.4 27.4 178.6 26.7C174.1 22.8 168.4 20.1 160.1 20.1C144.2 20.1 132.6 32.7 132.6 47.7V47.9C132.6 62.9 144.2 75.2 159.9 75.2ZM196.304 74.5C199.704 74.5 202.404 71.9 202.404 68.5V6.5C202.404 3.2 199.704 0.5 196.304 0.5C192.904 0.5 190.304 3.2 190.304 6.5V68.5C190.304 71.9 193.004 74.5 196.304 74.5ZM239.409 75.2C247.609 75.2 253.609 72.5 258.409 68.2C259.309 67.3 260.009 66 260.009 64.5C260.009 61.7 257.909 59.6 255.209 59.6C253.809 59.6 253.009 60 252.109 60.7C248.709 63.5 244.709 65.3 239.609 65.3C231.809 65.3 225.709 60.5 224.409 51.9H257.509C260.609 51.9 263.209 49.5 263.209 46.1C263.209 33.9 254.909 20.1 238.109 20.1C223.009 20.1 212.309 32.5 212.309 47.6V47.8C212.309 64.1 224.109 75.2 239.409 75.2ZM251.409 43.9H224.309C225.409 35.7 230.609 30 238.009 30C246.009 30 250.609 36.1 251.409 43.9Z" fill="black"/>
</g>
<defs>
<clipPath id="clip0_10_674">
<rect width="264" height="76" fill="white"/>
</clipPath>
</defs>
</svg>
