<svg width="437" height="377" viewBox="0 0 437 377" fill="none" xmlns="http://www.w3.org/2000/svg">
<path d="M427.568 0H9.43165C4.22269 0 0 4.21972 0 9.425V367.575C0 372.78 4.22269 377 9.43165 377H427.568C432.777 377 437 372.78 437 367.575V9.425C437 4.21972 432.777 0 427.568 0Z" fill="#F6F6F6"/>
<g clip-path="url(#clip0_8_630)">
<path d="M385 87H53C50.7909 87 49 88.7909 49 91V128C49 130.209 50.7909 132 53 132H385C387.209 132 389 130.209 389 128V91C389 88.7909 387.209 87 385 87Z" fill="white"/>
<path d="M66.3291 115.047V106.08H62.5596V104.534H72.0569V106.08H68.2727V115.047H66.3291ZM78.875 112.721C78.551 114.326 77.2111 115.224 75.5031 115.224C73.3239 115.224 71.7189 113.766 71.7189 111.322C71.7189 108.878 73.3533 107.391 75.4589 107.391C77.8001 107.391 78.9191 109.172 78.9191 111.16V111.764H73.5447C73.6625 113.089 74.3398 113.84 75.5031 113.84C76.3571 113.84 76.8872 113.442 77.1375 112.721H78.875ZM75.4589 108.79C74.4724 108.79 73.8098 109.393 73.6036 110.542H77.1227C77.1227 109.614 76.5927 108.79 75.4589 108.79ZM85.338 115.047C85.2644 114.635 85.235 114.238 85.235 113.869C84.8816 114.723 83.9392 115.209 82.7465 115.209C81.2888 115.209 80.2287 114.4 80.2287 113.045C80.2287 111.543 81.4066 110.925 82.9232 110.748L85.1614 110.498V110.144C85.1614 109.231 84.6018 108.79 83.7478 108.79C82.9232 108.79 82.4226 109.246 82.3637 109.938H80.5526C80.7146 108.333 81.9662 107.391 83.8067 107.391C85.8387 107.391 87.0019 108.348 87.0019 110.291V113.177C87.0019 113.869 87.0313 114.444 87.1491 115.047H85.338ZM83.2619 113.899C84.2337 113.899 85.1614 113.325 85.1614 112.147V111.69L83.4975 111.882C82.7024 111.985 82.0987 112.161 82.0987 112.942C82.0987 113.531 82.511 113.899 83.2619 113.899ZM95.6042 108.848C96.0754 107.95 97.0177 107.391 98.122 107.391C99.8448 107.391 100.758 108.466 100.758 110.247V115.047H98.8583V110.66C98.8583 109.467 98.4165 108.878 97.4889 108.878C96.5907 108.878 95.8839 109.511 95.8839 110.969V115.047H93.9992V110.66C93.9992 109.467 93.5575 108.878 92.6298 108.878C91.7169 108.878 91.0249 109.511 91.0249 110.969V115.047H89.1402V107.567H90.9954V108.834C91.3488 107.965 92.2176 107.391 93.2924 107.391C94.544 107.391 95.2361 107.965 95.6042 108.848ZM107.773 113.855V117.668H105.888V107.567H107.743V108.804C108.097 108.053 108.98 107.391 110.143 107.391C112.102 107.391 113.441 108.996 113.441 111.307C113.441 113.634 112.102 115.224 110.143 115.224C109.009 115.224 108.155 114.606 107.773 113.855ZM107.728 111.175V111.44C107.728 112.898 108.42 113.84 109.613 113.84C110.835 113.84 111.542 112.853 111.542 111.307C111.542 109.776 110.835 108.775 109.613 108.775C108.42 108.775 107.728 109.717 107.728 111.175ZM121.801 112.721C121.477 114.326 120.137 115.224 118.429 115.224C116.25 115.224 114.645 113.766 114.645 111.322C114.645 108.878 116.279 107.391 118.385 107.391C120.726 107.391 121.845 109.172 121.845 111.16V111.764H116.471C116.589 113.089 117.266 113.84 118.429 113.84C119.283 113.84 119.813 113.442 120.064 112.721H121.801ZM118.385 108.79C117.399 108.79 116.736 109.393 116.53 110.542H120.049C120.049 109.614 119.519 108.79 118.385 108.79ZM128.253 107.494V109.231C128.032 109.187 127.767 109.172 127.532 109.172C126.383 109.172 125.426 109.967 125.426 111.587V115.047H123.541V107.567H125.397V109.246C125.75 108.083 126.619 107.435 127.694 107.435C127.885 107.435 128.091 107.45 128.253 107.494ZM136.071 108.848C136.543 107.95 137.485 107.391 138.589 107.391C140.312 107.391 141.225 108.466 141.225 110.247V115.047H139.326V110.66C139.326 109.467 138.884 108.878 137.956 108.878C137.058 108.878 136.351 109.511 136.351 110.969V115.047H134.467V110.66C134.467 109.467 134.025 108.878 133.097 108.878C132.184 108.878 131.492 109.511 131.492 110.969V115.047H129.607V107.567H131.463V108.834C131.816 107.965 132.685 107.391 133.76 107.391C135.011 107.391 135.703 107.965 136.071 108.848ZM143.293 106.301V104.461H145.296V106.301H143.293ZM143.352 115.047V107.567H145.237V115.047H143.352ZM146.844 112.78H148.641C148.729 113.56 149.509 113.914 150.319 113.914C151.114 113.914 151.733 113.59 151.733 112.986C151.733 112.515 151.409 112.294 150.584 112.147L149.259 111.911C148.022 111.69 147.109 111.116 147.109 109.776C147.109 108.363 148.405 107.391 150.143 107.391C152.086 107.391 153.191 108.245 153.352 109.688H151.63C151.556 109.099 150.982 108.716 150.157 108.716C149.362 108.716 148.847 109.069 148.847 109.585C148.847 110.1 149.23 110.291 149.995 110.424L151.453 110.674C152.763 110.895 153.5 111.617 153.5 112.853C153.5 114.282 152.13 115.224 150.349 115.224C148.405 115.224 147.006 114.414 146.844 112.78ZM155.181 106.301V104.461H157.183V106.301H155.181ZM155.239 115.047V107.567H157.124V115.047H155.239ZM166.389 111.307C166.389 113.737 164.813 115.224 162.604 115.224C160.396 115.224 158.82 113.737 158.82 111.307C158.82 108.893 160.396 107.391 162.604 107.391C164.813 107.391 166.389 108.893 166.389 111.307ZM160.705 111.307C160.705 112.883 161.382 113.825 162.604 113.825C163.812 113.825 164.504 112.883 164.504 111.307C164.504 109.747 163.812 108.79 162.604 108.79C161.382 108.79 160.705 109.747 160.705 111.307ZM169.931 107.567V108.834C170.285 107.98 171.153 107.391 172.287 107.391C173.995 107.391 175.026 108.451 175.026 110.247V115.047H173.141V110.689C173.141 109.496 172.626 108.878 171.639 108.878C170.697 108.878 169.961 109.482 169.961 110.983V115.047H168.076V107.567H169.931ZM176.544 112.78H178.34C178.428 113.56 179.209 113.914 180.019 113.914C180.814 113.914 181.432 113.59 181.432 112.986C181.432 112.515 181.108 112.294 180.284 112.147L178.958 111.911C177.722 111.69 176.809 111.116 176.809 109.776C176.809 108.363 178.104 107.391 179.842 107.391C181.786 107.391 182.89 108.245 183.052 109.688H181.329C181.255 109.099 180.681 108.716 179.857 108.716C179.062 108.716 178.546 109.069 178.546 109.585C178.546 110.1 178.929 110.291 179.695 110.424L181.152 110.674C182.463 110.895 183.199 111.617 183.199 112.853C183.199 114.282 181.83 115.224 180.048 115.224C178.104 115.224 176.706 114.414 176.544 112.78Z" fill="#181B25"/>
<path d="M385 142H53C50.7909 142 49 143.791 49 146V206.268C49 208.477 50.7909 210.268 53 210.268H385C387.209 210.268 389 208.477 389 206.268V146C389 143.791 387.209 142 385 142Z" fill="white"/>
<path d="M105.223 175.464C105.223 163.636 95.6344 154.047 83.806 154.047C71.9775 154.047 62.3887 163.636 62.3887 175.464C62.3887 187.293 71.9775 196.882 83.806 196.882C95.6344 196.882 105.223 187.293 105.223 175.464Z" fill="#163B6B"/>
<path d="M76.5868 181.086H71.5591V169.618H76.1692C78.8517 169.618 80.3134 170.694 80.3134 172.75C80.3134 173.762 79.5103 174.87 78.5786 175.143C79.8315 175.48 80.7792 176.492 80.7792 177.826C80.7792 179.978 79.2372 181.086 76.5868 181.086ZM73.6473 174.468H76.1531C77.5827 174.468 78.2574 173.826 78.2574 172.83C78.2574 171.786 77.5667 171.192 76.1692 171.192H73.6473V174.468ZM73.6473 175.994V179.512H76.4262C77.904 179.512 78.675 178.854 78.675 177.745C78.675 176.669 77.8879 175.994 76.4101 175.994H73.6473ZM91.564 181.086L89.3152 172.236H89.2831L87.0343 181.086H84.7051L81.5407 169.618H83.7253L86.0223 178.516H86.0544L88.2872 169.618H90.4396L92.6724 178.516H92.7045L94.9855 169.618H97.0736L93.9092 181.086H91.564Z" fill="white"/>
<path d="M121.731 181H117.123V170.487H121.348C123.807 170.487 125.147 171.473 125.147 173.358C125.147 174.286 124.411 175.302 123.557 175.552C124.706 175.861 125.574 176.789 125.574 178.011C125.574 179.984 124.161 181 121.731 181ZM119.037 174.934H121.334C122.644 174.934 123.263 174.345 123.263 173.432C123.263 172.475 122.629 171.93 121.348 171.93H119.037V174.934ZM119.037 176.332V179.557H121.584C122.939 179.557 123.645 178.953 123.645 177.937C123.645 176.951 122.924 176.332 121.569 176.332H119.037ZM131.954 173.446V175.184C131.733 175.14 131.468 175.125 131.233 175.125C130.084 175.125 129.127 175.92 129.127 177.54V181H127.242V173.52H129.098V175.199C129.451 174.035 130.32 173.387 131.395 173.387C131.586 173.387 131.792 173.402 131.954 173.446ZM133.25 172.254V170.413H135.252V172.254H133.25ZM133.308 181V173.52H135.193V181H133.308ZM141.365 179.454V180.897C140.776 181.074 140.335 181.118 139.878 181.118C138.317 181.118 137.552 180.455 137.552 178.953V174.875H136.521V173.52H137.552V171.65H139.422V173.52H141.203V174.875H139.407V178.659C139.407 179.366 139.746 179.601 140.379 179.601C140.659 179.601 140.953 179.572 141.365 179.454ZM147 179.454V180.897C146.411 181.074 145.969 181.118 145.513 181.118C143.952 181.118 143.186 180.455 143.186 178.953V174.875H142.156V173.52H143.186V171.65H145.056V173.52H146.838V174.875H145.042V178.659C145.042 179.366 145.38 179.601 146.013 179.601C146.293 179.601 146.588 179.572 147 179.454ZM153.238 181C153.164 180.588 153.135 180.19 153.135 179.822C152.782 180.676 151.839 181.162 150.647 181.162C149.189 181.162 148.129 180.352 148.129 178.997C148.129 177.496 149.307 176.877 150.823 176.701L153.061 176.45V176.097C153.061 175.184 152.502 174.742 151.648 174.742C150.823 174.742 150.323 175.199 150.264 175.891H148.453C148.615 174.286 149.866 173.343 151.707 173.343C153.739 173.343 154.902 174.3 154.902 176.244V179.13C154.902 179.822 154.931 180.396 155.049 181H153.238ZM151.162 179.852C152.134 179.852 153.061 179.277 153.061 178.099V177.643L151.398 177.834C150.602 177.937 149.999 178.114 149.999 178.894C149.999 179.483 150.411 179.852 151.162 179.852ZM158.895 173.52V174.786C159.249 173.932 160.118 173.343 161.251 173.343C162.959 173.343 163.99 174.403 163.99 176.2V181H162.105V176.642C162.105 175.449 161.59 174.83 160.604 174.83C159.661 174.83 158.925 175.434 158.925 176.936V181H157.04V173.52H158.895ZM168.101 180.985L165.186 173.52H167.1L169.176 179.16H169.205L171.178 173.52H173.048L170.133 181.132C169.426 183.002 168.557 183.724 166.982 183.739C166.732 183.739 166.378 183.709 166.113 183.665V182.237C166.334 182.281 166.452 182.281 166.614 182.281C167.38 182.281 167.703 182.016 168.101 180.985ZM185.699 181L183.638 172.887H183.608L181.547 181H179.412L176.511 170.487H178.514L180.619 178.644H180.649L182.696 170.487H184.669L186.715 178.644H186.745L188.836 170.487H190.75L187.849 181H185.699ZM196.15 181C196.076 180.588 196.047 180.19 196.047 179.822C195.693 180.676 194.751 181.162 193.558 181.162C192.101 181.162 191.041 180.352 191.041 178.997C191.041 177.496 192.219 176.877 193.735 176.701L195.973 176.45V176.097C195.973 175.184 195.414 174.742 194.56 174.742C193.735 174.742 193.235 175.199 193.176 175.891H191.365C191.526 174.286 192.778 173.343 194.619 173.343C196.651 173.343 197.814 174.3 197.814 176.244V179.13C197.814 179.822 197.843 180.396 197.961 181H196.15ZM194.074 179.852C195.046 179.852 195.973 179.277 195.973 178.099V177.643L194.309 177.834C193.514 177.937 192.911 178.114 192.911 178.894C192.911 179.483 193.323 179.852 194.074 179.852ZM201.837 181H199.952V170.163H201.837V181ZM209.261 181L206.802 177.834L205.933 178.674V181H204.048V170.163H205.933V176.73L209.113 173.52H211.278L208.112 176.642L211.425 181H209.261ZM219.142 178.674C218.818 180.279 217.478 181.177 215.77 181.177C213.591 181.177 211.986 179.719 211.986 177.275C211.986 174.83 213.62 173.343 215.726 173.343C218.067 173.343 219.186 175.125 219.186 177.113V177.716H213.812C213.929 179.042 214.607 179.793 215.77 179.793C216.624 179.793 217.154 179.395 217.404 178.674H219.142ZM215.726 174.742C214.739 174.742 214.077 175.346 213.87 176.494H217.39C217.39 175.567 216.859 174.742 215.726 174.742ZM225.594 173.446V175.184C225.373 175.14 225.108 175.125 224.872 175.125C223.724 175.125 222.767 175.92 222.767 177.54V181H220.882V173.52H222.737V175.199C223.091 174.035 223.959 173.387 225.034 173.387C225.226 173.387 225.432 173.402 225.594 173.446Z" fill="#181B25"/>
<path d="M338.768 182L337.605 179.07H332.569L331.406 182H330.14L334.395 171.487H335.823L340.093 182H338.768ZM335.072 172.753L332.982 178.024H337.193L335.117 172.753H335.072ZM346.779 182V180.704C346.411 181.455 345.498 182.177 344.276 182.177C342.391 182.177 340.977 180.645 340.977 178.304C340.977 175.948 342.391 174.417 344.276 174.417C345.557 174.417 346.396 175.153 346.735 175.904V171.163H347.957V182H346.779ZM346.793 178.393V178.186C346.793 176.508 345.969 175.374 344.526 175.374C343.068 175.374 342.214 176.567 342.214 178.304C342.214 180.027 343.068 181.22 344.526 181.22C345.969 181.22 346.793 180.071 346.793 178.393ZM356.265 176.007C356.721 175.006 357.664 174.417 358.753 174.417C360.461 174.417 361.3 175.492 361.3 177.229V182H360.064V177.494C360.064 176.11 359.563 175.418 358.459 175.418C357.354 175.418 356.515 176.213 356.515 177.921V182H355.278V177.494C355.278 176.11 354.792 175.418 353.673 175.418C352.554 175.418 351.715 176.213 351.715 177.921V182H350.493V174.594H351.671V175.948C352.024 175.006 352.937 174.417 354.012 174.417C355.263 174.417 355.941 175.021 356.265 176.007ZM363.66 173.048V171.56H365.044V173.048H363.66ZM363.748 182V174.594H364.971V182H363.748ZM368.677 174.594V175.948C369.031 175.035 369.958 174.417 371.092 174.417C372.756 174.417 373.742 175.462 373.742 177.229V182H372.52V177.494C372.52 176.125 371.917 175.418 370.753 175.418C369.62 175.418 368.721 176.14 368.721 177.921V182H367.499V174.594H368.677Z" fill="#181B25"/>
<path d="M385 220.268H53C50.7909 220.268 49 222.059 49 224.268V284.536C49 286.745 50.7909 288.536 53 288.536H385C387.209 288.536 389 286.745 389 284.536V224.268C389 222.059 387.209 220.268 385 220.268Z" fill="white"/>
<path d="M105.223 253.731C105.223 241.903 95.6344 232.314 83.806 232.314C71.9775 232.314 62.3887 241.903 62.3887 253.731C62.3887 265.56 71.9775 275.149 83.806 275.149C95.6344 275.149 105.223 265.56 105.223 253.731Z" fill="#163B6B"/>
<path d="M72.8979 255.884H74.9539C75.0985 257.442 76.4478 257.972 77.8774 257.972C79.2428 257.972 80.3029 257.362 80.3029 256.205C80.3029 255.37 79.805 254.904 78.4236 254.647L76.3193 254.262C74.6327 253.957 73.2673 253.153 73.2673 251.146C73.2673 249.106 75.0664 247.692 77.5722 247.692C80.3029 247.692 81.9414 248.881 82.1663 251.033H80.1584C80.0138 249.909 79.0179 249.282 77.5883 249.282C76.2069 249.282 75.3396 250.005 75.3396 251.017C75.3396 251.965 75.9338 252.27 77.1706 252.511L79.3874 252.945C81.2668 253.298 82.3911 254.23 82.3911 256.077C82.3911 258.165 80.4796 259.547 77.9417 259.547C75.211 259.547 73.1067 258.406 72.8979 255.884ZM83.6753 253.603C83.6753 250.069 85.9402 247.692 89.2171 247.692C91.9799 247.692 93.5541 249.202 94.0039 251.467H91.8995C91.6264 250.182 90.7591 249.379 89.2171 249.379C87.0807 249.379 85.8439 251.001 85.8439 253.603C85.8439 256.221 87.0485 257.86 89.1849 257.86C90.8715 257.86 92.028 256.864 92.028 255.45V255.049H89.8113V253.507H94.1483V259.354H92.4938L92.3493 257.715C91.9316 258.808 90.4699 259.547 89.0564 259.547C85.8438 259.547 83.6753 257.153 83.6753 253.603Z" fill="white"/>
<path d="M116.43 256.82H118.315C118.447 258.248 119.684 258.734 120.995 258.734C122.246 258.734 123.218 258.174 123.218 257.114C123.218 256.348 122.762 255.921 121.495 255.686L119.566 255.332C118.02 255.053 116.769 254.316 116.769 252.476C116.769 250.606 118.418 249.31 120.715 249.31C123.218 249.31 124.72 250.4 124.926 252.373H123.086C122.953 251.342 122.04 250.768 120.73 250.768C119.463 250.768 118.668 251.43 118.668 252.358C118.668 253.227 119.213 253.507 120.347 253.727L122.379 254.125C124.102 254.449 125.132 255.303 125.132 256.996C125.132 258.91 123.38 260.177 121.054 260.177C118.55 260.177 116.622 259.131 116.43 256.82ZM130.772 258.454V259.897C130.183 260.074 129.741 260.118 129.284 260.118C127.724 260.118 126.958 259.455 126.958 257.953V253.875H125.927V252.52H126.958V250.65H128.828V252.52H130.61V253.875H128.813V257.659C128.813 258.366 129.152 258.601 129.785 258.601C130.065 258.601 130.359 258.572 130.772 258.454ZM138.985 257.674C138.661 259.279 137.322 260.177 135.614 260.177C133.434 260.177 131.829 258.719 131.829 256.275C131.829 253.83 133.464 252.343 135.569 252.343C137.911 252.343 139.03 254.125 139.03 256.113V256.716H133.655C133.773 258.042 134.45 258.793 135.614 258.793C136.468 258.793 136.998 258.395 137.248 257.674H138.985ZM135.569 253.742C134.583 253.742 133.92 254.346 133.714 255.494H137.233C137.233 254.567 136.703 253.742 135.569 253.742ZM142.61 258.807V262.621H140.726V252.52H142.581V253.757C142.934 253.006 143.818 252.343 144.981 252.343C146.939 252.343 148.279 253.948 148.279 256.26C148.279 258.586 146.939 260.177 144.981 260.177C143.847 260.177 142.993 259.558 142.61 258.807ZM142.566 256.127V256.393C142.566 257.85 143.258 258.793 144.451 258.793C145.673 258.793 146.38 257.806 146.38 256.26C146.38 254.729 145.673 253.727 144.451 253.727C143.258 253.727 142.566 254.67 142.566 256.127ZM151.854 253.786C152.223 252.918 153.047 252.343 154.181 252.343C155.889 252.343 156.92 253.403 156.92 255.2V260H155.035V255.642C155.035 254.449 154.52 253.83 153.533 253.83C152.591 253.83 151.854 254.434 151.854 255.936V260H149.97V249.163H151.854V253.786ZM165.682 257.674C165.358 259.279 164.018 260.177 162.31 260.177C160.131 260.177 158.526 258.719 158.526 256.275C158.526 253.83 160.16 252.343 162.266 252.343C164.607 252.343 165.726 254.125 165.726 256.113V256.716H160.351C160.469 258.042 161.147 258.793 162.31 258.793C163.164 258.793 163.694 258.395 163.944 257.674H165.682ZM162.266 253.742C161.279 253.742 160.617 254.346 160.41 255.494H163.93C163.93 254.567 163.399 253.742 162.266 253.742ZM169.277 252.52V253.786C169.631 252.932 170.499 252.343 171.633 252.343C173.341 252.343 174.372 253.403 174.372 255.2V260H172.487V255.642C172.487 254.449 171.972 253.83 170.985 253.83C170.043 253.83 169.307 254.434 169.307 255.936V260H167.422V252.52H169.277ZM178.966 254.729C178.966 251.489 181.043 249.31 184.046 249.31C186.579 249.31 188.022 250.694 188.434 252.77H186.505C186.255 251.592 185.46 250.856 184.046 250.856C182.088 250.856 180.954 252.343 180.954 254.729C180.954 257.129 182.059 258.631 184.017 258.631C185.563 258.631 186.623 257.718 186.623 256.422V256.054H184.591V254.64H188.567V260H187.05L186.918 258.498C186.535 259.499 185.195 260.177 183.899 260.177C180.954 260.177 178.966 257.983 178.966 254.729ZM197.412 260H195.556V258.748C195.203 259.602 194.349 260.177 193.23 260.177C191.551 260.177 190.565 259.146 190.565 257.335V252.52H192.464V256.923C192.464 258.115 192.935 258.719 193.907 258.719C194.82 258.719 195.512 258.086 195.512 256.584V252.52H197.412V260ZM199.02 257.732H200.816C200.904 258.513 201.685 258.866 202.495 258.866C203.29 258.866 203.908 258.542 203.908 257.939C203.908 257.467 203.584 257.247 202.76 257.099L201.435 256.864C200.198 256.643 199.285 256.069 199.285 254.729C199.285 253.315 200.58 252.343 202.318 252.343C204.262 252.343 205.366 253.197 205.528 254.64H203.805C203.732 254.051 203.157 253.669 202.333 253.669C201.538 253.669 201.022 254.022 201.022 254.537C201.022 255.053 201.405 255.244 202.171 255.377L203.628 255.627C204.939 255.848 205.675 256.569 205.675 257.806C205.675 259.234 204.306 260.177 202.524 260.177C200.58 260.177 199.182 259.367 199.02 257.732ZM211.376 258.454V259.897C210.787 260.074 210.345 260.118 209.889 260.118C208.328 260.118 207.562 259.455 207.562 257.953V253.875H206.531V252.52H207.562V250.65H209.432V252.52H211.214V253.875H209.417V257.659C209.417 258.366 209.756 258.601 210.389 258.601C210.669 258.601 210.963 258.572 211.376 258.454ZM217.614 260C217.54 259.588 217.511 259.19 217.511 258.822C217.158 259.676 216.215 260.162 215.023 260.162C213.565 260.162 212.505 259.352 212.505 257.997C212.505 256.496 213.683 255.877 215.199 255.7L217.437 255.45V255.097C217.437 254.184 216.878 253.742 216.024 253.742C215.199 253.742 214.699 254.199 214.64 254.891H212.829C212.991 253.286 214.242 252.343 216.083 252.343C218.115 252.343 219.278 253.3 219.278 255.244V258.13C219.278 258.822 219.307 259.396 219.425 260H217.614ZM215.538 258.851C216.51 258.851 217.437 258.277 217.437 257.099V256.643L215.774 256.834C214.978 256.937 214.375 257.114 214.375 257.894C214.375 258.483 214.787 258.851 215.538 258.851ZM221.622 253.875H220.592V252.52H221.622V251.46C221.622 249.914 222.55 249.119 224.067 249.119C224.464 249.119 224.847 249.133 225.156 249.192V250.621C224.935 250.591 224.7 250.576 224.435 250.576C223.89 250.576 223.507 250.827 223.507 251.548V252.52H225.024V253.875H223.507V260H221.622V253.875ZM225.714 257.732H227.51C227.598 258.513 228.379 258.866 229.189 258.866C229.984 258.866 230.602 258.542 230.602 257.939C230.602 257.467 230.278 257.247 229.454 257.099L228.129 256.864C226.892 256.643 225.979 256.069 225.979 254.729C225.979 253.315 227.275 252.343 229.012 252.343C230.956 252.343 232.06 253.197 232.222 254.64H230.499C230.426 254.051 229.851 253.669 229.027 253.669C228.232 253.669 227.716 254.022 227.716 254.537C227.716 255.053 228.099 255.244 228.865 255.377L230.323 255.627C231.633 255.848 232.369 256.569 232.369 257.806C232.369 259.234 231 260.177 229.218 260.177C227.275 260.177 225.876 259.367 225.714 257.732ZM241.162 256.26C241.162 258.69 239.586 260.177 237.378 260.177C235.169 260.177 233.594 258.69 233.594 256.26C233.594 253.845 235.169 252.343 237.378 252.343C239.586 252.343 241.162 253.845 241.162 256.26ZM235.478 256.26C235.478 257.836 236.156 258.778 237.378 258.778C238.585 258.778 239.277 257.836 239.277 256.26C239.277 254.699 238.585 253.742 237.378 253.742C236.156 253.742 235.478 254.699 235.478 256.26ZM244.705 252.52V253.786C245.058 252.932 245.927 252.343 247.061 252.343C248.769 252.343 249.799 253.403 249.799 255.2V260H247.915V255.642C247.915 254.449 247.399 253.83 246.413 253.83C245.47 253.83 244.734 254.434 244.734 255.936V260H242.85V252.52H244.705Z" fill="#181B25"/>
<path d="M331.899 260L327.659 249.487H328.984L332.636 258.704H332.665L336.317 249.487H337.612L333.342 260H331.899ZM338.996 251.048V249.56H340.38V251.048H338.996ZM339.084 260V252.594H340.306V260H339.084ZM348.916 257.821C348.578 259.396 347.297 260.177 345.854 260.177C343.763 260.177 342.29 258.719 342.29 256.334C342.29 253.919 343.807 252.417 345.78 252.417C347.974 252.417 348.961 254.169 348.961 256.069V256.554H343.483C343.542 258.263 344.44 259.205 345.854 259.205C346.855 259.205 347.459 258.719 347.768 257.821H348.916ZM345.78 253.403C344.617 253.403 343.733 254.154 343.527 255.671H347.768C347.738 254.39 347.105 253.403 345.78 253.403ZM355.819 252.594L357.497 258.675H357.527L359.235 252.594H360.413L358.175 260H356.908L355.2 254.007H355.156L353.478 260H352.197L349.959 252.594H351.166L352.889 258.675H352.933L354.582 252.594H355.819ZM367.95 257.821C367.612 259.396 366.331 260.177 364.888 260.177C362.797 260.177 361.324 258.719 361.324 256.334C361.324 253.919 362.841 252.417 364.814 252.417C367.008 252.417 367.995 254.169 367.995 256.069V256.554H362.517C362.576 258.263 363.474 259.205 364.888 259.205C365.889 259.205 366.493 258.719 366.802 257.821H367.95ZM364.814 253.403C363.651 253.403 362.767 254.154 362.561 255.671H366.802C366.772 254.39 366.139 253.403 364.814 253.403ZM374.085 252.491V253.61C373.908 253.565 373.643 253.551 373.452 253.551C372.274 253.551 371.199 254.478 371.199 256.348V260H369.977V252.594H371.155V254.346C371.479 253.124 372.421 252.432 373.511 252.432C373.702 252.432 373.908 252.446 374.085 252.491Z" fill="#181B25"/>
</g>
<defs>
<clipPath id="clip0_8_630">
<rect width="340" height="202" fill="white" transform="translate(49 87)"/>
</clipPath>
</defs>
</svg>
