<svg width="372" height="320" viewBox="0 0 372 320" fill="none" xmlns="http://www.w3.org/2000/svg">
<g clip-path="url(#clip0_5_394)">
<path d="M366.667 0H12C7.58172 0 4 3.58172 4 8V312C4 316.418 7.58172 320 12 320H366.667C371.085 320 374.667 316.418 374.667 312V8C374.667 3.58172 371.085 0 366.667 0Z" fill="#F6F6F6"/>
<g clip-path="url(#clip1_5_394)">
<g filter="url(#filter0_dddddi_5_394)">
<path d="M300 64.9285H72C68.6863 64.9285 66 67.6148 66 70.9285V214.642C66 217.956 68.6863 220.642 72 220.642H300C303.314 220.642 306 217.956 306 214.642V70.9285C306 67.6148 303.314 64.9285 300 64.9285Z" fill="white"/>
<path d="M85.3526 88.6428L84.7209 86.9928H81.6849L81.0438 88.6428H79.8181L82.5241 81.9108H83.9289L86.6349 88.6428H85.3526ZM83.2029 83.1177L82.0715 86.0217H84.3438L83.2312 83.1177H83.2029ZM88.5562 88.6428L86.6705 83.8531H87.8868L89.2162 87.4643H89.2351L90.5362 83.8531H91.7148L89.8762 88.6428H88.5562ZM95.4438 88.6428C95.3966 88.3788 95.3778 88.1243 95.3778 87.8885C95.1515 88.4354 94.5481 88.7465 93.7844 88.7465C92.8509 88.7465 92.1721 88.228 92.1721 87.3605C92.1721 86.3988 92.9264 86.0028 93.8975 85.8897L95.3306 85.7294V85.5031C95.3306 84.9185 94.9724 84.6357 94.4255 84.6357C93.8975 84.6357 93.5769 84.928 93.5392 85.3711H92.3795C92.4832 84.3434 93.2846 83.74 94.4632 83.74C95.7644 83.74 96.5092 84.3528 96.5092 85.5974V87.4454C96.5092 87.8885 96.5281 88.2563 96.6035 88.6428H95.4438ZM94.1144 87.9074C94.7366 87.9074 95.3306 87.5397 95.3306 86.7854V86.4931L94.2652 86.6157C93.7561 86.6817 93.3695 86.7948 93.3695 87.2945C93.3695 87.6717 93.6335 87.9074 94.1144 87.9074ZM97.8973 83.0423V81.8637H99.1796V83.0423H97.8973ZM97.935 88.6428V83.8531H99.1419V88.6428H97.935ZM101.821 88.6428H100.614V81.7034H101.821V88.6428ZM106.217 88.6428C106.17 88.3788 106.151 88.1243 106.151 87.8885C105.924 88.4354 105.321 88.7465 104.557 88.7465C103.624 88.7465 102.945 88.228 102.945 87.3605C102.945 86.3988 103.699 86.0028 104.67 85.8897L106.104 85.7294V85.5031C106.104 84.9185 105.745 84.6357 105.198 84.6357C104.67 84.6357 104.35 84.928 104.312 85.3711H103.152C103.256 84.3434 104.058 83.74 105.236 83.74C106.537 83.74 107.282 84.3528 107.282 85.5974V87.4454C107.282 87.8885 107.301 88.2563 107.376 88.6428H106.217ZM104.887 87.9074C105.51 87.9074 106.104 87.5397 106.104 86.7854V86.4931L105.038 86.6157C104.529 86.6817 104.142 86.7948 104.142 87.2945C104.142 87.6717 104.406 87.9074 104.887 87.9074ZM109.896 87.8791V88.6428H108.708V81.7034H109.915V84.6357C110.141 84.1548 110.688 83.74 111.433 83.74C112.687 83.74 113.545 84.7677 113.545 86.248C113.545 87.7377 112.687 88.756 111.433 88.756C110.707 88.756 110.132 88.36 109.896 87.8791ZM109.886 86.1631V86.3328C109.886 87.2663 110.33 87.8697 111.093 87.8697C111.876 87.8697 112.328 87.238 112.328 86.248C112.328 85.2674 111.876 84.6263 111.093 84.6263C110.33 84.6263 109.886 85.2297 109.886 86.1631ZM115.891 88.6428H114.684V81.7034H115.891V88.6428ZM121.615 87.1531C121.408 88.1808 120.55 88.756 119.456 88.756C118.061 88.756 117.033 87.8225 117.033 86.2574C117.033 84.6923 118.08 83.74 119.428 83.74C120.927 83.74 121.644 84.8808 121.644 86.1537V86.5403H118.202C118.278 87.3888 118.711 87.8697 119.456 87.8697C120.003 87.8697 120.342 87.6151 120.503 87.1531H121.615ZM119.428 84.6357C118.796 84.6357 118.372 85.0223 118.24 85.7577H120.493C120.493 85.1637 120.154 84.6357 119.428 84.6357ZM127.745 88.6428H124.794V81.9108H127.5C129.075 81.9108 129.933 82.5425 129.933 83.7494C129.933 84.3434 129.461 84.994 128.915 85.1543C129.65 85.3523 130.206 85.9463 130.206 86.7288C130.206 87.9923 129.301 88.6428 127.745 88.6428ZM126.02 84.7583H127.491C128.33 84.7583 128.726 84.3811 128.726 83.7965C128.726 83.1837 128.321 82.8348 127.5 82.8348H126.02V84.7583ZM126.02 85.654V87.7188H127.651C128.519 87.7188 128.971 87.3323 128.971 86.6817C128.971 86.05 128.509 85.654 127.642 85.654H126.02ZM134.355 88.6428C134.308 88.3788 134.289 88.1243 134.289 87.8885C134.063 88.4354 133.459 88.7465 132.696 88.7465C131.762 88.7465 131.083 88.228 131.083 87.3605C131.083 86.3988 131.838 86.0028 132.809 85.8897L134.242 85.7294V85.5031C134.242 84.9185 133.884 84.6357 133.337 84.6357C132.809 84.6357 132.488 84.928 132.451 85.3711H131.291C131.395 84.3434 132.196 83.74 133.375 83.74C134.676 83.74 135.421 84.3528 135.421 85.5974V87.4454C135.421 87.8885 135.439 88.2563 135.515 88.6428H134.355ZM133.026 87.9074C133.648 87.9074 134.242 87.5397 134.242 86.7854V86.4931L133.177 86.6157C132.667 86.6817 132.281 86.7948 132.281 87.2945C132.281 87.6717 132.545 87.9074 133.026 87.9074ZM138.053 88.6428H136.846V81.7034H138.053V88.6428ZM142.449 88.6428C142.401 88.3788 142.383 88.1243 142.383 87.8885C142.156 88.4354 141.553 88.7465 140.789 88.7465C139.856 88.7465 139.177 88.228 139.177 87.3605C139.177 86.3988 139.931 86.0028 140.902 85.8897L142.335 85.7294V85.5031C142.335 84.9185 141.977 84.6357 141.43 84.6357C140.902 84.6357 140.582 84.928 140.544 85.3711H139.384C139.488 84.3434 140.289 83.74 141.468 83.74C142.769 83.74 143.514 84.3528 143.514 85.5974V87.4454C143.514 87.8885 143.533 88.2563 143.608 88.6428H142.449ZM141.119 87.9074C141.741 87.9074 142.335 87.5397 142.335 86.7854V86.4931L141.27 86.6157C140.761 86.6817 140.374 86.7948 140.374 87.2945C140.374 87.6717 140.638 87.9074 141.119 87.9074ZM146.128 83.8531V84.664C146.354 84.1171 146.91 83.74 147.636 83.74C148.73 83.74 149.39 84.4188 149.39 85.5691V88.6428H148.183V85.852C148.183 85.0883 147.853 84.6923 147.222 84.6923C146.618 84.6923 146.147 85.0788 146.147 86.0405V88.6428H144.94V83.8531H146.128ZM150.475 86.248C150.475 84.7017 151.474 83.74 152.879 83.74C154.067 83.74 154.831 84.4283 154.963 85.4937H153.822C153.728 84.9751 153.417 84.6451 152.87 84.6451C152.106 84.6451 151.682 85.2768 151.682 86.248C151.682 87.2285 152.106 87.8508 152.87 87.8508C153.417 87.8508 153.728 87.5114 153.822 87.0023H154.963C154.831 88.0771 154.067 88.756 152.879 88.756C151.474 88.756 150.475 87.8037 150.475 86.248ZM160.306 87.1531C160.098 88.1808 159.24 88.756 158.146 88.756C156.751 88.756 155.723 87.8225 155.723 86.2574C155.723 84.6923 156.77 83.74 158.118 83.74C159.617 83.74 160.334 84.8808 160.334 86.1537V86.5403H156.892C156.968 87.3888 157.402 87.8697 158.146 87.8697C158.693 87.8697 159.033 87.6151 159.193 87.1531H160.306ZM158.118 84.6357C157.486 84.6357 157.062 85.0223 156.93 85.7577H159.184C159.184 85.1637 158.844 84.6357 158.118 84.6357Z" fill="#181B25"/>
<path d="M94.6664 124.118C94.6664 127.046 92.1464 129.014 88.7144 129.23V131.63H86.9624V129.206C83.5064 128.894 80.9144 127.118 80.6504 123.854H83.5784C83.7464 125.726 85.2104 126.638 86.9624 126.878V121.574L85.7144 121.358C83.2184 120.902 81.1784 119.726 81.1784 116.726C81.1784 113.846 83.5784 111.83 86.9624 111.638V109.358H88.7144V111.662C92.0504 111.998 94.0424 113.726 94.3544 116.558H91.4744C91.3064 115.142 90.3224 114.326 88.7144 114.062V119.174L90.2504 119.462C93.0104 119.99 94.6664 121.382 94.6664 124.118ZM86.7464 118.79L86.9624 118.838V114.014C85.1144 114.182 84.0584 115.166 84.0584 116.534C84.0584 117.95 84.8744 118.43 86.7464 118.79ZM89.0024 121.958L88.7144 121.91V126.926C90.6344 126.734 91.7864 125.822 91.7864 124.334C91.7864 123.086 91.1144 122.342 89.0024 121.958ZM105.368 114.398H96.0805V111.878H108.608V114.302C104.624 119.174 103.352 123.47 103.28 129.014H100.016C100.088 123.23 102.248 118.43 105.368 114.398ZM122.654 124.358C122.654 127.022 120.374 129.302 116.318 129.302C112.406 129.302 109.91 127.142 109.622 123.902H112.67C112.814 125.702 114.206 126.878 116.318 126.878C118.43 126.878 119.702 125.822 119.702 124.142C119.702 122.414 118.382 121.574 116.438 121.574H114.662V119.222H116.39C117.998 119.222 119.294 118.502 119.294 116.678C119.294 115.19 118.286 114.014 116.39 114.014C114.374 114.014 113.198 115.358 113.078 117.086H110.15C110.342 114.11 112.502 111.59 116.414 111.59C120.278 111.59 122.27 113.942 122.27 116.582C122.27 118.598 120.926 120.038 119.198 120.35C121.262 120.686 122.654 122.246 122.654 124.358ZM131.177 111.59C134.585 111.59 137.177 113.366 137.177 116.438C137.177 118.286 136.049 119.654 134.513 120.326C136.217 120.662 137.945 122.294 137.945 124.31C137.945 127.334 135.257 129.302 131.177 129.302C127.097 129.302 124.409 127.334 124.409 124.31C124.409 122.294 126.137 120.662 127.841 120.326C126.305 119.654 125.177 118.286 125.177 116.438C125.177 113.366 127.769 111.59 131.177 111.59ZM131.177 119.15C132.953 119.15 134.369 118.262 134.369 116.51C134.369 114.734 132.953 113.87 131.177 113.87C129.377 113.87 127.985 114.734 127.985 116.51C127.985 118.262 129.377 119.15 131.177 119.15ZM131.177 126.974C133.553 126.974 134.897 125.87 134.897 124.19C134.897 122.51 133.553 121.406 131.177 121.406C128.801 121.406 127.457 122.51 127.457 124.19C127.457 125.87 128.801 126.974 131.177 126.974ZM140.246 128.918V125.438H143.822V129.254C143.822 131.654 142.262 133.022 139.718 133.022V131.366C141.014 131.366 141.878 130.91 141.878 129.254V128.918H140.246ZM152.887 111.59C156.295 111.59 158.887 113.366 158.887 116.438C158.887 118.286 157.759 119.654 156.223 120.326C157.927 120.662 159.655 122.294 159.655 124.31C159.655 127.334 156.967 129.302 152.887 129.302C148.807 129.302 146.119 127.334 146.119 124.31C146.119 122.294 147.847 120.662 149.551 120.326C148.015 119.654 146.887 118.286 146.887 116.438C146.887 113.366 149.479 111.59 152.887 111.59ZM152.887 119.15C154.663 119.15 156.079 118.262 156.079 116.51C156.079 114.734 154.663 113.87 152.887 113.87C151.087 113.87 149.695 114.734 149.695 116.51C149.695 118.262 151.087 119.15 152.887 119.15ZM152.887 126.974C155.263 126.974 156.607 125.87 156.607 124.19C156.607 122.51 155.263 121.406 152.887 121.406C150.511 121.406 149.167 122.51 149.167 124.19C149.167 125.87 150.511 126.974 152.887 126.974ZM161.055 116.51V114.398C163.983 114.398 165.135 113.606 165.543 111.83H167.727V129.014H164.559V116.51H161.055ZM170.422 116.51V114.398C173.35 114.398 174.502 113.606 174.91 111.83H177.094V129.014H173.926V116.51H170.422ZM180.9 129.014V125.438H184.476V129.014H180.9ZM193.314 114.038C190.65 114.038 189.162 116.75 189.162 120.326C189.834 118.838 191.322 117.566 193.578 117.566C197.01 117.566 199.434 120.062 199.434 123.35C199.434 126.782 196.938 129.302 193.146 129.302C189.09 129.302 186.258 126.014 186.258 120.734C186.258 115.238 189.21 111.59 193.41 111.59C196.65 111.59 198.858 113.534 199.266 116.438H196.362C196.002 114.926 195.042 114.038 193.314 114.038ZM193.122 126.95C195.186 126.95 196.506 125.462 196.506 123.398C196.506 121.358 195.186 119.87 193.122 119.87C191.058 119.87 189.666 121.358 189.666 123.398C189.666 125.462 191.058 126.95 193.122 126.95ZM213.535 116.774C213.535 119.894 211.135 121.334 208.327 122.918C206.191 124.166 204.655 125.27 204.607 126.494H213.631V129.014H201.127V127.79C201.127 124.454 204.055 122.39 206.623 120.854C208.999 119.414 210.535 118.43 210.535 116.75C210.535 115.286 209.671 114.062 207.655 114.062C205.687 114.062 204.535 115.574 204.415 117.35H201.367C201.583 114.182 203.791 111.59 207.679 111.59C211.351 111.59 213.535 113.894 213.535 116.774Z" fill="#181B25"/>
<path d="M292.285 147.385H79.7144V148.185H292.285V147.385Z" fill="#F6F6F6"/>
<path d="M83.1304 173.557L79.9048 165.56H80.9128L83.6904 172.572H83.7128L86.4904 165.56H87.476L84.228 173.557H83.1304ZM92.6086 171.9C92.351 173.098 91.3766 173.692 90.279 173.692C88.6886 173.692 87.5686 172.583 87.5686 170.768C87.5686 168.932 88.7222 167.789 90.223 167.789C91.8918 167.789 92.6422 169.122 92.6422 170.567V170.936H88.4758C88.5206 172.236 89.2038 172.952 90.279 172.952C91.0406 172.952 91.4998 172.583 91.735 171.9H92.6086ZM90.223 168.54C89.3382 168.54 88.6662 169.111 88.5094 170.264H91.735C91.7126 169.29 91.231 168.54 90.223 168.54ZM95.0462 167.924V168.954C95.315 168.26 96.0206 167.789 96.883 167.789C98.1486 167.789 98.899 168.584 98.899 169.928V173.557H97.9694V170.13C97.9694 169.088 97.5102 168.551 96.6254 168.551C95.763 168.551 95.0798 169.1 95.0798 170.455V173.557H94.1502V167.924H95.0462ZM103.387 172.728V173.49C102.972 173.613 102.647 173.647 102.401 173.647C101.371 173.647 100.844 173.154 100.844 172.112V168.629H100.015V167.924H100.844V166.49H101.763V167.924H103.241V168.629H101.751V172.068C101.751 172.661 102.054 172.863 102.569 172.863C102.782 172.863 103.028 172.84 103.387 172.728ZM109.47 173.557H108.563V172.538C108.294 173.244 107.622 173.692 106.771 173.692C105.494 173.692 104.777 172.919 104.777 171.552V167.924H105.718V171.373C105.718 172.415 106.155 172.964 107.039 172.964C107.891 172.964 108.529 172.381 108.529 171.026V167.924H109.47V173.557ZM114.519 167.845V168.696C114.384 168.663 114.183 168.652 114.037 168.652C113.141 168.652 112.323 169.357 112.323 170.78V173.557H111.394V167.924H112.29V169.256C112.536 168.327 113.253 167.8 114.082 167.8C114.227 167.8 114.384 167.812 114.519 167.845ZM120.152 171.9C119.895 173.098 118.92 173.692 117.823 173.692C116.232 173.692 115.112 172.583 115.112 170.768C115.112 168.932 116.266 167.789 117.767 167.789C119.435 167.789 120.186 169.122 120.186 170.567V170.936H116.019C116.064 172.236 116.747 172.952 117.823 172.952C118.584 172.952 119.043 172.583 119.279 171.9H120.152ZM117.767 168.54C116.882 168.54 116.21 169.111 116.053 170.264H119.279C119.256 169.29 118.775 168.54 117.767 168.54ZM126.933 165.56C129.252 165.56 130.831 167.162 130.831 169.559C130.831 171.967 129.252 173.557 126.933 173.557H124.1V165.56H126.933ZM126.933 166.367H125.052V172.751H126.933C128.792 172.751 129.834 171.496 129.834 169.559C129.834 167.632 128.792 166.367 126.933 166.367ZM136.948 171.9C136.69 173.098 135.716 173.692 134.618 173.692C133.028 173.692 131.908 172.583 131.908 170.768C131.908 168.932 133.061 167.789 134.562 167.789C136.231 167.789 136.981 169.122 136.981 170.567V170.936H132.815C132.86 172.236 133.543 172.952 134.618 172.952C135.38 172.952 135.839 172.583 136.074 171.9H136.948ZM134.562 168.54C133.677 168.54 133.005 169.111 132.848 170.264H136.074C136.052 169.29 135.57 168.54 134.562 168.54ZM139.385 172.572V173.557H138.489V165.314H139.419V168.92C139.676 168.349 140.315 167.789 141.289 167.789C142.723 167.789 143.798 168.954 143.798 170.746C143.798 172.527 142.723 173.692 141.289 173.692C140.36 173.692 139.665 173.143 139.385 172.572ZM139.374 170.656V170.813C139.374 172.09 140.001 172.964 141.099 172.964C142.208 172.964 142.857 172.056 142.857 170.746C142.857 169.424 142.208 168.517 141.099 168.517C140.001 168.517 139.374 169.38 139.374 170.656ZM147.933 172.728V173.49C147.519 173.613 147.194 173.647 146.948 173.647C145.917 173.647 145.391 173.154 145.391 172.112V168.629H144.562V167.924H145.391V166.49H146.309V167.924H147.788V168.629H146.298V172.068C146.298 172.661 146.601 172.863 147.116 172.863C147.329 172.863 147.575 172.84 147.933 172.728Z" fill="#181B25"/>
<path d="M241.637 171.272C241.637 172.639 240.461 173.557 238.859 173.658V174.778H238.042V173.647C236.429 173.501 235.219 172.672 235.096 171.149H236.463C236.541 172.023 237.224 172.448 238.042 172.56V170.085L237.459 169.984C236.295 169.772 235.343 169.223 235.343 167.823C235.343 166.479 236.463 165.538 238.042 165.448V164.384H238.859V165.46C240.416 165.616 241.346 166.423 241.491 167.744H240.147C240.069 167.084 239.61 166.703 238.859 166.58V168.965L239.576 169.1C240.864 169.346 241.637 169.996 241.637 171.272ZM237.941 168.786L238.042 168.808V166.557C237.179 166.636 236.687 167.095 236.687 167.733C236.687 168.394 237.067 168.618 237.941 168.786ZM238.994 170.264L238.859 170.242V172.583C239.755 172.493 240.293 172.068 240.293 171.373C240.293 170.791 239.979 170.444 238.994 170.264ZM245.903 166.568C244.66 166.568 243.966 167.834 243.966 169.503C244.279 168.808 244.974 168.215 246.027 168.215C247.628 168.215 248.759 169.38 248.759 170.914C248.759 172.516 247.595 173.692 245.825 173.692C243.932 173.692 242.611 172.157 242.611 169.693C242.611 167.128 243.988 165.426 245.948 165.426C247.46 165.426 248.491 166.333 248.681 167.688H247.326C247.158 166.983 246.71 166.568 245.903 166.568ZM245.814 172.594C246.777 172.594 247.393 171.9 247.393 170.936C247.393 169.984 246.777 169.29 245.814 169.29C244.851 169.29 244.201 169.984 244.201 170.936C244.201 171.9 244.851 172.594 245.814 172.594ZM252.72 169.29C252.015 169.29 251.544 169.637 251.298 170.029H249.965L250.424 165.56H255.218V166.736H251.488L251.275 168.82C251.578 168.484 252.205 168.17 252.955 168.17C254.613 168.17 255.677 169.357 255.677 170.925C255.677 172.471 254.568 173.692 252.72 173.692C250.917 173.692 249.763 172.672 249.64 171.127H251.119C251.186 171.967 251.779 172.572 252.72 172.572C253.751 172.572 254.255 171.81 254.255 170.936C254.255 170.052 253.762 169.29 252.72 169.29ZM256.794 173.512V171.888H258.462V173.669C258.462 174.789 257.734 175.428 256.547 175.428V174.655C257.152 174.655 257.555 174.442 257.555 173.669V173.512H256.794ZM258.887 167.722V166.736C260.254 166.736 260.791 166.367 260.982 165.538H262.001V173.557H260.522V167.722H258.887ZM263.359 167.722V166.736C264.726 166.736 265.263 166.367 265.454 165.538H266.473V173.557H264.994V167.722H263.359ZM270.866 172.549C272.109 172.549 272.804 171.284 272.804 169.615C272.49 170.309 271.796 170.903 270.743 170.903C269.141 170.903 268.01 169.738 268.01 168.204C268.01 166.602 269.175 165.426 270.945 165.426C272.837 165.426 274.159 166.96 274.159 169.424C274.159 171.989 272.781 173.692 270.821 173.692C269.309 173.692 268.279 172.784 268.089 171.429H269.444C269.612 172.135 270.06 172.549 270.866 172.549ZM270.956 166.524C269.993 166.524 269.377 167.218 269.377 168.181C269.377 169.133 269.993 169.828 270.956 169.828C271.919 169.828 272.569 169.133 272.569 168.181C272.569 167.218 271.919 166.524 270.956 166.524ZM275.108 173.557V171.888H276.776V173.557H275.108ZM277.731 169.559C277.731 167.162 279.052 165.426 281.136 165.426C283.219 165.426 284.529 167.162 284.529 169.559C284.529 171.956 283.219 173.692 281.136 173.692C279.052 173.692 277.731 171.956 277.731 169.559ZM279.232 169.559C279.232 171.373 279.859 172.527 281.136 172.527C282.401 172.527 283.028 171.373 283.028 169.559C283.028 167.744 282.401 166.591 281.136 166.591C279.859 166.591 279.232 167.744 279.232 169.559ZM288.631 165.426C290.221 165.426 291.431 166.255 291.431 167.688C291.431 168.551 290.904 169.189 290.188 169.503C290.983 169.66 291.789 170.421 291.789 171.362C291.789 172.773 290.535 173.692 288.631 173.692C286.727 173.692 285.472 172.773 285.472 171.362C285.472 170.421 286.279 169.66 287.074 169.503C286.357 169.189 285.831 168.551 285.831 167.688C285.831 166.255 287.04 165.426 288.631 165.426ZM288.631 168.954C289.46 168.954 290.12 168.54 290.12 167.722C290.12 166.893 289.46 166.49 288.631 166.49C287.791 166.49 287.141 166.893 287.141 167.722C287.141 168.54 287.791 168.954 288.631 168.954ZM288.631 172.605C289.74 172.605 290.367 172.09 290.367 171.306C290.367 170.522 289.74 170.007 288.631 170.007C287.522 170.007 286.895 170.522 286.895 171.306C286.895 172.09 287.522 172.605 288.631 172.605Z" fill="#181B25"/>
<path d="M80.2408 200.565H81.1704C81.2936 201.853 82.3464 202.29 83.5336 202.29C84.676 202.29 85.516 201.741 85.516 200.778C85.516 200.106 85.1464 199.669 84.06 199.468L82.5368 199.165C81.4616 198.964 80.4984 198.471 80.4984 197.093C80.4984 195.783 81.6296 194.797 83.2872 194.797C85.0008 194.797 86.132 195.536 86.2888 196.981H85.3592C85.2248 196.085 84.4408 195.57 83.2984 195.57C82.1336 195.57 81.4392 196.22 81.4392 197.06C81.4392 197.855 81.8872 198.135 82.8616 198.325L84.4296 198.65C85.6616 198.896 86.4456 199.468 86.4456 200.733C86.4456 202.1 85.236 203.063 83.5448 203.063C81.8088 203.063 80.3528 202.312 80.2408 200.565ZM91.2084 202.928H88.0388V194.932H90.85C92.6308 194.932 93.6612 195.671 93.6612 197.071C93.6612 197.81 93.1012 198.572 92.418 198.773C93.4036 199.02 94.0196 199.748 94.0196 200.688C94.0196 202.156 92.978 202.928 91.2084 202.928ZM88.9908 198.46H90.906C92.0932 198.46 92.6868 197.956 92.6868 197.082C92.6868 196.197 92.1044 195.716 90.9172 195.716H88.9908V198.46ZM88.9908 199.21V202.144H91.1636C92.3844 202.144 93.0564 201.607 93.0564 200.688C93.0564 199.77 92.362 199.21 91.1412 199.21H88.9908ZM101.252 202.928L100.368 200.7H96.5371L95.6523 202.928H94.6891L97.9259 194.932H99.0123L102.26 202.928H101.252ZM98.4411 195.895L96.8507 199.904H100.054L98.4747 195.895H98.4411Z" fill="#181B25"/>
<path d="M242.435 200.644C242.435 202.01 241.259 202.928 239.658 203.029V204.149H238.84V203.018C237.227 202.872 236.018 202.044 235.895 200.52H237.261C237.339 201.394 238.023 201.82 238.84 201.932V199.456L238.258 199.356C237.093 199.143 236.141 198.594 236.141 197.194C236.141 195.85 237.261 194.909 238.84 194.82V193.756H239.658V194.831C241.215 194.988 242.144 195.794 242.29 197.116H240.946C240.867 196.455 240.408 196.074 239.658 195.951V198.336L240.375 198.471C241.663 198.717 242.435 199.367 242.435 200.644ZM238.739 198.157L238.84 198.18V195.928C237.978 196.007 237.485 196.466 237.485 197.104C237.485 197.765 237.866 197.989 238.739 198.157ZM239.792 199.636L239.658 199.613V201.954C240.554 201.864 241.091 201.439 241.091 200.744C241.091 200.162 240.778 199.815 239.792 199.636ZM243.219 197.093V196.108C244.585 196.108 245.123 195.738 245.313 194.909H246.332V202.928H244.854V197.093H243.219ZM247.69 197.093V196.108C249.057 196.108 249.594 195.738 249.785 194.909H250.804V202.928H249.326V197.093H247.69ZM252.681 202.884V201.26H254.35V203.04C254.35 204.16 253.622 204.799 252.435 204.799V204.026C253.04 204.026 253.443 203.813 253.443 203.04V202.884H252.681ZM255.304 198.93C255.304 196.533 256.626 194.797 258.709 194.797C260.792 194.797 262.103 196.533 262.103 198.93C262.103 201.327 260.792 203.063 258.709 203.063C256.626 203.063 255.304 201.327 255.304 198.93ZM256.805 198.93C256.805 200.744 257.432 201.898 258.709 201.898C259.975 201.898 260.602 200.744 260.602 198.93C260.602 197.116 259.975 195.962 258.709 195.962C257.432 195.962 256.805 197.116 256.805 198.93ZM266.361 195.94C265.118 195.94 264.423 197.205 264.423 198.874C264.737 198.18 265.431 197.586 266.484 197.586C268.086 197.586 269.217 198.751 269.217 200.285C269.217 201.887 268.052 203.063 266.283 203.063C264.39 203.063 263.068 201.528 263.068 199.064C263.068 196.5 264.446 194.797 266.406 194.797C267.918 194.797 268.948 195.704 269.139 197.06H267.783C267.615 196.354 267.167 195.94 266.361 195.94ZM266.271 201.965C267.235 201.965 267.851 201.271 267.851 200.308C267.851 199.356 267.235 198.661 266.271 198.661C265.308 198.661 264.659 199.356 264.659 200.308C264.659 201.271 265.308 201.965 266.271 201.965ZM276.09 200.756C276.09 201.999 275.026 203.063 273.133 203.063C271.308 203.063 270.143 202.055 270.008 200.543H271.431C271.498 201.383 272.148 201.932 273.133 201.932C274.119 201.932 274.712 201.439 274.712 200.655C274.712 199.848 274.096 199.456 273.189 199.456H272.36V198.359H273.167C273.917 198.359 274.522 198.023 274.522 197.172C274.522 196.477 274.052 195.928 273.167 195.928C272.226 195.928 271.677 196.556 271.621 197.362H270.255C270.344 195.973 271.352 194.797 273.178 194.797C274.981 194.797 275.911 195.895 275.911 197.127C275.911 198.068 275.284 198.74 274.477 198.885C275.44 199.042 276.09 199.77 276.09 200.756ZM277.197 202.928V201.26H278.866V202.928H277.197ZM283.635 196.108H279.301V194.932H285.147V196.063C283.288 198.336 282.694 200.341 282.661 202.928H281.138C281.171 200.229 282.179 197.989 283.635 196.108ZM290.371 196.108H286.037V194.932H291.883V196.063C290.024 198.336 289.43 200.341 289.397 202.928H287.873C287.907 200.229 288.915 197.989 290.371 196.108Z" fill="#181B25"/>
</g>
</g>
</g>
<defs>
<filter id="filter0_dddddi_5_394" x="42" y="64.9285" width="288" height="203.714" filterUnits="userSpaceOnUse" color-interpolation-filters="sRGB">
<feFlood flood-opacity="0" result="BackgroundImageFix"/>
<feColorMatrix in="SourceAlpha" type="matrix" values="0 0 0 0 0 0 0 0 0 0 0 0 0 0 0 0 0 0 127 0" result="hardAlpha"/>
<feOffset dy="1"/>
<feGaussianBlur stdDeviation="0.5"/>
<feComposite in2="hardAlpha" operator="out"/>
<feColorMatrix type="matrix" values="0 0 0 0 0.164706 0 0 0 0 0.2 0 0 0 0 0.270588 0 0 0 0.0392 0"/>
<feBlend mode="normal" in2="BackgroundImageFix" result="effect1_dropShadow_5_394"/>
<feColorMatrix in="SourceAlpha" type="matrix" values="0 0 0 0 0 0 0 0 0 0 0 0 0 0 0 0 0 0 127 0" result="hardAlpha"/>
<feOffset dy="3"/>
<feGaussianBlur stdDeviation="1.5"/>
<feComposite in2="hardAlpha" operator="out"/>
<feColorMatrix type="matrix" values="0 0 0 0 0.164706 0 0 0 0 0.2 0 0 0 0 0.27451 0 0 0 0.0392 0"/>
<feBlend mode="normal" in2="effect1_dropShadow_5_394" result="effect2_dropShadow_5_394"/>
<feColorMatrix in="SourceAlpha" type="matrix" values="0 0 0 0 0 0 0 0 0 0 0 0 0 0 0 0 0 0 127 0" result="hardAlpha"/>
<feOffset dy="6"/>
<feGaussianBlur stdDeviation="3"/>
<feComposite in2="hardAlpha" operator="out"/>
<feColorMatrix type="matrix" values="0 0 0 0 0.164706 0 0 0 0 0.2 0 0 0 0 0.27451 0 0 0 0.0392 0"/>
<feBlend mode="normal" in2="effect2_dropShadow_5_394" result="effect3_dropShadow_5_394"/>
<feColorMatrix in="SourceAlpha" type="matrix" values="0 0 0 0 0 0 0 0 0 0 0 0 0 0 0 0 0 0 127 0" result="hardAlpha"/>
<feOffset dy="12"/>
<feGaussianBlur stdDeviation="6"/>
<feComposite in2="hardAlpha" operator="out"/>
<feColorMatrix type="matrix" values="0 0 0 0 0.164706 0 0 0 0 0.2 0 0 0 0 0.27451 0 0 0 0.0392 0"/>
<feBlend mode="normal" in2="effect3_dropShadow_5_394" result="effect4_dropShadow_5_394"/>
<feColorMatrix in="SourceAlpha" type="matrix" values="0 0 0 0 0 0 0 0 0 0 0 0 0 0 0 0 0 0 127 0" result="hardAlpha"/>
<feOffset dy="24"/>
<feGaussianBlur stdDeviation="12"/>
<feComposite in2="hardAlpha" operator="out"/>
<feColorMatrix type="matrix" values="0 0 0 0 0.164706 0 0 0 0 0.2 0 0 0 0 0.27451 0 0 0 0.0392 0"/>
<feBlend mode="normal" in2="effect4_dropShadow_5_394" result="effect5_dropShadow_5_394"/>
<feBlend mode="normal" in="SourceGraphic" in2="effect5_dropShadow_5_394" result="shape"/>
<feColorMatrix in="SourceAlpha" type="matrix" values="0 0 0 0 0 0 0 0 0 0 0 0 0 0 0 0 0 0 127 0" result="hardAlpha"/>
<feOffset/>
<feGaussianBlur stdDeviation="2"/>
<feComposite in2="hardAlpha" operator="arithmetic" k2="-1" k3="1"/>
<feColorMatrix type="matrix" values="0 0 0 0 0.054902 0 0 0 0 0.247059 0 0 0 0 0.494118 0 0 0 0.0392 0"/>
<feBlend mode="normal" in2="shape" result="effect6_innerShadow_5_394"/>
</filter>
<clipPath id="clip0_5_394">
<rect width="372" height="320" fill="white"/>
</clipPath>
<clipPath id="clip1_5_394">
<rect width="264" height="194" fill="white" transform="translate(54 63)"/>
</clipPath>
</defs>
</svg>
