<svg width="372" height="320" viewBox="0 0 372 320" fill="none" xmlns="http://www.w3.org/2000/svg">
<g clip-path="url(#clip0_5_206)">
<path d="M366.667 0H12C7.58172 0 4 3.58172 4 8V312C4 316.418 7.58172 320 12 320H366.667C371.085 320 374.667 316.418 374.667 312V8C374.667 3.58172 371.085 0 366.667 0Z" fill="#F6F6F6"/>
<g clip-path="url(#clip1_5_206)">
<g filter="url(#filter0_dddddi_5_206)">
<mask id="mask0_5_206" style="mask-type:luminance" maskUnits="userSpaceOnUse" x="66" y="72" width="50" height="50">
<path d="M112 72H70C67.7909 72 66 73.7909 66 76V118C66 120.209 67.7909 122 70 122H112C114.209 122 116 120.209 116 118V76C116 73.7909 114.209 72 112 72Z" fill="white"/>
</mask>
<g mask="url(#mask0_5_206)">
<path d="M112 72H70C67.7909 72 66 73.7909 66 76V118C66 120.209 67.7909 122 70 122H112C114.209 122 116 120.209 116 118V76C116 73.7909 114.209 72 112 72Z" fill="#2CA01C"/>
<path d="M90.8145 121.629C104.516 121.629 115.629 110.516 115.629 96.8145C115.629 83.1129 104.516 72 90.8145 72C77.1129 72 66 83.1129 66 96.8145C66 110.516 77.1048 121.629 90.8145 121.629Z" fill="#2CA01C"/>
<path d="M83.5507 88.3366C78.8691 88.3366 75.0728 92.1329 75.0728 96.8145C75.0728 101.496 78.862 105.285 83.5507 105.285H84.7618V102.141H83.5507C80.6114 102.141 78.2245 99.7538 78.2245 96.8145C78.2245 93.8752 80.6114 91.4884 83.5507 91.4884H86.4617V107.956C86.4617 109.691 87.8711 111.1 89.6064 111.1V88.3366H83.5507ZM98.0843 105.285C102.766 105.285 106.562 101.489 106.562 96.8145C106.562 92.14 102.773 88.3437 98.0843 88.3437H96.8732V91.4884H98.0843C101.024 91.4884 103.411 93.8752 103.411 96.8145C103.411 99.7538 101.024 102.141 98.0843 102.141H95.1733V85.6735C95.1733 83.9383 93.7639 82.5288 92.0286 82.5288V105.285H98.0843Z" fill="white"/>
</g>
<path d="M175 161H133C130.791 161 129 162.791 129 165V207C129 209.209 130.791 211 133 211H175C177.209 211 179 209.209 179 207V165C179 162.791 177.209 161 175 161Z" fill="#FEB61C"/>
<mask id="mask1_5_206" style="mask-type:luminance" maskUnits="userSpaceOnUse" x="140" y="175" width="28" height="22">
<path d="M167.081 175.825H140.295V196.085H167.081V175.825Z" fill="white"/>
</mask>
<g mask="url(#mask1_5_206)">
<path d="M143.521 181.448C143.521 179.217 142.397 177.374 140.295 175.825H145.18C146.895 177.153 147.945 179.181 147.945 181.448C147.945 183.716 146.895 185.743 145.18 187.071C146.766 187.734 147.669 189.357 147.669 191.679V196.104H143.245V191.679C143.245 189.467 142.194 187.919 140.295 187.071C142.397 185.504 143.521 183.679 143.521 181.448ZM153.089 181.448C153.089 179.217 151.964 177.374 149.863 175.825H154.748C156.462 177.153 157.513 179.181 157.513 181.448C157.513 183.716 156.462 185.743 154.748 187.071C156.333 187.734 157.236 189.357 157.236 191.679V196.104H152.812V191.679C152.812 189.467 151.761 187.919 149.863 187.071C151.964 185.504 153.089 183.679 153.089 181.448ZM162.675 181.448C162.675 179.217 161.55 177.374 159.449 175.825H164.334C166.048 177.153 167.099 179.181 167.099 181.448C167.099 183.716 166.048 185.743 164.334 187.071C165.919 187.734 166.823 189.357 166.823 191.679V196.104H162.398V191.679C162.398 189.467 161.347 187.919 159.449 187.071C161.55 185.504 162.675 183.679 162.675 181.448Z" fill="black"/>
</g>
<mask id="mask2_5_206" style="mask-type:luminance" maskUnits="userSpaceOnUse" x="66" y="135" width="50" height="50">
<path d="M112 135H70C67.7909 135 66 136.791 66 139V181C66 183.209 67.7909 185 70 185H112C114.209 185 116 183.209 116 181V139C116 136.791 114.209 135 112 135Z" fill="white"/>
</mask>
<g mask="url(#mask2_5_206)">
<path d="M112 135H70C67.7909 135 66 136.791 66 139V181C66 183.209 67.7909 185 70 185H112C114.209 185 116 183.209 116 181V139C116 136.791 114.209 135 112 135Z" fill="#1E98FF"/>
<path d="M114.304 162.034H66.978V164.028H114.304V162.034Z" fill="white"/>
<path d="M66.7148 160.024L68.3817 159.705C68.4136 160.558 68.6848 160.973 69.251 160.973C69.7455 160.973 69.9688 160.75 69.9688 160.088V155.167H71.7075V159.681C71.7075 161.444 70.9817 162.169 69.2191 162.169C67.3848 162.169 66.8584 161.101 66.7148 160.024ZM72.7842 160.359V157.049H74.475V160.391C74.475 160.869 74.6983 161.061 75.0731 161.061C75.5676 161.061 75.8627 160.758 75.8627 160.064V157.049H77.5535V162.034H75.9425V160.686H75.9026C75.6553 161.85 75.105 162.154 74.3553 162.154C73.3026 162.154 72.7842 161.595 72.7842 160.359ZM78.4228 160.973L79.332 160.359C79.6351 160.917 80.1056 161.133 80.7277 161.133C81.1983 161.133 81.4056 160.997 81.4056 160.734C81.4056 160.431 81.2063 160.271 80.648 160.176L79.9541 160.04C79.013 159.873 78.5105 159.322 78.5105 158.549C78.5105 157.52 79.34 156.922 80.6081 156.922C81.8602 156.922 82.4584 157.44 82.7694 158.022L81.8842 158.589C81.6609 158.07 81.1983 157.903 80.7756 157.903C80.3369 157.903 80.1056 158.062 80.1056 158.317C80.1056 158.564 80.2971 158.708 80.7756 158.796L81.4854 158.931C82.5302 159.123 83.0406 159.545 83.0406 160.479C83.0406 161.356 82.4823 162.146 80.8314 162.146C79.6112 162.154 78.7897 161.691 78.4228 160.973ZM84.0375 160.694V158.046H83.3596V157.049H84.0375V155.741H85.7363V157.049H86.5578V158.046H85.7363V160.535C85.7363 160.862 85.8719 160.997 86.1191 160.997H86.5578V162.034H85.4492C84.3805 162.034 84.0375 161.699 84.0375 160.694ZM87.0842 157.049H88.9185L89.6044 160.191H89.6443L90.5216 157.049H91.9173L92.7627 160.191H92.8026L93.5602 157.049H94.9081L93.3609 162.034H91.9013L91.0161 158.899H90.9762L90.1308 162.034H88.6713L87.0842 157.049ZM95.0676 159.537C95.0676 157.942 96.1044 156.922 97.6596 156.922C99.2148 156.922 100.252 157.942 100.252 159.537C100.252 161.133 99.2148 162.154 97.6596 162.154C96.0964 162.154 95.0676 161.141 95.0676 159.537ZM98.4731 159.537C98.4731 158.253 98.194 157.91 97.6517 157.91C97.1093 157.91 96.8302 158.245 96.8302 159.537C96.8302 160.822 97.1093 161.164 97.6517 161.164C98.194 161.164 98.4731 160.83 98.4731 159.537ZM100.993 157.049H102.588V158.708H102.628C102.868 157.344 103.322 157.017 104.064 157.017H104.152V158.509H103.33C102.836 158.509 102.684 158.668 102.684 159.258V162.026H100.993V157.049ZM106.983 160.04L106.496 160.574V162.034H104.822V155.175H106.496V159.187L108.227 157.049H109.734L108.091 158.844L109.846 162.034H108.052L106.983 160.04ZM109.95 160.973L110.867 160.359C111.17 160.917 111.641 161.133 112.263 161.133C112.733 161.133 112.941 160.997 112.941 160.734C112.941 160.431 112.741 160.271 112.183 160.176L111.489 160.04C110.548 159.873 110.045 159.322 110.045 158.549C110.045 157.52 110.875 156.922 112.143 156.922C113.395 156.922 113.993 157.44 114.304 158.022L113.419 158.589C113.196 158.07 112.733 157.903 112.31 157.903C111.872 157.903 111.641 158.062 111.641 158.317C111.641 158.564 111.832 158.708 112.31 158.796L113.02 158.931C114.065 159.123 114.576 159.545 114.576 160.479C114.576 161.356 114.017 162.146 112.366 162.146C111.154 162.154 110.325 161.691 109.95 160.973Z" fill="black"/>
</g>
<mask id="mask3_5_206" style="mask-type:luminance" maskUnits="userSpaceOnUse" x="193" y="72" width="50" height="50">
<path d="M239 72H197C194.791 72 193 73.7909 193 76V118C193 120.209 194.791 122 197 122H239C241.209 122 243 120.209 243 118V76C243 73.7909 241.209 72 239 72Z" fill="white"/>
</mask>
<g mask="url(#mask3_5_206)">
<path d="M239 72H197C194.791 72 193 73.7909 193 76V118C193 120.209 194.791 122 197 122H239C241.209 122 243 120.209 243 118V76C243 73.7909 241.209 72 239 72Z" fill="#1AB4D7"/>
<mask id="mask4_5_206" style="mask-type:luminance" maskUnits="userSpaceOnUse" x="185" y="64" width="66" height="66">
<path d="M185.878 64.8215H250.164V129.107H185.878V64.8215Z" fill="white"/>
</mask>
<g mask="url(#mask4_5_206)">
<path d="M218 119.216C230.272 119.216 240.22 109.268 240.22 96.9961C240.22 84.7245 230.272 74.7763 218 74.7763C205.728 74.7763 195.78 84.7245 195.78 96.9961C195.78 109.268 205.728 119.216 218 119.216Z" fill="#1AB4D7"/>
<path d="M206.417 96.9319L210.209 93.1305C210.334 93.0023 210.404 92.8327 210.404 92.6528C210.404 92.2778 210.1 91.9733 209.725 91.9733C209.542 91.9733 209.371 92.0449 209.242 92.1756L205.453 95.9624L201.648 92.17C201.519 92.0432 201.349 91.9733 201.168 91.9733C200.793 91.9733 200.489 92.2777 200.489 92.6523C200.489 92.835 200.561 93.0064 200.692 93.1356L204.484 96.9266L200.694 100.723C200.561 100.854 200.489 101.026 200.489 101.21C200.489 101.585 200.793 101.889 201.168 101.889C201.349 101.889 201.519 101.818 201.648 101.69L205.447 97.8958L209.232 101.676C209.367 101.815 209.54 101.889 209.725 101.889C210.099 101.889 210.404 101.585 210.404 101.21C210.404 101.029 210.334 100.859 210.206 100.731L206.417 96.9319Z" fill="white"/>
<path d="M228.959 96.9309C228.959 97.6117 229.513 98.1655 230.195 98.1655C230.875 98.1655 231.429 97.6117 231.429 96.9309C231.429 96.2499 230.875 95.6962 230.195 95.6962C229.513 95.6962 228.959 96.2499 228.959 96.9309Z" fill="white"/>
<path d="M226.618 96.9315C226.618 94.96 228.222 93.3558 230.193 93.3558C232.164 93.3558 233.768 94.96 233.768 96.9315C233.768 98.9026 232.164 100.506 230.193 100.506C228.222 100.506 226.618 98.9026 226.618 96.9315ZM225.211 96.9315C225.211 99.6782 227.446 101.913 230.193 101.913C232.94 101.913 235.176 99.6782 235.176 96.9315C235.176 94.1844 232.94 91.9492 230.193 91.9492C227.446 91.9492 225.211 94.1844 225.211 96.9315Z" fill="white"/>
<path d="M224.858 92.0343L224.649 92.0337C224.022 92.0337 223.417 92.2316 222.911 92.6211C222.844 92.3163 222.572 92.087 222.247 92.087C221.874 92.087 221.575 92.3863 221.574 92.7605L221.576 101.152C221.577 101.525 221.882 101.829 222.255 101.829C222.629 101.829 222.934 101.525 222.935 101.151V95.9913C222.935 94.2717 223.092 93.5772 224.565 93.3931C224.701 93.3762 224.85 93.3788 224.85 93.3788C225.253 93.365 225.54 93.088 225.54 92.7137C225.54 92.3391 225.234 92.0343 224.858 92.0343Z" fill="white"/>
<path d="M211.811 96.1112C211.811 96.0926 211.813 96.0732 211.814 96.0541C212.208 94.4948 213.62 93.3409 215.302 93.3409C217.005 93.3409 218.43 94.5232 218.804 96.1112H211.811ZM220.195 95.9829C219.902 94.5967 219.144 93.4581 217.988 92.7269C216.299 91.6544 214.068 91.7137 212.436 92.8741C211.105 93.8209 210.337 95.3698 210.337 96.9653C210.337 97.3653 210.385 97.7691 210.486 98.1666C210.988 100.144 212.688 101.64 214.714 101.888C215.315 101.961 215.901 101.926 216.507 101.769C217.027 101.642 217.531 101.431 217.996 101.134C218.478 100.824 218.88 100.415 219.27 99.9264C219.278 99.9174 219.286 99.9095 219.294 99.9C219.564 99.5644 219.514 99.0871 219.217 98.8592C218.966 98.667 218.545 98.5891 218.214 99.0134C218.142 99.1148 218.063 99.2192 217.976 99.3236C217.712 99.6147 217.385 99.8968 216.994 100.115C216.495 100.382 215.927 100.534 215.323 100.537C213.347 100.515 212.29 99.1359 211.914 98.1513C211.848 97.9674 211.797 97.7767 211.762 97.5803C211.757 97.5436 211.754 97.5081 211.753 97.4755C212.161 97.4755 218.844 97.4743 218.844 97.4743C219.816 97.4539 220.34 96.7677 220.195 95.9829Z" fill="white"/>
</g>
</g>
<path d="M302 98H260C257.791 98 256 99.7909 256 102V144C256 146.209 257.791 148 260 148H302C304.209 148 306 146.209 306 144V102C306 99.7909 304.209 98 302 98Z" fill="black"/>
<mask id="mask5_5_206" style="mask-type:luminance" maskUnits="userSpaceOnUse" x="259" y="101" width="44" height="44">
<path d="M302.429 101.572H259.572V144.429H302.429V101.572Z" fill="white"/>
</mask>
<g mask="url(#mask5_5_206)">
<path d="M301.784 117.224C301.818 117.224 301.869 117.224 301.886 117.173C301.904 117.156 301.904 117.139 301.904 117.122C301.904 117.087 301.886 117.053 301.852 117.036C301.818 117.019 301.784 117.019 301.732 117.019H301.698V117.207H301.784M301.732 116.933C301.818 116.933 301.869 116.933 301.904 116.95C302.023 116.985 302.023 117.104 302.023 117.139C302.023 117.156 302.023 117.173 302.023 117.19C302.023 117.224 302.006 117.276 301.938 117.31C301.938 117.31 301.921 117.327 301.904 117.327L302.058 117.601H301.904L301.784 117.344H301.698V117.601H301.561V116.933H301.732ZM301.784 117.875C302.109 117.875 302.383 117.618 302.383 117.276C302.383 116.933 302.126 116.676 301.784 116.676C301.458 116.676 301.184 116.95 301.184 117.276C301.184 117.601 301.458 117.875 301.784 117.875ZM301.321 117.276C301.321 117.019 301.527 116.813 301.801 116.813C302.058 116.813 302.263 117.019 302.263 117.276C302.263 117.533 302.058 117.738 301.801 117.738C301.527 117.755 301.321 117.533 301.321 117.276ZM297.16 121.094C296.372 121.094 295.704 120.564 295.499 119.844H299.866L300.465 118.903H295.499C295.704 118.183 296.372 117.652 297.16 117.652H300.157L300.756 116.71H297.091C295.619 116.71 294.437 117.909 294.437 119.365C294.437 120.838 295.636 122.019 297.091 122.019H300.243L300.842 121.077H297.16M284.659 122.019H287.827L288.426 121.077H284.745C283.786 121.077 283.015 120.307 283.015 119.365C283.015 118.406 283.786 117.652 284.745 117.652H287.742L288.341 116.71H284.676C283.203 116.71 282.005 117.909 282.005 119.365C282.005 120.838 283.203 122.019 284.659 122.019ZM265.257 121.094H262.294C261.353 121.094 260.582 120.324 260.582 119.382C260.582 118.423 261.353 117.67 262.294 117.67H265.24C266.199 117.67 266.969 118.44 266.969 119.382C266.969 120.324 266.199 121.094 265.257 121.094ZM262.226 122.019H265.308C266.781 122.019 267.962 120.838 267.962 119.365C267.962 117.892 266.781 116.71 265.308 116.71H262.226C260.77 116.71 259.572 117.909 259.572 119.365C259.572 120.838 260.77 122.019 262.226 122.019ZM272.997 120.307C273.99 120.307 274.795 119.502 274.795 118.509C274.795 117.515 273.99 116.71 272.997 116.71H268.528V122.019H269.555V117.652H272.929C273.408 117.652 273.785 118.029 273.785 118.509C273.785 118.988 273.408 119.365 272.929 119.365H270.052L273.1 122.019H274.59L272.535 120.29H272.997M289.899 121.094V116.71H288.872V121.523C288.872 121.66 288.923 121.779 289.026 121.882C289.128 121.985 289.265 122.036 289.403 122.036H294.061L294.66 121.094H289.899ZM277.398 120.153H280.121L278.683 117.824L276.028 122.019H274.812L278.032 116.985C278.169 116.779 278.409 116.659 278.666 116.659C278.922 116.659 279.145 116.779 279.282 116.985L282.518 122.036H281.32L280.755 121.094H277.998L277.398 120.153Z" fill="white"/>
<path d="M260.068 125.222H261.421L263.064 128.664V125.222H263.939V129.605H262.653L260.959 125.957V129.588H260.068V125.222Z" fill="white"/>
<path d="M264.931 125.222H267.86V125.941H265.873V126.986H267.74V127.705H265.873V128.886H267.929V129.605H264.931V125.222Z" fill="white"/>
<path d="M269.743 125.941H268.442V125.222H272.004V125.941H270.702V129.605H269.761V125.941H269.743Z" fill="white"/>
<path d="M273.134 128.321C273.151 128.629 273.185 129.194 274.196 129.194C275.103 129.194 275.223 128.629 275.223 128.407C275.223 127.91 274.829 127.824 274.213 127.67C273.545 127.499 273.254 127.431 273.031 127.276C272.672 127.037 272.569 126.711 272.569 126.42C272.569 125.53 273.408 125.136 274.23 125.136C274.521 125.136 275.103 125.187 275.463 125.564C275.703 125.838 275.72 126.129 275.737 126.318H275.103C275.069 125.769 274.607 125.65 274.179 125.65C273.579 125.65 273.202 125.924 273.202 126.352C273.202 126.746 273.459 126.865 273.99 127.002C275.035 127.276 275.155 127.294 275.412 127.465C275.823 127.739 275.84 128.15 275.84 128.338C275.84 129.109 275.24 129.708 274.11 129.708C273.785 129.708 273.1 129.657 272.757 129.211C272.5 128.886 272.5 128.544 272.5 128.321H273.134Z" fill="white"/>
<path d="M277.415 125.222V127.927C277.415 128.39 277.518 128.595 277.604 128.715C277.878 129.075 278.306 129.143 278.597 129.143C279.779 129.143 279.779 128.219 279.779 127.893V125.222H280.361V127.927C280.361 128.167 280.361 128.647 280.001 129.092C279.573 129.64 278.905 129.691 278.58 129.691C278.169 129.691 277.433 129.571 277.039 128.989C276.902 128.801 276.782 128.544 276.782 127.893V125.222H277.415Z" fill="white"/>
<path d="M281.628 129.605H282.227V125.222H281.628V129.605Z" fill="white"/>
<path d="M284.591 129.605V125.735H283.117V125.222H286.645V125.735H285.173V129.605H284.591Z" fill="white"/>
<path d="M287.382 125.222H290.122V125.735H287.982V127.105H290.019V127.619H287.982V129.075H290.173V129.605H287.382V125.222Z" fill="white"/>
</g>
<path d="M240 135H198C195.791 135 194 136.791 194 139V181C194 183.209 195.791 185 198 185H240C242.209 185 244 183.209 244 181V139C244 136.791 242.209 135 240 135Z" fill="#F45D48"/>
<path d="M233.852 155.116C231.515 155.116 229.613 157.018 229.613 159.368C229.613 161.711 231.515 163.62 233.852 163.62C236.183 163.62 238.085 161.711 238.085 159.368C238.085 157.018 236.183 155.116 233.852 155.116ZM233.852 161.604C232.624 161.604 231.622 160.603 231.622 159.368C231.622 158.133 232.624 157.132 233.852 157.132C235.081 157.132 236.082 158.133 236.082 159.368C236.076 160.603 235.074 161.604 233.852 161.604ZM221.38 158.505L220.643 158.133C220.321 157.976 220.12 157.85 220.038 157.755C219.962 157.673 219.918 157.566 219.918 157.453C219.918 157.308 219.981 157.188 220.107 157.094C220.233 156.999 220.41 156.949 220.643 156.949C221.058 156.949 221.518 157.201 222.028 157.705L223.276 156.451C222.967 156.029 222.564 155.696 222.104 155.456C221.651 155.229 221.14 155.11 220.63 155.11C219.868 155.11 219.238 155.336 218.747 155.79C218.255 156.244 218.01 156.792 218.01 157.428C218.01 158.417 218.658 159.242 219.962 159.903L220.643 160.244C221.228 160.54 221.518 160.842 221.518 161.157C221.518 161.327 221.436 161.472 221.279 161.604C221.115 161.73 220.901 161.793 220.636 161.793C220.391 161.793 220.107 161.705 219.792 161.535C219.477 161.365 219.194 161.138 218.961 160.861L217.72 162.221C218.419 163.141 219.358 163.607 220.529 163.607C221.411 163.607 222.117 163.368 222.64 162.883C223.162 162.404 223.427 161.806 223.427 161.088C223.427 160.546 223.282 160.08 222.992 159.677C222.69 159.286 222.154 158.895 221.38 158.505ZM208.806 162.694V155.28H206.797V155.777C206.123 155.343 205.329 155.11 204.529 155.11C202.198 155.11 200.296 157.012 200.296 159.362C200.296 161.705 202.198 163.614 204.529 163.614C205.323 163.614 206.104 163.393 206.778 162.965C206.778 163.028 206.778 163.085 206.778 163.129C206.778 164.363 205.776 165.365 204.548 165.365C204.132 165.365 203.723 165.245 203.37 165.025L202.375 166.776C203.03 167.173 203.786 167.387 204.554 167.387C206.891 167.387 208.819 165.478 208.819 163.135C208.806 163.047 208.813 162.782 208.806 162.694ZM204.523 161.604C203.294 161.604 202.293 160.603 202.293 159.368C202.293 158.133 203.294 157.132 204.523 157.132C205.751 157.132 206.753 158.133 206.753 159.368C206.753 160.603 205.751 161.604 204.523 161.604ZM216.813 155.28H214.791V159.324C214.791 159.897 214.791 160.892 214.369 161.314C214.167 161.516 213.946 161.699 213.48 161.699C213.014 161.699 212.794 161.516 212.592 161.314C212.17 160.892 212.17 159.897 212.176 159.324V155.28H210.161V159.311C210.154 160.143 210.148 161.686 211.156 162.713C211.748 163.311 212.454 163.62 213.48 163.62C214.507 163.62 215.213 163.318 215.805 162.713C216.819 161.686 216.806 160.143 216.8 159.311L216.813 155.28ZM228.258 161.245C228.095 161.371 227.704 161.642 227.263 161.579C226.898 161.529 226.602 161.264 226.558 160.369V157.012H228.933V155.273H226.558V153.012H224.542V153.459V160.105C224.542 161.163 224.806 163.62 227.263 163.62C228.504 163.601 229.254 162.927 229.569 162.662L229.613 162.631L228.403 161.138C228.397 161.138 228.315 161.207 228.258 161.245Z" fill="white"/>
<path d="M175 98H133C130.791 98 129 99.7909 129 102V144C129 146.209 130.791 148 133 148H175C177.209 148 179 146.209 179 144V102C179 99.7909 177.209 98 175 98Z" fill="#50FAAB"/>
<mask id="mask6_5_206" style="mask-type:luminance" maskUnits="userSpaceOnUse" x="132" y="101" width="44" height="44">
<path d="M176 101H132V145H176V101Z" fill="white"/>
</mask>
<g mask="url(#mask6_5_206)">
<path d="M154 145C166.15 145 176 135.15 176 123C176 110.85 166.15 101 154 101C141.85 101 132 110.85 132 123C132 135.15 141.85 145 154 145Z" fill="#50FAAB"/>
<path d="M150.7 109.8L144.1 116.4H150.7V123L144.1 129.6H150.7V136.2L157.3 129.6H150.7V123L157.3 116.4H150.7V109.8Z" fill="white"/>
<path fill-rule="evenodd" clip-rule="evenodd" d="M157.3 129.6C158.6 129.6 159.888 129.344 161.089 128.847C162.29 128.349 163.381 127.62 164.3 126.7C165.22 125.781 165.949 124.69 166.447 123.489C166.944 122.288 167.2 121 167.2 119.7C167.2 118.4 166.944 117.113 166.447 115.912C165.949 114.71 165.22 113.619 164.3 112.7C163.381 111.78 162.29 111.051 161.089 110.554C159.888 110.056 158.6 109.8 157.3 109.8H150.7V116.4H144.1V123H150.7V129.6H144.1V136.2H150.7V129.6H157.3ZM157.3 123V116.4H150.7V123H157.3Z" fill="#211F35"/>
</g>
<path d="M303 162H261C258.791 162 257 163.791 257 166V208C257 210.209 258.791 212 261 212H303C305.209 212 307 210.209 307 208V166C307 163.791 305.209 162 303 162Z" fill="#1B1B1B"/>
<mask id="mask7_5_206" style="mask-type:luminance" maskUnits="userSpaceOnUse" x="261" y="179" width="42" height="15">
<path d="M303 179H261V194H303V179Z" fill="white"/>
</mask>
<g mask="url(#mask7_5_206)">
<path d="M295.433 193.652C295.403 193.652 295.374 193.64 295.353 193.619C295.332 193.597 295.32 193.569 295.32 193.539V179.913C295.32 179.859 295.358 179.813 295.41 179.802L297.759 179.31C297.775 179.307 297.792 179.307 297.808 179.311C297.824 179.315 297.84 179.323 297.853 179.333C297.866 179.344 297.876 179.358 297.883 179.373C297.89 179.388 297.894 179.405 297.894 179.421V193.539C297.894 193.569 297.882 193.597 297.861 193.619C297.84 193.64 297.811 193.652 297.782 193.652H295.433ZM265.907 193.94C264.968 193.94 264.13 193.709 263.393 193.248C262.656 192.786 262.073 192.155 261.644 191.354C261.215 190.554 261 189.644 261 188.626C261 187.608 261.215 186.706 261.644 185.919C262.073 185.118 262.656 184.493 263.393 184.046C264.13 183.584 264.968 183.353 265.907 183.353C266.657 183.353 267.314 183.496 267.877 183.781C268.329 184.009 268.711 184.312 269.025 184.689C269.096 184.774 269.245 184.726 269.245 184.614V179.668C269.245 179.614 269.282 179.568 269.334 179.557L271.683 179.065C271.7 179.062 271.717 179.062 271.733 179.066C271.749 179.07 271.764 179.078 271.777 179.088C271.79 179.099 271.801 179.112 271.808 179.127C271.815 179.143 271.819 179.159 271.819 179.176V193.582C271.819 193.612 271.807 193.641 271.786 193.662C271.765 193.683 271.736 193.695 271.706 193.695H269.619C269.593 193.695 269.568 193.686 269.547 193.67C269.527 193.653 269.514 193.63 269.509 193.604L269.295 192.506C269.276 192.409 269.149 192.38 269.086 192.456C268.786 192.82 268.41 193.145 267.958 193.431C267.435 193.77 266.751 193.94 265.907 193.94ZM266.45 191.66C267.281 191.66 267.958 191.381 268.481 190.825C269.017 190.255 269.285 189.529 269.285 188.647C269.285 187.764 269.017 187.045 268.481 186.489C267.958 185.919 267.281 185.633 266.45 185.633C265.632 185.633 264.955 185.912 264.418 186.468C263.882 187.025 263.614 187.744 263.614 188.626C263.614 189.509 263.882 190.235 264.418 190.805C264.955 191.375 265.632 191.66 266.45 191.66ZM278.095 193.941C277.09 193.941 276.198 193.724 275.421 193.29C274.643 192.856 274.033 192.245 273.591 191.458C273.148 190.67 272.927 189.761 272.927 188.73C272.927 187.685 273.142 186.755 273.571 185.941C274.013 185.126 274.616 184.495 275.38 184.047C276.158 183.586 277.07 183.355 278.115 183.355C279.094 183.355 279.958 183.572 280.709 184.006C281.46 184.441 282.043 185.038 282.459 185.798C282.888 186.544 283.102 187.379 283.102 188.302C283.102 188.451 283.096 188.608 283.082 188.77C283.082 188.901 283.078 189.036 283.069 189.175C283.067 189.203 283.055 189.23 283.034 189.249C283.013 189.269 282.986 189.28 282.958 189.279H275.601C275.586 189.279 275.571 189.282 275.557 189.289C275.543 189.295 275.53 189.304 275.519 189.315C275.509 189.327 275.501 189.34 275.496 189.355C275.491 189.369 275.49 189.385 275.491 189.4C275.563 190.13 275.828 190.707 276.285 191.132C276.781 191.58 277.378 191.804 278.075 191.804C278.598 191.804 279.034 191.689 279.382 191.458C279.723 191.228 279.981 190.937 280.155 190.586C280.175 190.547 280.215 190.521 280.258 190.521H282.65C282.667 190.521 282.685 190.525 282.7 190.533C282.716 190.541 282.729 190.552 282.74 190.566C282.75 190.58 282.757 190.597 282.76 190.614C282.762 190.631 282.761 190.649 282.756 190.666C282.564 191.247 282.264 191.783 281.856 192.272C281.427 192.788 280.89 193.195 280.247 193.494C279.617 193.792 278.899 193.941 278.095 193.941ZM278.115 185.472C277.485 185.472 276.929 185.655 276.446 186.022C275.993 186.353 275.694 186.852 275.548 187.518C275.544 187.534 275.545 187.55 275.549 187.567C275.552 187.583 275.56 187.598 275.57 187.61C275.581 187.623 275.594 187.633 275.609 187.64C275.624 187.647 275.64 187.651 275.656 187.651H280.368C280.433 187.651 280.485 187.596 280.478 187.531C280.418 186.922 280.18 186.432 279.764 186.063C279.322 185.669 278.772 185.472 278.115 185.472ZM289.292 193.942C288.287 193.942 287.396 193.725 286.618 193.29C285.84 192.856 285.23 192.245 284.788 191.458C284.346 190.671 284.125 189.761 284.125 188.73C284.125 187.685 284.339 186.755 284.768 185.941C285.21 185.126 285.814 184.495 286.578 184.047C287.355 183.586 288.267 183.355 289.313 183.355C290.291 183.355 291.156 183.572 291.907 184.006C292.657 184.441 293.24 185.038 293.656 185.798C294.085 186.545 294.3 187.379 294.3 188.302C294.3 188.452 294.293 188.608 294.28 188.771C294.28 188.901 294.275 189.036 294.267 189.175C294.265 189.203 294.252 189.23 294.232 189.25C294.211 189.269 294.184 189.28 294.155 189.28H286.799C286.783 189.28 286.768 189.283 286.754 189.289C286.74 189.295 286.727 189.304 286.717 189.315C286.707 189.327 286.699 189.34 286.694 189.355C286.689 189.369 286.687 189.385 286.688 189.4C286.76 190.13 287.025 190.707 287.483 191.132C287.979 191.58 288.575 191.804 289.272 191.804C289.795 191.804 290.231 191.689 290.58 191.458C290.92 191.228 291.178 190.937 291.353 190.587C291.372 190.547 291.412 190.521 291.456 190.521H293.847C293.923 190.521 293.977 190.594 293.953 190.666C293.762 191.248 293.462 191.783 293.053 192.272C292.624 192.788 292.088 193.195 291.444 193.494C290.814 193.792 290.097 193.942 289.292 193.942ZM289.313 185.472C288.683 185.472 288.126 185.656 287.644 186.022C287.191 186.353 286.891 186.852 286.745 187.518C286.742 187.534 286.742 187.551 286.746 187.567C286.75 187.583 286.757 187.598 286.768 187.61C286.778 187.623 286.791 187.634 286.806 187.641C286.821 187.647 286.837 187.651 286.854 187.651H291.566C291.631 187.651 291.682 187.596 291.676 187.531C291.615 186.922 291.377 186.432 290.962 186.063C290.519 185.669 289.97 185.472 289.313 185.472Z" fill="white"/>
<path d="M301.267 193.655C302.224 193.655 303 192.869 303 191.9C303 190.931 302.224 190.146 301.267 190.146C300.31 190.146 299.534 190.931 299.534 191.9C299.534 192.869 300.31 193.655 301.267 193.655Z" fill="white"/>
</g>
</g>
</g>
</g>
<defs>
<filter id="filter0_dddddi_5_206" x="42" y="72" width="289" height="188" filterUnits="userSpaceOnUse" color-interpolation-filters="sRGB">
<feFlood flood-opacity="0" result="BackgroundImageFix"/>
<feColorMatrix in="SourceAlpha" type="matrix" values="0 0 0 0 0 0 0 0 0 0 0 0 0 0 0 0 0 0 127 0" result="hardAlpha"/>
<feOffset dy="1"/>
<feGaussianBlur stdDeviation="0.5"/>
<feComposite in2="hardAlpha" operator="out"/>
<feColorMatrix type="matrix" values="0 0 0 0 0.164706 0 0 0 0 0.2 0 0 0 0 0.270588 0 0 0 0.0392 0"/>
<feBlend mode="normal" in2="BackgroundImageFix" result="effect1_dropShadow_5_206"/>
<feColorMatrix in="SourceAlpha" type="matrix" values="0 0 0 0 0 0 0 0 0 0 0 0 0 0 0 0 0 0 127 0" result="hardAlpha"/>
<feOffset dy="3"/>
<feGaussianBlur stdDeviation="1.5"/>
<feComposite in2="hardAlpha" operator="out"/>
<feColorMatrix type="matrix" values="0 0 0 0 0.164706 0 0 0 0 0.2 0 0 0 0 0.27451 0 0 0 0.0392 0"/>
<feBlend mode="normal" in2="effect1_dropShadow_5_206" result="effect2_dropShadow_5_206"/>
<feColorMatrix in="SourceAlpha" type="matrix" values="0 0 0 0 0 0 0 0 0 0 0 0 0 0 0 0 0 0 127 0" result="hardAlpha"/>
<feOffset dy="6"/>
<feGaussianBlur stdDeviation="3"/>
<feComposite in2="hardAlpha" operator="out"/>
<feColorMatrix type="matrix" values="0 0 0 0 0.164706 0 0 0 0 0.2 0 0 0 0 0.27451 0 0 0 0.0392 0"/>
<feBlend mode="normal" in2="effect2_dropShadow_5_206" result="effect3_dropShadow_5_206"/>
<feColorMatrix in="SourceAlpha" type="matrix" values="0 0 0 0 0 0 0 0 0 0 0 0 0 0 0 0 0 0 127 0" result="hardAlpha"/>
<feOffset dy="12"/>
<feGaussianBlur stdDeviation="6"/>
<feComposite in2="hardAlpha" operator="out"/>
<feColorMatrix type="matrix" values="0 0 0 0 0.164706 0 0 0 0 0.2 0 0 0 0 0.27451 0 0 0 0.0392 0"/>
<feBlend mode="normal" in2="effect3_dropShadow_5_206" result="effect4_dropShadow_5_206"/>
<feColorMatrix in="SourceAlpha" type="matrix" values="0 0 0 0 0 0 0 0 0 0 0 0 0 0 0 0 0 0 127 0" result="hardAlpha"/>
<feOffset dy="24"/>
<feGaussianBlur stdDeviation="12"/>
<feComposite in2="hardAlpha" operator="out"/>
<feColorMatrix type="matrix" values="0 0 0 0 0.164706 0 0 0 0 0.2 0 0 0 0 0.27451 0 0 0 0.0392 0"/>
<feBlend mode="normal" in2="effect4_dropShadow_5_206" result="effect5_dropShadow_5_206"/>
<feBlend mode="normal" in="SourceGraphic" in2="effect5_dropShadow_5_206" result="shape"/>
<feColorMatrix in="SourceAlpha" type="matrix" values="0 0 0 0 0 0 0 0 0 0 0 0 0 0 0 0 0 0 127 0" result="hardAlpha"/>
<feOffset/>
<feGaussianBlur stdDeviation="2"/>
<feComposite in2="hardAlpha" operator="arithmetic" k2="-1" k3="1"/>
<feColorMatrix type="matrix" values="0 0 0 0 0.054902 0 0 0 0 0.247059 0 0 0 0 0.494118 0 0 0 0.0392 0"/>
<feBlend mode="normal" in2="shape" result="effect6_innerShadow_5_206"/>
</filter>
<clipPath id="clip0_5_206">
<rect width="372" height="320" fill="white"/>
</clipPath>
<clipPath id="clip1_5_206">
<rect width="265" height="177" fill="white" transform="translate(54 71)"/>
</clipPath>
</defs>
</svg>
