<svg width="372" height="320" viewBox="0 0 372 320" fill="none" xmlns="http://www.w3.org/2000/svg">
<g clip-path="url(#clip0_4_189)">
<path d="M366.667 0H12C7.58172 0 4 3.58172 4 8V312C4 316.418 7.58172 320 12 320H366.667C371.085 320 374.667 316.418 374.667 312V8C374.667 3.58172 371.085 0 366.667 0Z" fill="#F6F6F6"/>
<g clip-path="url(#clip1_4_189)">
<path d="M339.466 22H154.666C152.992 22 151.636 23.5853 151.636 25.5408V292.869C151.636 294.825 152.992 296.41 154.666 296.41H339.466C341.139 296.41 342.495 294.825 342.495 292.869V25.5408C342.495 23.5853 341.139 22 339.466 22Z" fill="white"/>
<path d="M151.636 26.721C151.636 24.1137 153.445 22 155.675 22H338.456C340.686 22 342.495 24.1137 342.495 26.721V85.7339H151.636V26.721Z" fill="#DCE9FA"/>
<path d="M162.069 44.4249V36.6126H163.314V44.4249H162.069ZM165.981 38.8666V39.8076C166.206 39.173 166.758 38.7353 167.479 38.7353C168.565 38.7353 169.22 39.5232 169.22 40.858V44.4249H168.022V41.1863C168.022 40.3 167.694 39.8404 167.067 39.8404C166.468 39.8404 166 40.289 166 41.4051V44.4249H164.801V38.8666H165.981ZM171.854 44.4249L169.982 38.8666H171.19L172.509 43.0572H172.528L173.82 38.8666H174.99L173.165 44.4249H171.854ZM180.229 41.6457C180.229 43.4511 179.227 44.5561 177.823 44.5561C176.418 44.5561 175.417 43.4511 175.417 41.6457C175.417 39.8514 176.418 38.7353 177.823 38.7353C179.227 38.7353 180.229 39.8514 180.229 41.6457ZM176.615 41.6457C176.615 42.8165 177.046 43.5168 177.823 43.5168C178.591 43.5168 179.031 42.8165 179.031 41.6457C179.031 40.486 178.591 39.7748 177.823 39.7748C177.046 39.7748 176.615 40.486 176.615 41.6457ZM181.32 37.9257V36.558H182.594V37.9257H181.32ZM181.358 44.4249V38.8666H182.556V44.4249H181.358ZM183.69 41.6457C183.69 39.8514 184.683 38.7353 186.078 38.7353C187.257 38.7353 188.015 39.534 188.147 40.7705H187.014C186.921 40.1686 186.612 39.7858 186.068 39.7858C185.31 39.7858 184.889 40.5188 184.889 41.6457C184.889 42.7836 185.31 43.5058 186.068 43.5058C186.612 43.5058 186.921 43.112 187.014 42.5211H188.147C188.015 43.7684 187.257 44.5561 186.078 44.5561C184.683 44.5561 183.69 43.4511 183.69 41.6457ZM193.451 42.6962C193.245 43.8888 192.394 44.5561 191.307 44.5561C189.922 44.5561 188.902 43.473 188.902 41.6567C188.902 39.8404 189.941 38.7353 191.279 38.7353C192.768 38.7353 193.48 40.0592 193.48 41.5363V41.9849H190.062C190.137 42.9696 190.568 43.5277 191.307 43.5277C191.851 43.5277 192.188 43.2322 192.347 42.6962H193.451ZM191.279 39.7748C190.652 39.7748 190.231 40.2234 190.1 41.0768H192.337C192.337 40.3875 192 39.7748 191.279 39.7748Z" fill="#021732"/>
<path d="M166.509 73.131L167.236 69.7696H164.958L164.231 73.131H162.744L163.471 69.7696H161.613L161.904 68.24H163.795L164.312 65.8229H162.356L162.647 64.2744H164.651L165.378 60.8941H166.864L166.137 64.2744H168.416L169.143 60.8941H170.629L169.902 64.2744H171.76L171.485 65.8229H169.563L169.046 68.24H171.017L170.726 69.7696H168.722L167.995 73.131H166.509ZM165.281 68.24H167.559L168.076 65.8229H165.798L165.281 68.24ZM180.926 60.4031V68.5988H183.221V70.5061H180.926V73.8864H178.874V70.5061H173.155V68.5799L178.6 60.4031H180.926ZM178.874 62.7447L175.045 68.5988H178.874V62.7447ZM192.538 64.2555C192.538 66.7104 190.923 67.8434 189.032 69.0898C187.594 70.0718 186.56 70.9404 186.528 71.9035H192.603V73.8864H184.185V72.9233C184.185 70.2984 186.156 68.6744 187.885 67.4658C189.485 66.3327 190.519 65.5585 190.519 64.2366C190.519 63.0847 189.937 62.1216 188.58 62.1216C187.255 62.1216 186.479 63.3113 186.399 64.7087H184.347C184.492 62.216 185.979 60.1765 188.596 60.1765C191.068 60.1765 192.538 61.9894 192.538 64.2555ZM198.319 66.6915C197.301 66.6915 196.622 67.2769 196.267 67.9379H194.344L195.007 60.4031H201.922V62.3859H196.541L196.234 65.8984C196.671 65.3319 197.576 64.8031 198.658 64.8031C201.049 64.8031 202.584 66.8048 202.584 69.4486C202.584 72.0546 200.985 74.113 198.319 74.113C195.717 74.113 194.053 72.3945 193.875 69.7885H196.008C196.105 71.2048 196.962 72.2246 198.319 72.2246C199.805 72.2246 200.532 70.9404 200.532 69.4675C200.532 67.9756 199.821 66.6915 198.319 66.6915ZM209.774 69.1087V60.4031H211.907V69.0331C211.907 72.1301 210.308 74.113 207.625 74.113C205.234 74.113 203.554 72.5078 203.505 69.713H205.541C205.59 71.4125 206.43 72.2623 207.625 72.2623C209.096 72.2623 209.774 71.0915 209.774 69.1087ZM216.892 60.4031L222.321 69.9585H222.353V60.4031H224.389V73.8864H222.401L216.472 63.4434H216.439V73.8864H214.387V60.4031H216.892Z" fill="#021732"/>
<path d="M259.941 110.519H162.239C161.403 110.519 160.725 111.312 160.725 112.29V115.83C160.725 116.808 161.403 117.601 162.239 117.601H259.941C260.778 117.601 261.456 116.808 261.456 115.83V112.29C261.456 111.312 260.778 110.519 259.941 110.519Z" fill="#F6F6F6"/>
<path d="M274.331 128.223H162.239C161.403 128.223 160.725 129.016 160.725 129.994V133.534C160.725 134.512 161.403 135.305 162.239 135.305H274.331C275.168 135.305 275.846 134.512 275.846 133.534V129.994C275.846 129.016 275.168 128.223 274.331 128.223Z" fill="#F6F6F6"/>
<path d="M242.521 145.927H162.239C161.403 145.927 160.725 146.72 160.725 147.697V151.238C160.725 152.216 161.403 153.009 162.239 153.009H242.521C243.358 153.009 244.036 152.216 244.036 151.238V147.697C244.036 146.72 243.358 145.927 242.521 145.927Z" fill="#F6F6F6"/>
<path d="M331.892 110.519H313.715C312.878 110.519 312.2 111.312 312.2 112.29V115.83C312.2 116.808 312.878 117.601 313.715 117.601H331.892C332.728 117.601 333.407 116.808 333.407 115.83V112.29C333.407 111.312 332.728 110.519 331.892 110.519Z" fill="#F6F6F6"/>
<path d="M331.892 128.223H310.685C309.849 128.223 309.171 129.016 309.171 129.994V133.534C309.171 134.512 309.849 135.305 310.685 135.305H331.892C332.728 135.305 333.407 134.512 333.407 133.534V129.994C333.407 129.016 332.728 128.223 331.892 128.223Z" fill="#F6F6F6"/>
<path d="M331.892 145.927H317.502C316.665 145.927 315.987 146.72 315.987 147.697V151.238C315.987 152.216 316.665 153.009 317.502 153.009H331.892C332.728 153.009 333.407 152.216 333.407 151.238V147.697C333.407 146.72 332.728 145.927 331.892 145.927Z" fill="#F6F6F6"/>
<path d="M331.892 275.165H317.502C316.665 275.165 315.987 275.958 315.987 276.936V280.476C315.987 281.454 316.665 282.247 317.502 282.247H331.892C332.728 282.247 333.407 281.454 333.407 280.476V276.936C333.407 275.958 332.728 275.165 331.892 275.165Z" fill="#F6F6F6"/>
<path d="M259.941 275.165H162.239C161.403 275.165 160.725 275.958 160.725 276.936V280.476C160.725 281.454 161.403 282.247 162.239 282.247H259.941C260.778 282.247 261.456 281.454 261.456 280.476V276.936C261.456 275.958 260.778 275.165 259.941 275.165Z" fill="#F6F6F6"/>
<path d="M133.459 267.199H38.0295C36.3564 267.199 35 268.784 35 270.739V292.869C35 294.825 36.3564 296.41 38.0295 296.41H133.459C135.132 296.41 136.489 294.825 136.489 292.869V270.739C136.489 268.784 135.132 267.199 133.459 267.199Z" fill="#021C3F"/>
<path d="M132.449 85.7339H39.0393C36.8085 85.7339 35 87.8476 35 90.4549V137.665C35 140.273 36.8085 142.386 39.0393 142.386H132.449C134.68 142.386 136.489 140.273 136.489 137.665V90.4549C136.489 87.8476 134.68 85.7339 132.449 85.7339Z" fill="white"/>
<path d="M42.3996 98.2033C42.3996 99.6462 42.9449 100.549 43.9219 100.549C44.6944 100.549 45.0504 100.036 45.1564 99.3895H46.1334C45.9441 100.62 45.217 101.479 43.9219 101.479C42.4071 101.479 41.3771 100.168 41.3771 98.2033C41.3771 96.2559 42.4071 94.9458 43.9219 94.9458C45.217 94.9458 45.9441 95.7956 46.1334 97.0349H45.1564C45.0504 96.3887 44.6944 95.8753 43.9219 95.8753C42.9449 95.8753 42.3996 96.7693 42.3996 98.2033ZM50.5493 99.1239C50.5493 100.584 49.739 101.479 48.6029 101.479C47.4668 101.479 46.6564 100.584 46.6564 99.1239C46.6564 97.6722 47.4668 96.7693 48.6029 96.7693C49.739 96.7693 50.5493 97.6722 50.5493 99.1239ZM47.6259 99.1239C47.6259 100.071 47.9743 100.638 48.6029 100.638C49.2239 100.638 49.5799 100.071 49.5799 99.1239C49.5799 98.1856 49.2239 97.6102 48.6029 97.6102C47.9743 97.6102 47.6259 98.1856 47.6259 99.1239ZM52.3565 101.372H51.3871V94.8573H52.3565V101.372ZM57.0915 99.1239C57.0915 100.584 56.2811 101.479 55.145 101.479C54.0089 101.479 53.1985 100.584 53.1985 99.1239C53.1985 97.6722 54.0089 96.7693 55.145 96.7693C56.2811 96.7693 57.0915 97.6722 57.0915 99.1239ZM54.168 99.1239C54.168 100.071 54.5164 100.638 55.145 100.638C55.7661 100.638 56.122 100.071 56.122 99.1239C56.122 98.1856 55.7661 97.6102 55.145 97.6102C54.5164 97.6102 54.168 98.1856 54.168 99.1239ZM60.3528 96.8313V97.8758C60.2392 97.8492 60.1029 97.8404 59.9817 97.8404C59.391 97.8404 58.8987 98.3184 58.8987 99.2921V101.372H57.9292V96.8755H58.8835V97.8847C59.0653 97.1853 59.5121 96.7959 60.065 96.7959C60.1635 96.7959 60.2695 96.8047 60.3528 96.8313Z" fill="#36373A"/>
<path d="M41.059 113.175V133.534C41.059 134.512 41.7372 135.305 42.5738 135.305H66.0525C66.889 135.305 67.5672 134.512 67.5672 133.534V113.175C67.5672 112.197 66.889 111.405 66.0525 111.405H42.5738C41.7372 111.405 41.059 112.197 41.059 113.175Z" fill="#DCE9FA"/>
<path d="M72.1115 113.175V133.534C72.1115 134.512 72.7897 135.305 73.6262 135.305H97.1049C97.9415 135.305 98.6197 134.512 98.6197 133.534V113.175C98.6197 112.197 97.9415 111.405 97.1049 111.405H73.6262C72.7897 111.405 72.1115 112.197 72.1115 113.175Z" fill="#3C82F6"/>
<path d="M103.921 113.175V133.534C103.921 134.512 104.6 135.305 105.436 135.305H128.915C129.751 135.305 130.43 134.512 130.43 133.534V113.175C130.43 112.197 129.751 111.405 128.915 111.405H105.436C104.6 111.405 103.921 112.197 103.921 113.175Z" fill="#021732"/>
<path d="M132.449 22H39.0393C36.8085 22 35 24.1137 35 26.721V73.9313C35 76.5387 36.8085 78.6524 39.0393 78.6524H132.449C134.68 78.6524 136.489 76.5387 136.489 73.9313V26.721C136.489 24.1137 134.68 22 132.449 22Z" fill="white"/>
<path d="M129.04 72.2347H42.4488C41.7858 72.2347 41.2484 71.6065 41.2484 70.8317V51.0653C41.2484 50.2905 41.7858 49.6623 42.4488 49.6623H129.04C129.703 49.6623 130.24 50.2905 130.24 51.0653V70.8317C130.24 71.6065 129.703 72.2347 129.04 72.2347Z" fill="#1366D1" fill-opacity="0.1"/>
<path d="M129.04 72.2347H42.4488C41.7858 72.2347 41.2484 71.6065 41.2484 70.8317V51.0653C41.2484 50.2905 41.7858 49.6623 42.4488 49.6623H129.04C129.703 49.6623 130.24 50.2905 130.24 51.0653V70.8317C130.24 71.6065 129.703 72.2347 129.04 72.2347Z" stroke="#3C82F6" stroke-width="0.375" stroke-dasharray="0.69 0.69"/>
<path d="M133.847 62.8524L126.464 54.0979C126.051 53.6088 126.312 52.7791 126.897 52.7188L137.413 51.6349C138.054 51.5688 138.421 52.4689 137.973 53.0091L134.779 56.8608C134.636 57.0324 134.566 57.2687 134.586 57.5066L134.898 61.1572L135.029 62.1599C135.13 62.9382 134.32 63.413 133.847 62.8524Z" fill="#2563EB"/>
<path d="M41.6725 37.6384V31.3181H42.6798V36.709H45.4669V37.6384H41.6725ZM49.8763 35.39C49.8763 36.8506 49.0659 37.7446 47.9298 37.7446C46.7938 37.7446 45.9834 36.8506 45.9834 35.39C45.9834 33.9383 46.7938 33.0354 47.9298 33.0354C49.0659 33.0354 49.8763 33.9383 49.8763 35.39ZM46.9528 35.39C46.9528 36.3372 47.3012 36.9037 47.9298 36.9037C48.5509 36.9037 48.9069 36.3372 48.9069 35.39C48.9069 34.4517 48.5509 33.8763 47.9298 33.8763C47.3012 33.8763 46.9528 34.4517 46.9528 35.39ZM53.3796 37.3374V36.7001C53.1978 37.1338 52.7737 37.5233 52.1602 37.5233C51.1454 37.5233 50.4637 36.6204 50.4637 35.2749C50.4637 33.956 51.1454 33.0354 52.1602 33.0354C52.7737 33.0354 53.213 33.4426 53.3948 33.8763V33.1416H54.3491V37.1958C54.3491 38.6652 53.5387 39.3203 52.395 39.3203C51.3574 39.3203 50.6909 38.8157 50.547 37.9217H51.5089C51.6149 38.3643 51.9482 38.5236 52.395 38.5236C53.0085 38.5236 53.3796 38.1518 53.3796 37.3374ZM53.4175 35.3635V35.1776C53.4175 34.3809 53.0085 33.8586 52.4177 33.8586C51.7967 33.8586 51.4332 34.4163 51.4332 35.2749C51.4332 36.1247 51.7967 36.6913 52.4177 36.6913C53.0085 36.6913 53.4175 36.169 53.4175 35.3635ZM59.0885 35.39C59.0885 36.8506 58.2781 37.7446 57.1421 37.7446C56.006 37.7446 55.1956 36.8506 55.1956 35.39C55.1956 33.9383 56.006 33.0354 57.1421 33.0354C58.2781 33.0354 59.0885 33.9383 59.0885 35.39ZM56.165 35.39C56.165 36.3372 56.5134 36.9037 57.1421 36.9037C57.7631 36.9037 58.1191 36.3372 58.1191 35.39C58.1191 34.4517 57.7631 33.8763 57.1421 33.8763C56.5134 33.8763 56.165 34.4517 56.165 35.39Z" fill="#36373A"/>
<path d="M132.449 149.468H39.0393C36.8085 149.468 35 151.581 35 154.189V201.399C35 204.007 36.8085 206.12 39.0393 206.12H132.449C134.68 206.12 136.489 204.007 136.489 201.399V154.189C136.489 151.581 134.68 149.468 132.449 149.468Z" fill="white"/>
<path d="M43.2857 165.106V159.715H41.3468V158.786H46.2319V159.715H44.2855V165.106H43.2857ZM47.4345 165.097L45.9349 160.609H46.9195L47.9874 163.999H48.0026L49.0174 160.609H49.9793L48.4797 165.186C48.1162 166.31 47.6693 166.744 46.8589 166.753C46.7302 166.753 46.5484 166.735 46.4121 166.709V165.85C46.5257 165.877 46.5863 165.877 46.6696 165.877C47.0634 165.877 47.23 165.718 47.4345 165.097ZM51.617 164.389V166.682H50.6475V160.609H51.6018V161.353C51.7836 160.901 52.238 160.503 52.8363 160.503C53.8437 160.503 54.5329 161.467 54.5329 162.858C54.5329 164.256 53.8437 165.212 52.8363 165.212C52.2532 165.212 51.8139 164.841 51.617 164.389ZM51.5942 162.778V162.937C51.5942 163.814 51.9502 164.38 52.5637 164.38C53.1923 164.38 53.5559 163.787 53.5559 162.858C53.5559 161.937 53.1923 161.335 52.5637 161.335C51.9502 161.335 51.5942 161.902 51.5942 162.778ZM59.0145 162.858C59.0145 164.318 58.2041 165.212 57.0681 165.212C55.932 165.212 55.1216 164.318 55.1216 162.858C55.1216 161.406 55.932 160.503 57.0681 160.503C58.2041 160.503 59.0145 161.406 59.0145 162.858ZM56.091 162.858C56.091 163.806 56.4394 164.371 57.0681 164.371C57.6891 164.371 58.0451 163.806 58.0451 162.858C58.0451 161.92 57.6891 161.344 57.0681 161.344C56.4394 161.344 56.091 161.92 56.091 162.858ZM62.5178 164.805V164.168C62.3361 164.601 61.9119 164.991 61.2985 164.991C60.2836 164.991 59.6019 164.088 59.6019 162.742C59.6019 161.424 60.2836 160.503 61.2985 160.503C61.9119 160.503 62.3512 160.91 62.533 161.344V160.609H63.4873V164.664C63.4873 166.133 62.6769 166.788 61.5333 166.788C60.4956 166.788 59.8292 166.284 59.6853 165.389H60.6471C60.7532 165.832 61.0864 165.991 61.5333 165.991C62.1467 165.991 62.5178 165.62 62.5178 164.805ZM62.5557 162.832V162.645C62.5557 161.849 62.1467 161.326 61.556 161.326C60.9349 161.326 60.5714 161.884 60.5714 162.742C60.5714 163.592 60.9349 164.158 61.556 164.158C62.1467 164.158 62.5557 163.637 62.5557 162.832ZM67.0225 160.565V161.609C66.9089 161.583 66.7726 161.574 66.6514 161.574C66.0607 161.574 65.5684 162.052 65.5684 163.025V165.106H64.5989V160.609H65.5532V161.619C65.735 160.919 66.1818 160.529 66.7347 160.529C66.8332 160.529 66.9392 160.539 67.0225 160.565ZM70.0367 165.106C69.9988 164.858 69.9837 164.619 69.9837 164.398C69.8019 164.911 69.3172 165.204 68.7037 165.204C67.9539 165.204 67.4086 164.717 67.4086 163.902C67.4086 162.999 68.0145 162.628 68.7946 162.521L69.9458 162.37V162.158C69.9458 161.609 69.658 161.344 69.2187 161.344C68.7946 161.344 68.5371 161.619 68.5068 162.034H67.5752C67.6585 161.07 68.3023 160.503 69.249 160.503C70.2942 160.503 70.8925 161.078 70.8925 162.246V163.981C70.8925 164.398 70.9077 164.743 70.9683 165.106H70.0367ZM68.9688 164.416C69.4686 164.416 69.9458 164.07 69.9458 163.362V163.088L69.09 163.202C68.681 163.265 68.3704 163.371 68.3704 163.84C68.3704 164.194 68.5825 164.416 68.9688 164.416ZM72.9315 164.389V166.682H71.962V160.609H72.9163V161.353C73.0981 160.901 73.5525 160.503 74.1509 160.503C75.1582 160.503 75.8474 161.467 75.8474 162.858C75.8474 164.256 75.1582 165.212 74.1509 165.212C73.5677 165.212 73.1284 164.841 72.9315 164.389ZM72.9088 162.778V162.937C72.9088 163.814 73.2647 164.38 73.8782 164.38C74.5068 164.38 74.8704 163.787 74.8704 162.858C74.8704 161.937 74.5068 161.335 73.8782 161.335C73.2647 161.335 72.9088 161.902 72.9088 162.778ZM77.6559 161.371C77.8452 160.848 78.2694 160.503 78.8525 160.503C79.7311 160.503 80.2613 161.141 80.2613 162.22V165.106H79.2918V162.486C79.2918 161.768 79.0267 161.397 78.5193 161.397C78.0346 161.397 77.6559 161.76 77.6559 162.663V165.106H76.6864V158.591H77.6559V161.371ZM82.3455 165.097L80.8459 160.609H81.8305L82.8984 163.999H82.9135L83.9284 160.609H84.8903L83.3907 165.186C83.0271 166.31 82.5803 166.744 81.7699 166.753C81.6411 166.753 81.4593 166.735 81.323 166.709V165.85C81.4366 165.877 81.4972 165.877 81.5805 165.877C81.9744 165.877 82.141 165.718 82.3455 165.097Z" fill="#36373A"/>
<path d="M57.2822 283.72H58.4805C58.5647 284.781 59.3511 285.142 60.1843 285.142C60.98 285.142 61.5979 284.725 61.5979 283.938C61.5979 283.369 61.3077 283.052 60.5026 282.877L59.2762 282.614C58.2933 282.406 57.4975 281.86 57.4975 280.492C57.4975 279.101 58.546 278.139 60.0065 278.139C61.5979 278.139 62.5528 278.949 62.6838 280.415H61.5136C61.4294 279.649 60.849 279.222 60.0158 279.222C59.2107 279.222 58.7052 279.715 58.7052 280.404C58.7052 281.05 59.0516 281.258 59.7724 281.422L61.0643 281.717C62.1596 281.958 62.8149 282.593 62.8149 283.851C62.8149 285.273 61.7009 286.214 60.2218 286.214C58.6303 286.214 57.4039 285.437 57.2822 283.72ZM68.206 284.354C68 285.547 67.1481 286.214 66.0622 286.214C64.6767 286.214 63.6563 285.13 63.6563 283.315C63.6563 281.498 64.6954 280.393 66.0341 280.393C67.5226 280.393 68.2341 281.717 68.2341 283.195V283.643H64.8171C64.892 284.627 65.3226 285.186 66.0622 285.186C66.6051 285.186 66.9422 284.891 67.1014 284.354H68.206ZM66.0341 281.432C65.4069 281.432 64.9857 281.881 64.8546 282.734H67.092C67.092 282.045 66.755 281.432 66.0341 281.432ZM70.5482 280.525V281.465C70.7729 280.83 71.3252 280.393 72.046 280.393C73.132 280.393 73.7873 281.181 73.7873 282.516V286.083H72.589V282.844C72.589 281.958 72.2614 281.498 71.6341 281.498C71.035 281.498 70.5669 281.947 70.5669 283.062V286.083H69.3687V280.525H70.5482ZM78.4875 286.083V285.196C78.2535 285.754 77.6824 286.214 76.9615 286.214C75.7165 286.214 74.8646 285.032 74.8646 283.303C74.8646 281.586 75.7165 280.393 76.9615 280.393C77.7011 280.393 78.2441 280.874 78.4688 281.432V278.03H79.6671V286.083H78.4875ZM78.4969 283.402V283.205C78.4969 282.122 78.0569 281.422 77.2986 281.422C76.5215 281.422 76.0722 282.165 76.0722 283.303C76.0722 284.453 76.5215 285.186 77.2986 285.186C78.0569 285.186 78.4969 284.486 78.4969 283.402ZM83.1191 286.083V278.27H84.3642V286.083H83.1191ZM87.0315 280.525V281.465C87.2562 280.83 87.8086 280.393 88.5294 280.393C89.6154 280.393 90.2706 281.181 90.2706 282.516V286.083H89.0724V282.844C89.0724 281.958 88.7447 281.498 88.1175 281.498C87.5183 281.498 87.0503 281.947 87.0503 283.062V286.083H85.852V280.525H87.0315ZM92.9043 286.083L91.032 280.525H92.2396L93.5596 284.715H93.5784L94.8702 280.525H96.0404L94.215 286.083H92.9043ZM101.279 283.303C101.279 285.109 100.278 286.214 98.8734 286.214C97.4692 286.214 96.4675 285.109 96.4675 283.303C96.4675 281.509 97.4692 280.393 98.8734 280.393C100.278 280.393 101.279 281.509 101.279 283.303ZM97.6658 283.303C97.6658 284.474 98.0964 285.175 98.8734 285.175C99.641 285.175 100.081 284.474 100.081 283.303C100.081 282.144 99.641 281.432 98.8734 281.432C98.0964 281.432 97.6658 282.144 97.6658 283.303ZM102.371 279.583V278.216H103.644V279.583H102.371ZM102.408 286.083V280.525H103.607V286.083H102.408ZM104.741 283.303C104.741 281.509 105.733 280.393 107.128 280.393C108.308 280.393 109.066 281.192 109.197 282.429H108.064C107.971 281.827 107.662 281.443 107.119 281.443C106.361 281.443 105.939 282.176 105.939 283.303C105.939 284.441 106.361 285.163 107.119 285.163C107.662 285.163 107.971 284.77 108.064 284.179H109.197C109.066 285.426 108.308 286.214 107.128 286.214C105.733 286.214 104.741 285.109 104.741 283.303ZM114.502 284.354C114.296 285.547 113.444 286.214 112.358 286.214C110.973 286.214 109.952 285.13 109.952 283.315C109.952 281.498 110.991 280.393 112.33 280.393C113.819 280.393 114.53 281.717 114.53 283.195V283.643H111.113C111.188 284.627 111.619 285.186 112.358 285.186C112.901 285.186 113.238 284.891 113.397 284.354H114.502ZM112.33 281.432C111.703 281.432 111.281 281.881 111.15 282.734H113.388C113.388 282.045 113.051 281.432 112.33 281.432Z" fill="white"/>
</g>
</g>
<defs>
<clipPath id="clip0_4_189">
<rect width="372" height="320" fill="white"/>
</clipPath>
<clipPath id="clip1_4_189">
<rect width="308" height="275" fill="white" transform="translate(35 22)"/>
</clipPath>
</defs>
</svg>
