<svg width="372" height="320" viewBox="0 0 372 320" fill="none" xmlns="http://www.w3.org/2000/svg">
<g clip-path="url(#clip0_5_303)">
<path d="M366.667 0H12C7.58172 0 4 3.58172 4 8V312C4 316.418 7.58172 320 12 320H366.667C371.085 320 374.667 316.418 374.667 312V8C374.667 3.58172 371.085 0 366.667 0Z" fill="#F6F6F6"/>
<g clip-path="url(#clip1_5_303)">
<g filter="url(#filter0_dddddi_5_303)">
<path d="M310 66.6755H62C58.6863 66.6755 56 69.3618 56 72.6755V212.112C56 215.425 58.6863 218.112 62 218.112H310C313.314 218.112 316 215.425 316 212.112V72.6755C316 69.3618 313.314 66.6755 310 66.6755Z" fill="white"/>
<path d="M76.6042 92.5422L75.8493 90.5705H72.2214L71.4553 92.5422H69.9906L73.2242 84.4978H74.9029L78.1364 92.5422H76.6042ZM74.0354 85.9399L72.6834 89.41H75.3986L74.0692 85.9399H74.0354ZM80.526 91.6296V94.5476H79.0839V86.8187H80.5035V87.7651C80.7739 87.1905 81.4499 86.6835 82.34 86.6835C83.8384 86.6835 84.8637 87.9116 84.8637 89.6804C84.8637 91.4606 83.8384 92.6774 82.34 92.6774C81.4724 92.6774 80.819 92.2042 80.526 91.6296ZM80.4922 89.579V89.7818C80.4922 90.8972 81.0218 91.6183 81.9344 91.6183C82.8695 91.6183 83.4103 90.8634 83.4103 89.6804C83.4103 88.5087 82.8695 87.7426 81.9344 87.7426C81.0218 87.7426 80.4922 88.4636 80.4922 89.579ZM87.5991 91.6296V94.5476H86.157V86.8187H87.5766V87.7651C87.847 87.1905 88.523 86.6835 89.413 86.6835C90.9115 86.6835 91.9368 87.9116 91.9368 89.6804C91.9368 91.4606 90.9115 92.6774 89.413 92.6774C88.5455 92.6774 87.892 92.2042 87.5991 91.6296ZM87.5653 89.579V89.7818C87.5653 90.8972 88.0948 91.6183 89.0074 91.6183C89.9426 91.6183 90.4834 90.8634 90.4834 89.6804C90.4834 88.5087 89.9426 87.7426 89.0074 87.7426C88.0948 87.7426 87.5653 88.4636 87.5653 89.579ZM96.8354 86.7624V88.0918C96.6664 88.058 96.4636 88.0468 96.2833 88.0468C95.4045 88.0468 94.6722 88.6552 94.6722 89.8945V92.5422H93.2301V86.8187H94.6497V88.1031C94.9201 87.213 95.5848 86.7173 96.4073 86.7173C96.5537 86.7173 96.7115 86.7286 96.8354 86.7624ZM103.169 89.6804C103.169 91.5394 101.964 92.6774 100.274 92.6774C98.5838 92.6774 97.3782 91.5394 97.3782 89.6804C97.3782 87.8327 98.5838 86.6835 100.274 86.6835C101.964 86.6835 103.169 87.8327 103.169 89.6804ZM98.8204 89.6804C98.8204 90.886 99.3386 91.607 100.274 91.607C101.198 91.607 101.727 90.886 101.727 89.6804C101.727 88.4862 101.198 87.7538 100.274 87.7538C99.3386 87.7538 98.8204 88.4862 98.8204 89.6804ZM105.862 92.5422L103.609 86.8187H105.062L106.651 91.1338H106.674L108.228 86.8187H109.637L107.44 92.5422H105.862ZM114.025 92.5422C113.969 92.2267 113.946 91.9225 113.946 91.6408C113.676 92.2943 112.955 92.6661 112.042 92.6661C110.927 92.6661 110.116 92.0464 110.116 91.0099C110.116 89.8607 111.017 89.3875 112.177 89.2523L113.89 89.0608V88.7904C113.89 88.0918 113.462 87.7538 112.808 87.7538C112.177 87.7538 111.794 88.1031 111.749 88.6326H110.363C110.487 87.4046 111.445 86.6835 112.853 86.6835C114.408 86.6835 115.298 87.4158 115.298 88.903V91.1113C115.298 91.6408 115.321 92.0802 115.411 92.5422H114.025ZM112.437 91.6634C113.18 91.6634 113.89 91.224 113.89 90.3226V89.9734L112.617 90.1198C112.008 90.1987 111.546 90.3339 111.546 90.931C111.546 91.3817 111.862 91.6634 112.437 91.6634ZM118.377 92.5422H116.934V84.2499H118.377V92.5422ZM119.607 90.8071H120.981C121.049 91.4042 121.646 91.6746 122.266 91.6746C122.874 91.6746 123.347 91.4268 123.347 90.9648C123.347 90.6043 123.099 90.4353 122.468 90.3226L121.454 90.1424C120.508 89.9734 119.809 89.534 119.809 88.5087C119.809 87.4271 120.801 86.6835 122.13 86.6835C123.618 86.6835 124.463 87.337 124.586 88.4411H123.268C123.212 87.9904 122.773 87.6975 122.142 87.6975C121.533 87.6975 121.139 87.9679 121.139 88.3622C121.139 88.7566 121.432 88.903 122.018 89.0044L123.133 89.196C124.136 89.365 124.699 89.917 124.699 90.8634C124.699 91.9563 123.651 92.6774 122.288 92.6774C120.801 92.6774 119.73 92.0577 119.607 90.8071Z" fill="#181B25"/>
<path d="M302.134 110.312H69.8667V111.121H302.134V110.312Z" fill="#F6F6F6"/>
<path d="M101.867 140.641C101.867 131.805 94.7033 124.641 85.8667 124.641C77.0301 124.641 69.8667 131.805 69.8667 140.641C69.8667 149.478 77.0301 156.641 85.8667 156.641C94.7033 156.641 101.867 149.478 101.867 140.641Z" fill="#DCE9FA"/>
<path d="M86.5016 145.141H82.1678V135.255H86.1416C88.4539 135.255 89.7139 136.183 89.7139 137.955C89.7139 138.827 89.0216 139.783 88.2185 140.018C89.2985 140.309 90.1155 141.181 90.1155 142.33C90.1155 144.186 88.7862 145.141 86.5016 145.141ZM83.9678 139.437H86.1278C87.3601 139.437 87.9416 138.883 87.9416 138.024C87.9416 137.124 87.3462 136.612 86.1416 136.612H83.9678V139.437ZM83.9678 140.752V143.784H86.3632C87.637 143.784 88.3016 143.217 88.3016 142.261C88.3016 141.333 87.6232 140.752 86.3493 140.752H83.9678Z" fill="#3C82F6"/>
<path d="M113.343 136.641H109.734V128.409H113.043C114.968 128.409 116.018 129.181 116.018 130.657C116.018 131.383 115.441 132.179 114.772 132.375C115.672 132.617 116.352 133.344 116.352 134.301C116.352 135.846 115.245 136.641 113.343 136.641ZM111.233 131.891H113.031C114.057 131.891 114.542 131.43 114.542 130.715C114.542 129.965 114.046 129.539 113.043 129.539H111.233V131.891ZM111.233 132.986V135.511H113.227C114.288 135.511 114.841 135.038 114.841 134.243C114.841 133.47 114.277 132.986 113.216 132.986H111.233ZM121.348 130.726V132.087C121.175 132.052 120.967 132.041 120.783 132.041C119.883 132.041 119.134 132.663 119.134 133.932V136.641H117.658V130.784H119.111V132.098C119.388 131.187 120.068 130.68 120.91 130.68C121.059 130.68 121.221 130.692 121.348 130.726ZM122.362 129.792V128.351H123.93V129.792H122.362ZM122.408 136.641V130.784H123.884V136.641H122.408ZM128.717 135.43V136.56C128.256 136.699 127.91 136.733 127.553 136.733C126.33 136.733 125.731 136.215 125.731 135.038V131.845H124.924V130.784H125.731V129.32H127.195V130.784H128.59V131.845H127.184V134.808C127.184 135.361 127.449 135.546 127.945 135.546C128.164 135.546 128.394 135.523 128.717 135.43ZM133.129 135.43V136.56C132.668 136.699 132.322 136.733 131.965 136.733C130.743 136.733 130.143 136.215 130.143 135.038V131.845H129.336V130.784H130.143V129.32H131.607V130.784H133.002V131.845H131.596V134.808C131.596 135.361 131.861 135.546 132.357 135.546C132.576 135.546 132.806 135.523 133.129 135.43ZM138.014 136.641C137.957 136.318 137.934 136.007 137.934 135.719C137.657 136.387 136.919 136.768 135.985 136.768C134.844 136.768 134.013 136.134 134.013 135.073C134.013 133.897 134.936 133.413 136.123 133.274L137.876 133.078V132.802C137.876 132.087 137.438 131.741 136.769 131.741C136.123 131.741 135.731 132.098 135.685 132.64H134.267C134.394 131.383 135.374 130.646 136.815 130.646C138.406 130.646 139.317 131.395 139.317 132.917V135.177C139.317 135.719 139.34 136.168 139.432 136.641H138.014ZM136.389 135.742C137.15 135.742 137.876 135.292 137.876 134.37V134.012L136.573 134.162C135.95 134.243 135.478 134.381 135.478 134.992C135.478 135.454 135.8 135.742 136.389 135.742ZM142.444 130.784V131.775C142.721 131.107 143.401 130.646 144.289 130.646C145.627 130.646 146.434 131.476 146.434 132.882V136.641H144.958V133.228C144.958 132.294 144.554 131.81 143.782 131.81C143.044 131.81 142.467 132.283 142.467 133.459V136.641H140.992V130.784H142.444ZM149.653 136.63L147.37 130.784H148.869L150.494 135.2H150.518L152.063 130.784H153.527L151.244 136.745C150.69 138.209 150.01 138.774 148.776 138.786C148.58 138.786 148.304 138.763 148.096 138.728V137.61C148.269 137.644 148.361 137.644 148.488 137.644C149.088 137.644 149.341 137.437 149.653 136.63ZM163.433 136.641L161.819 130.288H161.796L160.182 136.641H158.51L156.238 128.409H157.807L159.455 134.796H159.478L161.081 128.409H162.626L164.229 134.796H164.252L165.889 128.409H167.388L165.117 136.641H163.433ZM171.617 136.641C171.559 136.318 171.536 136.007 171.536 135.719C171.259 136.387 170.521 136.768 169.587 136.768C168.446 136.768 167.616 136.134 167.616 135.073C167.616 133.897 168.538 133.413 169.726 133.274L171.478 133.078V132.802C171.478 132.087 171.04 131.741 170.371 131.741C169.726 131.741 169.334 132.098 169.288 132.64H167.869C167.996 131.383 168.976 130.646 170.417 130.646C172.009 130.646 172.919 131.395 172.919 132.917V135.177C172.919 135.719 172.943 136.168 173.035 136.641H171.617ZM169.991 135.742C170.752 135.742 171.478 135.292 171.478 134.37V134.012L170.175 134.162C169.553 134.243 169.08 134.381 169.08 134.992C169.08 135.454 169.403 135.742 169.991 135.742ZM176.07 136.641H174.594V128.155H176.07V136.641ZM181.883 136.641L179.957 134.162L179.277 134.819V136.641H177.801V128.155H179.277V133.297L181.768 130.784H183.462L180.984 133.228L183.578 136.641H181.883ZM189.62 134.819C189.367 136.076 188.318 136.779 186.98 136.779C185.274 136.779 184.017 135.638 184.017 133.724C184.017 131.81 185.297 130.646 186.945 130.646C188.779 130.646 189.655 132.041 189.655 133.597V134.07H185.447C185.539 135.108 186.069 135.696 186.98 135.696C187.649 135.696 188.064 135.384 188.26 134.819H189.62ZM186.945 131.741C186.173 131.741 185.654 132.214 185.493 133.113H188.248C188.248 132.387 187.833 131.741 186.945 131.741ZM194.673 130.726V132.087C194.5 132.052 194.292 132.041 194.108 132.041C193.209 132.041 192.459 132.663 192.459 133.932V136.641H190.983V130.784H192.436V132.098C192.713 131.187 193.393 130.68 194.235 130.68C194.385 130.68 194.546 130.692 194.673 130.726Z" fill="#181B25"/>
<path d="M115.464 152.446C115.464 153.712 114.377 154.652 112.854 154.742V155.862H112.182V154.731C110.704 154.608 109.472 153.79 109.382 152.289H110.278C110.379 153.353 111.197 153.857 112.182 153.969V150.99L111.622 150.878C110.569 150.665 109.64 150.172 109.64 148.795C109.64 147.529 110.659 146.588 112.182 146.521V145.468H112.854V146.544C114.254 146.678 115.161 147.395 115.296 148.683H114.411C114.31 147.899 113.739 147.451 112.854 147.339V150.228L113.504 150.352C114.702 150.598 115.464 151.192 115.464 152.446ZM111.913 150.038L112.182 150.094V147.316C111.129 147.372 110.525 147.966 110.525 148.761C110.525 149.556 110.961 149.848 111.913 150.038ZM113.145 151.169L112.854 151.113V153.98C113.885 153.902 114.568 153.364 114.568 152.491C114.568 151.819 114.221 151.371 113.145 151.169ZM116.363 148.47V147.82C117.729 147.82 118.222 147.44 118.412 146.611H119.006V154.641H118.043V148.47H116.363ZM121.16 154.63V153.42H122.381V154.832C122.381 155.761 121.821 156.4 120.802 156.4V155.828C121.373 155.828 121.698 155.571 121.698 154.832V154.63H121.16ZM126.737 150.105C125.897 150.105 125.337 150.52 125.034 151.001H124.172L124.62 146.644H129.122V147.462H125.314L125.045 150.105C125.381 149.68 126.076 149.321 126.815 149.321C128.484 149.321 129.525 150.531 129.525 152.043C129.525 153.566 128.484 154.776 126.737 154.776C125.124 154.776 123.97 153.812 123.847 152.267H124.799C124.877 153.286 125.617 153.992 126.748 153.992C128.002 153.992 128.596 153.062 128.596 152.043C128.596 151.024 128.002 150.105 126.737 150.105ZM130.628 150.643C130.628 148.246 131.871 146.51 133.809 146.51C135.758 146.51 136.99 148.246 136.99 150.643C136.99 153.04 135.758 154.776 133.809 154.776C131.871 154.776 130.628 153.04 130.628 150.643ZM131.614 150.643C131.614 152.603 132.353 153.947 133.809 153.947C135.276 153.947 136.015 152.603 136.015 150.643C136.015 148.683 135.276 147.339 133.809 147.339C132.353 147.339 131.614 148.683 131.614 150.643ZM143.729 152.468C143.729 153.712 142.732 154.776 140.94 154.776C139.227 154.776 138.118 153.812 138.006 152.3H138.947C139.014 153.297 139.72 153.992 140.94 153.992C142.105 153.992 142.822 153.398 142.822 152.435C142.822 151.505 142.128 150.979 141.075 150.979H140.201V150.195H141.041C141.881 150.195 142.609 149.825 142.609 148.795C142.609 147.977 142.072 147.294 140.974 147.294C139.832 147.294 139.193 148.089 139.137 149.041H138.23C138.32 147.652 139.249 146.51 140.974 146.51C142.688 146.51 143.539 147.596 143.539 148.784C143.539 149.769 142.889 150.452 142.105 150.564C143.057 150.71 143.729 151.472 143.729 152.468ZM147.148 152.972H148.044C148.111 153.745 148.828 154.07 149.589 154.07C150.362 154.07 150.922 153.712 150.922 153.107C150.922 152.692 150.653 152.424 149.937 152.289L148.94 152.088C148.033 151.92 147.372 151.55 147.372 150.564C147.372 149.612 148.223 148.873 149.466 148.873C150.765 148.873 151.561 149.433 151.673 150.497H150.81C150.743 149.926 150.239 149.59 149.466 149.59C148.716 149.59 148.234 149.96 148.234 150.508C148.234 150.99 148.57 151.192 149.22 151.315L150.34 151.528C151.258 151.707 151.796 152.155 151.796 153.062C151.796 154.048 150.866 154.776 149.601 154.776C148.257 154.776 147.249 154.182 147.148 152.972ZM154.267 153.656V156.635H153.337V149.008H154.233V150.038C154.491 149.467 155.163 148.873 156.137 148.873C157.571 148.873 158.646 150.038 158.646 151.83C158.646 153.611 157.571 154.776 156.137 154.776C155.208 154.776 154.547 154.227 154.267 153.656ZM154.222 151.74V151.897C154.222 153.174 154.849 154.048 155.947 154.048C157.056 154.048 157.705 153.14 157.705 151.83C157.705 150.508 157.056 149.601 155.947 149.601C154.849 149.601 154.222 150.464 154.222 151.74ZM164.797 152.984C164.539 154.182 163.565 154.776 162.467 154.776C160.877 154.776 159.757 153.667 159.757 151.852C159.757 150.016 160.911 148.873 162.411 148.873C164.08 148.873 164.831 150.206 164.831 151.651V152.02H160.664C160.709 153.32 161.392 154.036 162.467 154.036C163.229 154.036 163.688 153.667 163.923 152.984H164.797ZM162.411 149.624C161.527 149.624 160.855 150.195 160.698 151.348H163.923C163.901 150.374 163.419 149.624 162.411 149.624ZM167.235 149.008V150.038C167.503 149.344 168.209 148.873 169.071 148.873C170.337 148.873 171.087 149.668 171.087 151.012V154.641H170.158V151.214C170.158 150.172 169.699 149.635 168.814 149.635C167.951 149.635 167.268 150.184 167.268 151.539V154.641H166.339V149.008H167.235ZM176.953 154.641V153.656C176.673 154.227 175.978 154.776 175.049 154.776C173.615 154.776 172.54 153.611 172.54 151.83C172.54 150.038 173.615 148.873 175.049 148.873C176.023 148.873 176.661 149.433 176.919 150.004V146.398H177.849V154.641H176.953ZM176.964 151.897V151.74C176.964 150.464 176.337 149.601 175.239 149.601C174.13 149.601 173.481 150.508 173.481 151.83C173.481 153.14 174.13 154.048 175.239 154.048C176.337 154.048 176.964 153.174 176.964 151.897ZM185.263 148.929V149.78C185.129 149.747 184.927 149.736 184.782 149.736C183.886 149.736 183.068 150.441 183.068 151.864V154.641H182.139V149.008H183.035V150.34C183.281 149.411 183.998 148.884 184.827 148.884C184.972 148.884 185.129 148.896 185.263 148.929ZM190.897 152.984C190.639 154.182 189.665 154.776 188.567 154.776C186.977 154.776 185.857 153.667 185.857 151.852C185.857 150.016 187.011 148.873 188.511 148.873C190.18 148.873 190.931 150.206 190.931 151.651V152.02H186.764C186.809 153.32 187.492 154.036 188.567 154.036C189.329 154.036 189.788 153.667 190.023 152.984H190.897ZM188.511 149.624C187.627 149.624 186.955 150.195 186.798 151.348H190.023C190.001 150.374 189.519 149.624 188.511 149.624ZM196.414 156.635V153.656C196.134 154.227 195.474 154.776 194.544 154.776C193.11 154.776 192.035 153.611 192.035 151.83C192.035 150.038 193.11 148.873 194.544 148.873C195.518 148.873 196.19 149.467 196.448 150.038V149.008H197.344V156.635H196.414ZM196.459 151.897V151.74C196.459 150.464 195.832 149.601 194.734 149.601C193.626 149.601 192.976 150.508 192.976 151.83C192.976 153.14 193.626 154.048 194.734 154.048C195.832 154.048 196.459 153.174 196.459 151.897ZM203.91 154.641H203.003V153.622C202.734 154.328 202.062 154.776 201.211 154.776C199.934 154.776 199.217 154.003 199.217 152.636V149.008H200.158V152.457C200.158 153.499 200.595 154.048 201.479 154.048C202.331 154.048 202.969 153.465 202.969 152.11V149.008H203.91V154.641ZM210.459 152.984C210.202 154.182 209.227 154.776 208.13 154.776C206.539 154.776 205.419 153.667 205.419 151.852C205.419 150.016 206.573 148.873 208.074 148.873C209.743 148.873 210.493 150.206 210.493 151.651V152.02H206.327C206.371 153.32 207.055 154.036 208.13 154.036C208.891 154.036 209.351 153.667 209.586 152.984H210.459ZM208.074 149.624C207.189 149.624 206.517 150.195 206.36 151.348H209.586C209.563 150.374 209.082 149.624 208.074 149.624ZM211.574 152.972H212.47C212.537 153.745 213.254 154.07 214.016 154.07C214.789 154.07 215.349 153.712 215.349 153.107C215.349 152.692 215.08 152.424 214.363 152.289L213.366 152.088C212.459 151.92 211.798 151.55 211.798 150.564C211.798 149.612 212.649 148.873 213.893 148.873C215.192 148.873 215.987 149.433 216.099 150.497H215.237C215.169 149.926 214.665 149.59 213.893 149.59C213.142 149.59 212.661 149.96 212.661 150.508C212.661 150.99 212.997 151.192 213.646 151.315L214.766 151.528C215.685 151.707 216.222 152.155 216.222 153.062C216.222 154.048 215.293 154.776 214.027 154.776C212.683 154.776 211.675 154.182 211.574 152.972ZM220.384 153.812V154.574C219.97 154.697 219.645 154.731 219.399 154.731C218.368 154.731 217.842 154.238 217.842 153.196V149.713H217.013V149.008H217.842V147.574H218.76V149.008H220.239V149.713H218.749V153.152C218.749 153.745 219.052 153.947 219.567 153.947C219.78 153.947 220.026 153.924 220.384 153.812Z" fill="#181B25"/>
<path d="M277.6 130.058H264.267C263.162 130.058 262.267 130.953 262.267 132.058V145.391C262.267 146.496 263.162 147.391 264.267 147.391H277.6C278.705 147.391 279.6 146.496 279.6 145.391V132.058C279.6 130.953 278.705 130.058 277.6 130.058Z" fill="#F6F6F6"/>
<path d="M273.1 136.558L268.767 140.891M268.767 136.558L273.1 140.891" stroke="#181B25" stroke-width="0.8696" stroke-linecap="round" stroke-linejoin="round"/>
<path d="M300.133 130.058H286.8C285.695 130.058 284.8 130.953 284.8 132.058V145.391C284.8 146.496 285.695 147.391 286.8 147.391H300.133C301.238 147.391 302.133 146.496 302.133 145.391V132.058C302.133 130.953 301.238 130.058 300.133 130.058Z" fill="#3C82F6"/>
<path d="M296.355 136.558L292.383 140.53L290.578 138.725" stroke="white" stroke-width="0.8696" stroke-linecap="round" stroke-linejoin="round"/>
<path d="M101.867 186.244C101.867 177.407 94.7033 170.244 85.8667 170.244C77.0301 170.244 69.8667 177.407 69.8667 186.244C69.8667 195.081 77.0301 202.244 85.8667 202.244C94.7033 202.244 101.867 195.081 101.867 186.244Z" fill="#DCE9FA"/>
<path d="M81.7198 187.754H83.4921C83.6168 189.097 84.7798 189.554 86.0121 189.554C87.1891 189.554 88.103 189.028 88.103 188.031C88.103 187.311 87.6737 186.909 86.4829 186.688L84.6692 186.355C83.2153 186.092 82.0383 185.4 82.0383 183.669C82.0383 181.911 83.5891 180.692 85.7491 180.692C88.1029 180.692 89.5152 181.717 89.7091 183.572H87.9783C87.8537 182.603 86.9953 182.063 85.763 182.063C84.5722 182.063 83.8245 182.686 83.8245 183.558C83.8245 184.375 84.3369 184.638 85.403 184.846L87.3138 185.22C88.9338 185.524 89.903 186.328 89.903 187.92C89.903 189.72 88.2553 190.911 86.0676 190.911C83.7138 190.911 81.8998 189.928 81.7198 187.754Z" fill="#3C82F6"/>
<path d="M109.192 179.754H110.668C110.771 180.872 111.74 181.253 112.766 181.253C113.746 181.253 114.507 180.815 114.507 179.985C114.507 179.385 114.15 179.051 113.158 178.866L111.648 178.589C110.437 178.37 109.457 177.794 109.457 176.353C109.457 174.888 110.748 173.874 112.547 173.874C114.507 173.874 115.683 174.727 115.845 176.272H114.403C114.3 175.465 113.585 175.015 112.559 175.015C111.567 175.015 110.944 175.534 110.944 176.26C110.944 176.941 111.371 177.16 112.259 177.333L113.85 177.644C115.199 177.898 116.006 178.566 116.006 179.892C116.006 181.391 114.634 182.383 112.812 182.383C110.852 182.383 109.342 181.564 109.192 179.754ZM120.422 181.034V182.164C119.961 182.302 119.615 182.337 119.257 182.337C118.035 182.337 117.436 181.818 117.436 180.642V177.448H116.629V176.387H117.436V174.923H118.9V176.387H120.295V177.448H118.888V180.411C118.888 180.965 119.154 181.149 119.649 181.149C119.868 181.149 120.099 181.126 120.422 181.034ZM126.854 180.423C126.6 181.679 125.551 182.383 124.213 182.383C122.507 182.383 121.25 181.241 121.25 179.327C121.25 177.413 122.53 176.249 124.179 176.249C126.012 176.249 126.888 177.644 126.888 179.2V179.673H122.68C122.772 180.711 123.303 181.299 124.213 181.299C124.882 181.299 125.297 180.988 125.493 180.423H126.854ZM124.179 177.344C123.406 177.344 122.887 177.817 122.726 178.716H125.482C125.482 177.99 125.067 177.344 124.179 177.344ZM129.692 181.31V184.297H128.217V176.387H129.669V177.356C129.946 176.768 130.638 176.249 131.549 176.249C133.082 176.249 134.131 177.506 134.131 179.316C134.131 181.138 133.082 182.383 131.549 182.383C130.661 182.383 129.992 181.899 129.692 181.31ZM129.658 179.212V179.42C129.658 180.561 130.2 181.299 131.134 181.299C132.091 181.299 132.644 180.526 132.644 179.316C132.644 178.117 132.091 177.333 131.134 177.333C130.2 177.333 129.658 178.071 129.658 179.212ZM136.931 177.379C137.219 176.698 137.865 176.249 138.753 176.249C140.09 176.249 140.897 177.079 140.897 178.486V182.244H139.421V178.832C139.421 177.898 139.018 177.413 138.245 177.413C137.507 177.413 136.931 177.886 136.931 179.062V182.244H135.455V173.758H136.931V177.379ZM147.758 180.423C147.505 181.679 146.455 182.383 145.118 182.383C143.411 182.383 142.155 181.241 142.155 179.327C142.155 177.413 143.435 176.249 145.083 176.249C146.917 176.249 147.793 177.644 147.793 179.2V179.673H143.584C143.677 180.711 144.207 181.299 145.118 181.299C145.787 181.299 146.202 180.988 146.398 180.423H147.758ZM145.083 177.344C144.311 177.344 143.792 177.817 143.631 178.716H146.386C146.386 177.99 145.971 177.344 145.083 177.344ZM150.574 176.387V177.379C150.851 176.71 151.531 176.249 152.419 176.249C153.756 176.249 154.563 177.079 154.563 178.486V182.244H153.087V178.832C153.087 177.898 152.684 177.413 151.911 177.413C151.173 177.413 150.597 177.886 150.597 179.062V182.244H149.121V176.387H150.574ZM158.161 178.117C158.161 175.58 159.787 173.874 162.139 173.874C164.122 173.874 165.252 174.957 165.575 176.583H164.064C163.868 175.661 163.246 175.084 162.139 175.084C160.605 175.084 159.718 176.249 159.718 178.117C159.718 179.996 160.582 181.172 162.116 181.172C163.326 181.172 164.157 180.457 164.157 179.443V179.154H162.565V178.047H165.679V182.244H164.491L164.387 181.068C164.087 181.852 163.038 182.383 162.024 182.383C159.718 182.383 158.161 180.665 158.161 178.117ZM172.605 182.244H171.152V181.264C170.875 181.933 170.206 182.383 169.33 182.383C168.016 182.383 167.243 181.576 167.243 180.157V176.387H168.73V179.835C168.73 180.769 169.099 181.241 169.86 181.241C170.575 181.241 171.117 180.746 171.117 179.569V176.387H172.605V182.244ZM173.864 180.469H175.27C175.34 181.08 175.951 181.357 176.585 181.357C177.207 181.357 177.692 181.103 177.692 180.63C177.692 180.261 177.438 180.088 176.792 179.973L175.755 179.789C174.786 179.616 174.071 179.166 174.071 178.117C174.071 177.01 175.086 176.249 176.446 176.249C177.968 176.249 178.833 176.918 178.96 178.047H177.611C177.553 177.586 177.104 177.287 176.458 177.287C175.835 177.287 175.432 177.563 175.432 177.967C175.432 178.37 175.732 178.52 176.331 178.624L177.473 178.82C178.499 178.993 179.075 179.558 179.075 180.526C179.075 181.645 178.003 182.383 176.608 182.383C175.086 182.383 173.991 181.749 173.864 180.469ZM183.539 181.034V182.164C183.078 182.302 182.732 182.337 182.375 182.337C181.153 182.337 180.553 181.818 180.553 180.642V177.448H179.746V176.387H180.553V174.923H182.017V176.387H183.412V177.448H182.006V180.411C182.006 180.965 182.271 181.149 182.767 181.149C182.986 181.149 183.216 181.126 183.539 181.034ZM188.424 182.244C188.367 181.922 188.343 181.61 188.343 181.322C188.067 181.991 187.329 182.371 186.395 182.371C185.253 182.371 184.423 181.737 184.423 180.676C184.423 179.5 185.346 179.016 186.533 178.878L188.286 178.682V178.405C188.286 177.69 187.848 177.344 187.179 177.344C186.533 177.344 186.141 177.702 186.095 178.244H184.677C184.804 176.987 185.784 176.249 187.225 176.249C188.816 176.249 189.727 176.998 189.727 178.52V180.78C189.727 181.322 189.75 181.772 189.842 182.244H188.424ZM186.798 181.345C187.559 181.345 188.286 180.895 188.286 179.973V179.616L186.983 179.765C186.36 179.846 185.888 179.985 185.888 180.596C185.888 181.057 186.21 181.345 186.798 181.345ZM191.563 177.448H190.756V176.387H191.563V175.557C191.563 174.346 192.289 173.724 193.477 173.724C193.788 173.724 194.088 173.735 194.33 173.781V174.9C194.157 174.877 193.973 174.865 193.765 174.865C193.338 174.865 193.039 175.061 193.039 175.626V176.387H194.226V177.448H193.039V182.244H191.563V177.448ZM194.767 180.469H196.173C196.243 181.08 196.854 181.357 197.488 181.357C198.11 181.357 198.595 181.103 198.595 180.63C198.595 180.261 198.341 180.088 197.695 179.973L196.658 179.789C195.689 179.616 194.974 179.166 194.974 178.117C194.974 177.01 195.989 176.249 197.349 176.249C198.871 176.249 199.736 176.918 199.863 178.047H198.514C198.456 177.586 198.007 177.287 197.361 177.287C196.738 177.287 196.335 177.563 196.335 177.967C196.335 178.37 196.635 178.52 197.234 178.624L198.376 178.82C199.402 178.993 199.978 179.558 199.978 180.526C199.978 181.645 198.906 182.383 197.511 182.383C195.989 182.383 194.894 181.749 194.767 180.469ZM206.863 179.316C206.863 181.218 205.63 182.383 203.9 182.383C202.171 182.383 200.937 181.218 200.937 179.316C200.937 177.425 202.171 176.249 203.9 176.249C205.63 176.249 206.863 177.425 206.863 179.316ZM202.413 179.316C202.413 180.55 202.943 181.287 203.9 181.287C204.846 181.287 205.388 180.55 205.388 179.316C205.388 178.094 204.846 177.344 203.9 177.344C202.943 177.344 202.413 178.094 202.413 179.316ZM209.638 176.387V177.379C209.914 176.71 210.595 176.249 211.482 176.249C212.82 176.249 213.627 177.079 213.627 178.486V182.244H212.151V178.832C212.151 177.898 211.748 177.413 210.975 177.413C210.237 177.413 209.661 177.886 209.661 179.062V182.244H208.185V176.387H209.638Z" fill="#181B25"/>
<path d="M116.057 200.244L114.254 193.524H114.232L112.417 200.244H111.331L109.08 192.248H110.099L111.936 199.046H111.958L113.761 192.248H114.781L116.595 199.046H116.617L118.443 192.248H119.406L117.155 200.244H116.057ZM123.701 200.244C123.634 199.931 123.6 199.561 123.6 199.292C123.354 199.953 122.581 200.368 121.64 200.368C120.655 200.368 119.815 199.796 119.815 198.755C119.815 197.668 120.621 197.198 121.763 197.064L123.578 196.828V196.504C123.578 195.608 123.029 195.227 122.256 195.227C121.506 195.227 121.035 195.619 120.968 196.268H120.072C120.184 195.126 121.08 194.476 122.279 194.476C123.645 194.476 124.496 195.126 124.496 196.481V199.068C124.496 199.483 124.519 199.875 124.631 200.244H123.701ZM121.831 199.662C122.704 199.662 123.578 199.113 123.578 198.027V197.523L122.043 197.691C121.338 197.792 120.755 197.971 120.755 198.732C120.755 199.259 121.125 199.662 121.831 199.662ZM127.26 194.611V195.641C127.529 194.947 128.234 194.476 129.097 194.476C130.362 194.476 131.113 195.272 131.113 196.616V200.244H130.183V196.817C130.183 195.776 129.724 195.238 128.839 195.238C127.977 195.238 127.293 195.787 127.293 197.142V200.244H126.364V194.611H127.26ZM135.6 199.416V200.177C135.186 200.3 134.861 200.334 134.615 200.334C133.584 200.334 133.058 199.841 133.058 198.8V195.316H132.229V194.611H133.058V193.177H133.976V194.611H135.455V195.316H133.965V198.755C133.965 199.348 134.267 199.55 134.783 199.55C134.995 199.55 135.242 199.528 135.6 199.416ZM136.565 198.576H137.461C137.528 199.348 138.245 199.673 139.007 199.673C139.779 199.673 140.339 199.315 140.339 198.71C140.339 198.296 140.071 198.027 139.354 197.892L138.357 197.691C137.45 197.523 136.789 197.153 136.789 196.168C136.789 195.216 137.64 194.476 138.883 194.476C140.183 194.476 140.978 195.036 141.09 196.1H140.227C140.16 195.529 139.656 195.193 138.883 195.193C138.133 195.193 137.651 195.563 137.651 196.112C137.651 196.593 137.987 196.795 138.637 196.918L139.757 197.131C140.675 197.31 141.213 197.758 141.213 198.665C141.213 199.651 140.283 200.379 139.018 200.379C137.674 200.379 136.666 199.785 136.565 198.576ZM147.736 199.416V200.177C147.322 200.3 146.997 200.334 146.75 200.334C145.72 200.334 145.194 199.841 145.194 198.8V195.316H144.365V194.611H145.194V193.177H146.112V194.611H147.59V195.316H146.101V198.755C146.101 199.348 146.403 199.55 146.918 199.55C147.131 199.55 147.378 199.528 147.736 199.416ZM154.056 197.433C154.056 199.248 152.936 200.379 151.379 200.379C149.822 200.379 148.702 199.248 148.702 197.433C148.702 195.619 149.822 194.476 151.379 194.476C152.936 194.476 154.056 195.619 154.056 197.433ZM149.621 197.433C149.621 198.788 150.282 199.628 151.379 199.628C152.477 199.628 153.138 198.788 153.138 197.433C153.138 196.078 152.477 195.227 151.379 195.227C150.282 195.227 149.621 196.078 149.621 197.433ZM162.555 198.587C162.297 199.785 161.323 200.379 160.225 200.379C158.635 200.379 157.515 199.27 157.515 197.456C157.515 195.619 158.668 194.476 160.169 194.476C161.838 194.476 162.588 195.809 162.588 197.254V197.624H158.422C158.467 198.923 159.15 199.64 160.225 199.64C160.987 199.64 161.446 199.27 161.681 198.587H162.555ZM160.169 195.227C159.284 195.227 158.612 195.798 158.456 196.952H161.681C161.659 195.977 161.177 195.227 160.169 195.227ZM168.106 200.244V199.259C167.826 199.83 167.131 200.379 166.202 200.379C164.768 200.379 163.693 199.214 163.693 197.433C163.693 195.641 164.768 194.476 166.202 194.476C167.176 194.476 167.815 195.036 168.072 195.608V192.001H169.002V200.244H168.106ZM168.117 197.5V197.344C168.117 196.067 167.49 195.204 166.392 195.204C165.283 195.204 164.634 196.112 164.634 197.433C164.634 198.744 165.283 199.651 166.392 199.651C167.49 199.651 168.117 198.777 168.117 197.5ZM170.864 193.435V192.304H171.916V193.435H170.864ZM170.931 200.244V194.611H171.86V200.244H170.931ZM176.405 199.416V200.177C175.99 200.3 175.666 200.334 175.419 200.334C174.389 200.334 173.862 199.841 173.862 198.8V195.316H173.034V194.611H173.862V193.177H174.781V194.611H176.259V195.316H174.77V198.755C174.77 199.348 175.072 199.55 175.587 199.55C175.8 199.55 176.046 199.528 176.405 199.416ZM183.662 200.244C183.594 199.931 183.561 199.561 183.561 199.292C183.314 199.953 182.542 200.368 181.601 200.368C180.615 200.368 179.775 199.796 179.775 198.755C179.775 197.668 180.582 197.198 181.724 197.064L183.538 196.828V196.504C183.538 195.608 182.99 195.227 182.217 195.227C181.466 195.227 180.996 195.619 180.929 196.268H180.033C180.145 195.126 181.041 194.476 182.239 194.476C183.606 194.476 184.457 195.126 184.457 196.481V199.068C184.457 199.483 184.479 199.875 184.591 200.244H183.662ZM181.791 199.662C182.665 199.662 183.538 199.113 183.538 198.027V197.523L182.004 197.691C181.298 197.792 180.716 197.971 180.716 198.732C180.716 199.259 181.086 199.662 181.791 199.662ZM187.254 199.259V202.238H186.325V194.611H187.221V195.641C187.478 195.07 188.15 194.476 189.125 194.476C190.558 194.476 191.633 195.641 191.633 197.433C191.633 199.214 190.558 200.379 189.125 200.379C188.195 200.379 187.534 199.83 187.254 199.259ZM187.209 197.344V197.5C187.209 198.777 187.837 199.651 188.934 199.651C190.043 199.651 190.693 198.744 190.693 197.433C190.693 196.112 190.043 195.204 188.934 195.204C187.837 195.204 187.209 196.067 187.209 197.344ZM194.078 199.259V202.238H193.148V194.611H194.044V195.641C194.302 195.07 194.974 194.476 195.948 194.476C197.382 194.476 198.457 195.641 198.457 197.433C198.457 199.214 197.382 200.379 195.948 200.379C195.018 200.379 194.358 199.83 194.078 199.259ZM194.033 197.344V197.5C194.033 198.777 194.66 199.651 195.758 199.651C196.866 199.651 197.516 198.744 197.516 197.433C197.516 196.112 196.866 195.204 195.758 195.204C194.66 195.204 194.033 196.067 194.033 197.344ZM203.096 194.532V195.384C202.962 195.35 202.76 195.339 202.615 195.339C201.719 195.339 200.901 196.044 200.901 197.467V200.244H199.971V194.611H200.867V195.944C201.114 195.014 201.831 194.488 202.659 194.488C202.805 194.488 202.962 194.499 203.096 194.532ZM209.043 197.433C209.043 199.248 207.923 200.379 206.367 200.379C204.81 200.379 203.69 199.248 203.69 197.433C203.69 195.619 204.81 194.476 206.367 194.476C207.923 194.476 209.043 195.619 209.043 197.433ZM204.608 197.433C204.608 198.788 205.269 199.628 206.367 199.628C207.464 199.628 208.125 198.788 208.125 197.433C208.125 196.078 207.464 195.227 206.367 195.227C205.269 195.227 204.608 196.078 204.608 197.433ZM211.938 200.244L209.687 194.611H210.639L212.453 199.326H212.475L214.211 194.611H215.141L212.979 200.244H211.938ZM219.713 200.244C219.646 199.931 219.612 199.561 219.612 199.292C219.366 199.953 218.593 200.368 217.652 200.368C216.667 200.368 215.827 199.796 215.827 198.755C215.827 197.668 216.633 197.198 217.776 197.064L219.59 196.828V196.504C219.59 195.608 219.041 195.227 218.268 195.227C217.518 195.227 217.048 195.619 216.98 196.268H216.084C216.196 195.126 217.092 194.476 218.291 194.476C219.657 194.476 220.508 195.126 220.508 196.481V199.068C220.508 199.483 220.531 199.875 220.643 200.244H219.713ZM217.843 199.662C218.716 199.662 219.59 199.113 219.59 198.027V197.523L218.056 197.691C217.35 197.792 216.768 197.971 216.768 198.732C216.768 199.259 217.137 199.662 217.843 199.662ZM223.306 200.244H222.376V192.001H223.306V200.244ZM224.748 198.576H225.644C225.711 199.348 226.428 199.673 227.189 199.673C227.962 199.673 228.522 199.315 228.522 198.71C228.522 198.296 228.253 198.027 227.536 197.892L226.54 197.691C225.632 197.523 224.972 197.153 224.972 196.168C224.972 195.216 225.823 194.476 227.066 194.476C228.365 194.476 229.16 195.036 229.272 196.1H228.41C228.343 195.529 227.839 195.193 227.066 195.193C226.316 195.193 225.834 195.563 225.834 196.112C225.834 196.593 226.17 196.795 226.82 196.918L227.94 197.131C228.858 197.31 229.396 197.758 229.396 198.665C229.396 199.651 228.466 200.379 227.2 200.379C225.856 200.379 224.848 199.785 224.748 198.576Z" fill="#181B25"/>
<path d="M277.6 175.661H264.267C263.162 175.661 262.267 176.556 262.267 177.661V190.994C262.267 192.099 263.162 192.994 264.267 192.994H277.6C278.705 192.994 279.6 192.099 279.6 190.994V177.661C279.6 176.556 278.705 175.661 277.6 175.661Z" fill="#F6F6F6"/>
<path d="M273.1 182.161L268.767 186.494M268.767 182.161L273.1 186.494" stroke="#181B25" stroke-width="0.8696" stroke-linecap="round" stroke-linejoin="round"/>
<path d="M300.133 175.661H286.8C285.695 175.661 284.8 176.556 284.8 177.661V190.994C284.8 192.099 285.695 192.994 286.8 192.994H300.133C301.238 192.994 302.133 192.099 302.133 190.994V177.661C302.133 176.556 301.238 175.661 300.133 175.661Z" fill="#3C82F6"/>
<path d="M296.355 182.161L292.383 186.133L290.578 184.328" stroke="white" stroke-width="0.8696" stroke-linecap="round" stroke-linejoin="round"/>
</g>
</g>
</g>
<defs>
<filter id="filter0_dddddi_5_303" x="32" y="66.6755" width="308" height="199.436" filterUnits="userSpaceOnUse" color-interpolation-filters="sRGB">
<feFlood flood-opacity="0" result="BackgroundImageFix"/>
<feColorMatrix in="SourceAlpha" type="matrix" values="0 0 0 0 0 0 0 0 0 0 0 0 0 0 0 0 0 0 127 0" result="hardAlpha"/>
<feOffset dy="1"/>
<feGaussianBlur stdDeviation="0.5"/>
<feComposite in2="hardAlpha" operator="out"/>
<feColorMatrix type="matrix" values="0 0 0 0 0.164706 0 0 0 0 0.2 0 0 0 0 0.270588 0 0 0 0.0392 0"/>
<feBlend mode="normal" in2="BackgroundImageFix" result="effect1_dropShadow_5_303"/>
<feColorMatrix in="SourceAlpha" type="matrix" values="0 0 0 0 0 0 0 0 0 0 0 0 0 0 0 0 0 0 127 0" result="hardAlpha"/>
<feOffset dy="3"/>
<feGaussianBlur stdDeviation="1.5"/>
<feComposite in2="hardAlpha" operator="out"/>
<feColorMatrix type="matrix" values="0 0 0 0 0.164706 0 0 0 0 0.2 0 0 0 0 0.27451 0 0 0 0.0392 0"/>
<feBlend mode="normal" in2="effect1_dropShadow_5_303" result="effect2_dropShadow_5_303"/>
<feColorMatrix in="SourceAlpha" type="matrix" values="0 0 0 0 0 0 0 0 0 0 0 0 0 0 0 0 0 0 127 0" result="hardAlpha"/>
<feOffset dy="6"/>
<feGaussianBlur stdDeviation="3"/>
<feComposite in2="hardAlpha" operator="out"/>
<feColorMatrix type="matrix" values="0 0 0 0 0.164706 0 0 0 0 0.2 0 0 0 0 0.27451 0 0 0 0.0392 0"/>
<feBlend mode="normal" in2="effect2_dropShadow_5_303" result="effect3_dropShadow_5_303"/>
<feColorMatrix in="SourceAlpha" type="matrix" values="0 0 0 0 0 0 0 0 0 0 0 0 0 0 0 0 0 0 127 0" result="hardAlpha"/>
<feOffset dy="12"/>
<feGaussianBlur stdDeviation="6"/>
<feComposite in2="hardAlpha" operator="out"/>
<feColorMatrix type="matrix" values="0 0 0 0 0.164706 0 0 0 0 0.2 0 0 0 0 0.27451 0 0 0 0.0392 0"/>
<feBlend mode="normal" in2="effect3_dropShadow_5_303" result="effect4_dropShadow_5_303"/>
<feColorMatrix in="SourceAlpha" type="matrix" values="0 0 0 0 0 0 0 0 0 0 0 0 0 0 0 0 0 0 127 0" result="hardAlpha"/>
<feOffset dy="24"/>
<feGaussianBlur stdDeviation="12"/>
<feComposite in2="hardAlpha" operator="out"/>
<feColorMatrix type="matrix" values="0 0 0 0 0.164706 0 0 0 0 0.2 0 0 0 0 0.27451 0 0 0 0.0392 0"/>
<feBlend mode="normal" in2="effect4_dropShadow_5_303" result="effect5_dropShadow_5_303"/>
<feBlend mode="normal" in="SourceGraphic" in2="effect5_dropShadow_5_303" result="shape"/>
<feColorMatrix in="SourceAlpha" type="matrix" values="0 0 0 0 0 0 0 0 0 0 0 0 0 0 0 0 0 0 127 0" result="hardAlpha"/>
<feOffset/>
<feGaussianBlur stdDeviation="2"/>
<feComposite in2="hardAlpha" operator="arithmetic" k2="-1" k3="1"/>
<feColorMatrix type="matrix" values="0 0 0 0 0.054902 0 0 0 0 0.247059 0 0 0 0 0.494118 0 0 0 0.0392 0"/>
<feBlend mode="normal" in2="shape" result="effect6_innerShadow_5_303"/>
</filter>
<clipPath id="clip0_5_303">
<rect width="372" height="320" fill="white"/>
</clipPath>
<clipPath id="clip1_5_303">
<rect width="284" height="190" fill="white" transform="translate(44 65)"/>
</clipPath>
</defs>
</svg>
