<svg width="372" height="320" viewBox="0 0 372 320" fill="none" xmlns="http://www.w3.org/2000/svg">
<g clip-path="url(#clip0_7_498)">
<path d="M366.667 0H12C7.58172 0 4 3.58172 4 8V312C4 316.418 7.58172 320 12 320H366.667C371.085 320 374.667 316.418 374.667 312V8C374.667 3.58172 371.085 0 366.667 0Z" fill="#F6F6F6"/>
<g clip-path="url(#clip1_7_498)">
<g filter="url(#filter0_dddddi_7_498)">
<path d="M335.917 75.8586H42.0833C38.3094 75.8586 35.25 78.9338 35.25 82.7273V206.781C35.25 210.574 38.3094 213.65 42.0833 213.65H335.917C339.691 213.65 342.75 210.574 342.75 206.781V82.7273C342.75 78.9338 339.691 75.8586 335.917 75.8586Z" fill="white"/>
<path d="M60.0455 107.258L59.2361 105.133H55.3462L54.5247 107.258H52.9543L56.4214 98.5883H58.2213L61.6884 107.258H60.0455ZM57.2911 100.143L55.8415 103.883H58.7529L57.3274 100.143H57.2911ZM64.1501 107.258L61.734 101.09H63.2923L64.9957 105.741H65.0199L66.687 101.09H68.197L65.8413 107.258H64.1501ZM72.9747 107.258C72.9143 106.918 72.8902 106.591 72.8902 106.287C72.6003 106.991 71.8272 107.392 70.8486 107.392C69.6527 107.392 68.7829 106.724 68.7829 105.607C68.7829 104.368 69.7493 103.858 70.9936 103.713L72.8298 103.506V103.215C72.8298 102.462 72.3708 102.098 71.6701 102.098C70.9936 102.098 70.5829 102.474 70.5345 103.045H69.0486C69.1815 101.721 70.2083 100.944 71.7184 100.944C73.3855 100.944 74.3399 101.733 74.3399 103.336V105.716C74.3399 106.287 74.364 106.761 74.4606 107.258H72.9747ZM71.2714 106.311C72.0687 106.311 72.8298 105.838 72.8298 104.866V104.49L71.4647 104.648C70.8124 104.733 70.3171 104.878 70.3171 105.522C70.3171 106.008 70.6553 106.311 71.2714 106.311ZM76.1183 100.046V98.5276H77.7612V100.046H76.1183ZM76.1666 107.258V101.09H77.7129V107.258H76.1666ZM81.1459 107.258H79.5996V98.3212H81.1459V107.258ZM86.7776 107.258C86.7171 106.918 86.693 106.591 86.693 106.287C86.403 106.991 85.6299 107.392 84.6514 107.392C83.4554 107.392 82.5856 106.724 82.5856 105.607C82.5856 104.368 83.5521 103.858 84.7963 103.713L86.6325 103.506V103.215C86.6325 102.462 86.1735 102.098 85.4728 102.098C84.7963 102.098 84.3856 102.474 84.3373 103.045H82.8514C82.9843 101.721 84.0111 100.944 85.5212 100.944C87.1882 100.944 88.1426 101.733 88.1426 103.336V105.716C88.1426 106.287 88.1668 106.761 88.2634 107.258H86.7776ZM85.0742 106.311C85.8714 106.311 86.6325 105.838 86.6325 104.866V104.49L85.2675 104.648C84.6151 104.733 84.1198 104.878 84.1198 105.522C84.1198 106.008 84.4581 106.311 85.0742 106.311ZM91.4915 106.275V107.258H89.9694V98.3212H91.5157V102.098C91.8056 101.478 92.5063 100.944 93.4606 100.944C95.0673 100.944 96.1666 102.268 96.1666 104.174C96.1666 106.093 95.0673 107.404 93.4606 107.404C92.5305 107.404 91.7935 106.894 91.4915 106.275ZM91.4794 104.065V104.283C91.4794 105.486 92.0472 106.263 93.0257 106.263C94.0284 106.263 94.6082 105.449 94.6082 104.174C94.6082 102.911 94.0284 102.086 93.0257 102.086C92.0472 102.086 91.4794 102.863 91.4794 104.065ZM99.172 107.258H97.6258V98.3212H99.172V107.258ZM106.507 105.34C106.241 106.663 105.142 107.404 103.741 107.404C101.953 107.404 100.636 106.202 100.636 104.186C100.636 102.171 101.977 100.944 103.704 100.944C105.625 100.944 106.543 102.413 106.543 104.053V104.551H102.134C102.231 105.643 102.786 106.263 103.741 106.263C104.441 106.263 104.876 105.935 105.081 105.34H106.507ZM103.704 102.098C102.895 102.098 102.351 102.596 102.182 103.543H105.069C105.069 102.778 104.635 102.098 103.704 102.098ZM114.361 107.258H110.58V98.5883H114.047C116.065 98.5883 117.164 99.4019 117.164 100.956C117.164 101.721 116.56 102.559 115.859 102.766C116.802 103.021 117.514 103.786 117.514 104.793C117.514 106.421 116.354 107.258 114.361 107.258ZM112.151 102.256H114.035C115.11 102.256 115.618 101.77 115.618 101.017C115.618 100.228 115.098 99.7784 114.047 99.7784H112.151V102.256ZM112.151 103.409V106.068H114.24C115.351 106.068 115.931 105.571 115.931 104.733C115.931 103.919 115.339 103.409 114.228 103.409H112.151ZM122.83 107.258C122.77 106.918 122.745 106.591 122.745 106.287C122.455 106.991 121.682 107.392 120.704 107.392C119.508 107.392 118.638 106.724 118.638 105.607C118.638 104.368 119.604 103.858 120.849 103.713L122.685 103.506V103.215C122.685 102.462 122.226 102.098 121.525 102.098C120.849 102.098 120.438 102.474 120.389 103.045H118.904C119.036 101.721 120.064 100.944 121.573 100.944C123.24 100.944 124.194 101.733 124.194 103.336V105.716C124.194 106.287 124.219 106.761 124.316 107.258H122.83ZM121.126 106.311C121.924 106.311 122.685 105.838 122.685 104.866V104.49L121.319 104.648C120.668 104.733 120.172 104.878 120.172 105.522C120.172 106.008 120.51 106.311 121.126 106.311ZM127.568 107.258H126.022V98.3212H127.568V107.258ZM133.2 107.258C133.139 106.918 133.115 106.591 133.115 106.287C132.825 106.991 132.052 107.392 131.073 107.392C129.877 107.392 129.008 106.724 129.008 105.607C129.008 104.368 129.974 103.858 131.218 103.713L133.055 103.506V103.215C133.055 102.462 132.595 102.098 131.895 102.098C131.218 102.098 130.807 102.474 130.76 103.045H129.273C129.407 101.721 130.433 100.944 131.943 100.944C133.61 100.944 134.565 101.733 134.565 103.336V105.716C134.565 106.287 134.589 106.761 134.685 107.258H133.2ZM131.496 106.311C132.294 106.311 133.055 105.838 133.055 104.866V104.49L131.69 104.648C131.037 104.733 130.542 104.878 130.542 105.522C130.542 106.008 130.88 106.311 131.496 106.311ZM137.913 101.09V102.134C138.204 101.43 138.916 100.944 139.846 100.944C141.248 100.944 142.094 101.818 142.094 103.3V107.258H140.548V103.664C140.548 102.681 140.125 102.171 139.315 102.171C138.542 102.171 137.938 102.668 137.938 103.907V107.258H136.391V101.09H137.913ZM143.483 104.174C143.483 102.183 144.764 100.944 146.564 100.944C148.086 100.944 149.064 101.831 149.234 103.203H147.772C147.652 102.535 147.253 102.11 146.552 102.11C145.573 102.11 145.03 102.923 145.03 104.174C145.03 105.437 145.573 106.238 146.552 106.238C147.253 106.238 147.652 105.801 147.772 105.146H149.234C149.064 106.53 148.086 107.404 146.564 107.404C144.764 107.404 143.483 106.178 143.483 104.174ZM156.079 105.34C155.813 106.663 154.714 107.404 153.312 107.404C151.524 107.404 150.208 106.202 150.208 104.186C150.208 102.171 151.549 100.944 153.276 100.944C155.197 100.944 156.116 102.413 156.116 104.053V104.551H151.705C151.803 105.643 152.358 106.263 153.312 106.263C154.013 106.263 154.448 105.935 154.653 105.34H156.079ZM153.276 102.098C152.467 102.098 151.923 102.596 151.754 103.543H154.641C154.641 102.778 154.206 102.098 153.276 102.098Z" fill="#181B25"/>
<path d="M71.9785 151.659C71.9785 155.429 68.7498 157.964 64.3525 158.242V161.333H62.1078V158.211C57.6798 157.809 54.3588 155.522 54.0205 151.319H57.772C57.9873 153.729 59.863 154.904 62.1078 155.213V148.382L60.5088 148.104C57.3108 147.517 54.697 146.002 54.697 142.139C54.697 138.429 57.772 135.833 62.1078 135.586V132.649H64.3525V135.617C68.6268 136.049 71.179 138.275 71.5788 141.922H67.8888C67.6735 140.099 66.4128 139.048 64.3525 138.708V145.291L66.3205 145.662C69.8568 146.342 71.9785 148.135 71.9785 151.659ZM61.831 144.797L62.1078 144.859V138.646C59.74 138.862 58.387 140.129 58.387 141.891C58.387 143.715 59.4325 144.333 61.831 144.797ZM64.7215 148.877L64.3525 148.815V155.275C66.8125 155.028 68.2885 153.853 68.2885 151.937C68.2885 150.329 67.4275 149.371 64.7215 148.877ZM85.6906 139.14H73.7904V135.895H89.8419V139.017C84.7374 145.291 83.1076 150.824 83.0154 157.964H78.8334C78.9256 150.515 81.6931 144.333 85.6906 139.14ZM107.837 151.968C107.837 155.399 104.916 158.335 99.7194 158.335C94.707 158.335 91.509 155.553 91.14 151.38H95.0454C95.2298 153.699 97.0133 155.213 99.7194 155.213C102.425 155.213 104.055 153.853 104.055 151.689C104.055 149.464 102.364 148.382 99.8731 148.382H97.5976V145.353H99.8116C101.872 145.353 103.532 144.426 103.532 142.077C103.532 140.16 102.241 138.646 99.8116 138.646C97.2285 138.646 95.7219 140.377 95.5681 142.602H91.8165C92.0625 138.769 94.8301 135.524 99.8424 135.524C104.793 135.524 107.345 138.553 107.345 141.953C107.345 144.549 105.623 146.404 103.409 146.806C106.054 147.239 107.837 149.248 107.837 151.968ZM118.758 135.524C123.124 135.524 126.445 137.811 126.445 141.768C126.445 144.148 125 145.909 123.032 146.775C125.215 147.208 127.429 149.309 127.429 151.906C127.429 155.8 123.985 158.335 118.758 158.335C113.53 158.335 110.086 155.8 110.086 151.906C110.086 149.309 112.3 147.208 114.483 146.775C112.515 145.909 111.07 144.148 111.07 141.768C111.07 137.811 114.391 135.524 118.758 135.524ZM118.758 145.26C121.033 145.26 122.847 144.117 122.847 141.86C122.847 139.573 121.033 138.46 118.758 138.46C116.451 138.46 114.668 139.573 114.668 141.86C114.668 144.117 116.451 145.26 118.758 145.26ZM118.758 155.337C121.802 155.337 123.524 153.915 123.524 151.751C123.524 149.588 121.802 148.166 118.758 148.166C115.713 148.166 113.991 149.588 113.991 151.751C113.991 153.915 115.713 155.337 118.758 155.337ZM130.378 157.84V153.359H134.959V158.273C134.959 161.364 132.961 163.126 129.701 163.126V160.993C131.362 160.993 132.469 160.406 132.469 158.273V157.84H130.378ZM146.573 135.524C150.94 135.524 154.261 137.811 154.261 141.768C154.261 144.148 152.816 145.909 150.848 146.775C153.031 147.208 155.245 149.309 155.245 151.906C155.245 155.8 151.801 158.335 146.573 158.335C141.346 158.335 137.902 155.8 137.902 151.906C137.902 149.309 140.116 147.208 142.299 146.775C140.331 145.909 138.886 144.148 138.886 141.768C138.886 137.811 142.207 135.524 146.573 135.524ZM146.573 145.26C148.849 145.26 150.663 144.117 150.663 141.86C150.663 139.573 148.849 138.46 146.573 138.46C144.267 138.46 142.484 139.573 142.484 141.86C142.484 144.117 144.267 145.26 146.573 145.26ZM146.573 155.337C149.618 155.337 151.34 153.915 151.34 151.751C151.34 149.588 149.618 148.166 146.573 148.166C143.529 148.166 141.807 149.588 141.807 151.751C141.807 153.915 143.529 155.337 146.573 155.337ZM157.039 141.86V139.14C160.79 139.14 162.266 138.12 162.789 135.833H165.587V157.964H161.528V141.86H157.039ZM169.04 141.86V139.14C172.791 139.14 174.267 138.12 174.79 135.833H177.588V157.964H173.529V141.86H169.04ZM182.466 157.964V153.359H187.047V157.964H182.466ZM198.371 138.677C194.958 138.677 193.051 142.169 193.051 146.775C193.912 144.859 195.819 143.22 198.709 143.22C203.107 143.22 206.212 146.435 206.212 150.669C206.212 155.089 203.014 158.335 198.156 158.335C192.959 158.335 189.331 154.1 189.331 147.3C189.331 140.222 193.113 135.524 198.494 135.524C202.645 135.524 205.474 138.028 205.997 141.768H202.276C201.815 139.82 200.585 138.677 198.371 138.677ZM198.125 155.306C200.77 155.306 202.461 153.389 202.461 150.731C202.461 148.104 200.77 146.188 198.125 146.188C195.481 146.188 193.697 148.104 193.697 150.731C193.697 153.389 195.481 155.306 198.125 155.306ZM224.279 142.2C224.279 146.219 221.204 148.073 217.606 150.113C214.869 151.72 212.901 153.142 212.84 154.719H224.402V157.964H208.381V156.388C208.381 152.091 212.132 149.433 215.423 147.455C218.467 145.6 220.435 144.333 220.435 142.169C220.435 140.284 219.328 138.708 216.745 138.708C214.223 138.708 212.747 140.655 212.594 142.942H208.688C208.965 138.862 211.794 135.524 216.776 135.524C221.48 135.524 224.279 138.491 224.279 142.2Z" fill="#181B25"/>
<path d="M65.3401 186.38C65.3401 189.978 63.2843 191.915 59.7415 191.915C56.2172 191.915 54.1431 189.978 54.1431 186.343V178.521H56.5844V186.362C56.5844 188.668 57.6306 189.959 59.7415 189.959C61.8525 189.959 62.9172 188.668 62.9172 186.362V178.521H65.3401V186.38ZM70.3311 190.2V194.978H67.9816V182.321H70.2945V183.871C70.735 182.93 71.8364 182.1 73.2865 182.1C75.7278 182.1 77.3982 184.111 77.3982 187.008C77.3982 189.923 75.7278 191.915 73.2865 191.915C71.8731 191.915 70.8085 191.141 70.3311 190.2ZM70.2761 186.841V187.173C70.2761 189 71.1388 190.181 72.6257 190.181C74.1492 190.181 75.0303 188.945 75.0303 187.008C75.0303 185.089 74.1492 183.834 72.6257 183.834C71.1388 183.834 70.2761 185.015 70.2761 186.841ZM88.1868 189.757V191.565C87.4526 191.787 86.9019 191.842 86.3329 191.842C84.3871 191.842 83.4327 191.011 83.4327 189.129V184.019H82.1478V182.321H83.4327V179.978H85.7639V182.321H87.9849V184.019H85.7455V188.76C85.7455 189.646 86.1677 189.941 86.957 189.941C87.3057 189.941 87.6729 189.905 88.1868 189.757ZM98.9403 187.008C98.9403 190.052 96.9763 191.915 94.223 191.915C91.4695 191.915 89.5055 190.052 89.5055 187.008C89.5055 183.982 91.4695 182.1 94.223 182.1C96.9763 182.1 98.9403 183.982 98.9403 187.008ZM91.855 187.008C91.855 188.982 92.6994 190.163 94.223 190.163C95.7281 190.163 96.5908 188.982 96.5908 187.008C96.5908 185.052 95.7281 183.852 94.223 183.852C92.6994 183.852 91.855 185.052 91.855 187.008ZM109.138 184.665C107.982 184.665 107.211 185.236 106.807 185.882H104.623L105.375 178.521H113.232V180.458H107.119L106.77 183.889C107.266 183.336 108.294 182.819 109.524 182.819C112.24 182.819 113.985 184.775 113.985 187.358C113.985 189.905 112.167 191.915 109.138 191.915C106.183 191.915 104.292 190.237 104.09 187.69H106.513C106.624 189.074 107.596 190.07 109.138 190.07C110.827 190.07 111.653 188.816 111.653 187.377C111.653 185.919 110.846 184.665 109.138 184.665ZM115.814 191.694V188.945H118.549V191.694H115.814ZM120.113 185.107C120.113 181.159 122.279 178.299 125.694 178.299C129.108 178.299 131.256 181.159 131.256 185.107C131.256 189.055 129.108 191.915 125.694 191.915C122.279 191.915 120.113 189.055 120.113 185.107ZM122.573 185.107C122.573 188.096 123.601 189.996 125.694 189.996C127.767 189.996 128.796 188.096 128.796 185.107C128.796 182.118 127.767 180.218 125.694 180.218C123.601 180.218 122.573 182.118 122.573 185.107ZM142.145 182.285C142.145 184.683 140.309 185.79 138.161 187.008C136.528 187.967 135.352 188.816 135.316 189.757H142.218V191.694H132.654V190.753C132.654 188.188 134.894 186.602 136.858 185.421C138.675 184.313 139.85 183.557 139.85 182.266C139.85 181.14 139.189 180.199 137.648 180.199C136.142 180.199 135.261 181.362 135.17 182.727H132.838C133.003 180.292 134.692 178.299 137.666 178.299C140.474 178.299 142.145 180.07 142.145 182.285ZM143.92 181.362C143.92 179.664 145.297 178.299 146.967 178.299C148.637 178.299 149.995 179.664 149.995 181.362C149.995 183.041 148.637 184.406 146.967 184.406C145.297 184.406 143.92 183.041 143.92 181.362ZM154.162 178.521H155.796L147.113 191.676H145.479L154.162 178.521ZM145.351 181.362C145.351 182.303 146.086 183.022 146.967 183.022C147.848 183.022 148.582 182.303 148.582 181.362C148.582 180.421 147.848 179.682 146.967 179.682C146.086 179.682 145.351 180.421 145.351 181.362ZM151.262 188.871C151.262 187.192 152.62 185.808 154.291 185.808C155.961 185.808 157.319 187.192 157.319 188.871C157.319 190.568 155.961 191.934 154.291 191.934C152.62 191.934 151.262 190.568 151.262 188.871ZM152.675 188.871C152.675 189.812 153.41 190.55 154.291 190.55C155.19 190.55 155.906 189.812 155.906 188.871C155.906 187.93 155.19 187.192 154.291 187.192C153.41 187.192 152.675 187.93 152.675 188.871ZM173.024 191.694L171.795 188.466H165.884L164.636 191.694H162.249L167.517 178.521H170.252L175.52 191.694H173.024ZM168.839 180.882L166.636 186.565H171.06L168.894 180.882H168.839ZM182.553 186.841H179.505V191.694H177.119V178.521H182.534C185.636 178.521 187.435 179.941 187.435 182.69C187.435 185.439 185.636 186.841 182.553 186.841ZM179.505 184.923H182.332C184.131 184.923 185.031 184.185 185.031 182.69C185.031 181.177 184.131 180.458 182.332 180.458H179.505V184.923ZM195.385 191.694H192.944V186.288L187.877 178.521H190.594L194.228 184.148H194.265L197.807 178.521H200.469L195.385 186.288V191.694Z" fill="#16AF63"/>
</g>
</g>
</g>
<defs>
<filter id="filter0_dddddi_7_498" x="11.25" y="75.8586" width="355.5" height="185.791" filterUnits="userSpaceOnUse" color-interpolation-filters="sRGB">
<feFlood flood-opacity="0" result="BackgroundImageFix"/>
<feColorMatrix in="SourceAlpha" type="matrix" values="0 0 0 0 0 0 0 0 0 0 0 0 0 0 0 0 0 0 127 0" result="hardAlpha"/>
<feOffset dy="1"/>
<feGaussianBlur stdDeviation="0.5"/>
<feComposite in2="hardAlpha" operator="out"/>
<feColorMatrix type="matrix" values="0 0 0 0 0.164706 0 0 0 0 0.2 0 0 0 0 0.270588 0 0 0 0.0392 0"/>
<feBlend mode="normal" in2="BackgroundImageFix" result="effect1_dropShadow_7_498"/>
<feColorMatrix in="SourceAlpha" type="matrix" values="0 0 0 0 0 0 0 0 0 0 0 0 0 0 0 0 0 0 127 0" result="hardAlpha"/>
<feOffset dy="3"/>
<feGaussianBlur stdDeviation="1.5"/>
<feComposite in2="hardAlpha" operator="out"/>
<feColorMatrix type="matrix" values="0 0 0 0 0.164706 0 0 0 0 0.2 0 0 0 0 0.27451 0 0 0 0.0392 0"/>
<feBlend mode="normal" in2="effect1_dropShadow_7_498" result="effect2_dropShadow_7_498"/>
<feColorMatrix in="SourceAlpha" type="matrix" values="0 0 0 0 0 0 0 0 0 0 0 0 0 0 0 0 0 0 127 0" result="hardAlpha"/>
<feOffset dy="6"/>
<feGaussianBlur stdDeviation="3"/>
<feComposite in2="hardAlpha" operator="out"/>
<feColorMatrix type="matrix" values="0 0 0 0 0.164706 0 0 0 0 0.2 0 0 0 0 0.27451 0 0 0 0.0392 0"/>
<feBlend mode="normal" in2="effect2_dropShadow_7_498" result="effect3_dropShadow_7_498"/>
<feColorMatrix in="SourceAlpha" type="matrix" values="0 0 0 0 0 0 0 0 0 0 0 0 0 0 0 0 0 0 127 0" result="hardAlpha"/>
<feOffset dy="12"/>
<feGaussianBlur stdDeviation="6"/>
<feComposite in2="hardAlpha" operator="out"/>
<feColorMatrix type="matrix" values="0 0 0 0 0.164706 0 0 0 0 0.2 0 0 0 0 0.27451 0 0 0 0.0392 0"/>
<feBlend mode="normal" in2="effect3_dropShadow_7_498" result="effect4_dropShadow_7_498"/>
<feColorMatrix in="SourceAlpha" type="matrix" values="0 0 0 0 0 0 0 0 0 0 0 0 0 0 0 0 0 0 127 0" result="hardAlpha"/>
<feOffset dy="24"/>
<feGaussianBlur stdDeviation="12"/>
<feComposite in2="hardAlpha" operator="out"/>
<feColorMatrix type="matrix" values="0 0 0 0 0.164706 0 0 0 0 0.2 0 0 0 0 0.27451 0 0 0 0.0392 0"/>
<feBlend mode="normal" in2="effect4_dropShadow_7_498" result="effect5_dropShadow_7_498"/>
<feBlend mode="normal" in="SourceGraphic" in2="effect5_dropShadow_7_498" result="shape"/>
<feColorMatrix in="SourceAlpha" type="matrix" values="0 0 0 0 0 0 0 0 0 0 0 0 0 0 0 0 0 0 127 0" result="hardAlpha"/>
<feOffset/>
<feGaussianBlur stdDeviation="2"/>
<feComposite in2="hardAlpha" operator="arithmetic" k2="-1" k3="1"/>
<feColorMatrix type="matrix" values="0 0 0 0 0.054902 0 0 0 0 0.247059 0 0 0 0 0.494118 0 0 0 0.0392 0"/>
<feBlend mode="normal" in2="shape" result="effect6_innerShadow_7_498"/>
</filter>
<clipPath id="clip0_7_498">
<rect width="372" height="320" fill="white"/>
</clipPath>
<clipPath id="clip1_7_498">
<rect width="328" height="170" fill="white" transform="translate(25 75)"/>
</clipPath>
</defs>
</svg>
