<svg width="372" height="320" viewBox="0 0 372 320" fill="none" xmlns="http://www.w3.org/2000/svg">
<g clip-path="url(#clip0_7_524)">
<path d="M366.667 0H12C7.58172 0 4 3.58172 4 8V312C4 316.418 7.58172 320 12 320H366.667C371.085 320 374.667 316.418 374.667 312V8C374.667 3.58172 371.085 0 366.667 0Z" fill="#F6F6F6"/>
<g clip-path="url(#clip1_7_524)">
<g filter="url(#filter0_dddddi_7_524)">
<path d="M301.768 51.3096H70.2327C66.8676 51.3096 64.1396 54.0456 64.1396 57.4207V235.894C64.1396 239.269 66.8676 242.005 70.2327 242.005H301.768C305.133 242.005 307.861 239.269 307.861 235.894V57.4207C307.861 54.0456 305.133 51.3096 301.768 51.3096Z" fill="white"/>
<path d="M93.0329 84.5174C93.0329 87.4996 90.4738 89.5041 86.9886 89.7241V92.1685H85.2094V89.6996C81.6998 89.3818 79.0677 87.5729 78.7996 84.2485H81.773C81.9436 86.1552 83.4303 87.0841 85.2094 87.3285V81.9263L83.9421 81.7063C81.4074 81.2418 79.3357 80.0441 79.3357 76.9885C79.3357 74.0552 81.773 72.0018 85.2094 71.8063V69.4841H86.9886V71.8307C90.3763 72.1729 92.3992 73.9329 92.716 76.8174H89.7914C89.6208 75.3752 88.6215 74.5441 86.9886 74.2752V79.4818L88.5484 79.7752C91.3512 80.3129 93.0329 81.7307 93.0329 84.5174ZM84.9901 79.0907L85.2094 79.1396V74.2263C83.3328 74.3974 82.2604 75.3996 82.2604 76.7929C82.2604 78.2352 83.089 78.7241 84.9901 79.0907ZM87.281 82.3174L86.9886 82.2685V87.3774C88.9384 87.1818 90.1082 86.2529 90.1082 84.7374C90.1082 83.4663 89.4258 82.7085 87.281 82.3174ZM94.2739 76.7685V74.6174C97.2473 74.6174 98.4172 73.8107 98.8315 72.0018H101.049V89.5041H97.8323V76.7685H94.2739ZM103.956 80.7774C103.956 75.5463 106.832 71.7574 111.365 71.7574C115.899 71.7574 118.75 75.5463 118.75 80.7774C118.75 86.0085 115.899 89.7974 111.365 89.7974C106.832 89.7974 103.956 86.0085 103.956 80.7774ZM107.222 80.7774C107.222 84.7374 108.587 87.2552 111.365 87.2552C114.12 87.2552 115.484 84.7374 115.484 80.7774C115.484 76.8174 114.12 74.2996 111.365 74.2996C108.587 74.2996 107.222 76.8174 107.222 80.7774ZM132.745 77.0374C132.745 80.2152 130.308 81.6818 127.456 83.2952C125.287 84.5663 123.727 85.6907 123.679 86.9374H132.842V89.5041H120.145V88.2574C120.145 84.8596 123.118 82.7574 125.726 81.1929C128.139 79.7263 129.699 78.7241 129.699 77.0129C129.699 75.5218 128.821 74.2752 126.774 74.2752C124.775 74.2752 123.606 75.8152 123.484 77.6241H120.388C120.608 74.3974 122.85 71.7574 126.798 71.7574C130.527 71.7574 132.745 74.1041 132.745 77.0374ZM135.488 89.4063V85.8618H139.12V89.7485C139.12 92.1929 137.536 93.5863 134.952 93.5863V91.8996C136.268 91.8996 137.146 91.4352 137.146 89.7485V89.4063H135.488ZM140.734 80.7774C140.734 75.5463 143.61 71.7574 148.143 71.7574C152.676 71.7574 155.527 75.5463 155.527 80.7774C155.527 86.0085 152.676 89.7974 148.143 89.7974C143.61 89.7974 140.734 86.0085 140.734 80.7774ZM143.999 80.7774C143.999 84.7374 145.364 87.2552 148.143 87.2552C150.897 87.2552 152.262 84.7374 152.262 80.7774C152.262 76.8174 150.897 74.2996 148.143 74.2996C145.364 74.2996 143.999 76.8174 143.999 80.7774ZM168.523 72.0507V82.6596H171.984V85.1285H168.523V89.5041H165.428V85.1285H156.8V82.6352L165.014 72.0507H168.523ZM165.428 75.0818L159.652 82.6596H165.428V75.0818ZM180.018 71.7574C183.478 71.7574 186.111 73.5663 186.111 76.6952C186.111 78.5774 184.965 79.9707 183.405 80.6552C185.136 80.9974 186.891 82.6596 186.891 84.7129C186.891 87.7929 184.161 89.7974 180.018 89.7974C175.874 89.7974 173.145 87.7929 173.145 84.7129C173.145 82.6596 174.899 80.9974 176.63 80.6552C175.07 79.9707 173.925 78.5774 173.925 76.6952C173.925 73.5663 176.557 71.7574 180.018 71.7574ZM180.018 79.4574C181.821 79.4574 183.259 78.5529 183.259 76.7685C183.259 74.9596 181.821 74.0796 180.018 74.0796C178.19 74.0796 176.776 74.9596 176.776 76.7685C176.776 78.5529 178.19 79.4574 180.018 79.4574ZM180.018 87.4263C182.43 87.4263 183.795 86.3018 183.795 84.5907C183.795 82.8796 182.43 81.7552 180.018 81.7552C177.605 81.7552 176.24 82.8796 176.24 84.5907C176.24 86.3018 177.605 87.4263 180.018 87.4263ZM188.984 89.5041V85.8618H192.615V89.5041H188.984ZM201.109 87.3041C203.815 87.3041 205.326 84.5418 205.326 80.8996C204.643 82.4152 203.132 83.7107 200.841 83.7107C197.356 83.7107 194.894 81.1685 194.894 77.8196C194.894 74.3241 197.429 71.7574 201.28 71.7574C205.399 71.7574 208.275 75.1063 208.275 80.4841C208.275 86.0818 205.277 89.7974 201.012 89.7974C197.722 89.7974 195.479 87.8174 195.065 84.8596H198.014C198.38 86.3996 199.355 87.3041 201.109 87.3041ZM201.304 74.1529C199.208 74.1529 197.868 75.6685 197.868 77.7707C197.868 79.8485 199.208 81.3641 201.304 81.3641C203.4 81.3641 204.814 79.8485 204.814 77.7707C204.814 75.6685 203.4 74.1529 201.304 74.1529ZM222.791 84.7618C222.791 87.4752 220.476 89.7974 216.357 89.7974C212.385 89.7974 209.85 87.5974 209.557 84.2974H212.653C212.799 86.1307 214.212 87.3285 216.357 87.3285C218.502 87.3285 219.794 86.2529 219.794 84.5418C219.794 82.7818 218.453 81.9263 216.479 81.9263H214.675V79.5307H216.43C218.063 79.5307 219.379 78.7974 219.379 76.9396C219.379 75.4241 218.356 74.2263 216.43 74.2263C214.383 74.2263 213.189 75.5952 213.067 77.3552H210.094C210.289 74.3241 212.482 71.7574 216.455 71.7574C220.379 71.7574 222.401 74.1529 222.401 76.8418C222.401 78.8952 221.037 80.3618 219.282 80.6796C221.378 81.0218 222.791 82.6107 222.791 84.7618Z" fill="#181B25"/>
<path d="M83.904 109.326C83.904 111.183 82.7615 112.34 81.1736 112.34C79.5856 112.34 78.4431 111.183 78.4431 109.326C78.4431 107.47 79.5856 106.301 81.1736 106.301C82.7615 106.301 83.904 107.47 83.904 109.326ZM79.3799 109.326C79.3799 110.713 80.054 111.572 81.1736 111.572C82.2931 111.572 82.9672 110.713 82.9672 109.326C82.9672 107.94 82.2931 107.069 81.1736 107.069C80.054 107.069 79.3799 107.94 79.3799 109.326ZM85.5952 107.161H84.7612V106.439H85.5952V105.362C85.5952 104.285 86.2806 103.735 87.2631 103.735C87.4688 103.735 87.7315 103.758 87.9029 103.792V104.548C87.7544 104.525 87.5259 104.514 87.3203 104.514C86.909 104.514 86.532 104.72 86.532 105.373V106.439H87.7658V107.161H86.532V112.202H85.5952V107.161ZM97.1149 109.957C97.1149 111.251 96.0067 112.214 94.453 112.306V113.451H93.7675V112.294C92.2595 112.168 91.0028 111.332 90.9114 109.796H91.8254C91.9282 110.885 92.7622 111.4 93.7675 111.515V108.467L93.1963 108.352C92.1224 108.135 91.1742 107.631 91.1742 106.221C91.1742 104.926 92.2138 103.964 93.7675 103.895V102.818H94.453V103.918C95.881 104.056 96.8064 104.789 96.9435 106.107H96.041C95.9382 105.305 95.3555 104.846 94.453 104.732V107.688L95.1156 107.814C96.338 108.066 97.1149 108.673 97.1149 109.957ZM93.4933 107.493L93.7675 107.55V104.709C92.6936 104.766 92.0767 105.373 92.0767 106.187C92.0767 107 92.5223 107.298 93.4933 107.493ZM94.75 108.65L94.453 108.593V111.526C95.504 111.446 96.2009 110.896 96.2009 110.002C96.2009 109.315 95.8468 108.857 94.75 108.65ZM103.721 106.267C103.721 107.802 102.453 108.49 101.231 109.281C100.237 109.945 99.2541 110.633 99.2541 111.377H103.801V112.202H98.2031V111.756C98.2031 110.3 99.6083 109.281 100.819 108.524C101.905 107.825 102.784 107.218 102.784 106.267C102.784 105.488 102.339 104.709 101.128 104.709C100.008 104.709 99.357 105.557 99.2884 106.542H98.363C98.443 105.098 99.4255 103.884 101.139 103.884C102.853 103.884 103.721 105.052 103.721 106.267ZM104.832 108.112C104.832 105.66 106.1 103.884 108.077 103.884C110.065 103.884 111.321 105.66 111.321 108.112C111.321 110.564 110.065 112.34 108.077 112.34C106.1 112.34 104.832 110.564 104.832 108.112ZM105.838 108.112C105.838 110.117 106.592 111.492 108.077 111.492C109.573 111.492 110.327 110.117 110.327 108.112C110.327 106.107 109.573 104.732 108.077 104.732C106.592 104.732 105.838 106.107 105.838 108.112ZM115.706 104.709C114.198 104.709 113.409 106.279 113.409 108.398C113.672 107.55 114.472 106.737 115.717 106.737C117.328 106.737 118.413 107.929 118.413 109.498C118.413 111.148 117.294 112.34 115.591 112.34C113.786 112.34 112.495 110.759 112.495 108.249C112.495 105.66 113.843 103.884 115.717 103.884C117.168 103.884 118.15 104.743 118.333 106.118H117.431C117.236 105.19 116.677 104.709 115.706 104.709ZM115.591 111.538C116.757 111.538 117.488 110.679 117.488 109.533C117.488 108.375 116.757 107.539 115.591 107.539C114.449 107.539 113.672 108.375 113.672 109.533C113.672 110.679 114.449 111.538 115.591 111.538ZM119.724 112.191V110.954H120.969V112.397C120.969 113.348 120.398 114.001 119.359 114.001V113.417C119.941 113.417 120.272 113.154 120.272 112.397V112.191H119.724ZM122.143 108.112C122.143 105.66 123.411 103.884 125.387 103.884C127.375 103.884 128.632 105.66 128.632 108.112C128.632 110.564 127.375 112.34 125.387 112.34C123.411 112.34 122.143 110.564 122.143 108.112ZM123.148 108.112C123.148 110.117 123.902 111.492 125.387 111.492C126.884 111.492 127.638 110.117 127.638 108.112C127.638 106.107 126.884 104.732 125.387 104.732C123.902 104.732 123.148 106.107 123.148 108.112ZM129.806 108.112C129.806 105.66 131.074 103.884 133.05 103.884C135.038 103.884 136.295 105.66 136.295 108.112C136.295 110.564 135.038 112.34 133.05 112.34C131.074 112.34 129.806 110.564 129.806 108.112ZM130.811 108.112C130.811 110.117 131.565 111.492 133.05 111.492C134.547 111.492 135.301 110.117 135.301 108.112C135.301 106.107 134.547 104.732 133.05 104.732C131.565 104.732 130.811 106.107 130.811 108.112ZM137.469 108.112C137.469 105.66 138.737 103.884 140.713 103.884C142.701 103.884 143.958 105.66 143.958 108.112C143.958 110.564 142.701 112.34 140.713 112.34C138.737 112.34 137.469 110.564 137.469 108.112ZM138.474 108.112C138.474 110.117 139.228 111.492 140.713 111.492C142.21 111.492 142.964 110.117 142.964 108.112C142.964 106.107 142.21 104.732 140.713 104.732C139.228 104.732 138.474 106.107 138.474 108.112ZM145.143 112.202V110.954H146.389V112.202H145.143ZM147.562 108.112C147.562 105.66 148.83 103.884 150.807 103.884C152.795 103.884 154.051 105.66 154.051 108.112C154.051 110.564 152.795 112.34 150.807 112.34C148.83 112.34 147.562 110.564 147.562 108.112ZM148.568 108.112C148.568 110.117 149.322 111.492 150.807 111.492C152.304 111.492 153.058 110.117 153.058 108.112C153.058 106.107 152.304 104.732 150.807 104.732C149.322 104.732 148.568 106.107 148.568 108.112ZM155.225 108.112C155.225 105.66 156.493 103.884 158.47 103.884C160.457 103.884 161.714 105.66 161.714 108.112C161.714 110.564 160.457 112.34 158.47 112.34C156.493 112.34 155.225 110.564 155.225 108.112ZM156.23 108.112C156.23 110.117 156.984 111.492 158.47 111.492C159.966 111.492 160.72 110.117 160.72 108.112C160.72 106.107 159.966 104.732 158.47 104.732C156.984 104.732 156.23 106.107 156.23 108.112Z" fill="#181B25"/>
<mask id="mask0_7_524" style="mask-type:luminance" maskUnits="userSpaceOnUse" x="77" y="130" width="217" height="8">
<path d="M291.975 130.318H79.5897C78.6283 130.318 77.8489 131.099 77.8489 132.064V135.556C77.8489 136.52 78.6283 137.302 79.5897 137.302H291.975C292.937 137.302 293.716 136.52 293.716 135.556V132.064C293.716 131.099 292.937 130.318 291.975 130.318Z" fill="white"/>
</mask>
<g mask="url(#mask0_7_524)">
<path d="M291.975 130.318H79.5897C78.6283 130.318 77.8489 131.099 77.8489 132.064V135.556C77.8489 136.52 78.6283 137.302 79.5897 137.302H291.975C292.937 137.302 293.716 136.52 293.716 135.556V132.064C293.716 131.099 292.937 130.318 291.975 130.318Z" fill="#F6F6F6"/>
<path d="M181.43 130.318H77.8489V137.302H181.43V130.318Z" fill="#3B82F6"/>
</g>
<path d="M294.151 151.052H77.8489V151.867H294.151V151.052Z" fill="#F6F6F6"/>
<path d="M102.221 177.839C102.221 171.089 96.7651 165.617 90.0349 165.617C83.3048 165.617 77.8489 171.089 77.8489 177.839C77.8489 184.589 83.3048 190.061 90.0349 190.061C96.7651 190.061 102.221 184.589 102.221 177.839Z" fill="#C1AFF8"/>
<path d="M86.8767 178.992H88.2265C88.3215 180.018 89.2073 180.367 90.1458 180.367C91.0423 180.367 91.7383 179.965 91.7383 179.203C91.7383 178.653 91.4114 178.346 90.5044 178.178L89.123 177.923C88.0156 177.722 87.1193 177.194 87.1193 175.871C87.1193 174.528 88.3004 173.597 89.9455 173.597C91.7383 173.597 92.8139 174.38 92.9616 175.797H91.6434C91.5485 175.057 90.8946 174.645 89.956 174.645C89.0491 174.645 88.4796 175.12 88.4796 175.787C88.4796 176.411 88.8699 176.612 89.6819 176.77L91.1372 177.056C92.371 177.289 93.1092 177.903 93.1092 179.119C93.1092 180.494 91.8543 181.403 90.188 181.403C88.3953 181.403 87.0138 180.653 86.8767 178.992Z" fill="white"/>
<path d="M115.203 181.767L114.3 179.487H110.393L109.491 181.767H108.508L111.81 173.586H112.918L116.231 181.767H115.203ZM112.335 174.571L110.713 178.673H113.981L112.37 174.571H112.335ZM118.287 176.003V177.058C118.561 176.347 119.281 175.866 120.161 175.866C121.452 175.866 122.217 176.68 122.217 178.055V181.767H121.269V178.261C121.269 177.195 120.801 176.645 119.898 176.645C119.018 176.645 118.321 177.207 118.321 178.593V181.767H117.373V176.003H118.287ZM128.2 181.767V180.759C127.914 181.343 127.206 181.905 126.258 181.905C124.795 181.905 123.699 180.713 123.699 178.891C123.699 177.058 124.795 175.866 126.258 175.866C127.252 175.866 127.903 176.439 128.166 177.023V173.334H129.114V181.767H128.2ZM128.211 178.96V178.799C128.211 177.493 127.572 176.611 126.452 176.611C125.321 176.611 124.658 177.539 124.658 178.891C124.658 180.232 125.321 181.16 126.452 181.16C127.572 181.16 128.211 180.266 128.211 178.96ZM134.269 175.923V176.794C134.132 176.76 133.926 176.748 133.778 176.748C132.864 176.748 132.03 177.47 132.03 178.925V181.767H131.082V176.003H131.995V177.367C132.247 176.416 132.978 175.877 133.823 175.877C133.972 175.877 134.132 175.889 134.269 175.923ZM140.015 180.071C139.753 181.297 138.759 181.905 137.639 181.905C136.017 181.905 134.874 180.77 134.874 178.914C134.874 177.035 136.051 175.866 137.582 175.866C139.284 175.866 140.05 177.23 140.05 178.708V179.086H135.8C135.845 180.415 136.542 181.148 137.639 181.148C138.416 181.148 138.884 180.77 139.124 180.071H140.015ZM137.582 176.634C136.679 176.634 135.994 177.218 135.834 178.398H139.124C139.101 177.401 138.61 176.634 137.582 176.634ZM145.371 176.003L146.673 180.736H146.696L148.022 176.003H148.936L147.199 181.767H146.217L144.891 177.103H144.857L143.555 181.767H142.561L140.824 176.003H141.761L143.098 180.736H143.132L144.411 176.003H145.371ZM156.161 178.88V173.586H157.144V178.868C157.144 180.713 156.115 181.905 154.39 181.905C152.917 181.905 151.763 181.022 151.717 179.407H152.665C152.722 180.564 153.442 181.125 154.39 181.125C155.624 181.125 156.161 180.243 156.161 178.88ZM162.551 181.767C162.483 181.446 162.448 181.068 162.448 180.793C162.197 181.469 161.409 181.893 160.449 181.893C159.444 181.893 158.587 181.309 158.587 180.243C158.587 179.132 159.409 178.65 160.575 178.513L162.425 178.272V177.94C162.425 177.023 161.866 176.634 161.077 176.634C160.312 176.634 159.832 177.035 159.764 177.699H158.85C158.964 176.531 159.878 175.866 161.1 175.866C162.494 175.866 163.362 176.531 163.362 177.917V180.564C163.362 180.988 163.385 181.389 163.499 181.767H162.551ZM160.643 181.171C161.534 181.171 162.425 180.61 162.425 179.498V178.983L160.86 179.155C160.141 179.258 159.547 179.441 159.547 180.22C159.547 180.759 159.924 181.171 160.643 181.171ZM164.844 178.891C164.844 177.046 165.953 175.866 167.552 175.866C168.832 175.866 169.677 176.599 169.86 177.825H168.957C168.797 177.058 168.329 176.634 167.552 176.634C166.421 176.634 165.781 177.539 165.781 178.891C165.781 180.243 166.421 181.137 167.552 181.137C168.329 181.137 168.797 180.713 168.957 179.945H169.86C169.677 181.183 168.832 181.905 167.552 181.905C165.953 181.905 164.844 180.736 164.844 178.891ZM176.395 178.891C176.395 180.747 175.253 181.905 173.665 181.905C172.077 181.905 170.934 180.747 170.934 178.891C170.934 177.035 172.077 175.866 173.665 175.866C175.253 175.866 176.395 177.035 176.395 178.891ZM171.871 178.891C171.871 180.277 172.545 181.137 173.665 181.137C174.784 181.137 175.458 180.277 175.458 178.891C175.458 177.505 174.784 176.634 173.665 176.634C172.545 176.634 171.871 177.505 171.871 178.891ZM178.851 180.759V181.767H177.938V173.334H178.886V177.023C179.149 176.439 179.8 175.866 180.794 175.866C182.256 175.866 183.353 177.058 183.353 178.891C183.353 180.713 182.256 181.905 180.794 181.905C179.845 181.905 179.137 181.343 178.851 180.759ZM178.84 178.799V178.96C178.84 180.266 179.48 181.16 180.599 181.16C181.73 181.16 182.393 180.232 182.393 178.891C182.393 177.539 181.73 176.611 180.599 176.611C179.48 176.611 178.84 177.493 178.84 178.799ZM184.407 180.06H185.321C185.389 180.85 186.12 181.183 186.897 181.183C187.686 181.183 188.257 180.816 188.257 180.197C188.257 179.773 187.983 179.498 187.251 179.361L186.235 179.155C185.309 178.983 184.635 178.605 184.635 177.596C184.635 176.622 185.504 175.866 186.772 175.866C188.097 175.866 188.908 176.439 189.022 177.527H188.143C188.074 176.943 187.56 176.599 186.772 176.599C186.006 176.599 185.515 176.977 185.515 177.539C185.515 178.032 185.858 178.238 186.52 178.364L187.663 178.582C188.6 178.765 189.148 179.223 189.148 180.151C189.148 181.16 188.2 181.905 186.909 181.905C185.538 181.905 184.51 181.297 184.407 180.06ZM195.758 178.891C195.758 180.747 194.616 181.905 193.028 181.905C191.44 181.905 190.297 180.747 190.297 178.891C190.297 177.035 191.44 175.866 193.028 175.866C194.616 175.866 195.758 177.035 195.758 178.891ZM191.234 178.891C191.234 180.277 191.908 181.137 193.028 181.137C194.147 181.137 194.821 180.277 194.821 178.891C194.821 177.505 194.147 176.634 193.028 176.634C191.908 176.634 191.234 177.505 191.234 178.891ZM198.215 176.003V177.058C198.489 176.347 199.209 175.866 200.089 175.866C201.38 175.866 202.145 176.68 202.145 178.055V181.767H201.197V178.261C201.197 177.195 200.728 176.645 199.826 176.645C198.946 176.645 198.249 177.207 198.249 178.593V181.767H197.301V176.003H198.215Z" fill="#181B25"/>
<path d="M244.84 180.085C244.84 181.483 243.64 182.422 242.006 182.526V183.671H241.172V182.514C239.527 182.365 238.293 181.517 238.168 179.959H239.562C239.641 180.853 240.338 181.288 241.172 181.403V178.87L240.578 178.767C239.39 178.55 238.419 177.988 238.419 176.556C238.419 175.181 239.562 174.218 241.172 174.127V173.038H242.006V174.138C243.594 174.298 244.543 175.123 244.691 176.476H243.32C243.24 175.8 242.772 175.41 242.006 175.284V177.725L242.737 177.862C244.051 178.114 244.84 178.779 244.84 180.085ZM241.07 177.541L241.172 177.564V175.261C240.293 175.341 239.79 175.811 239.79 176.464C239.79 177.14 240.178 177.369 241.07 177.541ZM242.143 179.054L242.006 179.031V181.426C242.92 181.334 243.469 180.898 243.469 180.188C243.469 179.592 243.149 179.237 242.143 179.054ZM251.625 176.579C251.625 178.068 250.482 178.756 249.146 179.512C248.129 180.108 247.398 180.635 247.375 181.219H251.671V182.422H245.719V181.838C245.719 180.245 247.112 179.26 248.335 178.527C249.466 177.839 250.197 177.369 250.197 176.567C250.197 175.868 249.786 175.284 248.826 175.284C247.889 175.284 247.341 176.006 247.284 176.854H245.833C245.936 175.341 246.987 174.104 248.837 174.104C250.585 174.104 251.625 175.204 251.625 176.579ZM253.128 182.377V180.715H254.831V182.537C254.831 183.683 254.088 184.336 252.877 184.336V183.545C253.494 183.545 253.905 183.328 253.905 182.537V182.377H253.128ZM259.256 178.057C258.537 178.057 258.057 178.412 257.806 178.813H256.446L256.914 174.241H261.804V175.444H258L257.783 177.576C258.091 177.232 258.731 176.911 259.496 176.911C261.187 176.911 262.272 178.126 262.272 179.73C262.272 181.311 261.141 182.56 259.256 182.56C257.417 182.56 256.24 181.517 256.115 179.936H257.623C257.691 180.795 258.297 181.414 259.256 181.414C260.307 181.414 260.822 180.635 260.822 179.741C260.822 178.836 260.319 178.057 259.256 178.057ZM266.134 181.391C267.402 181.391 268.11 180.096 268.11 178.389C267.79 179.1 267.082 179.707 266.008 179.707C264.375 179.707 263.221 178.515 263.221 176.945C263.221 175.307 264.409 174.104 266.214 174.104C268.145 174.104 269.493 175.673 269.493 178.194C269.493 180.818 268.088 182.56 266.088 182.56C264.546 182.56 263.495 181.632 263.301 180.245H264.683C264.854 180.967 265.311 181.391 266.134 181.391ZM266.225 175.227C265.243 175.227 264.614 175.937 264.614 176.922C264.614 177.896 265.243 178.607 266.225 178.607C267.208 178.607 267.87 177.896 267.87 176.922C267.87 175.937 267.208 175.227 266.225 175.227ZM276.515 180.2C276.515 181.471 275.43 182.56 273.499 182.56C271.637 182.56 270.449 181.529 270.311 179.982H271.762C271.831 180.841 272.494 181.403 273.499 181.403C274.504 181.403 275.11 180.898 275.11 180.096C275.11 179.271 274.481 178.87 273.556 178.87H272.711V177.747H273.533C274.299 177.747 274.916 177.404 274.916 176.533C274.916 175.822 274.436 175.261 273.533 175.261C272.573 175.261 272.014 175.903 271.957 176.728H270.563C270.654 175.307 271.682 174.104 273.545 174.104C275.384 174.104 276.332 175.227 276.332 176.487C276.332 177.45 275.692 178.137 274.87 178.286C275.852 178.446 276.515 179.191 276.515 180.2ZM277.644 182.422V180.715H279.347V182.422H277.644ZM280.32 178.332C280.32 175.88 281.668 174.104 283.793 174.104C285.918 174.104 287.255 175.88 287.255 178.332C287.255 180.784 285.918 182.56 283.793 182.56C281.668 182.56 280.32 180.784 280.32 178.332ZM281.851 178.332C281.851 180.188 282.491 181.368 283.793 181.368C285.084 181.368 285.724 180.188 285.724 178.332C285.724 176.476 285.084 175.295 283.793 175.295C282.491 175.295 281.851 176.476 281.851 178.332ZM292.198 175.444H287.777V174.241H293.741V175.398C291.844 177.725 291.239 179.776 291.204 182.422H289.651C289.685 179.661 290.713 177.369 292.198 175.444Z" fill="#181B25"/>
<path d="M102.221 216.034C102.221 209.283 96.7651 203.811 90.0349 203.811C83.3048 203.811 77.8489 209.283 77.8489 216.034C77.8489 222.784 83.3048 228.256 90.0349 228.256C96.7651 228.256 102.221 222.784 102.221 216.034Z" fill="#A3C2FA"/>
<path d="M92.0899 219.471L89.4429 216.181L88.3989 217.281V219.471H86.9963V211.918H88.3989V215.716L91.8789 211.918H93.4818L90.3709 215.198L93.7771 219.471H92.0899Z" fill="white"/>
<path d="M114.872 219.961L111.604 216.066L110.359 217.338V219.961H109.376V211.78H110.359V216.226L114.655 211.78H115.843L112.29 215.378L116.06 219.961H114.872ZM118.672 220.007L116.364 214.198H117.358L119.186 218.907H119.209L120.934 214.198H121.916L119.597 220.133C119.071 221.508 118.614 222.081 117.563 222.093C117.403 222.093 117.186 222.07 117.004 222.035V221.256C117.186 221.302 117.312 221.302 117.461 221.302C118.032 221.302 118.295 220.981 118.672 220.007ZM124.132 219.961H123.184V211.528H124.132V219.961ZM130.813 218.266C130.55 219.492 129.556 220.099 128.436 220.099C126.814 220.099 125.672 218.965 125.672 217.108C125.672 215.229 126.848 214.06 128.379 214.06C130.082 214.06 130.847 215.424 130.847 216.902V217.28H126.597C126.643 218.609 127.34 219.343 128.436 219.343C129.213 219.343 129.682 218.965 129.922 218.266H130.813ZM128.379 214.828C127.477 214.828 126.791 215.413 126.631 216.593H129.922C129.899 215.596 129.408 214.828 128.379 214.828ZM140.666 219.961L139.763 217.681H135.856L134.953 219.961H133.971L137.273 211.78H138.381L141.694 219.961H140.666ZM137.798 212.766L136.176 216.868H139.443L137.832 212.766H137.798ZM143.749 214.198V215.252C144.024 214.542 144.743 214.06 145.623 214.06C146.914 214.06 147.679 214.874 147.679 216.249V219.961H146.731V216.455C146.731 215.39 146.263 214.84 145.36 214.84C144.481 214.84 143.784 215.401 143.784 216.788V219.961H142.836V214.198H143.749ZM153.662 219.961V218.953C153.376 219.538 152.668 220.099 151.72 220.099C150.258 220.099 149.161 218.907 149.161 217.085C149.161 215.252 150.258 214.06 151.72 214.06C152.714 214.06 153.365 214.633 153.628 215.218V211.528H154.576V219.961H153.662ZM153.674 217.154V216.994C153.674 215.688 153.034 214.805 151.914 214.805C150.783 214.805 150.121 215.733 150.121 217.085C150.121 218.426 150.783 219.354 151.914 219.354C153.034 219.354 153.674 218.46 153.674 217.154ZM161.262 218.266C161 219.492 160.006 220.099 158.886 220.099C157.264 220.099 156.121 218.965 156.121 217.108C156.121 215.229 157.298 214.06 158.829 214.06C160.531 214.06 161.297 215.424 161.297 216.902V217.28H157.047C157.092 218.609 157.789 219.343 158.886 219.343C159.663 219.343 160.131 218.965 160.371 218.266H161.262ZM158.829 214.828C157.926 214.828 157.241 215.413 157.081 216.593H160.371C160.348 215.596 159.857 214.828 158.829 214.828ZM166.023 214.118V214.989C165.885 214.954 165.68 214.943 165.531 214.943C164.617 214.943 163.783 215.665 163.783 217.12V219.961H162.835V214.198H163.749V215.561C164 214.61 164.732 214.072 165.577 214.072C165.726 214.072 165.885 214.083 166.023 214.118ZM166.671 218.254H167.585C167.653 219.045 168.384 219.377 169.161 219.377C169.95 219.377 170.521 219.01 170.521 218.392C170.521 217.968 170.247 217.693 169.515 217.555L168.499 217.349C167.573 217.177 166.899 216.799 166.899 215.791C166.899 214.817 167.767 214.06 169.036 214.06C170.361 214.06 171.172 214.633 171.286 215.722H170.406C170.338 215.138 169.824 214.794 169.036 214.794C168.27 214.794 167.779 215.172 167.779 215.733C167.779 216.226 168.122 216.432 168.784 216.558L169.927 216.776C170.863 216.959 171.412 217.418 171.412 218.346C171.412 219.354 170.464 220.099 169.173 220.099C167.802 220.099 166.774 219.492 166.671 218.254ZM178.022 217.085C178.022 218.942 176.88 220.099 175.292 220.099C173.704 220.099 172.561 218.942 172.561 217.085C172.561 215.229 173.704 214.06 175.292 214.06C176.88 214.06 178.022 215.229 178.022 217.085ZM173.498 217.085C173.498 218.472 174.172 219.331 175.292 219.331C176.411 219.331 177.085 218.472 177.085 217.085C177.085 215.699 176.411 214.828 175.292 214.828C174.172 214.828 173.498 215.699 173.498 217.085ZM180.479 214.198V215.252C180.753 214.542 181.473 214.06 182.353 214.06C183.644 214.06 184.409 214.874 184.409 216.249V219.961H183.461V216.455C183.461 215.39 182.992 214.84 182.09 214.84C181.21 214.84 180.513 215.401 180.513 216.788V219.961H179.565V214.198H180.479Z" fill="#181B25"/>
<path d="M246.647 218.279C246.647 219.677 245.447 220.617 243.814 220.72V221.866H242.98V220.709C241.335 220.56 240.101 219.712 239.975 218.153H241.369C241.449 219.047 242.146 219.483 242.98 219.597V217.065L242.386 216.962C241.198 216.744 240.226 216.183 240.226 214.75C240.226 213.375 241.369 212.413 242.98 212.321V211.232H243.814V212.333C245.402 212.493 246.35 213.318 246.498 214.67H245.128C245.048 213.994 244.579 213.604 243.814 213.478V215.919L244.545 216.056C245.859 216.309 246.647 216.973 246.647 218.279ZM242.877 215.736L242.98 215.759V213.455C242.1 213.536 241.597 214.005 241.597 214.659C241.597 215.335 241.986 215.564 242.877 215.736ZM243.951 217.248L243.814 217.225V219.62C244.728 219.528 245.276 219.093 245.276 218.382C245.276 217.787 244.956 217.431 243.951 217.248ZM250.839 212.298C252.461 212.298 253.695 213.146 253.695 214.613C253.695 215.495 253.158 216.148 252.427 216.469C253.238 216.629 254.061 217.409 254.061 218.371C254.061 219.815 252.781 220.754 250.839 220.754C248.897 220.754 247.617 219.815 247.617 218.371C247.617 217.409 248.44 216.629 249.251 216.469C248.52 216.148 247.983 215.495 247.983 214.613C247.983 213.146 249.217 212.298 250.839 212.298ZM250.839 215.908C251.684 215.908 252.358 215.484 252.358 214.647C252.358 213.799 251.684 213.387 250.839 213.387C249.982 213.387 249.32 213.799 249.32 214.647C249.32 215.484 249.982 215.908 250.839 215.908ZM250.839 219.643C251.97 219.643 252.61 219.116 252.61 218.314C252.61 217.512 251.97 216.985 250.839 216.985C249.708 216.985 249.068 217.512 249.068 218.314C249.068 219.116 249.708 219.643 250.839 219.643ZM255.259 220.571V218.91H256.962V220.731C256.962 221.877 256.219 222.53 255.008 222.53V221.74C255.625 221.74 256.036 221.522 256.036 220.731V220.571H255.259ZM261.388 216.251C260.668 216.251 260.188 216.606 259.937 217.008H258.577L259.046 212.436H263.935V213.639H260.131L259.914 215.77C260.222 215.426 260.862 215.105 261.627 215.105C263.318 215.105 264.404 216.32 264.404 217.924C264.404 219.505 263.273 220.754 261.388 220.754C259.548 220.754 258.371 219.712 258.246 218.13H259.754C259.822 218.99 260.428 219.609 261.388 219.609C262.439 219.609 262.953 218.829 262.953 217.936C262.953 217.03 262.45 216.251 261.388 216.251ZM271.407 218.394C271.407 219.666 270.321 220.754 268.391 220.754C266.528 220.754 265.34 219.723 265.203 218.176H266.654C266.723 219.036 267.385 219.597 268.391 219.597C269.396 219.597 270.002 219.093 270.002 218.291C270.002 217.466 269.373 217.065 268.448 217.065H267.602V215.942H268.425C269.19 215.942 269.807 215.598 269.807 214.727C269.807 214.017 269.327 213.455 268.425 213.455C267.465 213.455 266.906 214.097 266.848 214.922H265.455C265.546 213.501 266.574 212.298 268.436 212.298C270.276 212.298 271.224 213.421 271.224 214.681C271.224 215.644 270.584 216.331 269.762 216.48C270.744 216.641 271.407 217.386 271.407 218.394ZM277.692 212.436V217.409H279.314V218.566H277.692V220.617H276.241V218.566H272.197V217.397L276.047 212.436H277.692ZM276.241 213.856L273.533 217.409H276.241V213.856ZM280.333 220.617V218.91H282.035V220.617H280.333ZM282.469 214.647V213.639C283.862 213.639 284.411 213.261 284.605 212.413H285.645V220.617H284.137V214.647H282.469ZM290.423 212.298C292.045 212.298 293.279 213.146 293.279 214.613C293.279 215.495 292.742 216.148 292.011 216.469C292.822 216.629 293.645 217.409 293.645 218.371C293.645 219.815 292.365 220.754 290.423 220.754C288.481 220.754 287.201 219.815 287.201 218.371C287.201 217.409 288.024 216.629 288.835 216.469C288.104 216.148 287.567 215.495 287.567 214.613C287.567 213.146 288.801 212.298 290.423 212.298ZM290.423 215.908C291.268 215.908 291.943 215.484 291.943 214.647C291.943 213.799 291.268 213.387 290.423 213.387C289.566 213.387 288.904 213.799 288.904 214.647C288.904 215.484 289.566 215.908 290.423 215.908ZM290.423 219.643C291.554 219.643 292.194 219.116 292.194 218.314C292.194 217.512 291.554 216.985 290.423 216.985C289.292 216.985 288.652 217.512 288.652 218.314C288.652 219.116 289.292 219.643 290.423 219.643Z" fill="#181B25"/>
</g>
</g>
</g>
<defs>
<filter id="filter0_dddddi_7_524" x="40.1396" y="51.3096" width="291.721" height="238.696" filterUnits="userSpaceOnUse" color-interpolation-filters="sRGB">
<feFlood flood-opacity="0" result="BackgroundImageFix"/>
<feColorMatrix in="SourceAlpha" type="matrix" values="0 0 0 0 0 0 0 0 0 0 0 0 0 0 0 0 0 0 127 0" result="hardAlpha"/>
<feOffset dy="1"/>
<feGaussianBlur stdDeviation="0.5"/>
<feComposite in2="hardAlpha" operator="out"/>
<feColorMatrix type="matrix" values="0 0 0 0 0.164706 0 0 0 0 0.2 0 0 0 0 0.270588 0 0 0 0.0392 0"/>
<feBlend mode="normal" in2="BackgroundImageFix" result="effect1_dropShadow_7_524"/>
<feColorMatrix in="SourceAlpha" type="matrix" values="0 0 0 0 0 0 0 0 0 0 0 0 0 0 0 0 0 0 127 0" result="hardAlpha"/>
<feOffset dy="3"/>
<feGaussianBlur stdDeviation="1.5"/>
<feComposite in2="hardAlpha" operator="out"/>
<feColorMatrix type="matrix" values="0 0 0 0 0.164706 0 0 0 0 0.2 0 0 0 0 0.27451 0 0 0 0.0392 0"/>
<feBlend mode="normal" in2="effect1_dropShadow_7_524" result="effect2_dropShadow_7_524"/>
<feColorMatrix in="SourceAlpha" type="matrix" values="0 0 0 0 0 0 0 0 0 0 0 0 0 0 0 0 0 0 127 0" result="hardAlpha"/>
<feOffset dy="6"/>
<feGaussianBlur stdDeviation="3"/>
<feComposite in2="hardAlpha" operator="out"/>
<feColorMatrix type="matrix" values="0 0 0 0 0.164706 0 0 0 0 0.2 0 0 0 0 0.27451 0 0 0 0.0392 0"/>
<feBlend mode="normal" in2="effect2_dropShadow_7_524" result="effect3_dropShadow_7_524"/>
<feColorMatrix in="SourceAlpha" type="matrix" values="0 0 0 0 0 0 0 0 0 0 0 0 0 0 0 0 0 0 127 0" result="hardAlpha"/>
<feOffset dy="12"/>
<feGaussianBlur stdDeviation="6"/>
<feComposite in2="hardAlpha" operator="out"/>
<feColorMatrix type="matrix" values="0 0 0 0 0.164706 0 0 0 0 0.2 0 0 0 0 0.27451 0 0 0 0.0392 0"/>
<feBlend mode="normal" in2="effect3_dropShadow_7_524" result="effect4_dropShadow_7_524"/>
<feColorMatrix in="SourceAlpha" type="matrix" values="0 0 0 0 0 0 0 0 0 0 0 0 0 0 0 0 0 0 127 0" result="hardAlpha"/>
<feOffset dy="24"/>
<feGaussianBlur stdDeviation="12"/>
<feComposite in2="hardAlpha" operator="out"/>
<feColorMatrix type="matrix" values="0 0 0 0 0.164706 0 0 0 0 0.2 0 0 0 0 0.27451 0 0 0 0.0392 0"/>
<feBlend mode="normal" in2="effect4_dropShadow_7_524" result="effect5_dropShadow_7_524"/>
<feBlend mode="normal" in="SourceGraphic" in2="effect5_dropShadow_7_524" result="shape"/>
<feColorMatrix in="SourceAlpha" type="matrix" values="0 0 0 0 0 0 0 0 0 0 0 0 0 0 0 0 0 0 127 0" result="hardAlpha"/>
<feOffset/>
<feGaussianBlur stdDeviation="2"/>
<feComposite in2="hardAlpha" operator="arithmetic" k2="-1" k3="1"/>
<feColorMatrix type="matrix" values="0 0 0 0 0.054902 0 0 0 0 0.247059 0 0 0 0 0.494118 0 0 0 0.0392 0"/>
<feBlend mode="normal" in2="shape" result="effect6_innerShadow_7_524"/>
</filter>
<clipPath id="clip0_7_524">
<rect width="372" height="320" fill="white"/>
</clipPath>
<clipPath id="clip1_7_524">
<rect width="262" height="220" fill="white" transform="translate(55 50)"/>
</clipPath>
</defs>
</svg>
