<svg width="372" height="320" viewBox="0 0 372 320" fill="none" xmlns="http://www.w3.org/2000/svg">
<g clip-path="url(#clip0_6_468)">
<path d="M366.667 0H12C7.58172 0 4 3.58172 4 8V312C4 316.418 7.58172 320 12 320H366.667C371.085 320 374.667 316.418 374.667 312V8C374.667 3.58172 371.085 0 366.667 0Z" fill="#F6F6F6"/>
<g clip-path="url(#clip1_6_468)">
<g filter="url(#filter0_dddddi_6_468)">
<path d="M67 33C67 30.7909 68.7909 29 71 29H307C309.209 29 311 30.7909 311 33V169H67V33Z" fill="white"/>
<path d="M113 45H85C83.8954 45 83 45.8954 83 47V75C83 76.1046 83.8954 77 85 77H113C114.105 77 115 76.1046 115 75V47C115 45.8954 114.105 45 113 45Z" fill="#3B82F6"/>
<path d="M104.333 64.3333H93.6665M93.6665 64.3333L96.3332 67M93.6665 64.3333L96.3332 61.6666" stroke="white" stroke-width="1.5" stroke-linecap="round" stroke-linejoin="round"/>
<path d="M93.6667 57.6667H104.333M104.333 57.6667L101.667 55M104.333 57.6667L101.667 60.3334" stroke="white" stroke-width="1.5" stroke-linecap="round" stroke-linejoin="round"/>
<path d="M135.974 66L134.014 58.286H133.986L132.026 66H129.996L127.238 56.004H129.142L131.144 63.76H131.172L133.118 56.004H134.994L136.94 63.76H136.968L138.956 56.004H140.776L138.018 66H135.974ZM141.966 57.684V55.934H143.87V57.684H141.966ZM142.022 66V58.888H143.814V66H142.022ZM150.396 58.818V60.47C150.186 60.428 149.934 60.414 149.71 60.414C148.618 60.414 147.708 61.17 147.708 62.71V66H145.916V58.888H147.68V60.484C148.016 59.378 148.842 58.762 149.864 58.762C150.046 58.762 150.242 58.776 150.396 58.818ZM157.875 63.788C157.567 65.314 156.293 66.168 154.669 66.168C152.597 66.168 151.071 64.782 151.071 62.458C151.071 60.134 152.625 58.72 154.627 58.72C156.853 58.72 157.917 60.414 157.917 62.304V62.878H152.807C152.919 64.138 153.563 64.852 154.669 64.852C155.481 64.852 155.985 64.474 156.223 63.788H157.875ZM154.627 60.05C153.689 60.05 153.059 60.624 152.863 61.716H156.209C156.209 60.834 155.705 60.05 154.627 60.05ZM166.151 64.53V65.902C165.591 66.07 165.171 66.112 164.737 66.112C163.253 66.112 162.525 65.482 162.525 64.054V60.176H161.545V58.888H162.525V57.11H164.303V58.888H165.997V60.176H164.289V63.774C164.289 64.446 164.611 64.67 165.213 64.67C165.479 64.67 165.759 64.642 166.151 64.53ZM172.154 58.818V60.47C171.944 60.428 171.692 60.414 171.468 60.414C170.376 60.414 169.466 61.17 169.466 62.71V66H167.674V58.888H169.438V60.484C169.774 59.378 170.6 58.762 171.622 58.762C171.804 58.762 172 58.776 172.154 58.818ZM177.781 66C177.711 65.608 177.683 65.23 177.683 64.88C177.347 65.692 176.451 66.154 175.317 66.154C173.931 66.154 172.923 65.384 172.923 64.096C172.923 62.668 174.043 62.08 175.485 61.912L177.613 61.674V61.338C177.613 60.47 177.081 60.05 176.269 60.05C175.485 60.05 175.009 60.484 174.953 61.142H173.231C173.385 59.616 174.575 58.72 176.325 58.72C178.257 58.72 179.363 59.63 179.363 61.478V64.222C179.363 64.88 179.391 65.426 179.503 66H177.781ZM175.807 64.908C176.731 64.908 177.613 64.362 177.613 63.242V62.808L176.031 62.99C175.275 63.088 174.701 63.256 174.701 63.998C174.701 64.558 175.093 64.908 175.807 64.908ZM183.161 58.888V60.092C183.497 59.28 184.323 58.72 185.401 58.72C187.025 58.72 188.005 59.728 188.005 61.436V66H186.213V61.856C186.213 60.722 185.723 60.134 184.785 60.134C183.889 60.134 183.189 60.708 183.189 62.136V66H181.397V58.888H183.161ZM189.448 63.844H191.156C191.24 64.586 191.982 64.922 192.752 64.922C193.508 64.922 194.096 64.614 194.096 64.04C194.096 63.592 193.788 63.382 193.004 63.242L191.744 63.018C190.568 62.808 189.7 62.262 189.7 60.988C189.7 59.644 190.932 58.72 192.584 58.72C194.432 58.72 195.482 59.532 195.636 60.904H193.998C193.928 60.344 193.382 59.98 192.598 59.98C191.842 59.98 191.352 60.316 191.352 60.806C191.352 61.296 191.716 61.478 192.444 61.604L193.83 61.842C195.076 62.052 195.776 62.738 195.776 63.914C195.776 65.272 194.474 66.168 192.78 66.168C190.932 66.168 189.602 65.398 189.448 63.844ZM197.626 60.176H196.646V58.888H197.626V57.88C197.626 56.41 198.508 55.654 199.95 55.654C200.328 55.654 200.692 55.668 200.986 55.724V57.082C200.776 57.054 200.552 57.04 200.3 57.04C199.782 57.04 199.418 57.278 199.418 57.964V58.888H200.86V60.176H199.418V66H197.626V60.176ZM208.404 63.788C208.096 65.314 206.822 66.168 205.198 66.168C203.126 66.168 201.6 64.782 201.6 62.458C201.6 60.134 203.154 58.72 205.156 58.72C207.382 58.72 208.446 60.414 208.446 62.304V62.878H203.336C203.448 64.138 204.092 64.852 205.198 64.852C206.01 64.852 206.514 64.474 206.752 63.788H208.404ZM205.156 60.05C204.218 60.05 203.588 60.624 203.392 61.716H206.738C206.738 60.834 206.234 60.05 205.156 60.05ZM214.539 58.818V60.47C214.329 60.428 214.077 60.414 213.853 60.414C212.761 60.414 211.851 61.17 211.851 62.71V66H210.059V58.888H211.823V60.484C212.159 59.378 212.985 58.762 214.007 58.762C214.189 58.762 214.385 58.776 214.539 58.818Z" fill="#181B25"/>
<path d="M100.444 116.288C100.444 119.704 97.504 122 93.5 122.252V125.052H91.456V122.224C87.424 121.86 84.4 119.788 84.092 115.98H87.508C87.704 118.164 89.412 119.228 91.456 119.508V113.32L90 113.068C87.088 112.536 84.708 111.164 84.708 107.664C84.708 104.304 87.508 101.952 91.456 101.728V99.068H93.5V101.756C97.392 102.148 99.716 104.164 100.08 107.468H96.72C96.524 105.816 95.376 104.864 93.5 104.556V110.52L95.292 110.856C98.512 111.472 100.444 113.096 100.444 116.288ZM91.204 110.072L91.456 110.128V104.5C89.3 104.696 88.068 105.844 88.068 107.44C88.068 109.092 89.02 109.652 91.204 110.072ZM93.836 113.768L93.5 113.712V119.564C95.74 119.34 97.084 118.276 97.084 116.54C97.084 115.084 96.3 114.216 93.836 113.768ZM116.682 107.72C116.682 111.36 113.882 113.04 110.606 114.888C108.114 116.344 106.322 117.632 106.266 119.06H116.794V122H102.206V120.572C102.206 116.68 105.622 114.272 108.618 112.48C111.39 110.8 113.182 109.652 113.182 107.692C113.182 105.984 112.174 104.556 109.822 104.556C107.526 104.556 106.182 106.32 106.042 108.392H102.486C102.738 104.696 105.314 101.672 109.85 101.672C114.134 101.672 116.682 104.36 116.682 107.72ZM126.138 111.332C124.374 111.332 123.198 112.2 122.582 113.18H119.25L120.398 102.008H132.382V104.948H123.058L122.526 110.156C123.282 109.316 124.85 108.532 126.726 108.532C130.87 108.532 133.53 111.5 133.53 115.42C133.53 119.284 130.758 122.336 126.138 122.336C121.63 122.336 118.746 119.788 118.438 115.924H122.134C122.302 118.024 123.786 119.536 126.138 119.536C128.714 119.536 129.974 117.632 129.974 115.448C129.974 113.236 128.742 111.332 126.138 111.332ZM135.929 121.888V117.828H140.101V122.28C140.101 125.08 138.281 126.676 135.313 126.676V124.744C136.825 124.744 137.833 124.212 137.833 122.28V121.888H135.929ZM142.095 112.004C142.095 106.012 145.399 101.672 150.607 101.672C155.815 101.672 159.091 106.012 159.091 112.004C159.091 117.996 155.815 122.336 150.607 122.336C145.399 122.336 142.095 117.996 142.095 112.004ZM145.847 112.004C145.847 116.54 147.415 119.424 150.607 119.424C153.771 119.424 155.339 116.54 155.339 112.004C155.339 107.468 153.771 104.584 150.607 104.584C147.415 104.584 145.847 107.468 145.847 112.004ZM168.645 111.332C166.881 111.332 165.705 112.2 165.089 113.18H161.757L162.905 102.008H174.889V104.948H165.565L165.033 110.156C165.789 109.316 167.357 108.532 169.233 108.532C173.377 108.532 176.037 111.5 176.037 115.42C176.037 119.284 173.265 122.336 168.645 122.336C164.137 122.336 161.253 119.788 160.945 115.924H164.641C164.809 118.024 166.293 119.536 168.645 119.536C171.221 119.536 172.481 117.632 172.481 115.448C172.481 113.236 171.249 111.332 168.645 111.332ZM191.046 102.008V114.16H195.022V116.988H191.046V122H187.49V116.988H177.578V114.132L187.014 102.008H191.046ZM187.49 105.48L180.854 114.16H187.49V105.48ZM197.127 122V117.828H201.299V122H197.127ZM203.292 112.004C203.292 106.012 206.596 101.672 211.804 101.672C217.012 101.672 220.288 106.012 220.288 112.004C220.288 117.996 217.012 122.336 211.804 122.336C206.596 122.336 203.292 117.996 203.292 112.004ZM207.044 112.004C207.044 116.54 208.612 119.424 211.804 119.424C214.968 119.424 216.536 116.54 216.536 112.004C216.536 107.468 214.968 104.584 211.804 104.584C208.612 104.584 207.044 107.468 207.044 112.004ZM232.013 104.948H221.177V102.008H235.793V104.836C231.145 110.52 229.661 115.532 229.577 122H225.769C225.853 115.252 228.373 109.652 232.013 104.948Z" fill="#36373A"/>
<path d="M91.33 145.256C91.33 146.838 89.972 148.014 88.068 148.126V149.526H87.228V148.112C85.38 147.958 83.84 146.936 83.728 145.06H84.848C84.974 146.39 85.996 147.02 87.228 147.16V143.436L86.528 143.296C85.212 143.03 84.05 142.414 84.05 140.692C84.05 139.11 85.324 137.934 87.228 137.85V136.534H88.068V137.878C89.818 138.046 90.952 138.942 91.12 140.552H90.014C89.888 139.572 89.174 139.012 88.068 138.872V142.484L88.88 142.638C90.378 142.946 91.33 143.688 91.33 145.256ZM86.892 142.246L87.228 142.316V138.844C85.912 138.914 85.156 139.656 85.156 140.65C85.156 141.644 85.702 142.008 86.892 142.246ZM88.432 143.66L88.068 143.59V147.174C89.356 147.076 90.21 146.404 90.21 145.312C90.21 144.472 89.776 143.912 88.432 143.66ZM99.4395 140.748C99.4395 142.624 97.8855 143.464 96.3875 144.43C95.1695 145.242 93.9655 146.082 93.9655 146.992H99.5375V148H92.6775V147.454C92.6775 145.676 94.3995 144.43 95.8835 143.506C97.2135 142.652 98.2915 141.91 98.2915 140.748C98.2915 139.796 97.7455 138.844 96.2615 138.844C94.8895 138.844 94.0915 139.88 94.0075 141.084H92.8735C92.9715 139.32 94.1755 137.836 96.2755 137.836C98.3755 137.836 99.4395 139.264 99.4395 140.748ZM100.815 143.002C100.815 140.006 102.369 137.836 104.791 137.836C107.227 137.836 108.767 140.006 108.767 143.002C108.767 145.998 107.227 148.168 104.791 148.168C102.369 148.168 100.815 145.998 100.815 143.002ZM102.047 143.002C102.047 145.452 102.971 147.132 104.791 147.132C106.625 147.132 107.549 145.452 107.549 143.002C107.549 140.552 106.625 138.872 104.791 138.872C102.971 138.872 102.047 140.552 102.047 143.002ZM110.235 148V146.474H111.761V148H110.235ZM113.212 143.002C113.212 140.006 114.766 137.836 117.188 137.836C119.624 137.836 121.164 140.006 121.164 143.002C121.164 145.998 119.624 148.168 117.188 148.168C114.766 148.168 113.212 145.998 113.212 143.002ZM114.444 143.002C114.444 145.452 115.368 147.132 117.188 147.132C119.022 147.132 119.946 145.452 119.946 143.002C119.946 140.552 119.022 138.872 117.188 138.872C115.368 138.872 114.444 140.552 114.444 143.002ZM122.617 143.002C122.617 140.006 124.171 137.836 126.593 137.836C129.029 137.836 130.569 140.006 130.569 143.002C130.569 145.998 129.029 148.168 126.593 148.168C124.171 148.168 122.617 145.998 122.617 143.002ZM123.849 143.002C123.849 145.452 124.773 147.132 126.593 147.132C128.427 147.132 129.351 145.452 129.351 143.002C129.351 140.552 128.427 138.872 126.593 138.872C124.773 138.872 123.849 140.552 123.849 143.002ZM135.533 148V138.004H141.931V139.012H136.737V142.666H141.455V143.674H136.737V148H135.533ZM149.255 145.928C148.933 147.426 147.715 148.168 146.343 148.168C144.355 148.168 142.955 146.782 142.955 144.514C142.955 142.218 144.397 140.79 146.273 140.79C148.359 140.79 149.297 142.456 149.297 144.262V144.724H144.089C144.145 146.348 144.999 147.244 146.343 147.244C147.295 147.244 147.869 146.782 148.163 145.928H149.255ZM146.273 141.728C145.167 141.728 144.327 142.442 144.131 143.884H148.163C148.135 142.666 147.533 141.728 146.273 141.728ZM156.992 145.928C156.67 147.426 155.452 148.168 154.08 148.168C152.092 148.168 150.692 146.782 150.692 144.514C150.692 142.218 152.134 140.79 154.01 140.79C156.096 140.79 157.034 142.456 157.034 144.262V144.724H151.826C151.882 146.348 152.736 147.244 154.08 147.244C155.032 147.244 155.606 146.782 155.9 145.928H156.992ZM154.01 141.728C152.904 141.728 152.064 142.442 151.868 143.884H155.9C155.872 142.666 155.27 141.728 154.01 141.728Z" fill="#36373A"/>
<path d="M83 143.786H157.762V144.486H83V143.786Z" fill="#36373A"/>
</g>
<path d="M67 169H95V289C95 291.209 93.2091 293 91 293H71C68.7909 293 67 291.209 67 289V169Z" fill="white"/>
<path d="M103 169H131V289C131 291.209 129.209 293 127 293H107C104.791 293 103 291.209 103 289V169Z" fill="white"/>
<path d="M139 169H167V289C167 291.209 165.209 293 163 293H143C140.791 293 139 291.209 139 289V169Z" fill="white"/>
<path d="M175 169H203V289C203 291.209 201.209 293 199 293H179C176.791 293 175 291.209 175 289V169Z" fill="white"/>
<path d="M211 169H239V289C239 291.209 237.209 293 235 293H215C212.791 293 211 291.209 211 289V169Z" fill="white"/>
<path d="M247 169H275V289C275 291.209 273.209 293 271 293H251C248.791 293 247 291.209 247 289V169Z" fill="white"/>
<path d="M283 169H311V289C311 291.209 309.209 293 307 293H287C284.791 293 283 291.209 283 289V169Z" fill="white"/>
<path d="M47 168.5H331" stroke="#3B82F6" stroke-width="4"/>
</g>
</g>
<defs>
<filter id="filter0_dddddi_6_468" x="43" y="29" width="292" height="188" filterUnits="userSpaceOnUse" color-interpolation-filters="sRGB">
<feFlood flood-opacity="0" result="BackgroundImageFix"/>
<feColorMatrix in="SourceAlpha" type="matrix" values="0 0 0 0 0 0 0 0 0 0 0 0 0 0 0 0 0 0 127 0" result="hardAlpha"/>
<feOffset dy="1"/>
<feGaussianBlur stdDeviation="0.5"/>
<feComposite in2="hardAlpha" operator="out"/>
<feColorMatrix type="matrix" values="0 0 0 0 0.164706 0 0 0 0 0.2 0 0 0 0 0.270588 0 0 0 0.0392 0"/>
<feBlend mode="normal" in2="BackgroundImageFix" result="effect1_dropShadow_6_468"/>
<feColorMatrix in="SourceAlpha" type="matrix" values="0 0 0 0 0 0 0 0 0 0 0 0 0 0 0 0 0 0 127 0" result="hardAlpha"/>
<feOffset dy="3"/>
<feGaussianBlur stdDeviation="1.5"/>
<feComposite in2="hardAlpha" operator="out"/>
<feColorMatrix type="matrix" values="0 0 0 0 0.164706 0 0 0 0 0.2 0 0 0 0 0.27451 0 0 0 0.0392 0"/>
<feBlend mode="normal" in2="effect1_dropShadow_6_468" result="effect2_dropShadow_6_468"/>
<feColorMatrix in="SourceAlpha" type="matrix" values="0 0 0 0 0 0 0 0 0 0 0 0 0 0 0 0 0 0 127 0" result="hardAlpha"/>
<feOffset dy="6"/>
<feGaussianBlur stdDeviation="3"/>
<feComposite in2="hardAlpha" operator="out"/>
<feColorMatrix type="matrix" values="0 0 0 0 0.164706 0 0 0 0 0.2 0 0 0 0 0.27451 0 0 0 0.0392 0"/>
<feBlend mode="normal" in2="effect2_dropShadow_6_468" result="effect3_dropShadow_6_468"/>
<feColorMatrix in="SourceAlpha" type="matrix" values="0 0 0 0 0 0 0 0 0 0 0 0 0 0 0 0 0 0 127 0" result="hardAlpha"/>
<feOffset dy="12"/>
<feGaussianBlur stdDeviation="6"/>
<feComposite in2="hardAlpha" operator="out"/>
<feColorMatrix type="matrix" values="0 0 0 0 0.164706 0 0 0 0 0.2 0 0 0 0 0.27451 0 0 0 0.0392 0"/>
<feBlend mode="normal" in2="effect3_dropShadow_6_468" result="effect4_dropShadow_6_468"/>
<feColorMatrix in="SourceAlpha" type="matrix" values="0 0 0 0 0 0 0 0 0 0 0 0 0 0 0 0 0 0 127 0" result="hardAlpha"/>
<feOffset dy="24"/>
<feGaussianBlur stdDeviation="12"/>
<feComposite in2="hardAlpha" operator="out"/>
<feColorMatrix type="matrix" values="0 0 0 0 0.164706 0 0 0 0 0.2 0 0 0 0 0.27451 0 0 0 0.0392 0"/>
<feBlend mode="normal" in2="effect4_dropShadow_6_468" result="effect5_dropShadow_6_468"/>
<feBlend mode="normal" in="SourceGraphic" in2="effect5_dropShadow_6_468" result="shape"/>
<feColorMatrix in="SourceAlpha" type="matrix" values="0 0 0 0 0 0 0 0 0 0 0 0 0 0 0 0 0 0 127 0" result="hardAlpha"/>
<feOffset/>
<feGaussianBlur stdDeviation="2"/>
<feComposite in2="hardAlpha" operator="arithmetic" k2="-1" k3="1"/>
<feColorMatrix type="matrix" values="0 0 0 0 0.054902 0 0 0 0 0.247059 0 0 0 0 0.494118 0 0 0 0.0392 0"/>
<feBlend mode="normal" in2="shape" result="effect6_innerShadow_6_468"/>
</filter>
<clipPath id="clip0_6_468">
<rect width="372" height="320" fill="white"/>
</clipPath>
<clipPath id="clip1_6_468">
<rect width="284" height="265" fill="white" transform="translate(47 28)"/>
</clipPath>
</defs>
</svg>
