<svg width="564" height="380" viewBox="0 0 564 380" fill="none" xmlns="http://www.w3.org/2000/svg">
<g clip-path="url(#clip0_15_1196)">
<mask id="mask0_15_1196" style="mask-type:luminance" maskUnits="userSpaceOnUse" x="0" y="0" width="564" height="380">
<path d="M560 0H4C1.79086 0 0 1.79086 0 4V376C0 378.209 1.79086 380 4 380H560C562.209 380 564 378.209 564 376V4C564 1.79086 562.209 0 560 0Z" fill="white"/>
</mask>
<g mask="url(#mask0_15_1196)">
<path d="M560 0H4C1.79086 0 0 1.79086 0 4V376C0 378.209 1.79086 380 4 380H560C562.209 380 564 378.209 564 376V4C564 1.79086 562.209 0 560 0Z" fill="#F6F6F6"/>
<g clip-path="url(#clip1_15_1196)">
<path d="M458 77H106C103.791 77 102 78.7909 102 81V299C102 301.209 103.791 303 106 303H458C460.209 303 462 301.209 462 299V81C462 78.7909 460.209 77 458 77Z" fill="white"/>
<path d="M152 97H124C122.895 97 122 97.8954 122 99V127C122 128.105 122.895 129 124 129H152C153.105 129 154 128.105 154 127V99C154 97.8954 153.105 97 152 97Z" fill="#174784"/>
<mask id="mask1_15_1196" style="mask-type:luminance" maskUnits="userSpaceOnUse" x="130" y="105" width="16" height="16">
<path d="M146 105H130V121H146V105Z" fill="white"/>
</mask>
<g mask="url(#mask1_15_1196)">
<path d="M132.051 109.989L134.91 112.031C135.058 112.137 135.133 112.19 135.21 112.202C135.279 112.213 135.349 112.202 135.411 112.171C135.482 112.136 135.536 112.063 135.646 111.917L136.25 111.111C136.281 111.07 136.297 111.049 136.315 111.031C136.331 111.015 136.349 111.001 136.368 110.989C136.389 110.975 136.413 110.965 136.46 110.944L139.039 109.798C139.146 109.75 139.2 109.726 139.24 109.689C139.276 109.656 139.304 109.616 139.322 109.571C139.343 109.521 139.347 109.462 139.355 109.346L139.544 106.513M139 114L140.744 114.748C140.946 114.834 141.048 114.878 141.101 114.95C141.148 115.013 141.171 115.091 141.167 115.169C141.161 115.259 141.1 115.35 140.978 115.534L140.158 116.763C140.101 116.849 140.072 116.893 140.033 116.924C140 116.952 139.961 116.973 139.919 116.986C139.871 117 139.819 117 139.715 117H138.385C138.246 117 138.177 117 138.118 116.977C138.066 116.957 138.02 116.923 137.985 116.881C137.944 116.832 137.922 116.767 137.879 116.635L137.403 115.21C137.378 115.132 137.365 115.094 137.361 115.054C137.358 115.02 137.361 114.984 137.369 114.95C137.378 114.912 137.396 114.875 137.432 114.803L137.793 114.081C137.867 113.934 137.903 113.86 137.96 113.815C138.01 113.775 138.07 113.75 138.133 113.743C138.206 113.735 138.283 113.761 138.439 113.813L139 114ZM144.667 113C144.667 116.682 141.682 119.667 138 119.667C134.318 119.667 131.333 116.682 131.333 113C131.333 109.318 134.318 106.333 138 106.333C141.682 106.333 144.667 109.318 144.667 113Z" stroke="white" stroke-width="1.25" stroke-linecap="round" stroke-linejoin="round"/>
</g>
<path d="M167.134 118V108.004H168.996V118H167.134ZM172.901 110.888V112.092C173.237 111.28 174.063 110.72 175.141 110.72C176.765 110.72 177.745 111.728 177.745 113.436V118H175.953V113.856C175.953 112.722 175.463 112.134 174.525 112.134C173.629 112.134 172.929 112.708 172.929 114.136V118H171.137V110.888H172.901ZM183.528 116.53V117.902C182.968 118.07 182.548 118.112 182.114 118.112C180.63 118.112 179.902 117.482 179.902 116.054V112.176H178.922V110.888H179.902V109.11H181.68V110.888H183.374V112.176H181.666V115.774C181.666 116.446 181.988 116.67 182.59 116.67C182.856 116.67 183.136 116.642 183.528 116.53ZM191.337 115.788C191.029 117.314 189.755 118.168 188.131 118.168C186.059 118.168 184.533 116.782 184.533 114.458C184.533 112.134 186.087 110.72 188.089 110.72C190.315 110.72 191.379 112.414 191.379 114.304V114.878H186.269C186.381 116.138 187.025 116.852 188.131 116.852C188.943 116.852 189.447 116.474 189.685 115.788H191.337ZM188.089 112.05C187.151 112.05 186.521 112.624 186.325 113.716H189.671C189.671 112.834 189.167 112.05 188.089 112.05ZM197.472 110.818V112.47C197.262 112.428 197.01 112.414 196.786 112.414C195.694 112.414 194.784 113.17 194.784 114.71V118H192.992V110.888H194.756V112.484C195.092 111.378 195.918 110.762 196.94 110.762C197.122 110.762 197.318 110.776 197.472 110.818ZM200.524 110.888V112.092C200.86 111.28 201.686 110.72 202.764 110.72C204.388 110.72 205.368 111.728 205.368 113.436V118H203.576V113.856C203.576 112.722 203.086 112.134 202.148 112.134C201.252 112.134 200.552 112.708 200.552 114.136V118H198.76V110.888H200.524ZM211.725 118C211.655 117.608 211.627 117.23 211.627 116.88C211.291 117.692 210.395 118.154 209.261 118.154C207.875 118.154 206.867 117.384 206.867 116.096C206.867 114.668 207.987 114.08 209.429 113.912L211.557 113.674V113.338C211.557 112.47 211.025 112.05 210.213 112.05C209.429 112.05 208.953 112.484 208.897 113.142H207.175C207.329 111.616 208.519 110.72 210.269 110.72C212.201 110.72 213.307 111.63 213.307 113.478V116.222C213.307 116.88 213.335 117.426 213.447 118H211.725ZM209.751 116.908C210.675 116.908 211.557 116.362 211.557 115.242V114.808L209.975 114.99C209.219 115.088 208.645 115.256 208.645 115.998C208.645 116.558 209.037 116.908 209.751 116.908ZM219.106 116.53V117.902C218.546 118.07 218.126 118.112 217.692 118.112C216.208 118.112 215.48 117.482 215.48 116.054V112.176H214.5V110.888H215.48V109.11H217.258V110.888H218.952V112.176H217.244V115.774C217.244 116.446 217.566 116.67 218.168 116.67C218.434 116.67 218.714 116.642 219.106 116.53ZM220.641 109.684V107.934H222.545V109.684H220.641ZM220.697 118V110.888H222.489V118H220.697ZM231.298 114.444C231.298 116.754 229.8 118.168 227.7 118.168C225.6 118.168 224.102 116.754 224.102 114.444C224.102 112.148 225.6 110.72 227.7 110.72C229.8 110.72 231.298 112.148 231.298 114.444ZM225.894 114.444C225.894 115.942 226.538 116.838 227.7 116.838C228.848 116.838 229.506 115.942 229.506 114.444C229.506 112.96 228.848 112.05 227.7 112.05C226.538 112.05 225.894 112.96 225.894 114.444ZM234.666 110.888V112.092C235.002 111.28 235.828 110.72 236.906 110.72C238.53 110.72 239.51 111.728 239.51 113.436V118H237.718V113.856C237.718 112.722 237.228 112.134 236.29 112.134C235.394 112.134 234.694 112.708 234.694 114.136V118H232.902V110.888H234.666ZM245.867 118C245.797 117.608 245.769 117.23 245.769 116.88C245.433 117.692 244.537 118.154 243.403 118.154C242.017 118.154 241.009 117.384 241.009 116.096C241.009 114.668 242.129 114.08 243.571 113.912L245.699 113.674V113.338C245.699 112.47 245.167 112.05 244.355 112.05C243.571 112.05 243.095 112.484 243.039 113.142H241.317C241.471 111.616 242.661 110.72 244.411 110.72C246.343 110.72 247.449 111.63 247.449 113.478V116.222C247.449 116.88 247.477 117.426 247.589 118H245.867ZM243.893 116.908C244.817 116.908 245.699 116.362 245.699 115.242V114.808L244.117 114.99C243.361 115.088 242.787 115.256 242.787 115.998C242.787 116.558 243.179 116.908 243.893 116.908ZM251.274 118H249.482V107.696H251.274V118ZM260.418 114.318H258.094V118H256.274V108.004H260.404C262.77 108.004 264.142 109.082 264.142 111.168C264.142 113.254 262.77 114.318 260.418 114.318ZM258.094 112.862H260.25C261.622 112.862 262.308 112.302 262.308 111.168C262.308 110.02 261.622 109.474 260.25 109.474H258.094V112.862ZM269.813 118C269.743 117.608 269.715 117.23 269.715 116.88C269.379 117.692 268.483 118.154 267.349 118.154C265.963 118.154 264.955 117.384 264.955 116.096C264.955 114.668 266.075 114.08 267.517 113.912L269.645 113.674V113.338C269.645 112.47 269.113 112.05 268.301 112.05C267.517 112.05 267.041 112.484 266.985 113.142H265.263C265.417 111.616 266.607 110.72 268.357 110.72C270.289 110.72 271.395 111.63 271.395 113.478V116.222C271.395 116.88 271.423 117.426 271.535 118H269.813ZM267.839 116.908C268.763 116.908 269.645 116.362 269.645 115.242V114.808L268.063 114.99C267.307 115.088 266.733 115.256 266.733 115.998C266.733 116.558 267.125 116.908 267.839 116.908ZM275.292 117.986L272.52 110.888H274.34L276.314 116.25H276.342L278.218 110.888H279.996L277.224 118.126C276.552 119.904 275.726 120.59 274.228 120.604C273.99 120.604 273.654 120.576 273.402 120.534V119.176C273.612 119.218 273.724 119.218 273.878 119.218C274.606 119.218 274.914 118.966 275.292 117.986ZM287.747 114.444C287.747 116.754 286.249 118.168 284.149 118.168C282.049 118.168 280.551 116.754 280.551 114.444C280.551 112.148 282.049 110.72 284.149 110.72C286.249 110.72 287.747 112.148 287.747 114.444ZM282.343 114.444C282.343 115.942 282.987 116.838 284.149 116.838C285.297 116.838 285.955 115.942 285.955 114.444C285.955 112.96 285.297 112.05 284.149 112.05C282.987 112.05 282.343 112.96 282.343 114.444ZM295.791 118H294.027V116.81C293.691 117.622 292.879 118.168 291.815 118.168C290.219 118.168 289.281 117.188 289.281 115.466V110.888H291.087V115.074C291.087 116.208 291.535 116.782 292.459 116.782C293.327 116.782 293.985 116.18 293.985 114.752V110.888H295.791V118ZM301.66 116.53V117.902C301.1 118.07 300.68 118.112 300.246 118.112C298.762 118.112 298.034 117.482 298.034 116.054V112.176H297.054V110.888H298.034V109.11H299.812V110.888H301.506V112.176H299.798V115.774C299.798 116.446 300.12 116.67 300.722 116.67C300.988 116.67 301.268 116.642 301.66 116.53Z" fill="#181B25"/>
<path d="M136.952 165.104C136.952 168.032 134.432 170 131 170.216V172.616H129.248V170.192C125.792 169.88 123.2 168.104 122.936 164.84H125.864C126.032 166.712 127.496 167.624 129.248 167.864V162.56L128 162.344C125.504 161.888 123.464 160.712 123.464 157.712C123.464 154.832 125.864 152.816 129.248 152.624V150.344H131V152.648C134.336 152.984 136.328 154.712 136.64 157.544H133.76C133.592 156.128 132.608 155.312 131 155.048V160.16L132.536 160.448C135.296 160.976 136.952 162.368 136.952 165.104ZM129.032 159.776L129.248 159.824V155C127.4 155.168 126.344 156.152 126.344 157.52C126.344 158.936 127.16 159.416 129.032 159.776ZM131.288 162.944L131 162.896V167.912C132.92 167.72 134.072 166.808 134.072 165.32C134.072 164.072 133.4 163.328 131.288 162.944ZM138.414 157.496V155.384C141.342 155.384 142.494 154.592 142.902 152.816H145.086V170H141.918V157.496H138.414ZM154.645 160.856C153.133 160.856 152.125 161.6 151.597 162.44H148.741L149.725 152.864H159.997V155.384H152.005L151.549 159.848C152.197 159.128 153.541 158.456 155.149 158.456C158.701 158.456 160.981 161 160.981 164.36C160.981 167.672 158.605 170.288 154.645 170.288C150.781 170.288 148.309 168.104 148.045 164.792H151.213C151.357 166.592 152.629 167.888 154.645 167.888C156.853 167.888 157.933 166.256 157.933 164.384C157.933 162.488 156.877 160.856 154.645 160.856ZM163.158 169.904V166.424H166.734V170.24C166.734 172.64 165.174 174.008 162.63 174.008V172.352C163.926 172.352 164.79 171.896 164.79 170.24V169.904H163.158ZM168.562 161.432C168.562 156.296 171.394 152.576 175.858 152.576C180.322 152.576 183.13 156.296 183.13 161.432C183.13 166.568 180.322 170.288 175.858 170.288C171.394 170.288 168.562 166.568 168.562 161.432ZM171.778 161.432C171.778 165.32 173.122 167.792 175.858 167.792C178.57 167.792 179.914 165.32 179.914 161.432C179.914 157.544 178.57 155.072 175.858 155.072C173.122 155.072 171.778 157.544 171.778 161.432ZM184.984 161.432C184.984 156.296 187.816 152.576 192.28 152.576C196.744 152.576 199.552 156.296 199.552 161.432C199.552 166.568 196.744 170.288 192.28 170.288C187.816 170.288 184.984 166.568 184.984 161.432ZM188.2 161.432C188.2 165.32 189.544 167.792 192.28 167.792C194.992 167.792 196.336 165.32 196.336 161.432C196.336 157.544 194.992 155.072 192.28 155.072C189.544 155.072 188.2 157.544 188.2 161.432ZM201.405 161.432C201.405 156.296 204.237 152.576 208.701 152.576C213.165 152.576 215.973 156.296 215.973 161.432C215.973 166.568 213.165 170.288 208.701 170.288C204.237 170.288 201.405 166.568 201.405 161.432ZM204.621 161.432C204.621 165.32 205.965 167.792 208.701 167.792C211.413 167.792 212.757 165.32 212.757 161.432C212.757 157.544 211.413 155.072 208.701 155.072C205.965 155.072 204.621 157.544 204.621 161.432ZM217.804 170V166.424H221.38V170H217.804ZM223.208 161.432C223.208 156.296 226.04 152.576 230.504 152.576C234.968 152.576 237.776 156.296 237.776 161.432C237.776 166.568 234.968 170.288 230.504 170.288C226.04 170.288 223.208 166.568 223.208 161.432ZM226.424 161.432C226.424 165.32 227.768 167.792 230.504 167.792C233.216 167.792 234.56 165.32 234.56 161.432C234.56 157.544 233.216 155.072 230.504 155.072C227.768 155.072 226.424 157.544 226.424 161.432ZM239.63 161.432C239.63 156.296 242.462 152.576 246.926 152.576C251.39 152.576 254.198 156.296 254.198 161.432C254.198 166.568 251.39 170.288 246.926 170.288C242.462 170.288 239.63 166.568 239.63 161.432ZM242.846 161.432C242.846 165.32 244.19 167.792 246.926 167.792C249.638 167.792 250.982 165.32 250.982 161.432C250.982 157.544 249.638 155.072 246.926 155.072C244.19 155.072 242.846 157.544 242.846 161.432Z" fill="#181B25"/>
<path d="M123.302 204V194.004H124.506V204H123.302ZM128.124 196.958V198.246C128.46 197.378 129.342 196.79 130.42 196.79C132.002 196.79 132.94 197.784 132.94 199.464V204H131.778V199.716C131.778 198.414 131.204 197.742 130.098 197.742C129.02 197.742 128.166 198.428 128.166 200.122V204H127.004V196.958H128.124ZM135.203 195.488V194.074H136.519V195.488H135.203ZM135.287 204V196.958H136.449V204H135.287ZM142.144 202.964V203.916C141.626 204.07 141.22 204.112 140.912 204.112C139.624 204.112 138.966 203.496 138.966 202.194V197.84H137.93V196.958H138.966V195.166H140.114V196.958H141.962V197.84H140.1V202.138C140.1 202.88 140.478 203.132 141.122 203.132C141.388 203.132 141.696 203.104 142.144 202.964ZM143.882 195.488V194.074H145.198V195.488H143.882ZM143.966 204V196.958H145.128V204H143.966ZM151.858 204C151.774 203.608 151.732 203.146 151.732 202.81C151.424 203.636 150.458 204.154 149.282 204.154C148.05 204.154 147 203.44 147 202.138C147 200.78 148.008 200.192 149.436 200.024L151.704 199.73V199.324C151.704 198.204 151.018 197.728 150.052 197.728C149.114 197.728 148.526 198.218 148.442 199.03H147.322C147.462 197.602 148.582 196.79 150.08 196.79C151.788 196.79 152.852 197.602 152.852 199.296V202.53C152.852 203.048 152.88 203.538 153.02 204H151.858ZM149.52 203.272C150.612 203.272 151.704 202.586 151.704 201.228V200.598L149.786 200.808C148.904 200.934 148.176 201.158 148.176 202.11C148.176 202.768 148.638 203.272 149.52 203.272ZM158.477 202.964V203.916C157.959 204.07 157.553 204.112 157.245 204.112C155.957 204.112 155.299 203.496 155.299 202.194V197.84H154.263V196.958H155.299V195.166H156.447V196.958H158.295V197.84H156.433V202.138C156.433 202.88 156.811 203.132 157.455 203.132C157.721 203.132 158.029 203.104 158.477 202.964ZM165.999 201.928C165.677 203.426 164.459 204.168 163.087 204.168C161.099 204.168 159.699 202.782 159.699 200.514C159.699 198.218 161.141 196.79 163.017 196.79C165.103 196.79 166.041 198.456 166.041 200.262V200.724H160.833C160.889 202.348 161.743 203.244 163.087 203.244C164.039 203.244 164.613 202.782 164.907 201.928H165.999ZM163.017 197.728C161.911 197.728 161.071 198.442 160.875 199.884H164.907C164.879 198.666 164.277 197.728 163.017 197.728ZM172.951 204V202.768C172.601 203.482 171.733 204.168 170.571 204.168C168.779 204.168 167.435 202.712 167.435 200.486C167.435 198.246 168.779 196.79 170.571 196.79C171.789 196.79 172.587 197.49 172.909 198.204V193.696H174.071V204H172.951ZM172.965 200.57V200.374C172.965 198.778 172.181 197.7 170.809 197.7C169.423 197.7 168.611 198.834 168.611 200.486C168.611 202.124 169.423 203.258 170.809 203.258C172.181 203.258 172.965 202.166 172.965 200.57Z" fill="#36373A"/>
<path d="M384.654 196.706V195.474C386.362 195.474 387.034 195.012 387.272 193.976H388.546V204H386.698V196.706H384.654ZM397.594 196.86C397.594 198.68 396.194 199.52 394.556 200.444C393.31 201.172 392.414 201.816 392.386 202.53H397.65V204H390.356V203.286C390.356 201.34 392.064 200.136 393.562 199.24C394.948 198.4 395.844 197.826 395.844 196.846C395.844 195.992 395.34 195.278 394.164 195.278C393.016 195.278 392.344 196.16 392.274 197.196H390.496C390.622 195.348 391.91 193.836 394.178 193.836C396.32 193.836 397.594 195.18 397.594 196.86ZM399.367 199.45V197.364H401.453V199.45H399.367ZM399.367 204V201.914H401.453V204H399.367ZM403.038 196.706V195.474C404.746 195.474 405.418 195.012 405.656 193.976H406.93V204H405.082V196.706H403.038ZM412.645 198.666C411.763 198.666 411.175 199.1 410.867 199.59H409.201L409.775 194.004H415.767V195.474H411.105L410.839 198.078C411.217 197.658 412.001 197.266 412.939 197.266C415.011 197.266 416.341 198.75 416.341 200.71C416.341 202.642 414.955 204.168 412.645 204.168C410.391 204.168 408.949 202.894 408.795 200.962H410.643C410.727 202.012 411.469 202.768 412.645 202.768C413.933 202.768 414.563 201.816 414.563 200.724C414.563 199.618 413.947 198.666 412.645 198.666ZM425.036 200.318H422.712V204H420.892V194.004H425.022C427.388 194.004 428.76 195.082 428.76 197.168C428.76 199.254 427.388 200.318 425.036 200.318ZM422.712 198.862H424.868C426.24 198.862 426.926 198.302 426.926 197.168C426.926 196.02 426.24 195.474 424.868 195.474H422.712V198.862ZM436.205 204H434.861L432.005 196.146H431.977V204H430.269V194.004H432.901L435.589 201.522H435.617L438.305 194.004H440.853V204H439.075V196.146H439.047L436.205 204Z" fill="#181B25"/>
<path d="M442 217H122V218H442V217Z" fill="#F6F6F6"/>
<path d="M123.932 235.988C123.932 238.48 125.122 240.146 127.18 240.146C128.86 240.146 129.588 239.208 129.812 238.088H130.988C130.666 239.908 129.364 241.168 127.18 241.168C124.604 241.168 122.7 239.138 122.7 235.988C122.7 232.852 124.604 230.836 127.18 230.836C129.364 230.836 130.666 232.096 130.988 233.916H129.812C129.588 232.796 128.86 231.858 127.18 231.858C125.122 231.858 123.932 233.496 123.932 235.988ZM138.57 241H137.436V239.726C137.1 240.608 136.26 241.168 135.196 241.168C133.6 241.168 132.704 240.202 132.704 238.494V233.958H133.88V238.27C133.88 239.572 134.426 240.258 135.532 240.258C136.596 240.258 137.394 239.53 137.394 237.836V233.958H138.57V241ZM144.895 233.86V234.924C144.727 234.882 144.475 234.868 144.293 234.868C143.173 234.868 142.151 235.75 142.151 237.528V241H140.989V233.958H142.109V235.624C142.417 234.462 143.313 233.804 144.349 233.804C144.531 233.804 144.727 233.818 144.895 233.86ZM150.212 233.86V234.924C150.044 234.882 149.792 234.868 149.61 234.868C148.49 234.868 147.468 235.75 147.468 237.528V241H146.306V233.958H147.426V235.624C147.734 234.462 148.63 233.804 149.666 233.804C149.848 233.804 150.044 233.818 150.212 233.86ZM157.268 238.928C156.946 240.426 155.728 241.168 154.356 241.168C152.368 241.168 150.968 239.782 150.968 237.514C150.968 235.218 152.41 233.79 154.286 233.79C156.372 233.79 157.31 235.456 157.31 237.262V237.724H152.102C152.158 239.348 153.012 240.244 154.356 240.244C155.308 240.244 155.882 239.782 156.176 238.928H157.268ZM154.286 234.728C153.18 234.728 152.34 235.442 152.144 236.884H156.176C156.148 235.666 155.546 234.728 154.286 234.728ZM160.329 233.958V235.246C160.665 234.378 161.547 233.79 162.625 233.79C164.207 233.79 165.145 234.784 165.145 236.464V241H163.983V236.716C163.983 235.414 163.409 234.742 162.303 234.742C161.225 234.742 160.371 235.428 160.371 237.122V241H159.209V233.958H160.329ZM166.974 237.486C166.974 235.232 168.332 233.79 170.292 233.79C171.86 233.79 172.896 234.686 173.12 236.184H172.014C171.818 235.246 171.244 234.728 170.292 234.728C168.906 234.728 168.122 235.834 168.122 237.486C168.122 239.138 168.906 240.23 170.292 240.23C171.244 240.23 171.818 239.712 172.014 238.774H173.12C172.896 240.286 171.86 241.168 170.292 241.168C168.332 241.168 166.974 239.74 166.974 237.486ZM176.793 241.056L173.965 233.958H175.183L177.423 239.712H177.451L179.565 233.958H180.769L177.927 241.21C177.283 242.89 176.723 243.59 175.435 243.604C175.239 243.604 174.973 243.576 174.749 243.534V242.582C174.973 242.638 175.127 242.638 175.309 242.638C176.009 242.638 176.331 242.246 176.793 241.056Z" fill="#36373A"/>
<path d="M412.855 235.988C412.855 232.908 414.829 230.836 417.685 230.836C420.093 230.836 421.465 232.152 421.857 234.126H420.023C419.785 233.006 419.029 232.306 417.685 232.306C415.823 232.306 414.745 233.72 414.745 235.988C414.745 238.27 415.795 239.698 417.657 239.698C419.127 239.698 420.135 238.83 420.135 237.598V237.248H418.203V235.904H421.983V241H420.541L420.415 239.572C420.051 240.524 418.777 241.168 417.545 241.168C414.745 241.168 412.855 239.082 412.855 235.988ZM428.391 241H424.009V231.004H428.027C430.365 231.004 431.639 231.942 431.639 233.734C431.639 234.616 430.939 235.582 430.127 235.82C431.219 236.114 432.045 236.996 432.045 238.158C432.045 240.034 430.701 241 428.391 241ZM425.829 235.232H428.013C429.259 235.232 429.847 234.672 429.847 233.804C429.847 232.894 429.245 232.376 428.027 232.376H425.829V235.232ZM425.829 236.562V239.628H428.251C429.539 239.628 430.211 239.054 430.211 238.088C430.211 237.15 429.525 236.562 428.237 236.562H425.829ZM437.831 237.318H435.507V241H433.687V231.004H437.817C440.183 231.004 441.555 232.082 441.555 234.168C441.555 236.254 440.183 237.318 437.831 237.318ZM435.507 235.862H437.663C439.035 235.862 439.721 235.302 439.721 234.168C439.721 233.02 439.035 232.474 437.663 232.474H435.507V235.862Z" fill="#1CBA6B"/>
<path d="M442 254H122V255H442V254Z" fill="#F6F6F6"/>
<path d="M122.658 275.046H123.82C123.974 276.656 125.29 277.202 126.774 277.202C128.202 277.202 129.252 276.516 129.252 275.312C129.252 274.472 128.79 273.926 127.432 273.674L125.528 273.296C124.184 273.044 122.98 272.428 122.98 270.706C122.98 269.068 124.394 267.836 126.466 267.836C128.608 267.836 130.022 268.76 130.218 270.566H129.056C128.888 269.446 127.908 268.802 126.48 268.802C125.024 268.802 124.156 269.614 124.156 270.664C124.156 271.658 124.716 272.008 125.934 272.246L127.894 272.652C129.434 272.96 130.414 273.674 130.414 275.256C130.414 276.964 128.902 278.168 126.788 278.168C124.618 278.168 122.798 277.23 122.658 275.046ZM138.173 275.928C137.851 277.426 136.633 278.168 135.261 278.168C133.273 278.168 131.873 276.782 131.873 274.514C131.873 272.218 133.315 270.79 135.191 270.79C137.277 270.79 138.215 272.456 138.215 274.262V274.724H133.007C133.063 276.348 133.917 277.244 135.261 277.244C136.213 277.244 136.787 276.782 137.081 275.928H138.173ZM135.191 271.728C134.085 271.728 133.245 272.442 133.049 273.884H137.081C137.053 272.666 136.451 271.728 135.191 271.728ZM141.234 270.958V272.246C141.57 271.378 142.452 270.79 143.53 270.79C145.112 270.79 146.05 271.784 146.05 273.464V278H144.888V273.716C144.888 272.414 144.314 271.742 143.208 271.742C142.13 271.742 141.276 272.428 141.276 274.122V278H140.114V270.958H141.234ZM151.674 276.964V277.916C151.156 278.07 150.75 278.112 150.442 278.112C149.154 278.112 148.496 277.496 148.496 276.194V271.84H147.46V270.958H148.496V269.166H149.644V270.958H151.492V271.84H149.63V276.138C149.63 276.88 150.008 277.132 150.652 277.132C150.918 277.132 151.226 277.104 151.674 276.964Z" fill="#36373A"/>
<path d="M394.479 276.53V278H386.793V276.53H386.975C387.745 276.53 388.291 275.802 388.291 274.402C388.291 274.276 388.277 274.164 388.263 274.052H386.947V272.764H387.843C387.605 272.204 387.367 271.616 387.367 270.86C387.367 269.306 388.697 267.836 390.825 267.836C393.149 267.836 394.241 269.334 394.367 271.182H392.645C392.575 270.16 392.085 269.264 390.825 269.264C389.733 269.264 389.145 270.048 389.145 270.888C389.145 271.574 389.453 272.12 389.705 272.764H392.183V274.052H389.999C390.013 274.136 390.013 274.22 390.013 274.304C390.013 275.158 389.719 275.97 389.117 276.53H394.479ZM395.41 270.706V269.474C397.118 269.474 397.79 269.012 398.028 267.976H399.302V278H397.454V270.706H395.41ZM405.018 272.666C404.136 272.666 403.548 273.1 403.24 273.59H401.574L402.148 268.004H408.14V269.474H403.478L403.212 272.078C403.59 271.658 404.374 271.266 405.312 271.266C407.384 271.266 408.714 272.75 408.714 274.71C408.714 276.642 407.328 278.168 405.018 278.168C402.764 278.168 401.322 276.894 401.168 274.962H403.016C403.1 276.012 403.842 276.768 405.018 276.768C406.306 276.768 406.936 275.816 406.936 274.724C406.936 273.618 406.32 272.666 405.018 272.666ZM410.124 277.944V275.914H412.21V278.14C412.21 279.54 411.3 280.338 409.816 280.338V279.372C410.572 279.372 411.076 279.106 411.076 278.14V277.944H410.124ZM413.417 273.002C413.417 270.006 415.069 267.836 417.673 267.836C420.277 267.836 421.915 270.006 421.915 273.002C421.915 275.998 420.277 278.168 417.673 278.168C415.069 278.168 413.417 275.998 413.417 273.002ZM415.293 273.002C415.293 275.27 416.077 276.712 417.673 276.712C419.255 276.712 420.039 275.27 420.039 273.002C420.039 270.734 419.255 269.292 417.673 269.292C416.077 269.292 415.293 270.734 415.293 273.002ZM423.136 273.002C423.136 270.006 424.788 267.836 427.392 267.836C429.996 267.836 431.634 270.006 431.634 273.002C431.634 275.998 429.996 278.168 427.392 278.168C424.788 278.168 423.136 275.998 423.136 273.002ZM425.012 273.002C425.012 275.27 425.796 276.712 427.392 276.712C428.974 276.712 429.758 275.27 429.758 273.002C429.758 270.734 428.974 269.292 427.392 269.292C425.796 269.292 425.012 270.734 425.012 273.002ZM432.855 273.002C432.855 270.006 434.507 267.836 437.111 267.836C439.715 267.836 441.353 270.006 441.353 273.002C441.353 275.998 439.715 278.168 437.111 278.168C434.507 278.168 432.855 275.998 432.855 273.002ZM434.731 273.002C434.731 275.27 435.515 276.712 437.111 276.712C438.693 276.712 439.477 275.27 439.477 273.002C439.477 270.734 438.693 269.292 437.111 269.292C435.515 269.292 434.731 270.734 434.731 273.002Z" fill="#181B25"/>
</g>
</g>
</g>
<defs>
<clipPath id="clip0_15_1196">
<rect width="564" height="380" fill="white"/>
</clipPath>
<clipPath id="clip1_15_1196">
<rect width="360" height="226" fill="white" transform="translate(102 77)"/>
</clipPath>
</defs>
</svg>
