<svg width="564" height="380" viewBox="0 0 564 380" fill="none" xmlns="http://www.w3.org/2000/svg">
<g clip-path="url(#clip0_15_1264)">
<mask id="mask0_15_1264" style="mask-type:luminance" maskUnits="userSpaceOnUse" x="0" y="0" width="564" height="380">
<path d="M560 0H4C1.79086 0 0 1.79086 0 4V376C0 378.209 1.79086 380 4 380H560C562.209 380 564 378.209 564 376V4C564 1.79086 562.209 0 560 0Z" fill="white"/>
</mask>
<g mask="url(#mask0_15_1264)">
<path d="M560 0H4C1.79086 0 0 1.79086 0 4V376C0 378.209 1.79086 380 4 380H560C562.209 380 564 378.209 564 376V4C564 1.79086 562.209 0 560 0Z" fill="#F6F6F6"/>
</g>
<g clip-path="url(#clip1_15_1264)">
<path d="M448 89H116C113.791 89 112 90.7909 112 93V130C112 132.209 113.791 134 116 134H448C450.209 134 452 132.209 452 130V93C452 90.7909 450.209 89 448 89Z" fill="white"/>
<path d="M129.329 117.047V108.08H125.56V106.534H135.057V108.08H131.273V117.047H129.329ZM141.875 114.721C141.551 116.326 140.211 117.224 138.503 117.224C136.324 117.224 134.719 115.766 134.719 113.322C134.719 110.878 136.353 109.391 138.459 109.391C140.8 109.391 141.919 111.172 141.919 113.16V113.764H136.545C136.662 115.089 137.34 115.84 138.503 115.84C139.357 115.84 139.887 115.442 140.137 114.721H141.875ZM138.459 110.79C137.472 110.79 136.81 111.393 136.604 112.542H140.123C140.123 111.614 139.593 110.79 138.459 110.79ZM148.338 117.047C148.264 116.635 148.235 116.238 148.235 115.869C147.882 116.723 146.939 117.209 145.746 117.209C144.289 117.209 143.229 116.4 143.229 115.045C143.229 113.543 144.407 112.925 145.923 112.748L148.161 112.498V112.144C148.161 111.231 147.602 110.79 146.748 110.79C145.923 110.79 145.423 111.246 145.364 111.938H143.553C143.715 110.333 144.966 109.391 146.807 109.391C148.839 109.391 150.002 110.348 150.002 112.291V115.177C150.002 115.869 150.031 116.444 150.149 117.047H148.338ZM146.262 115.899C147.234 115.899 148.161 115.325 148.161 114.147V113.69L146.497 113.882C145.702 113.985 145.099 114.161 145.099 114.942C145.099 115.531 145.511 115.899 146.262 115.899ZM158.604 110.848C159.075 109.95 160.018 109.391 161.122 109.391C162.845 109.391 163.758 110.466 163.758 112.247V117.047H161.858V112.66C161.858 111.467 161.416 110.878 160.489 110.878C159.591 110.878 158.884 111.511 158.884 112.969V117.047H156.999V112.66C156.999 111.467 156.557 110.878 155.63 110.878C154.717 110.878 154.025 111.511 154.025 112.969V117.047H152.14V109.567H153.995V110.834C154.349 109.965 155.218 109.391 156.292 109.391C157.544 109.391 158.236 109.965 158.604 110.848ZM170.773 115.855V119.668H168.888V109.567H170.743V110.804C171.097 110.053 171.98 109.391 173.143 109.391C175.102 109.391 176.441 110.996 176.441 113.307C176.441 115.634 175.102 117.224 173.143 117.224C172.009 117.224 171.155 116.606 170.773 115.855ZM170.728 113.175V113.44C170.728 114.898 171.42 115.84 172.613 115.84C173.835 115.84 174.542 114.853 174.542 113.307C174.542 111.776 173.835 110.775 172.613 110.775C171.42 110.775 170.728 111.717 170.728 113.175ZM184.801 114.721C184.477 116.326 183.137 117.224 181.429 117.224C179.25 117.224 177.645 115.766 177.645 113.322C177.645 110.878 179.279 109.391 181.385 109.391C183.726 109.391 184.845 111.172 184.845 113.16V113.764H179.471C179.589 115.089 180.266 115.84 181.429 115.84C182.283 115.84 182.813 115.442 183.064 114.721H184.801ZM181.385 110.79C180.399 110.79 179.736 111.393 179.53 112.542H183.049C183.049 111.614 182.519 110.79 181.385 110.79ZM191.253 109.494V111.231C191.032 111.187 190.767 111.172 190.532 111.172C189.383 111.172 188.426 111.967 188.426 113.587V117.047H186.541V109.567H188.397V111.246C188.75 110.083 189.619 109.435 190.694 109.435C190.885 109.435 191.091 109.45 191.253 109.494ZM199.071 110.848C199.543 109.95 200.485 109.391 201.589 109.391C203.312 109.391 204.225 110.466 204.225 112.247V117.047H202.326V112.66C202.326 111.467 201.884 110.878 200.956 110.878C200.058 110.878 199.351 111.511 199.351 112.969V117.047H197.467V112.66C197.467 111.467 197.025 110.878 196.097 110.878C195.184 110.878 194.492 111.511 194.492 112.969V117.047H192.607V109.567H194.463V110.834C194.816 109.965 195.685 109.391 196.76 109.391C198.011 109.391 198.703 109.965 199.071 110.848ZM206.293 108.301V106.461H208.296V108.301H206.293ZM206.352 117.047V109.567H208.237V117.047H206.352ZM209.844 114.78H211.641C211.729 115.56 212.509 115.914 213.319 115.914C214.114 115.914 214.733 115.59 214.733 114.986C214.733 114.515 214.409 114.294 213.584 114.147L212.259 113.911C211.022 113.69 210.109 113.116 210.109 111.776C210.109 110.363 211.405 109.391 213.143 109.391C215.086 109.391 216.191 110.245 216.352 111.688H214.63C214.556 111.099 213.982 110.716 213.157 110.716C212.362 110.716 211.847 111.069 211.847 111.585C211.847 112.1 212.23 112.291 212.995 112.424L214.453 112.674C215.763 112.895 216.5 113.617 216.5 114.853C216.5 116.282 215.13 117.224 213.349 117.224C211.405 117.224 210.006 116.414 209.844 114.78ZM218.181 108.301V106.461H220.183V108.301H218.181ZM218.239 117.047V109.567H220.124V117.047H218.239ZM229.389 113.307C229.389 115.737 227.813 117.224 225.604 117.224C223.396 117.224 221.82 115.737 221.82 113.307C221.82 110.893 223.396 109.391 225.604 109.391C227.813 109.391 229.389 110.893 229.389 113.307ZM223.705 113.307C223.705 114.883 224.382 115.825 225.604 115.825C226.812 115.825 227.504 114.883 227.504 113.307C227.504 111.747 226.812 110.79 225.604 110.79C224.382 110.79 223.705 111.747 223.705 113.307ZM232.931 109.567V110.834C233.285 109.98 234.153 109.391 235.287 109.391C236.995 109.391 238.026 110.451 238.026 112.247V117.047H236.141V112.689C236.141 111.496 235.626 110.878 234.639 110.878C233.697 110.878 232.961 111.482 232.961 112.983V117.047H231.076V109.567H232.931ZM239.544 114.78H241.34C241.428 115.56 242.209 115.914 243.019 115.914C243.814 115.914 244.432 115.59 244.432 114.986C244.432 114.515 244.108 114.294 243.284 114.147L241.958 113.911C240.722 113.69 239.809 113.116 239.809 111.776C239.809 110.363 241.104 109.391 242.842 109.391C244.786 109.391 245.89 110.245 246.052 111.688H244.329C244.255 111.099 243.681 110.716 242.857 110.716C242.062 110.716 241.546 111.069 241.546 111.585C241.546 112.1 241.929 112.291 242.695 112.424L244.152 112.674C245.463 112.895 246.199 113.617 246.199 114.853C246.199 116.282 244.83 117.224 243.048 117.224C241.104 117.224 239.706 116.414 239.544 114.78Z" fill="#181B25"/>
<path d="M448 144H116C113.791 144 112 145.791 112 148V208.268C112 210.477 113.791 212.268 116 212.268H448C450.209 212.268 452 210.477 452 208.268V148C452 145.791 450.209 144 448 144Z" fill="white"/>
<path d="M168.223 177.464C168.223 165.636 158.634 156.047 146.806 156.047C134.978 156.047 125.389 165.636 125.389 177.464C125.389 189.293 134.978 198.881 146.806 198.881C158.634 198.881 168.223 189.293 168.223 177.464Z" fill="#163B6B"/>
<path d="M139.587 183.086H134.559V171.617H139.169C141.852 171.617 143.313 172.694 143.313 174.75C143.313 175.762 142.51 176.87 141.579 177.143C142.831 177.48 143.779 178.492 143.779 179.826C143.779 181.978 142.237 183.086 139.587 183.086ZM136.647 176.468H139.153C140.583 176.468 141.257 175.826 141.257 174.83C141.257 173.786 140.567 173.192 139.169 173.192H136.647V176.468ZM136.647 177.994V181.512H139.426C140.904 181.512 141.675 180.854 141.675 179.745C141.675 178.669 140.888 177.994 139.41 177.994H136.647ZM154.564 183.086L152.315 174.236H152.283L150.034 183.086H147.705L144.541 171.617H146.725L149.022 180.516H149.054L151.287 171.617H153.44L155.672 180.516H155.704L157.985 171.617H160.074L156.909 183.086H154.564Z" fill="white"/>
<path d="M184.731 183H180.123V172.487H184.348C186.807 172.487 188.147 173.473 188.147 175.358C188.147 176.286 187.411 177.302 186.557 177.552C187.706 177.861 188.574 178.789 188.574 180.011C188.574 181.984 187.161 183 184.731 183ZM182.037 176.933H184.334C185.644 176.933 186.263 176.345 186.263 175.432C186.263 174.475 185.629 173.93 184.348 173.93H182.037V176.933ZM182.037 178.332V181.557H184.584C185.939 181.557 186.645 180.953 186.645 179.937C186.645 178.951 185.924 178.332 184.569 178.332H182.037ZM194.954 175.446V177.184C194.733 177.14 194.468 177.125 194.233 177.125C193.084 177.125 192.127 177.92 192.127 179.54V183H190.242V175.52H192.098V177.199C192.451 176.035 193.32 175.387 194.395 175.387C194.586 175.387 194.792 175.402 194.954 175.446ZM196.25 174.254V172.413H198.252V174.254H196.25ZM196.308 183V175.52H198.193V183H196.308ZM204.365 181.454V182.897C203.776 183.074 203.335 183.118 202.878 183.118C201.317 183.118 200.552 182.455 200.552 180.953V176.875H199.521V175.52H200.552V173.65H202.422V175.52H204.203V176.875H202.407V180.659C202.407 181.366 202.746 181.601 203.379 181.601C203.659 181.601 203.953 181.572 204.365 181.454ZM210 181.454V182.897C209.411 183.074 208.969 183.118 208.513 183.118C206.952 183.118 206.186 182.455 206.186 180.953V176.875H205.156V175.52H206.186V173.65H208.056V175.52H209.838V176.875H208.042V180.659C208.042 181.366 208.38 181.601 209.013 181.601C209.293 181.601 209.588 181.572 210 181.454ZM216.238 183C216.164 182.588 216.135 182.19 216.135 181.822C215.782 182.676 214.839 183.162 213.647 183.162C212.189 183.162 211.129 182.352 211.129 180.997C211.129 179.496 212.307 178.877 213.823 178.7L216.061 178.45V178.097C216.061 177.184 215.502 176.742 214.648 176.742C213.823 176.742 213.323 177.199 213.264 177.891H211.453C211.615 176.286 212.866 175.343 214.707 175.343C216.739 175.343 217.902 176.3 217.902 178.244V181.13C217.902 181.822 217.931 182.396 218.049 183H216.238ZM214.162 181.851C215.134 181.851 216.061 181.277 216.061 180.099V179.643L214.398 179.834C213.602 179.937 212.999 180.114 212.999 180.894C212.999 181.483 213.411 181.851 214.162 181.851ZM221.895 175.52V176.786C222.249 175.932 223.118 175.343 224.251 175.343C225.959 175.343 226.99 176.403 226.99 178.2V183H225.105V178.642C225.105 177.449 224.59 176.83 223.604 176.83C222.661 176.83 221.925 177.434 221.925 178.936V183H220.04V175.52H221.895ZM231.101 182.985L228.186 175.52H230.1L232.176 181.159H232.205L234.178 175.52H236.048L233.133 183.132C232.426 185.002 231.557 185.724 229.982 185.739C229.732 185.739 229.378 185.709 229.113 185.665V184.237C229.334 184.281 229.452 184.281 229.614 184.281C230.38 184.281 230.703 184.016 231.101 182.985ZM248.699 183L246.638 174.887H246.608L244.547 183H242.412L239.511 172.487H241.514L243.619 180.644H243.649L245.696 172.487H247.669L249.715 180.644H249.745L251.836 172.487H253.75L250.849 183H248.699ZM259.15 183C259.076 182.588 259.047 182.19 259.047 181.822C258.693 182.676 257.751 183.162 256.558 183.162C255.101 183.162 254.041 182.352 254.041 180.997C254.041 179.496 255.219 178.877 256.735 178.7L258.973 178.45V178.097C258.973 177.184 258.414 176.742 257.56 176.742C256.735 176.742 256.235 177.199 256.176 177.891H254.365C254.526 176.286 255.778 175.343 257.619 175.343C259.651 175.343 260.814 176.3 260.814 178.244V181.13C260.814 181.822 260.843 182.396 260.961 183H259.15ZM257.074 181.851C258.046 181.851 258.973 181.277 258.973 180.099V179.643L257.309 179.834C256.514 179.937 255.911 180.114 255.911 180.894C255.911 181.483 256.323 181.851 257.074 181.851ZM264.837 183H262.952V172.163H264.837V183ZM272.261 183L269.802 179.834L268.933 180.673V183H267.048V172.163H268.933V178.73L272.113 175.52H274.278L271.112 178.642L274.425 183H272.261ZM282.142 180.673C281.818 182.278 280.478 183.177 278.77 183.177C276.591 183.177 274.986 181.719 274.986 179.275C274.986 176.83 276.62 175.343 278.726 175.343C281.067 175.343 282.186 177.125 282.186 179.113V179.716H276.812C276.929 181.042 277.607 181.793 278.77 181.793C279.624 181.793 280.154 181.395 280.404 180.673H282.142ZM278.726 176.742C277.739 176.742 277.077 177.346 276.87 178.494H280.39C280.39 177.567 279.859 176.742 278.726 176.742ZM288.594 175.446V177.184C288.373 177.14 288.108 177.125 287.872 177.125C286.724 177.125 285.767 177.92 285.767 179.54V183H283.882V175.52H285.737V177.199C286.091 176.035 286.959 175.387 288.034 175.387C288.226 175.387 288.432 175.402 288.594 175.446Z" fill="#181B25"/>
<path d="M401.768 184L400.605 181.07H395.569L394.406 184H393.14L397.395 173.487H398.823L403.093 184H401.768ZM398.072 174.753L395.982 180.024H400.193L398.117 174.753H398.072ZM409.779 184V182.704C409.411 183.455 408.498 184.177 407.276 184.177C405.391 184.177 403.977 182.645 403.977 180.304C403.977 177.948 405.391 176.417 407.276 176.417C408.557 176.417 409.396 177.153 409.735 177.904V173.163H410.957V184H409.779ZM409.793 180.392V180.186C409.793 178.508 408.969 177.374 407.526 177.374C406.068 177.374 405.214 178.567 405.214 180.304C405.214 182.027 406.068 183.22 407.526 183.22C408.969 183.22 409.793 182.071 409.793 180.392ZM419.265 178.007C419.721 177.006 420.664 176.417 421.753 176.417C423.461 176.417 424.3 177.492 424.3 179.229V184H423.064V179.494C423.064 178.11 422.563 177.418 421.459 177.418C420.354 177.418 419.515 178.213 419.515 179.921V184H418.278V179.494C418.278 178.11 417.792 177.418 416.673 177.418C415.554 177.418 414.715 178.213 414.715 179.921V184H413.493V176.594H414.671V177.948C415.024 177.006 415.937 176.417 417.012 176.417C418.263 176.417 418.941 177.021 419.265 178.007ZM426.66 175.048V173.56H428.044V175.048H426.66ZM426.748 184V176.594H427.971V184H426.748ZM431.677 176.594V177.948C432.031 177.035 432.958 176.417 434.092 176.417C435.756 176.417 436.742 177.462 436.742 179.229V184H435.52V179.494C435.52 178.125 434.917 177.418 433.753 177.418C432.62 177.418 431.721 178.14 431.721 179.921V184H430.499V176.594H431.677Z" fill="#181B25"/>
<path d="M448 222.268H116C113.791 222.268 112 224.059 112 226.268V286.536C112 288.745 113.791 290.536 116 290.536H448C450.209 290.536 452 288.745 452 286.536V226.268C452 224.059 450.209 222.268 448 222.268Z" fill="white"/>
<path d="M168.223 255.731C168.223 243.903 158.634 234.314 146.806 234.314C134.978 234.314 125.389 243.903 125.389 255.731C125.389 267.56 134.978 277.149 146.806 277.149C158.634 277.149 168.223 267.56 168.223 255.731Z" fill="#163B6B"/>
<path d="M135.898 257.884H137.954C138.099 259.442 139.448 259.972 140.877 259.972C142.243 259.972 143.303 259.362 143.303 258.205C143.303 257.37 142.805 256.904 141.424 256.647L139.319 256.262C137.633 255.957 136.267 255.153 136.267 253.146C136.267 251.106 138.066 249.692 140.572 249.692C143.303 249.692 144.941 250.881 145.166 253.033H143.158C143.014 251.909 142.018 251.282 140.588 251.282C139.207 251.282 138.34 252.005 138.34 253.017C138.34 253.965 138.934 254.27 140.171 254.511L142.387 254.945C144.267 255.298 145.391 256.23 145.391 258.077C145.391 260.165 143.48 261.547 140.942 261.547C138.211 261.547 136.107 260.406 135.898 257.884ZM146.675 255.603C146.675 252.069 148.94 249.692 152.217 249.692C154.98 249.692 156.554 251.202 157.004 253.467H154.9C154.626 252.182 153.759 251.379 152.217 251.379C150.081 251.379 148.844 253.001 148.844 255.603C148.844 258.221 150.049 259.86 152.185 259.86C153.872 259.86 155.028 258.864 155.028 257.45V257.049H152.811V255.507H157.148V261.354H155.494L155.349 259.715C154.932 260.808 153.47 261.547 152.056 261.547C148.844 261.547 146.675 259.153 146.675 255.603Z" fill="white"/>
<path d="M179.43 258.82H181.315C181.447 260.248 182.684 260.734 183.995 260.734C185.246 260.734 186.218 260.174 186.218 259.114C186.218 258.348 185.762 257.921 184.495 257.686L182.566 257.332C181.02 257.053 179.769 256.316 179.769 254.476C179.769 252.606 181.418 251.31 183.715 251.31C186.218 251.31 187.72 252.4 187.926 254.373H186.086C185.953 253.342 185.04 252.768 183.73 252.768C182.463 252.768 181.668 253.43 181.668 254.358C181.668 255.227 182.213 255.507 183.347 255.727L185.379 256.125C187.102 256.449 188.132 257.303 188.132 258.996C188.132 260.91 186.38 262.177 184.054 262.177C181.55 262.177 179.622 261.131 179.43 258.82ZM193.772 260.454V261.897C193.183 262.074 192.741 262.118 192.284 262.118C190.724 262.118 189.958 261.455 189.958 259.953V255.875H188.927V254.52H189.958V252.65H191.828V254.52H193.61V255.875H191.813V259.659C191.813 260.366 192.152 260.601 192.785 260.601C193.065 260.601 193.359 260.572 193.772 260.454ZM201.985 259.674C201.661 261.279 200.322 262.177 198.614 262.177C196.434 262.177 194.829 260.719 194.829 258.275C194.829 255.83 196.464 254.343 198.569 254.343C200.911 254.343 202.03 256.125 202.03 258.113V258.716H196.655C196.773 260.042 197.45 260.793 198.614 260.793C199.468 260.793 199.998 260.395 200.248 259.674H201.985ZM198.569 255.742C197.583 255.742 196.92 256.346 196.714 257.494H200.233C200.233 256.567 199.703 255.742 198.569 255.742ZM205.61 260.807V264.621H203.726V254.52H205.581V255.757C205.934 255.006 206.818 254.343 207.981 254.343C209.939 254.343 211.279 255.948 211.279 258.26C211.279 260.586 209.939 262.177 207.981 262.177C206.847 262.177 205.993 261.558 205.61 260.807ZM205.566 258.127V258.393C205.566 259.85 206.258 260.793 207.451 260.793C208.673 260.793 209.38 259.806 209.38 258.26C209.38 256.729 208.673 255.727 207.451 255.727C206.258 255.727 205.566 256.67 205.566 258.127ZM214.854 255.786C215.223 254.918 216.047 254.343 217.181 254.343C218.889 254.343 219.92 255.403 219.92 257.2V262H218.035V257.642C218.035 256.449 217.52 255.83 216.533 255.83C215.591 255.83 214.854 256.434 214.854 257.936V262H212.97V251.163H214.854V255.786ZM228.682 259.674C228.358 261.279 227.018 262.177 225.31 262.177C223.131 262.177 221.526 260.719 221.526 258.275C221.526 255.83 223.16 254.343 225.266 254.343C227.607 254.343 228.726 256.125 228.726 258.113V258.716H223.351C223.469 260.042 224.147 260.793 225.31 260.793C226.164 260.793 226.694 260.395 226.944 259.674H228.682ZM225.266 255.742C224.279 255.742 223.617 256.346 223.41 257.494H226.93C226.93 256.567 226.399 255.742 225.266 255.742ZM232.277 254.52V255.786C232.631 254.932 233.499 254.343 234.633 254.343C236.341 254.343 237.372 255.403 237.372 257.2V262H235.487V257.642C235.487 256.449 234.972 255.83 233.985 255.83C233.043 255.83 232.307 256.434 232.307 257.936V262H230.422V254.52H232.277ZM241.966 256.729C241.966 253.489 244.043 251.31 247.046 251.31C249.579 251.31 251.022 252.694 251.434 254.77H249.505C249.255 253.592 248.46 252.856 247.046 252.856C245.088 252.856 243.954 254.343 243.954 256.729C243.954 259.129 245.059 260.631 247.017 260.631C248.563 260.631 249.623 259.718 249.623 258.422V258.054H247.591V256.64H251.567V262H250.05L249.918 260.498C249.535 261.499 248.195 262.177 246.899 262.177C243.954 262.177 241.966 259.983 241.966 256.729ZM260.412 262H258.556V260.748C258.203 261.602 257.349 262.177 256.23 262.177C254.551 262.177 253.565 261.146 253.565 259.335V254.52H255.464V258.923C255.464 260.115 255.935 260.719 256.907 260.719C257.82 260.719 258.512 260.086 258.512 258.584V254.52H260.412V262ZM262.02 259.732H263.816C263.904 260.513 264.685 260.866 265.495 260.866C266.29 260.866 266.908 260.542 266.908 259.939C266.908 259.467 266.584 259.247 265.76 259.099L264.435 258.864C263.198 258.643 262.285 258.069 262.285 256.729C262.285 255.315 263.58 254.343 265.318 254.343C267.262 254.343 268.366 255.197 268.528 256.64H266.805C266.732 256.051 266.157 255.669 265.333 255.669C264.538 255.669 264.022 256.022 264.022 256.537C264.022 257.053 264.405 257.244 265.171 257.377L266.628 257.627C267.939 257.848 268.675 258.569 268.675 259.806C268.675 261.234 267.306 262.177 265.524 262.177C263.58 262.177 262.182 261.367 262.02 259.732ZM274.376 260.454V261.897C273.787 262.074 273.345 262.118 272.889 262.118C271.328 262.118 270.562 261.455 270.562 259.953V255.875H269.531V254.52H270.562V252.65H272.432V254.52H274.214V255.875H272.417V259.659C272.417 260.366 272.756 260.601 273.389 260.601C273.669 260.601 273.963 260.572 274.376 260.454ZM280.614 262C280.54 261.588 280.511 261.19 280.511 260.822C280.158 261.676 279.215 262.162 278.023 262.162C276.565 262.162 275.505 261.352 275.505 259.997C275.505 258.496 276.683 257.877 278.199 257.7L280.437 257.45V257.097C280.437 256.184 279.878 255.742 279.024 255.742C278.199 255.742 277.699 256.199 277.64 256.891H275.829C275.991 255.286 277.242 254.343 279.083 254.343C281.115 254.343 282.278 255.3 282.278 257.244V260.13C282.278 260.822 282.307 261.396 282.425 262H280.614ZM278.538 260.851C279.51 260.851 280.437 260.277 280.437 259.099V258.643L278.774 258.834C277.978 258.937 277.375 259.114 277.375 259.894C277.375 260.483 277.787 260.851 278.538 260.851ZM284.622 255.875H283.592V254.52H284.622V253.46C284.622 251.914 285.55 251.119 287.067 251.119C287.464 251.119 287.847 251.133 288.156 251.192V252.621C287.935 252.591 287.7 252.576 287.435 252.576C286.89 252.576 286.507 252.827 286.507 253.548V254.52H288.024V255.875H286.507V262H284.622V255.875ZM288.714 259.732H290.51C290.598 260.513 291.379 260.866 292.189 260.866C292.984 260.866 293.602 260.542 293.602 259.939C293.602 259.467 293.278 259.247 292.454 259.099L291.129 258.864C289.892 258.643 288.979 258.069 288.979 256.729C288.979 255.315 290.275 254.343 292.012 254.343C293.956 254.343 295.06 255.197 295.222 256.64H293.499C293.426 256.051 292.851 255.669 292.027 255.669C291.232 255.669 290.716 256.022 290.716 256.537C290.716 257.053 291.099 257.244 291.865 257.377L293.323 257.627C294.633 257.848 295.369 258.569 295.369 259.806C295.369 261.234 294 262.177 292.218 262.177C290.275 262.177 288.876 261.367 288.714 259.732ZM304.162 258.26C304.162 260.69 302.586 262.177 300.378 262.177C298.169 262.177 296.594 260.69 296.594 258.26C296.594 255.845 298.169 254.343 300.378 254.343C302.586 254.343 304.162 255.845 304.162 258.26ZM298.478 258.26C298.478 259.836 299.156 260.778 300.378 260.778C301.585 260.778 302.277 259.836 302.277 258.26C302.277 256.699 301.585 255.742 300.378 255.742C299.156 255.742 298.478 256.699 298.478 258.26ZM307.705 254.52V255.786C308.058 254.932 308.927 254.343 310.061 254.343C311.769 254.343 312.799 255.403 312.799 257.2V262H310.915V257.642C310.915 256.449 310.399 255.83 309.413 255.83C308.47 255.83 307.734 256.434 307.734 257.936V262H305.85V254.52H307.705Z" fill="#181B25"/>
<path d="M394.899 262L390.659 251.487H391.984L395.636 260.704H395.665L399.317 251.487H400.612L396.342 262H394.899ZM401.996 253.048V251.56H403.38V253.048H401.996ZM402.084 262V254.594H403.306V262H402.084ZM411.916 259.821C411.578 261.396 410.297 262.177 408.854 262.177C406.763 262.177 405.29 260.719 405.29 258.334C405.29 255.919 406.807 254.417 408.78 254.417C410.974 254.417 411.961 256.169 411.961 258.069V258.554H406.483C406.542 260.263 407.44 261.205 408.854 261.205C409.855 261.205 410.459 260.719 410.768 259.821H411.916ZM408.78 255.403C407.617 255.403 406.733 256.154 406.527 257.671H410.768C410.738 256.39 410.105 255.403 408.78 255.403ZM418.819 254.594L420.497 260.675H420.527L422.235 254.594H423.413L421.175 262H419.908L418.2 256.007H418.156L416.478 262H415.197L412.959 254.594H414.166L415.889 260.675H415.933L417.582 254.594H418.819ZM430.95 259.821C430.612 261.396 429.331 262.177 427.888 262.177C425.797 262.177 424.324 260.719 424.324 258.334C424.324 255.919 425.841 254.417 427.814 254.417C430.008 254.417 430.995 256.169 430.995 258.069V258.554H425.517C425.576 260.263 426.474 261.205 427.888 261.205C428.889 261.205 429.493 260.719 429.802 259.821H430.95ZM427.814 255.403C426.651 255.403 425.767 256.154 425.561 257.671H429.802C429.772 256.39 429.139 255.403 427.814 255.403ZM437.085 254.491V255.61C436.908 255.565 436.643 255.551 436.452 255.551C435.274 255.551 434.199 256.478 434.199 258.348V262H432.977V254.594H434.155V256.346C434.479 255.124 435.421 254.432 436.511 254.432C436.702 254.432 436.908 254.446 437.085 254.491Z" fill="#181B25"/>
</g>
</g>
<defs>
<clipPath id="clip0_15_1264">
<rect width="564" height="380" fill="white"/>
</clipPath>
<clipPath id="clip1_15_1264">
<rect width="340" height="202" fill="white" transform="translate(112 89)"/>
</clipPath>
</defs>
</svg>
